<svg preserveAspectRatio="none" width="100%" height="100%" overflow="visible" style="display: block;" viewBox="0 0 127 128" fill="none" xmlns="http://www.w3.org/2000/svg">
<g id="freepik--lymph-node-with-tumor--inject-128">
<path id="Vector" d="M25.9026 105.736C16.6104 101.677 7.32665 94.7416 3.28439 85.1978C-0.956903 75.3009 -1.09566 64.1251 2.89861 54.126C5.51518 47.7356 10.0774 42.3012 12.8617 35.9778C15.755 29.4364 17.0549 22.7189 21.4997 16.949C25.9563 11.2075 31.8862 6.78181 38.6584 4.1429C48.8395 0.134185 59.9431 2.08823 69.7469 6.44079C88.7338 14.8775 32.5866 108.68 25.9026 105.736Z" fill="var(--fill-0, #0061DF)"/>
<path id="Vector_2" opacity="0.3" d="M25.9026 105.736C16.6104 101.677 7.32665 94.7416 3.28439 85.1978C-0.956903 75.3009 -1.09566 64.1251 2.89861 54.126C5.51518 47.7356 10.0774 42.3012 12.8617 35.9778C15.755 29.4364 17.0549 22.7189 21.4997 16.949C25.9563 11.2075 31.8862 6.78181 38.6584 4.1429C48.8395 0.134185 59.9431 2.08823 69.7469 6.44079C88.7338 14.8775 32.5866 108.68 25.9026 105.736Z" fill="var(--fill-0, white)"/>
<path id="Vector_3" d="M23.4957 107.606C23.2897 107.738 23.0738 107.853 22.85 107.95C21.9526 108.353 20.9882 108.571 20.074 108.948C19.3646 109.207 18.7445 109.664 18.2877 110.265C17.8248 110.943 17.5107 111.711 17.3662 112.519C17.2216 113.327 17.2499 114.157 17.4491 114.953C17.6176 115.673 17.8827 116.367 18.2374 117.016C18.7524 117.757 19.0436 118.63 19.0761 119.532C18.9753 120.549 18.709 121.544 18.2877 122.475C18.0278 123.155 17.6755 123.943 17.4491 124.53C17.2227 125.117 17.2814 125.587 19.1264 126.333C19.8644 126.644 19.965 125.126 20.2502 124.371C21.4243 121.134 22.7661 117.964 24.2002 114.827C25.4227 112.282 26.4788 109.66 27.3619 106.977C27.5233 106.622 27.6109 106.237 27.6196 105.846C27.6282 105.456 27.5577 105.067 27.4122 104.705C27.1019 104.185 26.4981 103.866 25.9949 104.243C25.7339 104.509 25.5536 104.844 25.4749 105.208C25.3371 105.573 25.154 105.92 24.9298 106.239C24.5661 106.802 24.0747 107.27 23.4957 107.606Z" fill="var(--fill-0, #0061DF)"/>
<path id="Vector_4" d="M86.7881 4.43642C85.3768 5.00805 83.8965 5.39154 82.3852 5.57699C80.8924 5.89567 79.3409 6.49948 78.5358 7.791C78.0092 8.76177 77.8065 9.87538 77.9572 10.9695C78.0494 12.0681 78.301 13.1416 78.3681 14.2318C78.4312 14.7337 78.3588 15.2433 78.1584 15.7078C78.0513 15.8815 77.9587 16.0639 77.8817 16.2529C77.8124 16.5428 77.8552 16.848 78.0013 17.1077C78.1475 17.3674 78.3863 17.5623 78.67 17.6535C78.9544 17.7318 79.2527 17.7454 79.543 17.6932C79.8333 17.6409 80.1081 17.5242 80.3473 17.3516C80.9203 16.9225 81.4117 16.3942 81.7981 15.7917L89.782 4.83059C90.1941 4.25873 90.4982 3.61641 90.6794 2.93526C90.9294 2.24614 91.241 1.58094 91.6103 0.947675C91.6189 0.917529 91.6189 0.885569 91.6103 0.855423C91.6103 0.796718 91.5096 0.771559 91.4509 0.763172C91.1096 0.653854 90.7422 0.656763 90.4026 0.771464C90.063 0.886166 89.7691 1.10662 89.564 1.40054C89.2118 1.87856 88.9853 2.46562 88.6079 2.92687C88.1151 3.55326 87.4948 4.0678 86.7881 4.43642Z" fill="var(--fill-0, #0061DF)"/>
<path id="Vector_5" d="M92.0045 0.880583C91.8476 0.799676 91.6736 0.757466 91.4971 0.757466C91.3206 0.757466 91.1466 0.799676 90.9897 0.880583C90.8518 0.986295 90.7351 1.1172 90.6459 1.26636C89.5389 2.94365 88.7338 4.62095 86.9223 5.56023C85.3373 6.39887 83.5677 6.89366 82.142 7.95874C79.3829 9.97987 80.5822 13.2338 79.081 15.9929C79.0641 16.0133 79.0499 16.0359 79.0391 16.06C73.1182 4.49514 61.3353 1.07349 47.7493 8.9148C38.2307 14.4163 25.8858 25.5619 33.6852 37.6467C34.4249 38.6349 35.084 39.681 35.656 40.7749C36.6624 43.0811 35.7231 44.49 33.2491 44.4146C31.7759 44.362 30.3276 44.0185 28.9876 43.4039C27.6476 42.7893 26.4424 41.9158 25.4414 40.8336C24.1666 39.4079 23.0009 37.7893 21.2985 36.9003C18.3045 35.3321 13.7507 35.8772 10.4883 35.6759C10.2297 35.638 9.967 35.638 9.7084 35.6759C9.34471 35.822 9.01905 36.0489 8.75605 36.3395C8.49306 36.6301 8.29965 36.9768 8.19046 37.3532C7.87247 38.0589 7.59252 38.7812 7.35182 39.5169C6.85702 41.0852 10.4129 43.1147 11.545 44.0791C13.281 45.6054 15.3609 47.333 17.8097 47.2659C19.5595 47.1637 21.3152 47.2339 23.0512 47.4756C25.8858 47.9788 27.8231 49.7651 29.2572 52.1804C30.9345 54.9815 29.5843 57.1536 26.4561 57.6819C24.4601 58.0174 22.3552 57.6819 20.4514 58.3109C18.3045 59.0489 16.7698 60.9442 15.646 62.915C13.4221 67.0766 12.31 71.7418 12.4172 76.4591C12.4172 91.8398 17.9523 102.306 26.498 105.971C26.0326 107.273 25.1886 108.406 24.0744 109.225C23.1854 109.77 22.1119 109.988 21.3068 110.651C19.7805 111.909 19.7973 114.223 20.0405 116.194C20.0405 116.37 20.0908 116.538 20.1076 116.714C20.3614 118.009 20.3242 119.344 19.9986 120.622C19.5373 122.014 18.9167 123.314 18.5393 124.757C18.2206 125.956 18.9503 126.543 20.0992 126.761C20.2702 126.811 20.4507 126.819 20.6257 126.786C20.8006 126.752 20.9651 126.678 21.1056 126.568C21.2219 126.438 21.313 126.287 21.3739 126.124C22.2126 124.304 22.6738 122.492 24.3008 121.259C25.7181 120.178 27.3535 119.372 28.603 118.073C30.968 115.607 29.232 112.613 30.2803 109.636C30.5287 109.015 30.8086 108.408 31.119 107.816C31.192 107.646 31.2563 107.473 31.3119 107.296C36.2347 107.917 41.8452 106.659 47.7996 103.22C67.3232 91.9489 83.14 61.7158 83.14 35.6927C83.1782 30.9152 82.5199 26.1576 81.186 21.5699C82.3098 20.0436 83.2239 18.2153 85.0605 17.4773C86.025 17.0832 87.1152 17.058 88.0209 16.5464C89.7485 15.5652 90.1259 13.2841 90.2182 11.2965V10.7766C90.1983 9.45683 90.4674 8.14874 91.0065 6.94398C91.6942 5.65247 92.5328 4.47837 93.1534 3.12815C93.7153 1.99599 93.1031 1.29152 92.0045 0.880583Z" fill="var(--fill-0, #FAFAFA)"/>
<path id="Vector_6" d="M91.4425 0.771561C91.6349 0.77369 91.8252 0.810631 92.0044 0.880589C93.103 1.29152 93.6817 1.99599 93.2037 3.12816C92.5831 4.47838 91.7445 5.64409 91.0568 6.94399C90.5176 8.14874 90.2486 9.45683 90.2684 10.7766V11.2966C90.1762 13.2841 89.7988 15.5652 88.0712 16.5464C87.1655 17.058 86.0668 17.0832 85.1108 17.4774C83.2741 18.2237 82.36 20.0436 81.2362 21.5699C82.5406 26.1479 83.1734 30.891 83.1148 35.6507C83.1148 61.6487 67.298 91.907 47.7744 103.178C42.7928 106.055 38.0629 107.372 33.7606 107.372C32.9197 107.374 32.0793 107.324 31.2447 107.221C31.1892 107.397 31.1248 107.571 31.0518 107.741C30.7415 108.332 30.4616 108.94 30.2132 109.56C29.2068 112.538 30.9428 115.532 28.5359 117.997C27.2863 119.297 25.651 120.102 24.2336 121.184C22.6067 122.417 22.1119 124.228 21.3068 126.048C21.2458 126.212 21.1548 126.362 21.0384 126.493C20.858 126.65 20.6234 126.731 20.3843 126.719C20.267 126.727 20.1493 126.727 20.032 126.719C18.8831 126.501 18.1535 125.88 18.4722 124.715C18.8496 123.272 19.4702 121.972 19.9314 120.58C20.257 119.302 20.2943 117.967 20.0404 116.672C20.0404 116.496 20.0404 116.328 19.9733 116.152C19.7301 114.181 19.7134 111.867 21.2397 110.609C22.0783 109.946 23.1183 109.77 24.0072 109.183C25.1092 108.372 25.949 107.255 26.4225 105.971C17.9438 102.306 12.4172 91.8399 12.4172 76.4591C12.3106 71.7546 13.4167 67.1018 15.6292 62.9486C16.753 60.9778 18.2877 59.0824 20.4346 58.3444C22.3383 57.6903 24.4433 58.0509 26.4393 57.7154C29.5674 57.1871 30.9092 55.015 29.2403 52.2139C27.8063 49.7987 25.8858 48.0207 23.0344 47.5092C21.9448 47.3345 20.8419 47.2559 19.7385 47.2744H17.7929H17.6671C15.2686 47.2744 13.2306 45.5971 11.5282 44.0791C10.438 43.1147 6.88212 41.0852 7.33499 39.5169C7.57569 38.7812 7.85564 38.0589 8.17363 37.3532C8.28281 36.9768 8.47623 36.6301 8.73922 36.3395C9.00221 36.0489 9.32788 35.822 9.69157 35.6759C9.82976 35.6491 9.97013 35.635 10.1109 35.634H10.4715C13.7674 35.8352 18.2877 35.2901 21.2816 36.8584C22.9589 37.7473 24.1498 39.3743 25.4245 40.7916C26.4256 41.8738 27.6307 42.7474 28.9707 43.362C30.3107 43.9765 31.759 44.32 33.2323 44.3727H33.4252C35.7566 44.3727 36.6204 42.9805 35.6392 40.7329C35.0672 39.6391 34.4081 38.593 33.6684 37.6048C25.869 25.5199 38.2138 14.3744 47.7324 8.87286C52.714 5.99631 57.4607 4.63772 61.7546 4.63772C69.1766 4.63772 75.2735 8.69674 79.0222 16.0181C79.0331 15.9939 79.0472 15.9714 79.0642 15.951C80.5653 13.1919 79.3661 9.93795 82.1252 7.91682C83.5761 6.85174 85.3204 6.34016 86.9055 5.51829C88.717 4.57901 89.522 2.88495 90.629 1.22444C90.7183 1.07527 90.8349 0.944366 90.9729 0.838654C91.1075 0.751649 91.2655 0.707771 91.4258 0.712863M91.4258 1.08793e-05C91.1275 -0.000817982 90.8357 0.0867322 90.5871 0.251606C90.3755 0.408815 90.1961 0.605277 90.0588 0.830273C89.8575 1.14057 89.6562 1.44248 89.4717 1.74439C88.6331 3.06945 87.9118 4.21 86.5952 4.8893C86.0584 5.16606 85.4966 5.40926 84.9179 5.66924C83.7956 6.10611 82.7265 6.66879 81.731 7.34652C79.8357 8.73867 79.5757 10.6005 79.3158 12.3784C79.2407 13.0428 79.1202 13.7013 78.9551 14.3492C75.0303 7.59812 68.9837 3.9081 61.7797 3.89971C57.2259 3.89971 52.3869 5.35894 47.4054 8.23548C43.2122 10.6759 33.1484 17.3264 30.926 26.3586C30.4543 28.3379 30.4046 30.3944 30.7803 32.3942C31.156 34.394 31.9486 36.2922 33.1065 37.9654C33.3078 38.2841 33.5342 38.6028 33.7523 38.9215C34.2421 39.5636 34.6637 40.255 35.0102 40.9845C35.1943 41.2895 35.3053 41.6329 35.3344 41.988C35.3635 42.343 35.3099 42.6999 35.1779 43.0308C34.9555 43.2575 34.6843 43.4305 34.3849 43.5366C34.0855 43.6427 33.7659 43.6791 33.4503 43.643H33.2826C31.904 43.5933 30.5488 43.2713 29.2952 42.6955C28.0415 42.1198 26.9141 41.3017 25.978 40.2884L25.2484 39.4498C24.2607 38.1672 23.0366 37.0855 21.6422 36.263C19.2773 35.0302 16.0988 35.0218 13.2558 35.0134C12.2746 35.0134 11.3521 35.0134 10.5134 34.9631H10.1109C9.91359 34.9595 9.71655 34.9792 9.52385 35.0218C9.05685 35.194 8.63558 35.471 8.29245 35.8316C7.94933 36.1922 7.6935 36.6266 7.54465 37.1016C7.22229 37.8284 6.94228 38.5732 6.706 39.3324C6.16089 41.0097 8.32459 42.6115 10.0606 43.8778C10.4715 44.1797 10.8321 44.4481 11.0502 44.641C12.9874 46.3183 15.0924 47.9956 17.6587 47.9956H17.9522C18.5393 47.9956 19.1347 47.9956 19.7301 47.9956C20.7914 47.9772 21.8523 48.053 22.9002 48.222C25.2568 48.6413 27.0934 50.067 28.6198 52.5913C28.9162 52.9869 29.111 53.4491 29.187 53.9375C29.263 54.4259 29.218 54.9255 29.0558 55.3924C28.7673 55.8719 28.3673 56.2747 27.8899 56.5666C27.4125 56.8586 26.8718 57.0312 26.3135 57.0697C25.5325 57.1777 24.7453 57.2337 23.9569 57.2374C22.6844 57.2089 21.4149 57.3729 20.1914 57.7238C18.1954 58.4115 16.493 60.0217 15.0086 62.6467C12.7354 66.9073 11.5975 71.6815 11.7043 76.5094C11.7043 91.3534 16.7362 102.172 25.5419 106.365C25.1451 107.274 24.507 108.057 23.6969 108.63C23.3458 108.835 22.9784 109.012 22.5983 109.158C21.979 109.375 21.3943 109.68 20.8623 110.064C18.9921 111.59 19.1012 114.324 19.3444 116.244V116.412V116.764C19.5817 117.955 19.5559 119.183 19.2689 120.362C19.0844 120.907 18.8831 121.436 18.6734 121.964C18.344 122.805 18.064 123.665 17.8348 124.539C17.7423 124.833 17.7124 125.143 17.7471 125.449C17.7817 125.755 17.8802 126.051 18.0361 126.316C18.2643 126.623 18.5536 126.879 18.8855 127.068C19.2175 127.257 19.585 127.375 19.965 127.415C20.1229 127.442 20.2828 127.456 20.443 127.457C20.8636 127.473 21.2737 127.323 21.5835 127.038C21.7679 126.847 21.9132 126.622 22.0112 126.375C22.1622 126.04 22.2964 125.704 22.4306 125.369C23.026 123.926 23.546 122.677 24.7201 121.779C25.2065 121.41 25.718 121.083 26.2548 120.731C27.2817 120.1 28.2377 119.361 29.1062 118.525C30.7248 116.848 30.666 114.953 30.6073 113.133C30.5004 112.006 30.5999 110.869 30.9009 109.778C31.1105 109.158 31.2866 108.512 31.9324 108.235C32.5138 108.062 33.1242 108.008 33.7271 108.076C38.2893 108.076 43.1283 106.617 48.1014 103.749C67.776 92.385 83.7941 61.8164 83.7941 35.6088C83.7941 35.0497 83.7941 34.4906 83.7941 33.9315C83.7427 31.8183 83.5691 29.7098 83.2742 27.6165C83.1316 26.6186 82.9555 25.6373 82.7542 24.6561C82.4568 23.7894 82.3011 22.8804 82.2929 21.9641C82.4596 21.1175 82.8258 20.3228 83.361 19.6461C83.8963 18.9693 84.5853 18.4299 85.3708 18.0728C85.7507 17.9328 86.1403 17.8207 86.5365 17.7373C87.1908 17.6191 87.8239 17.4043 88.415 17.1C90.5116 15.9175 90.8806 13.2086 90.9729 11.2294V10.9192V10.7095C90.9446 9.49591 91.1821 8.29083 91.669 7.17881C91.9373 6.67562 92.2309 6.18919 92.5076 5.69439C92.9931 4.93005 93.4328 4.13754 93.8243 3.32104C93.967 3.04752 94.0497 2.74673 94.0671 2.43873C94.0844 2.13072 94.036 1.82255 93.9249 1.53473C93.7602 1.19419 93.5258 0.892051 93.2368 0.647894C92.9479 0.403738 92.6109 0.223005 92.2476 0.11742C91.9844 0.0534502 91.7123 0.0336191 91.4425 0.0587221L91.4258 1.08793e-05Z" fill="var(--fill-0, #0061DF)"/>
<path id="Vector_7" d="M20.1747 125.285C20.0723 125.262 19.9735 125.226 19.8812 125.176C19.8841 125.142 19.8841 125.109 19.8812 125.075C20.1204 124.281 20.4003 123.5 20.7198 122.735C20.9462 122.165 21.1559 121.603 21.3488 121.058C21.7453 119.581 21.8055 118.033 21.5249 116.53L21.4578 116.01C21.1727 113.754 21.4578 112.395 22.221 111.732C22.5932 111.469 22.9994 111.257 23.4286 111.103C23.913 110.912 24.3814 110.682 24.8291 110.416C25.6268 109.892 26.2996 109.199 26.8 108.386C27.0423 108.015 27.2607 107.628 27.4541 107.229C27.6892 106.842 27.8538 106.416 27.9405 105.971C27.9685 105.73 27.9122 105.487 27.7812 105.283C27.6835 105.158 27.5676 105.047 27.4373 104.956C26.6224 104.458 25.7826 104.002 24.9214 103.589C23.477 102.704 22.1667 101.617 21.0301 100.36C19.8177 99.0176 18.7755 97.5304 17.9271 95.9324C16.753 93.7687 14.6816 90.7748 16.1911 88.3846C16.8429 87.4687 17.6387 86.6643 18.5477 86.0029L25.9865 79.9479C26.7245 79.3524 27.5296 78.3712 27.0096 77.5745L18.9251 84.0656C18.2762 84.6414 17.5329 85.101 16.7279 85.4242C14.3377 86.2629 14.3461 84.4933 14.1532 82.707C13.9309 80.6431 13.8217 78.5685 13.8261 76.4927C13.722 72.0325 14.7644 67.6202 16.8536 63.6782C18.0781 61.5229 19.3696 60.2314 20.8791 59.7198C21.8971 59.4384 22.9516 59.3112 24.0073 59.3424C24.897 59.3364 25.7853 59.2691 26.6658 59.1411C28.7624 58.7889 30.2971 57.7825 30.9848 56.3065C31.3016 55.5283 31.4184 54.6831 31.3246 53.8481C31.2309 53.0131 30.9295 52.2149 30.4481 51.5263C28.6198 48.4401 26.2548 46.6789 23.2693 46.1506C22.097 45.9573 20.9097 45.8703 19.7218 45.8906C19.118 45.8906 18.5058 45.8906 17.902 45.8906H17.751C15.8305 45.8906 14.1532 44.5404 12.4592 43.0476C12.1824 42.8044 11.7799 42.5025 11.3102 42.2089C10.6645 41.7393 8.99556 40.5316 8.75235 39.9194C8.96617 39.2674 9.21248 38.6264 9.49036 37.9989C9.82582 37.2358 10.0271 37.1603 10.0355 37.1603H10.3961C11.2851 37.2106 12.2579 37.2106 13.2726 37.219C15.7886 37.219 18.7406 37.219 20.6443 38.217C21.7997 38.9466 22.8116 39.8818 23.6299 40.9761C23.8815 41.2696 24.1331 41.5632 24.3931 41.8148C25.521 43.0397 26.8809 44.0285 28.394 44.7238C29.907 45.4192 31.543 45.8072 33.2072 45.8654H33.442C35.4883 45.8654 36.4779 45.0268 36.9475 44.2888C37.4172 43.5508 37.7862 42.2425 36.9475 40.2381C36.5397 39.381 36.0481 38.5664 35.4799 37.8061C35.2703 37.5125 35.069 37.2106 34.8677 36.9171C33.872 35.4816 33.1894 33.8528 32.8643 32.1363C32.5392 30.4198 32.5789 28.6541 32.9808 26.954C33.9284 23.0292 36.5366 19.683 39.388 16.9322C40.768 15.6105 42.2332 14.3807 43.7741 13.2506C45.0908 12.2777 46.7513 10.634 48.286 12.2358C48.8759 12.9677 49.2814 13.8305 49.4685 14.7518L51.5316 21.8047H52.0767C52.3306 20.9929 52.2799 20.1163 51.9341 19.3391L49.9968 13.0661C49.7201 12.1687 49.0408 10.3405 49.7369 9.50184C50.4329 8.66319 52.7644 8.05098 53.8294 7.66521C56.3668 6.70803 59.0514 6.20004 61.763 6.16403C63.7142 6.15485 65.6522 6.484 67.4909 7.13686C69.3229 7.78772 71.0261 8.75573 72.5228 9.99663C74.1023 11.3294 75.4684 12.8963 76.5734 14.6427C76.8921 15.1291 77.1856 15.6239 77.4624 16.1271C77.696 16.6845 78.0581 17.1788 78.5191 17.5696C78.6779 17.6913 78.8636 17.7732 79.0607 17.8082C79.2577 17.8432 79.4602 17.8304 79.6513 17.7709C79.9783 17.6031 80.1461 17.0916 80.3138 16.7896C80.9347 15.5469 81.3159 14.1984 81.4376 12.8145C81.6892 11.0366 81.8904 9.98826 83.0058 9.17478C83.8729 8.58703 84.8042 8.10025 85.7817 7.72392C86.394 7.45555 87.0062 7.19557 87.6016 6.88527C89.4298 5.94599 90.3691 4.44482 91.2916 2.99397L91.711 2.33143C91.808 2.37063 91.8985 2.42436 91.9793 2.49078C91.9793 2.49078 91.9793 2.5411 91.9374 2.59142C91.5776 3.33247 91.1801 4.05464 90.7465 4.75511C90.4278 5.26668 90.1175 5.78664 89.8324 6.32337C89.188 7.71245 88.8641 9.22865 88.8847 10.7598V11.2798C88.7757 13.5525 88.3061 14.8524 87.4003 15.3639C86.9876 15.5608 86.5504 15.7018 86.1004 15.7833C85.572 15.8591 85.0503 15.9769 84.5406 16.1355C83.526 16.5782 82.6318 17.2567 81.9324 18.1147C81.6008 18.512 81.2901 18.9263 81.0015 19.3559C80.6673 19.7606 80.3855 20.2058 80.1628 20.681C79.9425 21.2321 79.89 21.836 80.0119 22.4169C80.1712 22.9872 80.3306 23.5659 80.4647 24.1529C80.7499 25.3606 80.9763 26.5766 81.1608 27.8094C81.5312 30.3982 81.7134 33.0104 81.7059 35.6256C81.7059 36.2042 81.8653 36.8332 81.4208 37.3029C81.1063 37.5857 80.7256 37.7848 80.3138 37.8815C75.6509 39.3324 70.661 37.8396 65.8136 37.2442C64.975 37.1435 63.9183 37.2442 63.7506 38.0828C64.5736 38.2807 65.4234 38.3431 66.2665 38.2673C67.4356 38.3908 68.5848 38.6584 69.6882 39.064C72.4808 39.8695 75.4056 40.1118 78.2927 39.7769C78.919 39.6596 79.5617 39.6596 80.188 39.7769C82.7542 40.4646 80.8841 46.4357 80.557 48.2304C79.9631 51.5449 79.1734 54.8214 78.192 58.0425C77.0487 61.8199 75.665 65.5203 74.0491 69.121C73.2105 70.966 71.4745 77.13 68.707 76.6688C68.0441 76.4849 67.4346 76.1457 66.929 75.6792C64.1531 73.5826 63.8261 73.5407 61.0585 71.486C60.3506 71.0122 59.7199 70.4324 59.1884 69.7668C58.6852 69.0707 58.442 68.1985 57.9304 67.4857C57.4188 66.7728 56.7563 65.9509 55.8338 66.1522C55.8124 66.2551 55.8149 66.3615 55.8411 66.4633C55.8673 66.565 55.9164 66.6594 55.9847 66.7393C56.1231 66.8972 56.2746 67.0431 56.4376 67.1753C56.7898 67.494 57.3937 68.0979 57.3853 68.6094C57.3853 69.2887 56.4041 69.3307 55.8757 69.2216C55.318 69.0741 54.7882 68.8362 54.3075 68.5172L52.6721 67.5443C52.5701 67.4705 52.4455 67.4349 52.3199 67.4437C52.2745 67.4588 52.2326 67.4828 52.1966 67.5143C52.1606 67.5457 52.1312 67.584 52.1101 67.6269C52.089 67.6699 52.0767 67.7166 52.0738 67.7643C52.071 67.812 52.0776 67.8598 52.0934 67.905C52.1717 68.085 52.2961 68.2412 52.4541 68.3578C53.1981 68.973 53.9857 69.5336 54.8106 70.0351C55.1857 70.2799 55.5882 70.4798 56.0099 70.6306C56.4376 70.7731 56.924 70.748 57.335 70.9241C57.6274 71.0882 57.9077 71.2732 58.1736 71.4776C59.138 72.0898 60.1025 72.6685 61.0166 73.331C62.0237 74.0137 62.9719 74.7796 63.8512 75.6205C64.9946 76.4914 65.9574 77.5767 66.6858 78.8157C68.0193 81.491 66.0569 83.4786 64.5473 85.5249C62.8446 87.868 61.0048 90.1083 59.0374 92.234C57.1407 94.2805 55.1004 96.1891 52.9321 97.9452C51.8335 98.8257 50.6594 99.6225 49.5775 100.461C49.2297 100.816 48.7647 101.032 48.2694 101.069C47.7741 101.106 47.2822 100.961 46.8855 100.662C46.1454 99.9835 45.6083 99.1125 45.334 98.1465L43.0361 92.3598C42.5936 91.1363 42.0318 89.9594 41.3588 88.8459C41.3245 88.7737 41.2755 88.7095 41.2148 88.6575C41.1541 88.6055 41.0832 88.5668 41.0066 88.544C40.9077 88.5459 40.8132 88.5849 40.7417 88.6532C40.6702 88.7216 40.6271 88.8143 40.6208 88.913C40.6162 89.1087 40.6624 89.3023 40.755 89.4749C42.3505 93.2268 43.7501 97.0589 44.9482 100.956C45.1359 101.351 45.1947 101.795 45.1165 102.225C45.0382 102.656 44.8268 103.051 44.5121 103.354C43.4789 104.019 42.3466 104.514 41.1575 104.822C38.0572 105.774 34.8046 106.13 31.5718 105.87C31.2807 105.855 30.9909 105.92 30.7337 106.057C30.4766 106.195 30.2618 106.4 30.1126 106.65C29.8778 107.028 29.6765 107.405 29.4752 107.799C29.2546 108.231 29.0613 108.677 28.8966 109.133C28.5117 110.449 28.3752 111.825 28.494 113.192C28.5527 114.986 28.494 116.043 27.5799 117.041C26.8126 117.765 25.969 118.403 25.064 118.945C24.5021 119.314 23.9402 119.683 23.3867 120.085C21.9968 121.263 20.9678 122.81 20.4179 124.547L20.1747 125.285Z" fill="var(--fill-0, #0061DF)"/>
<path id="Vector_8" opacity="0.6" d="M20.1747 125.285C20.0723 125.262 19.9735 125.226 19.8812 125.176C19.8841 125.142 19.8841 125.109 19.8812 125.075C20.1204 124.281 20.4003 123.5 20.7198 122.735C20.9462 122.165 21.1559 121.603 21.3488 121.058C21.7453 119.581 21.8055 118.033 21.5249 116.53L21.4578 116.01C21.1727 113.754 21.4578 112.395 22.221 111.732C22.5932 111.469 22.9994 111.257 23.4286 111.103C23.913 110.912 24.3814 110.682 24.8291 110.416C25.6268 109.892 26.2996 109.199 26.8 108.386C27.0423 108.015 27.2607 107.628 27.4541 107.229C27.6892 106.842 27.8538 106.416 27.9405 105.971C27.9685 105.73 27.9122 105.487 27.7812 105.283C27.6835 105.158 27.5676 105.047 27.4373 104.956C26.6224 104.458 25.7826 104.002 24.9214 103.589C23.477 102.704 22.1667 101.617 21.0301 100.36C19.8177 99.0176 18.7755 97.5304 17.9271 95.9324C16.753 93.7687 14.6816 90.7748 16.1911 88.3846C16.8429 87.4687 17.6387 86.6643 18.5477 86.0029L25.9865 79.9479C26.7245 79.3524 27.5296 78.3712 27.0096 77.5745L18.9251 84.0656C18.2762 84.6414 17.5329 85.101 16.7279 85.4242C14.3377 86.2629 14.3461 84.4933 14.1532 82.707C13.9309 80.6431 13.8217 78.5685 13.8261 76.4927C13.722 72.0325 14.7644 67.6202 16.8536 63.6782C18.0781 61.5229 19.3696 60.2314 20.8791 59.7198C21.8971 59.4384 22.9516 59.3112 24.0073 59.3424C24.897 59.3364 25.7853 59.2691 26.6658 59.1411C28.7624 58.7889 30.2971 57.7825 30.9848 56.3065C31.3016 55.5283 31.4184 54.6831 31.3246 53.8481C31.2309 53.0131 30.9295 52.2149 30.4481 51.5263C28.6198 48.4401 26.2548 46.6789 23.2693 46.1506C22.097 45.9573 20.9097 45.8703 19.7218 45.8906C19.118 45.8906 18.5058 45.8906 17.902 45.8906H17.751C15.8305 45.8906 14.1532 44.5404 12.4592 43.0476C12.1824 42.8044 11.7799 42.5025 11.3102 42.2089C10.6645 41.7393 8.99556 40.5316 8.75235 39.9194C8.96617 39.2674 9.21248 38.6264 9.49036 37.9989C9.82582 37.2358 10.0271 37.1603 10.0355 37.1603H10.3961C11.2851 37.2106 12.2579 37.2106 13.2726 37.219C15.7886 37.219 18.7406 37.219 20.6443 38.217C21.7997 38.9466 22.8116 39.8818 23.6299 40.9761C23.8815 41.2696 24.1331 41.5632 24.3931 41.8148C25.521 43.0397 26.8809 44.0285 28.394 44.7238C29.907 45.4192 31.543 45.8072 33.2072 45.8654H33.442C35.4883 45.8654 36.4779 45.0268 36.9475 44.2888C37.4172 43.5508 37.7862 42.2425 36.9475 40.2381C36.5397 39.381 36.0481 38.5664 35.4799 37.8061C35.2703 37.5125 35.069 37.2106 34.8677 36.9171C33.872 35.4816 33.1894 33.8528 32.8643 32.1363C32.5392 30.4198 32.5789 28.6541 32.9808 26.954C33.9284 23.0292 36.5366 19.683 39.388 16.9322C40.768 15.6105 42.2332 14.3807 43.7741 13.2506C45.0908 12.2777 46.7513 10.634 48.286 12.2358C48.8759 12.9677 49.2814 13.8305 49.4685 14.7518L51.5316 21.8047H52.0767C52.3306 20.9929 52.2799 20.1163 51.9341 19.3391L49.9968 13.0661C49.7201 12.1687 49.0408 10.3405 49.7369 9.50184C50.4329 8.66319 52.7644 8.05098 53.8294 7.66521C56.3668 6.70803 59.0514 6.20004 61.763 6.16403C63.7142 6.15485 65.6522 6.484 67.4909 7.13686C69.3229 7.78772 71.0261 8.75573 72.5228 9.99663C74.1023 11.3294 75.4684 12.8963 76.5734 14.6427C76.8921 15.1291 77.1856 15.6239 77.4624 16.1271C77.696 16.6845 78.0581 17.1788 78.5191 17.5696C78.6779 17.6913 78.8636 17.7732 79.0607 17.8082C79.2577 17.8432 79.4602 17.8304 79.6513 17.7709C79.9783 17.6031 80.1461 17.0916 80.3138 16.7896C80.9347 15.5469 81.3159 14.1984 81.4376 12.8145C81.6892 11.0366 81.8904 9.98826 83.0058 9.17478C83.8729 8.58703 84.8042 8.10025 85.7817 7.72392C86.394 7.45555 87.0062 7.19557 87.6016 6.88527C89.4298 5.94599 90.3691 4.44482 91.2916 2.99397L91.711 2.33143C91.808 2.37063 91.8985 2.42436 91.9793 2.49078C91.9793 2.49078 91.9793 2.5411 91.9374 2.59142C91.5776 3.33247 91.1801 4.05464 90.7465 4.75511C90.4278 5.26668 90.1175 5.78664 89.8324 6.32337C89.188 7.71245 88.8641 9.22865 88.8847 10.7598V11.2798C88.7757 13.5525 88.3061 14.8524 87.4003 15.3639C86.9876 15.5608 86.5504 15.7018 86.1004 15.7833C85.572 15.8591 85.0503 15.9769 84.5406 16.1355C83.526 16.5782 82.6318 17.2567 81.9324 18.1147C81.6008 18.512 81.2901 18.9263 81.0015 19.3559C80.6673 19.7606 80.3855 20.2058 80.1628 20.681C79.9425 21.2321 79.89 21.836 80.0119 22.4169C80.1712 22.9872 80.3306 23.5659 80.4647 24.1529C80.7499 25.3606 80.9763 26.5766 81.1608 27.8094C81.5312 30.3982 81.7134 33.0104 81.7059 35.6256C81.7059 36.2042 81.8653 36.8332 81.4208 37.3029C81.1063 37.5857 80.7256 37.7848 80.3138 37.8815C75.6509 39.3324 70.661 37.8396 65.8136 37.2442C64.975 37.1435 63.9183 37.2442 63.7506 38.0828C64.5736 38.2807 65.4234 38.3431 66.2665 38.2673C67.4356 38.3908 68.5848 38.6584 69.6882 39.064C72.4808 39.8695 75.4056 40.1118 78.2927 39.7769C78.919 39.6596 79.5617 39.6596 80.188 39.7769C82.7542 40.4646 80.8841 46.4357 80.557 48.2304C79.9631 51.5449 79.1734 54.8214 78.192 58.0425C77.0487 61.8199 75.665 65.5203 74.0491 69.121C73.2105 70.966 71.4745 77.13 68.707 76.6688C68.0441 76.4849 67.4346 76.1457 66.929 75.6792C64.1531 73.5826 63.8261 73.5407 61.0585 71.486C60.3506 71.0122 59.7199 70.4324 59.1884 69.7668C58.6852 69.0707 58.442 68.1985 57.9304 67.4857C57.4188 66.7728 56.7563 65.9509 55.8338 66.1522C55.8124 66.2551 55.8149 66.3615 55.8411 66.4633C55.8673 66.565 55.9164 66.6594 55.9847 66.7393C56.1231 66.8972 56.2746 67.0431 56.4376 67.1753C56.7898 67.494 57.3937 68.0979 57.3853 68.6094C57.3853 69.2887 56.4041 69.3307 55.8757 69.2216C55.318 69.0741 54.7882 68.8362 54.3075 68.5172L52.6721 67.5443C52.5701 67.4705 52.4455 67.4349 52.3199 67.4437C52.2745 67.4588 52.2326 67.4828 52.1966 67.5143C52.1606 67.5457 52.1312 67.584 52.1101 67.6269C52.089 67.6699 52.0767 67.7166 52.0738 67.7643C52.071 67.812 52.0776 67.8598 52.0934 67.905C52.1717 68.085 52.2961 68.2412 52.4541 68.3578C53.1981 68.973 53.9857 69.5336 54.8106 70.0351C55.1857 70.2799 55.5882 70.4798 56.0099 70.6306C56.4376 70.7731 56.924 70.748 57.335 70.9241C57.6274 71.0882 57.9077 71.2732 58.1736 71.4776C59.138 72.0898 60.1025 72.6685 61.0166 73.331C62.0237 74.0137 62.9719 74.7796 63.8512 75.6205C64.9946 76.4914 65.9574 77.5767 66.6858 78.8157C68.0193 81.491 66.0569 83.4786 64.5473 85.5249C62.8446 87.868 61.0048 90.1083 59.0374 92.234C57.1407 94.2805 55.1004 96.1891 52.9321 97.9452C51.8335 98.8257 50.6594 99.6225 49.5775 100.461C49.2297 100.816 48.7647 101.032 48.2694 101.069C47.7741 101.106 47.2822 100.961 46.8855 100.662C46.1454 99.9835 45.6083 99.1125 45.334 98.1465L43.0361 92.3598C42.5936 91.1363 42.0318 89.9594 41.3588 88.8459C41.3245 88.7737 41.2755 88.7095 41.2148 88.6575C41.1541 88.6055 41.0832 88.5668 41.0066 88.544C40.9077 88.5459 40.8132 88.5849 40.7417 88.6532C40.6702 88.7216 40.6271 88.8143 40.6208 88.913C40.6162 89.1087 40.6624 89.3023 40.755 89.4749C42.3505 93.2268 43.7501 97.0589 44.9482 100.956C45.1359 101.351 45.1947 101.795 45.1165 102.225C45.0382 102.656 44.8268 103.051 44.5121 103.354C43.4789 104.019 42.3466 104.514 41.1575 104.822C38.0572 105.774 34.8046 106.13 31.5718 105.87C31.2807 105.855 30.9909 105.92 30.7337 106.057C30.4766 106.195 30.2618 106.4 30.1126 106.65C29.8778 107.028 29.6765 107.405 29.4752 107.799C29.2546 108.231 29.0613 108.677 28.8966 109.133C28.5117 110.449 28.3752 111.825 28.494 113.192C28.5527 114.986 28.494 116.043 27.5799 117.041C26.8126 117.765 25.969 118.403 25.064 118.945C24.5021 119.314 23.9402 119.683 23.3867 120.085C21.9968 121.263 20.9678 122.81 20.4179 124.547L20.1747 125.285Z" fill="var(--fill-0, white)"/>
<path id="Vector_9" opacity="0.6" d="M57.9137 43.5004C58.6617 42.5477 59.3214 41.5287 59.8845 40.4562C60.3653 38.9835 60.4205 37.405 60.0438 35.9023C59.9185 34.8132 59.5173 33.774 58.8781 32.8832C58.0717 32.0378 57.0735 31.3992 55.968 31.0214C54.2907 30.317 52.2025 29.7635 50.7433 28.7403C49.5943 27.9017 48.8815 26.4844 47.8332 25.5367C46.9735 24.7863 45.9151 24.3008 44.7857 24.1386C43.6562 23.9764 42.5039 24.1445 41.4679 24.6226C39.1029 25.7547 39.0442 27.7256 37.9204 29.7215C36.7966 31.7175 35.2871 33.6045 34.0459 35.4579C34.2997 35.9641 34.5796 36.4567 34.8845 36.9339C35.0858 37.2274 35.2871 37.5293 35.4967 37.8228C36.0649 38.5832 36.5565 39.3978 36.9643 40.2549C37.803 42.2593 37.4424 43.5675 36.9643 44.3055C36.4863 45.0435 35.5051 45.8822 33.4588 45.8822H33.224C31.5599 45.824 29.9238 45.436 28.4108 44.7406C26.8978 44.0453 25.5378 43.0565 24.4099 41.8316C24.1499 41.5464 23.8983 41.2529 23.6467 40.9929L22.9926 40.2381H22.5229C21.6715 40.0821 20.7926 40.1934 20.007 40.5568C18.7406 41.3954 18.8161 43.274 19.5206 44.5907C19.7892 45.0649 20.0919 45.5189 20.4263 45.9493C21.3874 45.9597 22.3462 46.0439 23.2945 46.2009C26.2968 46.7292 28.645 48.4904 30.4732 51.5766C30.9547 52.2652 31.2561 53.0634 31.3498 53.8984C31.4436 54.7334 31.3267 55.5786 31.01 56.3568C30.3223 57.8329 28.7876 58.8728 26.691 59.1915C25.8105 59.3194 24.9222 59.3867 24.0325 59.3927C22.9768 59.3615 21.9223 59.4887 20.9043 59.7701C20.0322 60.0913 19.2519 60.6211 18.6316 61.3132C17.6336 65.6574 17.533 72.9033 23.4706 73.0962C24.9214 73.1465 26.3974 72.9117 27.8064 73.2723C29.7185 73.7587 31.1609 75.2515 32.964 76.1153C34.7252 76.9289 36.6666 77.2738 38.6002 77.1165C40.5338 76.9593 42.394 76.3053 44.0006 75.2179C45.9623 73.8893 47.5597 72.0901 48.6466 69.9848C49.3511 68.6346 49.8543 67.1502 50.8858 66.0348C52.6386 64.1395 55.5738 63.6866 57.2427 61.7242C57.8422 60.9118 58.2683 59.9849 58.4948 59.0011C58.7213 58.0172 58.7433 56.9973 58.5594 56.0046C58.3078 54.0087 57.6117 52.0965 57.2008 50.1341C56.6622 48.1765 56.7951 46.0949 57.5782 44.2217C57.6734 43.9739 57.7855 43.7329 57.9137 43.5004Z" fill="var(--fill-0, white)"/>
<path id="Vector_10" d="M38.063 29.4196C38.063 29.5119 37.9707 29.5957 37.9204 29.688C36.8386 31.6085 35.2871 33.5709 34.0459 35.4243C34.2997 35.9305 34.5796 36.4232 34.8845 36.9003C35.0858 37.1939 35.2871 37.4958 35.4967 37.7893C36.0649 38.5496 36.5565 39.3643 36.9644 40.2213C37.803 42.2257 37.4424 43.534 36.9644 44.272C36.4863 45.01 35.5051 45.8486 33.4588 45.8486H33.224C31.5599 45.7904 29.9238 45.4024 28.4108 44.7071C26.8978 44.0117 25.5378 43.0229 24.4099 41.798C24.1499 41.5129 23.8983 41.2193 23.6467 40.9594L22.9926 40.2046H22.5229C21.6715 40.0486 20.7926 40.1599 20.007 40.5232C18.7406 41.3619 18.8161 43.2405 19.5206 44.5571C19.7892 45.0313 20.0919 45.4854 20.4263 45.9157C21.3874 45.9262 22.3462 46.0103 23.2945 46.1673C26.2968 46.6957 28.645 48.4568 30.4733 51.543C30.9547 52.2317 31.2561 53.0299 31.3498 53.8649C31.4436 54.6999 31.3267 55.5451 31.01 56.3233C30.3223 57.7993 28.7876 58.8392 26.691 59.1579C25.8105 59.2859 24.9222 59.3532 24.0325 59.3592C22.9768 59.328 21.9223 59.4552 20.9043 59.7366C20.0428 60.0568 19.2695 60.577 18.6484 61.2545C20.6746 63.4895 23.1937 65.2216 26.006 66.3133C28.8182 67.405 31.8462 67.8263 34.8497 67.5439C37.8531 67.2614 40.7495 66.2829 43.3089 64.6861C45.8683 63.0892 48.0204 60.9179 49.5944 58.3443C51.1684 55.7708 52.121 52.8659 52.3767 49.86C52.6323 46.8541 52.184 43.83 51.0673 41.0276C49.9505 38.2252 48.1961 35.7216 45.9432 33.7154C43.6902 31.7092 41.0008 30.2556 38.0881 29.4699L38.063 29.4196Z" fill="var(--fill-0, white)"/>
<path id="Vector_11" d="M72.0363 21.9054C72.0363 22.8724 71.7496 23.8177 71.2123 24.6217C70.6751 25.4258 69.9115 26.0524 69.0181 26.4225C68.1247 26.7925 67.1416 26.8894 66.1932 26.7007C65.2447 26.5121 64.3736 26.0464 63.6898 25.3626C63.006 24.6789 62.5403 23.8076 62.3517 22.8592C62.163 21.9108 62.2599 20.9277 62.6299 20.0343C63 19.1409 63.6266 18.3773 64.4307 17.8401C65.2347 17.3028 66.18 17.0161 67.147 17.0161C68.4437 17.0161 69.6874 17.5312 70.6043 18.4481C71.5212 19.365 72.0363 20.6087 72.0363 21.9054Z" fill="var(--fill-0, #0061DF)"/>
<path id="Vector_12" d="M35.3206 92.9804C35.3206 94.0436 35.0053 95.0829 34.4146 95.967C33.8239 96.851 32.9843 97.54 32.0021 97.9469C31.0198 98.3538 29.9389 98.4602 28.8961 98.2528C27.8533 98.0454 26.8955 97.5334 26.1437 96.7816C25.3919 96.0298 24.8799 95.0719 24.6724 94.0291C24.465 92.9864 24.5715 91.9055 24.9784 90.9232C25.3852 89.9409 26.0743 89.1014 26.9583 88.5107C27.8423 87.92 28.8816 87.6047 29.9449 87.6047C31.3706 87.6047 32.7379 88.1711 33.7461 89.1792C34.7542 90.1873 35.3206 91.5547 35.3206 92.9804Z" fill="var(--fill-0, #0061DF)"/>
<path id="Vector_13" d="M51.8166 88.3092C54.7809 88.3092 57.184 85.9061 57.184 82.9418C57.184 79.9776 54.7809 77.5745 51.8166 77.5745C48.8524 77.5745 46.4493 79.9776 46.4493 82.9418C46.4493 85.9061 48.8524 88.3092 51.8166 88.3092Z" fill="var(--fill-0, #0061DF)"/>
<path id="Vector_14" d="M68.2876 61.7158C71.2519 61.7158 73.6549 59.3128 73.6549 56.3485C73.6549 53.3842 71.2519 50.9811 68.2876 50.9811C65.3233 50.9811 62.9203 53.3842 62.9203 56.3485C62.9203 59.3128 65.3233 61.7158 68.2876 61.7158Z" fill="var(--fill-0, #0061DF)"/>
<path id="Vector_15" d="M28.9217 35.5249C28.452 35.765 27.9066 35.8102 27.4037 35.6507C26.867 35.3237 24.9884 31.1724 24.4685 30.3086C19.965 22.9788 17.2226 18.7856 16.2833 14.4582C15.7059 11.9375 15.4606 9.35215 15.5537 6.76785C15.5855 6.04385 15.6724 5.32335 15.8137 4.61256C15.9311 4.04228 16.0066 3.25395 16.6523 3.03591C16.9792 2.94796 17.3235 2.94796 17.6503 3.03591C17.9484 3.08962 18.2332 3.2007 18.489 3.36298C19.2018 3.841 18.9418 4.60415 18.8496 5.32539C18.4989 7.80992 18.567 10.3356 19.0508 12.7977C19.5123 15.7864 20.549 18.6572 22.1035 21.2512C23.8395 24.1446 26.0032 26.736 27.8314 29.5706C28.4485 30.5263 29.0085 31.5176 29.5087 32.5394C30.0874 33.6548 30.2048 34.9463 28.9217 35.5249Z" fill="var(--fill-0, #455A64)"/>
<path id="Vector_16" d="M17.6084 3.50554L17.7929 3.55586C18.12 3.64811 18.6902 3.92485 18.3632 4.33579C18.2917 4.42381 18.1952 4.48813 18.0864 4.52029C17.8858 4.58277 17.6745 4.60385 17.4655 4.58223C17.2565 4.5606 17.054 4.49673 16.8704 4.3945C16.7046 4.32907 16.5697 4.2032 16.493 4.04227C16.384 3.74036 16.5853 3.53069 16.8704 3.47199C17.1158 3.42818 17.368 3.43965 17.6084 3.50554Z" fill="var(--fill-0, #263238)"/>
<path id="Vector_17" d="M29.3913 35.9694C23.6886 26.954 18.5309 16.2278 8.93684 10.7095C7.92458 10.1153 6.87714 9.58316 5.80031 9.11606C5.18672 8.81241 4.5467 8.56538 3.88821 8.37805C3.74992 8.3352 3.60444 8.32055 3.46038 8.33495C3.31633 8.34936 3.17663 8.39254 3.04956 8.46192C2.7391 8.65321 2.5094 8.95153 2.4038 9.30056C2.2942 9.59234 2.26807 9.90888 2.32833 10.2147C2.46251 10.7346 2.92377 10.9275 3.37663 11.0952C3.8295 11.263 4.41655 11.5146 4.92812 11.741C5.94167 12.1968 6.9274 12.712 7.88015 13.2841C9.7202 14.4034 11.4352 15.7163 12.9959 17.2006C16.7614 20.7816 19.705 25.1509 22.439 29.5119C24.1163 32.1452 25.6091 35.3069 27.4709 37.7977C28.2508 38.846 30.1042 37.1016 29.3913 35.9694Z" fill="var(--fill-0, #0061DF)"/>
<path id="Vector_18" opacity="0.2" d="M29.3913 35.9694C23.6886 26.954 18.5309 16.2278 8.93684 10.7095C7.92458 10.1153 6.87714 9.58316 5.80031 9.11606C5.18672 8.81241 4.5467 8.56538 3.88821 8.37805C3.74992 8.3352 3.60444 8.32055 3.46038 8.33495C3.31633 8.34936 3.17663 8.39254 3.04956 8.46192C2.7391 8.65321 2.5094 8.95153 2.4038 9.30056C2.2942 9.59234 2.26807 9.90888 2.32833 10.2147C2.46251 10.7346 2.92377 10.9275 3.37663 11.0952C3.8295 11.263 4.41655 11.5146 4.92812 11.741C5.94167 12.1968 6.9274 12.712 7.88015 13.2841C9.7202 14.4034 11.4352 15.7163 12.9959 17.2006C16.7614 20.7816 19.705 25.1509 22.439 29.5119C24.1163 32.1452 25.6091 35.3069 27.4709 37.7977C28.2508 38.846 30.1042 37.1016 29.3913 35.9694Z" fill="var(--fill-0, #263238)"/>
<path id="Vector_19" opacity="0.5" d="M3.67858 9.65279L3.72889 9.48508C3.81276 9.15801 3.85469 8.55418 3.35151 8.64643C3.24108 8.66719 3.13909 8.71964 3.05798 8.79738C2.76455 9.07558 2.59277 9.45832 2.57995 9.86245C2.55771 10.0362 2.59945 10.212 2.69737 10.3572C2.73786 10.407 2.78965 10.4463 2.84842 10.472C2.90719 10.4976 2.97124 10.5089 3.03523 10.5048C3.09922 10.5007 3.16132 10.4813 3.21633 10.4484C3.27134 10.4154 3.31769 10.3698 3.35151 10.3153C3.51432 10.1254 3.62679 9.89755 3.67858 9.65279Z" fill="var(--fill-0, #263238)"/>
<path id="Vector_20" d="M29.3242 40.3052C29.6967 39.9351 29.9154 39.4378 29.9364 38.9131C29.8442 38.5105 29.2655 38.0744 28.9888 37.8228C26.8754 35.7346 25.4245 33.0845 23.8311 30.577C20.6527 25.6038 15.8892 22.1905 10.5135 19.8172C9.22551 19.2233 7.90048 18.7135 6.54667 18.2908C5.85133 18.0866 5.14226 17.9325 4.4249 17.8296C3.85462 17.7541 3.08307 17.5696 2.67213 18.0979C2.4823 18.3774 2.36685 18.7007 2.33668 19.0372C2.27365 19.3471 2.27365 19.6666 2.33668 19.9765C2.56312 20.8151 3.36821 20.8151 4.07267 20.9493C4.90658 21.1109 5.72778 21.3324 6.5299 21.6119C7.7627 22.048 8.97873 22.5427 10.1612 23.0963C14.0946 24.8289 17.5481 27.491 20.2249 30.8537C22.1706 33.4367 23.4873 36.4559 25.6258 38.8963C26.1463 39.6636 26.8202 40.3147 27.605 40.8084C27.909 40.9065 28.2355 40.911 28.542 40.8213C28.8486 40.7315 29.1211 40.5518 29.3242 40.3052Z" fill="var(--fill-0, #455A64)"/>
<path id="Vector_21" d="M2.74763 19.1546C2.74763 19.2217 2.74763 19.2804 2.74763 19.3475C2.74763 19.6913 2.80634 20.3119 3.30114 20.1442C3.4104 20.1043 3.5043 20.0309 3.5695 19.9346C3.69365 19.7667 3.78223 19.5752 3.82982 19.3719C3.8774 19.1685 3.883 18.9576 3.84625 18.7521C3.83646 18.5751 3.76182 18.4079 3.63659 18.2824C3.385 18.0728 3.12502 18.1986 2.97407 18.4502C2.84464 18.6641 2.7671 18.9054 2.74763 19.1546Z" fill="var(--fill-0, #263238)"/>
<path id="freepik--Tumor--inject-128" d="M63.1635 9.61925C62.6519 10.1392 61.7378 10.156 61.0334 10.4579C60.5134 10.7141 60.1043 11.1504 59.8822 11.6858C59.66 12.2211 59.6399 12.819 59.8257 13.368C60.0438 13.9383 60.4966 14.4834 60.3876 15.0872C60.2366 15.8755 59.2806 16.1523 58.7103 16.6638C58.3311 16.9922 58.0713 17.4367 57.9711 17.9282C57.871 18.4197 57.9363 18.9305 58.1568 19.381C58.5006 20.0603 59.1883 20.5384 59.4986 21.2344C60.027 22.4085 59.3477 23.7504 59.3728 25.0419C59.3438 25.2804 59.3969 25.5218 59.5235 25.7261C59.65 25.9304 59.8424 26.0854 60.0689 26.1657C60.8656 26.5766 61.8384 26.736 62.4171 27.4153C62.9958 28.0946 62.9958 29.319 63.3732 30.2499C63.6284 30.8303 64.0576 31.3171 64.6014 31.6431C65.1452 31.9691 65.7769 32.1182 66.4091 32.0697C67.4574 31.9691 68.5979 31.3401 69.4701 31.9355C69.7868 32.2071 70.0685 32.517 70.3088 32.858C70.7835 33.367 71.4267 33.6866 72.1191 33.7576C72.8115 33.8285 73.5062 33.646 74.0743 33.2438C74.4768 32.9335 74.829 32.489 75.3406 32.4052C76.0367 32.2962 76.607 32.9251 77.2108 33.2941C78.3346 33.9734 80.1125 33.5709 81.2279 32.9838C82.5781 32.271 82.3433 30.5266 82.0665 29.2519C81.5135 26.1845 80.7827 23.1519 79.8777 20.1694C78.9685 17.3785 77.5464 14.7817 75.6845 12.5126C74.7664 11.3752 73.7597 10.3124 72.6737 9.33411C71.9022 8.63804 71.1222 7.6568 70.0823 7.39682C69.5482 7.32522 69.0055 7.35081 68.4805 7.47232C67.7265 7.45614 66.9785 7.33475 66.2581 7.11169C65.3524 6.91041 64.195 7.00268 63.7841 7.83293C63.5409 8.31096 63.6331 8.92317 63.348 9.38443C63.2981 9.47117 63.236 9.55026 63.1635 9.61925Z" fill="var(--fill-0, #455A64)"/>
<path id="Vector_22" d="M98.7975 48.004C98.831 48.0055 98.8638 48.0137 98.894 48.0281C98.9243 48.0425 98.9513 48.0628 98.9736 48.0878C98.9975 48.1105 99.0165 48.1379 99.0294 48.1681C99.0424 48.1984 99.0491 48.231 99.0491 48.2639V48.9516C99.047 49.0177 99.0198 49.0805 98.9731 49.1272C98.9264 49.1739 98.8636 49.2011 98.7975 49.2032H97.0699V54.4615C97.0711 54.4959 97.065 54.53 97.0519 54.5618C97.0389 54.5937 97.0193 54.6223 96.9944 54.646C96.9444 54.6932 96.8787 54.7201 96.8099 54.7215H96.03C95.997 54.7215 95.9645 54.7148 95.9342 54.7018C95.9039 54.6888 95.8766 54.6699 95.8539 54.646C95.8265 54.6239 95.8047 54.5957 95.7902 54.5637C95.7756 54.5316 95.7687 54.4967 95.77 54.4615V49.2032H94.0424C93.9763 49.2011 93.9136 49.1739 93.8668 49.1272C93.8201 49.0805 93.7929 49.0177 93.7908 48.9516V48.2639C93.7908 48.231 93.7975 48.1984 93.8105 48.1681C93.8235 48.1379 93.8424 48.1105 93.8663 48.0878C93.8886 48.0628 93.9157 48.0425 93.9459 48.0281C93.9761 48.0137 94.0089 48.0055 94.0424 48.004H98.7975Z" fill="var(--fill-0, #455A64)"/>
<path id="Vector_23" d="M105.196 48.004C105.23 48.0055 105.263 48.0137 105.293 48.0281C105.323 48.0425 105.35 48.0628 105.372 48.0878C105.396 48.1105 105.415 48.1379 105.428 48.1681C105.441 48.1984 105.448 48.231 105.448 48.2639V52.1972C105.456 52.5621 105.399 52.9256 105.28 53.2706C105.171 53.5853 104.994 53.8717 104.76 54.1093C104.521 54.3431 104.236 54.5232 103.922 54.6376C103.536 54.7685 103.13 54.831 102.722 54.8221C102.315 54.8324 101.909 54.7699 101.523 54.6376C101.21 54.5214 100.924 54.3415 100.684 54.1093C100.454 53.8712 100.279 53.5847 100.173 53.2706C100.058 52.9246 100.001 52.5618 100.005 52.1972V48.2639C100.005 48.231 100.012 48.1984 100.025 48.1681C100.038 48.1379 100.057 48.1105 100.081 48.0878C100.129 48.0368 100.195 48.0067 100.265 48.004H101.045C101.078 48.0055 101.111 48.0137 101.142 48.0281C101.172 48.0425 101.199 48.0628 101.221 48.0878C101.248 48.1087 101.269 48.1354 101.284 48.166C101.298 48.1966 101.306 48.2301 101.305 48.2639V52.1972C101.3 52.4249 101.334 52.6519 101.406 52.8681C101.469 53.0407 101.573 53.1959 101.708 53.321C101.838 53.4396 101.992 53.5283 102.16 53.5809C102.351 53.6352 102.549 53.6634 102.747 53.6648C102.949 53.6633 103.149 53.6351 103.343 53.5809C103.513 53.5282 103.671 53.4396 103.804 53.321C103.937 53.1938 104.04 53.0393 104.106 52.8681C104.185 52.6535 104.222 52.4257 104.215 52.1972V48.3059C104.215 48.2729 104.222 48.2403 104.235 48.2101C104.248 48.1798 104.267 48.1525 104.291 48.1298C104.339 48.0788 104.405 48.0486 104.475 48.0459L105.196 48.004Z" fill="var(--fill-0, #455A64)"/>
<path id="Vector_24" d="M110.044 51.4592L111.872 48.2891L111.998 48.1382C112.034 48.1002 112.079 48.0708 112.128 48.052C112.177 48.0331 112.23 48.0253 112.283 48.0291H112.937C112.97 48.0307 113.003 48.0389 113.034 48.0533C113.064 48.0677 113.091 48.088 113.113 48.113C113.137 48.1357 113.156 48.163 113.169 48.1933C113.182 48.2236 113.189 48.2562 113.189 48.2891V54.4867C113.19 54.521 113.184 54.5552 113.171 54.587C113.158 54.6188 113.138 54.6475 113.113 54.6712C113.09 54.695 113.063 54.714 113.033 54.727C113.003 54.74 112.97 54.7467 112.937 54.7467H112.157C112.088 54.7467 112.022 54.7193 111.973 54.6705C111.924 54.6217 111.897 54.5556 111.897 54.4867V50.738L110.648 52.8932C110.61 52.9523 110.565 53.0059 110.513 53.0526C110.485 53.0812 110.451 53.1034 110.413 53.1179C110.376 53.1323 110.335 53.1387 110.295 53.1365H109.792C109.752 53.1382 109.712 53.1316 109.674 53.1172C109.637 53.1027 109.603 53.0808 109.574 53.0526C109.522 53.0059 109.477 52.9523 109.44 52.8932L108.19 50.738V54.4867C108.191 54.521 108.185 54.5552 108.172 54.587C108.159 54.6188 108.14 54.6475 108.115 54.6712C108.092 54.695 108.065 54.714 108.034 54.727C108.004 54.74 107.972 54.7467 107.939 54.7467H107.184C107.15 54.7468 107.116 54.7403 107.084 54.7273C107.052 54.7144 107.024 54.6953 106.999 54.6712C106.975 54.6475 106.955 54.6188 106.942 54.587C106.929 54.5552 106.923 54.521 106.924 54.4867V48.2891C106.924 48.2562 106.931 48.2236 106.944 48.1933C106.957 48.163 106.976 48.1357 106.999 48.113C107.048 48.062 107.114 48.0319 107.184 48.0291H107.838C107.89 48.0269 107.943 48.0355 107.992 48.0542C108.041 48.073 108.086 48.1015 108.123 48.1382L108.249 48.2891L110.044 51.4592Z" fill="var(--fill-0, #455A64)"/>
<path id="Vector_25" d="M114.455 50.5199C114.476 50.1734 114.547 49.8317 114.665 49.5051C114.778 49.1927 114.955 48.9071 115.185 48.6665C115.423 48.4264 115.709 48.238 116.023 48.113C116.416 47.963 116.835 47.8918 117.256 47.9033C117.67 47.8947 118.083 47.963 118.472 48.1046C118.787 48.2296 119.072 48.418 119.311 48.6581C119.539 48.9012 119.718 49.1859 119.839 49.4968C119.958 49.823 120.028 50.1649 120.049 50.5115C120.049 50.6289 120.049 50.7631 120.049 50.9141C120.049 51.065 120.049 51.216 120.049 51.3669C120.049 51.5179 120.049 51.6772 120.049 51.8282C120.049 51.9791 120.049 52.1049 120.049 52.2307C120.028 52.5745 119.957 52.9135 119.839 53.2371C119.727 53.5501 119.549 53.8359 119.319 54.0757C119.081 54.314 118.795 54.4997 118.48 54.6209C117.686 54.8893 116.826 54.8893 116.032 54.6209C115.718 54.4988 115.432 54.3132 115.193 54.0757C114.963 53.8359 114.785 53.5501 114.673 53.2371C114.555 52.9135 114.484 52.5745 114.463 52.2307C114.463 52.1049 114.463 51.9707 114.463 51.8282C114.463 51.6856 114.463 51.5263 114.463 51.3669C114.463 51.2076 114.463 51.065 114.463 50.9141C114.463 50.7631 114.455 50.6541 114.455 50.5199ZM118.799 50.5702C118.801 50.3707 118.762 50.1729 118.686 49.9885C118.609 49.8041 118.497 49.6369 118.355 49.4968C118.049 49.2525 117.669 49.1194 117.277 49.1194C116.885 49.1194 116.505 49.2525 116.199 49.4968C116.057 49.6369 115.945 49.8041 115.868 49.9885C115.792 50.1729 115.753 50.3707 115.755 50.5702C115.755 50.8162 115.755 51.0958 115.755 51.4089C115.755 51.7108 115.755 51.9791 115.755 52.2475C115.754 52.4458 115.792 52.6423 115.869 52.8253C115.945 53.0083 116.058 53.174 116.199 53.3126C116.505 53.5568 116.885 53.6899 117.277 53.6899C117.669 53.6899 118.049 53.5568 118.355 53.3126C118.497 53.174 118.609 53.0083 118.685 52.8253C118.762 52.6423 118.8 52.4458 118.799 52.2475C118.799 52.0043 118.799 51.7359 118.799 51.4089C118.799 51.0818 118.816 50.8302 118.799 50.587V50.5702Z" fill="var(--fill-0, #455A64)"/>
<path id="Vector_26" d="M124.099 48.004C124.754 47.9609 125.402 48.1609 125.919 48.5659C126.131 48.7608 126.296 49.0005 126.404 49.2674C126.511 49.5343 126.557 49.8218 126.54 50.109C126.556 50.5289 126.445 50.944 126.221 51.2998C125.994 51.6429 125.662 51.9022 125.273 52.0378L126.598 54.4028C126.605 54.4389 126.605 54.4758 126.598 54.5118C126.598 54.5402 126.592 54.5682 126.58 54.5942C126.569 54.6201 126.552 54.6435 126.531 54.6628C126.512 54.6825 126.488 54.6979 126.462 54.708C126.436 54.7181 126.408 54.7227 126.38 54.7215H125.542C125.439 54.7269 125.337 54.6941 125.257 54.6292C125.206 54.5803 125.164 54.5237 125.131 54.4615L123.873 52.2307H122.598V54.4615C122.598 54.4957 122.591 54.5295 122.578 54.561C122.565 54.5925 122.546 54.6212 122.522 54.6453C122.498 54.6695 122.469 54.6886 122.438 54.7017C122.406 54.7148 122.372 54.7215 122.338 54.7215H121.567C121.532 54.7215 121.499 54.7148 121.467 54.7017C121.436 54.6886 121.407 54.6695 121.383 54.6453C121.359 54.6212 121.34 54.5925 121.326 54.561C121.313 54.5295 121.307 54.4957 121.307 54.4615V48.2639C121.307 48.231 121.313 48.1984 121.326 48.1681C121.339 48.1379 121.358 48.1105 121.382 48.0878C121.405 48.0618 121.434 48.0409 121.466 48.0265C121.497 48.012 121.532 48.0044 121.567 48.004H124.099ZM122.657 51.0314H124.049C124.34 51.0382 124.629 50.9719 124.888 50.8386C125.004 50.7584 125.095 50.648 125.153 50.5194C125.211 50.3908 125.232 50.2488 125.215 50.109C125.232 49.9702 125.211 49.8293 125.153 49.702C125.096 49.5746 125.004 49.4658 124.888 49.3877C124.627 49.2611 124.339 49.1979 124.049 49.2032H122.657V51.0314Z" fill="var(--fill-0, #455A64)"/>
<path id="Vector_27" d="M110.304 45.6558C110.192 45.6558 110.086 45.6116 110.007 45.533C109.929 45.4543 109.884 45.3477 109.884 45.2365V39.3659L87.1655 25.4193C87.1187 25.3901 87.0781 25.352 87.046 25.3071C87.014 25.2623 86.991 25.2115 86.9786 25.1578C86.9661 25.104 86.9644 25.0484 86.9734 24.9939C86.9825 24.9395 87.0021 24.8874 87.0313 24.8406C87.0605 24.7938 87.0986 24.7532 87.1435 24.7211C87.1884 24.6891 87.2391 24.6662 87.2929 24.6537C87.3466 24.6412 87.4023 24.6395 87.4567 24.6485C87.5111 24.6576 87.5632 24.6773 87.61 24.7065L110.539 38.7789C110.6 38.8171 110.65 38.8702 110.686 38.9333C110.721 38.9964 110.739 39.0673 110.74 39.1395V45.2281C110.741 45.2853 110.73 45.3421 110.709 45.3951C110.687 45.4481 110.655 45.4961 110.614 45.5362C110.573 45.5762 110.525 45.6075 110.471 45.6281C110.418 45.6487 110.361 45.6581 110.304 45.6558Z" fill="var(--fill-0, #455A64)"/>
<path id="Vector_28" d="M88.8847 25.0839C88.8863 24.7866 88.7997 24.4955 88.6358 24.2476C88.4718 23.9996 88.238 23.8059 87.9638 23.691C87.6897 23.5761 87.3876 23.5452 87.0958 23.6021C86.8041 23.6591 86.5358 23.8014 86.325 24.011C86.1142 24.2206 85.9704 24.4881 85.9118 24.7795C85.8532 25.0709 85.8825 25.3732 85.9958 25.648C86.1092 25.9228 86.3016 26.1577 86.5486 26.323C86.7957 26.4884 87.0863 26.5766 87.3835 26.5766C87.7802 26.5766 88.1608 26.4196 88.442 26.1399C88.7233 25.8602 88.8825 25.4805 88.8847 25.0839Z" fill="var(--fill-0, #455A64)"/>
</g>
</svg>
