<svg preserveAspectRatio="none" width="100%" height="100%" overflow="visible" style="display: block;" viewBox="0 0 17 12" fill="none" xmlns="http://www.w3.org/2000/svg">
<g id="View">
<path id="Ellipse 1333" d="M14.96 5.31785C15.1771 5.62236 15.2857 5.77462 15.2857 6C15.2857 6.22538 15.1771 6.37764 14.96 6.68215C13.9842 8.0504 11.4923 11 8.14286 11C4.79341 11 2.3015 8.0504 1.32574 6.68215C1.10858 6.37764 1 6.22538 1 6C1 5.77462 1.10858 5.62236 1.32574 5.31785C2.3015 3.9496 4.79341 1 8.14286 1C11.4923 1 13.9842 3.9496 14.96 5.31785Z" stroke="var(--stroke-0, #AAAAAA)" stroke-width="1.5"/>
<path id="Ellipse 1334" d="M10.2861 6C10.2861 4.81653 9.32667 3.85714 8.14321 3.85714C6.95974 3.85714 6.00035 4.81653 6.00035 6C6.00035 7.18347 6.95974 8.14286 8.14321 8.14286C9.32667 8.14286 10.2861 7.18347 10.2861 6Z" stroke="var(--stroke-0, #AAAAAA)" stroke-width="1.5"/>
</g>
</svg>
