<svg preserveAspectRatio="none" width="100%" height="100%" overflow="visible" style="display: block;" viewBox="0 0 125 54" fill="none" xmlns="http://www.w3.org/2000/svg">
<g id="freepik--brain--inject-128">
<path id="Vector" d="M79.7801 22.635L61.5061 13.1332H1.74436V12.2945H61.7074L80.1659 21.8886L79.7801 22.635Z" fill="var(--fill-0, #455A64)"/>
<path id="Vector_2" d="M3.48877 12.7138C3.48877 13.0588 3.38648 13.3961 3.1948 13.6829C3.00313 13.9698 2.7307 14.1934 2.41195 14.3254C2.09321 14.4574 1.74246 14.492 1.40408 14.4247C1.06571 14.3574 0.754883 14.1912 0.510928 13.9473C0.266972 13.7033 0.100842 13.3925 0.0335345 13.0541C-0.0337727 12.7158 0.000783343 12.365 0.132811 12.0463C0.264839 11.7275 0.48842 11.4551 0.775282 11.2634C1.06214 11.0717 1.39939 10.9694 1.7444 10.9694C2.20704 10.9694 2.65074 11.1532 2.97787 11.4804C3.30501 11.8075 3.48877 12.2512 3.48877 12.7138Z" fill="var(--fill-0, #455A64)"/>
<path id="Vector_3" d="M101.728 44.532C97.3248 44.527 93.0223 43.2169 89.364 40.7672C85.7057 38.3176 82.8558 34.8384 81.1744 30.7694C79.493 26.7004 79.0556 22.2242 79.9176 17.9067C80.7796 13.5892 82.9022 9.62412 86.0171 6.51268C89.1321 3.40124 93.0996 1.28311 97.418 0.42601C101.737 -0.431091 106.212 0.011316 110.279 1.69731C114.346 3.38331 117.822 6.23721 120.268 9.89828C122.713 13.5594 124.019 17.8633 124.019 22.266C124.012 28.1736 121.661 33.837 117.481 38.0119C113.301 42.1869 107.635 44.532 101.728 44.532ZM101.728 0.486413C97.4149 0.486413 93.1992 1.76524 89.6134 4.16117C86.0277 6.5571 83.2329 9.96254 81.5826 13.9468C79.9322 17.9311 79.5004 22.3153 80.3417 26.545C81.1831 30.7747 83.2598 34.66 86.3092 37.7094C89.3587 40.7589 93.2439 42.8356 97.4736 43.6769C101.703 44.5182 106.088 44.0864 110.072 42.4361C114.056 40.7857 117.462 37.991 119.857 34.4052C122.253 30.8194 123.532 26.6037 123.532 22.2911C123.532 16.5082 121.235 10.962 117.146 6.87287C113.057 2.78369 107.51 0.486413 101.728 0.486413Z" fill="var(--fill-0, #0061DF)"/>
<g id="freepik--brain--inject-128_2">
<path id="Vector_4" d="M101.459 36.7829C100.679 36.7829 100.621 36.4055 100.621 36.3636C100.692 35.3005 100.575 34.2331 100.277 33.2103C100.033 32.819 99.7275 32.4705 99.371 32.1788C99.0885 31.9383 98.8451 31.6554 98.6497 31.3401L98.6078 31.2562H98.5156C96.897 30.6776 96.1338 29.8809 96.1086 28.7403V28.5894L95.9661 28.5307C94.7836 28.0023 93.6263 27.0295 94.0288 23.8594V23.591H93.752C89.0305 23.591 88.6195 23.2891 86.9674 21.5531L86.8249 21.4022C86.3945 21.0588 86.0683 20.6022 85.8831 20.0837C85.6979 19.5652 85.661 19.0053 85.7766 18.4669C85.8238 18.0742 85.8238 17.6772 85.7766 17.2844C85.5921 15.6072 86.1875 14.584 87.8899 13.6531C88.6525 13.1787 89.3563 12.6157 89.9865 11.9758C91.1232 10.7981 92.4947 9.87236 94.012 9.25863C95.6761 8.79324 97.4003 8.57842 99.1277 8.62126C101.451 8.62126 107.246 8.95672 110.726 12.1184C116.219 17.0999 118.433 21.6789 117.486 26.107C116.907 28.8409 115.666 30.8034 113.913 31.793C113.509 32.0151 113.077 32.1842 112.63 32.2962L112.471 32.3381V32.5142C112.461 32.8089 112.388 33.0981 112.258 33.3627C112.128 33.6273 111.943 33.8612 111.716 34.0489C110.944 34.5793 110.017 34.8362 109.082 34.7785C108.403 34.7713 107.726 34.6982 107.061 34.5605H106.986H106.91C106.486 34.7739 106.018 34.8886 105.543 34.896C105.124 34.8793 104.714 34.7681 104.343 34.5706C103.973 34.3731 103.652 34.0944 103.405 33.7554L103.204 33.5206L103.086 33.3948L102.902 33.4451C102.746 33.5011 102.611 33.6018 102.512 33.7346C102.414 33.8674 102.357 34.0264 102.348 34.1915V36.3468C102.348 36.3468 102.247 36.7829 101.459 36.7829Z" fill="var(--fill-0, white)"/>
<path id="Vector_5" d="M96.1169 28.5894C96.0331 30.4176 97.7942 31.1053 99.6225 31.6001C101.088 31.8782 102.419 32.6365 103.405 33.7554C103.788 34.3311 104.376 34.7387 105.05 34.8946C105.723 35.0505 106.431 34.943 107.028 34.5941C109.913 35.1811 112.512 34.6947 112.521 32.3884C111.172 32.6591 109.774 32.5338 108.495 32.0278C103.799 30.3505 105.317 30.4092 99.9579 29.5119C98.656 29.3585 97.3723 29.0776 96.1253 28.6732" fill="var(--fill-0, #0061DF)"/>
<path id="Vector_6" opacity="0.35" d="M96.1169 28.5894C96.0331 30.4176 97.7942 31.1053 99.6225 31.6001C101.088 31.8782 102.419 32.6365 103.405 33.7554C103.788 34.3311 104.376 34.7387 105.05 34.8946C105.723 35.0505 106.431 34.943 107.028 34.5941C109.913 35.1811 112.512 34.6947 112.521 32.3884C111.172 32.6591 109.774 32.5338 108.495 32.0278C103.799 30.3505 105.317 30.4092 99.9579 29.5119C98.656 29.3585 97.3723 29.0776 96.1253 28.6732" fill="var(--fill-0, white)"/>
<path id="Vector_7" d="M108.487 32.011C108.974 32.1911 109.476 32.3259 109.988 32.4136C110.877 32.5854 111.794 32.5492 112.667 32.3077C113.54 32.0661 114.346 31.6259 115.02 31.0214C115.728 30.3464 116.297 29.5404 116.697 28.6481C116.927 28.1397 117.121 27.6156 117.276 27.0798C117.382 26.8341 117.464 26.5784 117.519 26.3166C117.569 25.9309 117.611 25.5535 117.662 25.1677C117.695 24.7434 117.695 24.3172 117.662 23.893C117.647 22.9128 117.474 21.9415 117.15 21.0164C116.89 20.3119 116.513 19.6578 116.186 18.9785C115.859 18.2992 115.683 17.796 115.347 17.2257C114.875 16.3194 114.238 15.5088 113.468 14.8356C113.624 15.1905 113.725 15.5663 113.77 15.951C113.83 16.234 113.795 16.5287 113.67 16.7896C113.605 16.9105 113.5 17.0042 113.372 17.0534C113.244 17.1027 113.103 17.1043 112.974 17.058C113.324 17.331 113.722 17.5358 114.148 17.6618C114.253 17.6826 114.353 17.7255 114.441 17.7876C114.525 17.8547 114.441 17.8967 114.441 17.9889C114.525 17.9889 114.542 18.1063 114.534 18.1902C114.492 19.2804 114.953 20.3707 114.802 21.4525C114.799 21.5053 114.786 21.557 114.763 21.6045C114.74 21.6521 114.708 21.6945 114.668 21.7293C114.615 21.7414 114.561 21.7414 114.508 21.7293C114.409 21.7144 114.316 21.6695 114.243 21.6006C114.169 21.5317 114.119 21.442 114.097 21.3435C114.117 21.7526 114.196 22.1566 114.332 22.5427C114.484 22.8633 114.67 23.1669 114.886 23.4485C115.102 23.729 115.264 24.0476 115.364 24.3878C115.423 24.5459 115.436 24.7177 115.4 24.8828C115.364 25.0478 115.282 25.1991 115.163 25.3187C114.953 25.5115 114.651 25.6457 114.542 25.9392C114.822 25.8328 115.125 25.7954 115.423 25.8302C115.72 25.8669 115.994 26.0099 116.194 26.2328C116.244 26.2915 116.295 26.3921 116.244 26.4592C116.21 26.4858 116.17 26.5031 116.127 26.5095C115.811 26.4928 115.495 26.4928 115.179 26.5095C114.92 26.6105 114.693 26.7819 114.525 27.0043C114.223 27.3398 114.148 27.7675 113.854 28.1281C113.553 28.5015 113.16 28.7905 112.714 28.9668C111.88 29.1783 111.002 29.1285 110.198 28.8242C110.107 28.8003 110.023 28.7562 109.952 28.6952C109.881 28.6342 109.824 28.5579 109.787 28.4719C109.77 28.3655 109.787 28.2566 109.833 28.1594C109.879 28.0621 109.954 27.9811 110.047 27.9268C110.215 27.801 110.424 27.7172 110.584 27.583C109.074 27.583 107.506 27.2475 106.021 27.4404C105.594 27.4991 105.183 27.5998 104.738 27.6165C104.307 27.6561 103.874 27.5466 103.514 27.3062C103.254 27.1217 103.069 26.845 102.826 26.6437C102.163 26.2721 101.434 26.0328 100.679 25.9392C100.588 25.9245 100.501 25.8889 100.425 25.8351C100.349 25.7812 100.287 25.7107 100.243 25.6289C100.176 25.4612 100.335 25.218 100.511 25.2851C100.238 25.359 99.9529 25.3761 99.6728 25.3354C99.5806 25.3293 99.4913 25.3005 99.4128 25.2516C99.3371 25.1873 99.2829 25.1015 99.2574 25.0055C99.2319 24.9096 99.2364 24.8082 99.2703 24.7148C99.3381 24.4966 99.4609 24.2994 99.6268 24.1423C99.7928 23.9852 99.9963 23.8733 100.218 23.8175C100.663 23.7082 101.125 23.691 101.577 23.7672C102.594 23.914 103.628 23.914 104.646 23.7672C105.146 23.6877 105.634 23.544 106.097 23.3395C106.533 23.1466 106.852 22.7859 107.254 22.5763C105.677 23.4149 103.782 23.2807 102.029 22.9956C101.289 22.8313 100.53 22.7748 99.7735 22.8279C99.4153 22.8574 99.0671 22.9602 98.7503 23.1298C98.591 23.222 98.0878 23.5323 97.9871 23.1298C97.9828 23.0843 97.988 23.0384 98.0024 22.9951C98.0169 22.9518 98.0402 22.912 98.071 22.8782C98.2184 22.6714 98.4222 22.5113 98.6581 22.4169C98.9458 22.348 99.2266 22.2526 99.4967 22.1318C99.7064 21.9976 99.8573 21.7628 100.075 21.6454C100.344 21.5376 100.626 21.4698 100.914 21.4441C101.206 21.3786 101.472 21.2267 101.677 21.008C101.76 20.9387 101.823 20.8486 101.86 20.747C101.897 20.6453 101.906 20.5357 101.887 20.4294C101.617 20.5231 101.334 20.5712 101.048 20.5719C100.851 20.5608 100.657 20.5242 100.47 20.4629C100.235 20.4464 100.002 20.5083 99.807 20.639C99.4788 20.8767 99.0998 21.0346 98.7 21.1003C98.1775 21.181 97.6435 21.0677 97.1988 20.7816C97.2743 21.5112 96.5195 22.1066 95.7899 22.1402C95.16 22.1307 94.5448 21.9479 94.012 21.6118C94.0629 21.6905 94.09 21.7823 94.09 21.876C94.09 21.9698 94.0629 22.0615 94.012 22.1402C93.9107 22.2574 93.7772 22.3422 93.628 22.3839C93.4789 22.4257 93.3207 22.4226 93.1733 22.375C92.8875 22.2829 92.6074 22.1737 92.3347 22.0479C91.7207 21.9049 91.0945 21.8207 90.4645 21.7963C90.1486 21.7762 89.8444 21.6692 89.5855 21.4872C89.3265 21.3052 89.1229 21.0552 88.9969 20.7648C88.9591 20.6333 88.9591 20.4938 88.9969 20.3623C89.1478 19.9597 89.693 19.9513 90.1207 19.9094C90.8452 19.8351 91.5141 19.4872 91.9909 18.9366C91.4132 19.1958 90.7874 19.3302 90.1542 19.3307C89.8816 19.3549 89.6097 19.2772 89.3911 19.1127C89.3398 19.0694 89.2987 19.0154 89.2705 18.9546C89.2422 18.8938 89.2276 18.8275 89.2276 18.7605C89.2276 18.6934 89.2422 18.6271 89.2705 18.5663C89.2987 18.5055 89.3398 18.4515 89.3911 18.4082C88.5524 18.7856 87.2106 18.9701 87.0009 17.7373C86.9884 17.4915 86.9884 17.2452 87.0009 16.9993C87.0009 16.5045 86.7409 15.9929 86.9254 15.5317C87.0952 15.2082 87.3292 14.9229 87.6131 14.693C87.9405 14.3634 88.1674 13.9475 88.2673 13.4938L87.6718 13.8712C87.3951 14.0808 87.1183 14.2821 86.8332 14.5085C86.5486 14.7334 86.3191 15.0202 86.1623 15.3472C85.9199 15.9388 85.8333 16.5827 85.9107 17.2174C86.0784 18.7269 85.1559 19.4817 86.917 21.3267C88.6782 23.1717 88.8459 23.5072 94.1294 23.5072C93.3746 28.539 96.2679 28.7235 99.9999 29.3777C105.308 30.4008 103.791 30.3505 108.487 32.011Z" fill="var(--fill-0, #0061DF)"/>
<path id="Vector_8" opacity="0.6" d="M108.487 32.011C108.974 32.1911 109.476 32.3259 109.988 32.4136C110.877 32.5854 111.794 32.5492 112.667 32.3077C113.54 32.0661 114.346 31.6259 115.02 31.0214C115.728 30.3464 116.297 29.5404 116.697 28.6481C116.927 28.1397 117.121 27.6156 117.276 27.0798C117.382 26.8341 117.464 26.5784 117.519 26.3166C117.569 25.9309 117.611 25.5535 117.662 25.1677C117.695 24.7434 117.695 24.3172 117.662 23.893C117.647 22.9128 117.474 21.9415 117.15 21.0164C116.89 20.3119 116.513 19.6578 116.186 18.9785C115.859 18.2992 115.683 17.796 115.347 17.2257C114.875 16.3194 114.238 15.5088 113.468 14.8356C113.624 15.1905 113.725 15.5663 113.77 15.951C113.83 16.234 113.795 16.5287 113.67 16.7896C113.605 16.9105 113.5 17.0042 113.372 17.0534C113.244 17.1027 113.103 17.1043 112.974 17.058C113.324 17.331 113.722 17.5358 114.148 17.6618C114.253 17.6826 114.353 17.7255 114.441 17.7876C114.525 17.8547 114.441 17.8967 114.441 17.9889C114.525 17.9889 114.542 18.1063 114.534 18.1902C114.492 19.2804 114.953 20.3707 114.802 21.4525C114.799 21.5053 114.786 21.557 114.763 21.6045C114.74 21.6521 114.708 21.6945 114.668 21.7293C114.615 21.7414 114.561 21.7414 114.508 21.7293C114.409 21.7144 114.316 21.6695 114.243 21.6006C114.169 21.5317 114.119 21.442 114.097 21.3435C114.117 21.7526 114.196 22.1566 114.332 22.5427C114.484 22.8633 114.67 23.1669 114.886 23.4485C115.102 23.729 115.264 24.0476 115.364 24.3878C115.423 24.5459 115.436 24.7177 115.4 24.8828C115.364 25.0478 115.282 25.1991 115.163 25.3187C114.953 25.5115 114.651 25.6457 114.542 25.9392C114.822 25.8328 115.125 25.7954 115.423 25.8302C115.72 25.8669 115.994 26.0099 116.194 26.2328C116.244 26.2915 116.295 26.3921 116.244 26.4592C116.21 26.4858 116.17 26.5031 116.127 26.5095C115.811 26.4928 115.495 26.4928 115.179 26.5095C114.92 26.6105 114.693 26.7819 114.525 27.0043C114.223 27.3398 114.148 27.7675 113.854 28.1281C113.553 28.5015 113.16 28.7905 112.714 28.9668C111.88 29.1783 111.002 29.1285 110.198 28.8242C110.107 28.8003 110.023 28.7562 109.952 28.6952C109.881 28.6342 109.824 28.5579 109.787 28.4719C109.77 28.3655 109.787 28.2566 109.833 28.1594C109.879 28.0621 109.954 27.9811 110.047 27.9268C110.215 27.801 110.424 27.7172 110.584 27.583C109.074 27.583 107.506 27.2475 106.021 27.4404C105.594 27.4991 105.183 27.5998 104.738 27.6165C104.307 27.6561 103.874 27.5466 103.514 27.3062C103.254 27.1217 103.069 26.845 102.826 26.6437C102.163 26.2721 101.434 26.0328 100.679 25.9392C100.588 25.9245 100.501 25.8889 100.425 25.8351C100.349 25.7812 100.287 25.7107 100.243 25.6289C100.176 25.4612 100.335 25.218 100.511 25.2851C100.238 25.359 99.9529 25.3761 99.6728 25.3354C99.5806 25.3293 99.4913 25.3005 99.4128 25.2516C99.3371 25.1873 99.2829 25.1015 99.2574 25.0055C99.2319 24.9096 99.2364 24.8082 99.2703 24.7148C99.3381 24.4966 99.4609 24.2994 99.6268 24.1423C99.7928 23.9852 99.9963 23.8733 100.218 23.8175C100.663 23.7082 101.125 23.691 101.577 23.7672C102.594 23.914 103.628 23.914 104.646 23.7672C105.146 23.6877 105.634 23.544 106.097 23.3395C106.533 23.1466 106.852 22.7859 107.254 22.5763C105.677 23.4149 103.782 23.2807 102.029 22.9956C101.289 22.8313 100.53 22.7748 99.7735 22.8279C99.4153 22.8574 99.0671 22.9602 98.7503 23.1298C98.591 23.222 98.0878 23.5323 97.9871 23.1298C97.9828 23.0843 97.988 23.0384 98.0024 22.9951C98.0169 22.9518 98.0402 22.912 98.071 22.8782C98.2184 22.6714 98.4222 22.5113 98.6581 22.4169C98.9458 22.348 99.2266 22.2526 99.4967 22.1318C99.7064 21.9976 99.8573 21.7628 100.075 21.6454C100.344 21.5376 100.626 21.4698 100.914 21.4441C101.206 21.3786 101.472 21.2267 101.677 21.008C101.76 20.9387 101.823 20.8486 101.86 20.747C101.897 20.6453 101.906 20.5357 101.887 20.4294C101.617 20.5231 101.334 20.5712 101.048 20.5719C100.851 20.5608 100.657 20.5242 100.47 20.4629C100.235 20.4464 100.002 20.5083 99.807 20.639C99.4788 20.8767 99.0998 21.0346 98.7 21.1003C98.1775 21.181 97.6435 21.0677 97.1988 20.7816C97.2743 21.5112 96.5195 22.1066 95.7899 22.1402C95.16 22.1307 94.5448 21.9479 94.012 21.6118C94.0629 21.6905 94.09 21.7823 94.09 21.876C94.09 21.9698 94.0629 22.0615 94.012 22.1402C93.9107 22.2574 93.7772 22.3422 93.628 22.3839C93.4789 22.4257 93.3207 22.4226 93.1733 22.375C92.8875 22.2829 92.6074 22.1737 92.3347 22.0479C91.7207 21.9049 91.0945 21.8207 90.4645 21.7963C90.1486 21.7762 89.8444 21.6692 89.5855 21.4872C89.3265 21.3052 89.1229 21.0552 88.9969 20.7648C88.9591 20.6333 88.9591 20.4938 88.9969 20.3623C89.1478 19.9597 89.693 19.9513 90.1207 19.9094C90.8452 19.8351 91.5141 19.4872 91.9909 18.9366C91.4132 19.1958 90.7874 19.3302 90.1542 19.3307C89.8816 19.3549 89.6097 19.2772 89.3911 19.1127C89.3398 19.0694 89.2987 19.0154 89.2705 18.9546C89.2422 18.8938 89.2276 18.8275 89.2276 18.7605C89.2276 18.6934 89.2422 18.6271 89.2705 18.5663C89.2987 18.5055 89.3398 18.4515 89.3911 18.4082C88.5524 18.7856 87.2106 18.9701 87.0009 17.7373C86.9884 17.4915 86.9884 17.2452 87.0009 16.9993C87.0009 16.5045 86.7409 15.9929 86.9254 15.5317C87.0952 15.2082 87.3292 14.9229 87.6131 14.693C87.9405 14.3634 88.1674 13.9475 88.2673 13.4938L87.6718 13.8712C87.3951 14.0808 87.1183 14.2821 86.8332 14.5085C86.5486 14.7334 86.3191 15.0202 86.1623 15.3472C85.9199 15.9388 85.8333 16.5827 85.9107 17.2174C86.0784 18.7269 85.1559 19.4817 86.917 21.3267C88.6782 23.1717 88.8459 23.5072 94.1294 23.5072C93.3746 28.539 96.2679 28.7235 99.9999 29.3777C105.308 30.4008 103.791 30.3505 108.487 32.011Z" fill="var(--fill-0, white)"/>
<path id="Vector_9" d="M98.3729 31.1724C98.3729 31.8936 99.6896 32.5394 100.101 33.3193C100.371 34.3158 100.479 35.3495 100.419 36.3803C100.419 36.3803 100.419 37.0261 101.501 37.0261C102.583 37.0261 102.608 36.3803 102.608 36.3803V34.225C102.608 33.7302 103.287 33.6044 103.287 33.6044C102.818 32.9727 102.169 32.4965 101.426 32.2375C100.05 31.7343 98.3729 31.1724 98.3729 31.1724Z" fill="var(--fill-0, #455A64)"/>
<path id="Vector_10" d="M105.585 35.2063C105.116 35.1949 104.656 35.0746 104.241 34.8548C103.826 34.6351 103.468 34.3218 103.195 33.9399C102.407 32.9503 101.417 32.3884 99.5555 31.8433C98.0375 31.4072 95.7564 30.7447 95.8571 28.5726C95.8598 28.5313 95.8728 28.4913 95.8947 28.4562C95.9167 28.4211 95.9469 28.3919 95.9828 28.3713C96.0185 28.3507 96.059 28.3399 96.1003 28.3399C96.1415 28.3399 96.182 28.3507 96.2177 28.3713C97.2448 28.734 98.3074 28.987 99.3877 29.1261L99.9916 29.2267C103.707 29.8809 104.143 30.0654 105.602 30.6524C106.239 30.9208 107.112 31.273 108.571 31.793C109.804 32.2811 111.153 32.4034 112.454 32.1452C112.492 32.1362 112.531 32.1361 112.569 32.1448C112.607 32.1535 112.642 32.1709 112.672 32.1955C112.703 32.219 112.728 32.2493 112.746 32.2843C112.763 32.3192 112.773 32.3577 112.773 32.3968C112.79 32.7587 112.724 33.1198 112.578 33.4516C112.433 33.7834 112.212 34.0769 111.934 34.3089C110.961 35.0972 109.242 35.2985 107.078 34.8708C106.613 35.0961 106.102 35.2109 105.585 35.2063ZM96.3602 28.9667C96.5196 30.317 98.0375 30.8705 99.6645 31.3485C101.644 31.9188 102.7 32.5394 103.564 33.6128C103.914 34.138 104.453 34.5073 105.069 34.6433C105.685 34.7793 106.33 34.6715 106.868 34.3424C106.923 34.3256 106.982 34.3256 107.036 34.3424C109.057 34.7618 110.701 34.594 111.548 33.9064C111.73 33.7607 111.882 33.5806 111.994 33.3762C112.106 33.1718 112.177 32.9473 112.202 32.7155C110.909 32.8974 109.591 32.7503 108.37 32.2878C106.885 31.7594 106.013 31.3988 105.367 31.1388C103.95 30.5518 103.531 30.3757 99.8742 29.7383L99.2703 29.6377C98.2951 29.491 97.3332 29.2667 96.3938 28.9667H96.3602Z" fill="var(--fill-0, #455A64)"/>
<path id="Vector_11" d="M92.1166 19.2553C92.3095 19.2553 92.494 19.2553 92.6869 19.2553C93.018 19.2265 93.3401 19.1324 93.6346 18.9785C94.0013 18.8021 94.3227 18.5439 94.5739 18.2237C94.8171 17.9218 94.9345 17.4857 95.2364 17.2341C95.4589 17.101 95.6988 16.9994 95.9492 16.9322C96.3795 16.7643 96.7502 16.4725 97.0143 16.0936C97.2573 16.2427 97.5286 16.3397 97.811 16.3787L97.962 16.5129C98.065 16.6173 98.1526 16.7359 98.222 16.8651C98.3496 17.1351 98.4535 17.4157 98.5323 17.7038C98.5897 17.9936 98.7094 18.2675 98.8832 18.5064C99.057 18.7453 99.2806 18.9436 99.5386 19.0875C100.813 19.6578 101.451 17.8967 101.426 16.9238C101.414 16.5496 101.346 16.1793 101.224 15.8252C101.137 15.4938 100.995 15.1793 100.805 14.8943C100.859 14.6174 100.859 14.3326 100.805 14.0557C101.103 14.177 101.432 14.2005 101.744 14.1228C102.168 14.0132 102.532 13.7424 102.759 13.368C102.992 12.9961 103.079 12.5507 103.002 12.1184C102.952 11.8808 102.868 11.6519 102.751 11.4391C102.591 11.1372 102.356 10.785 102.474 10.4327C102.474 10.3656 102.415 10.265 102.382 10.3573C102.332 10.5553 102.322 10.7614 102.354 10.9631C102.386 11.1649 102.458 11.3581 102.566 11.5314C102.718 11.9224 102.718 12.3563 102.566 12.7474C102.431 13.1026 102.176 13.3993 101.845 13.586C101.671 13.6855 101.475 13.7376 101.275 13.737C101.06 13.7267 100.85 13.6664 100.662 13.5609C100.504 13.1446 100.258 12.7671 99.9412 12.4539C99.656 12.152 99.2116 11.9339 99.22 11.4643C99.225 11.2904 99.2649 11.1193 99.3374 10.9611C99.3679 10.8735 99.4073 10.7892 99.4548 10.7095C99.624 10.4666 99.8642 10.2821 100.142 10.1811C100.419 10.0721 100.704 10.0134 100.981 9.91278H100.839C100.511 9.88938 100.183 9.9351 99.8741 10.047C99.6393 10.1308 99.3457 10.2986 99.2032 10.047C99.1758 9.98383 99.145 9.92224 99.1109 9.86246C99.0896 9.81908 99.0579 9.78163 99.0187 9.75344C98.9986 9.74078 98.9753 9.73405 98.9516 9.73405C98.9278 9.73405 98.9046 9.74078 98.8845 9.75344L98.9684 9.94633C99.005 10.0212 99.0331 10.1 99.0522 10.1811C99.0647 10.2842 99.0647 10.3884 99.0522 10.4914C99.0457 10.8162 98.992 11.1382 98.8929 11.4475C98.8827 11.4949 98.8594 11.5384 98.8258 11.5733C98.7084 11.6572 98.4987 11.4475 98.4148 11.3888L97.9368 11.0869C97.6098 10.894 97.2743 10.7095 96.9388 10.5418C96.2176 10.1811 95.4461 9.87923 94.7332 10.416C94.3307 10.7263 93.8442 10.6759 93.3914 10.8688C92.9148 11.0878 92.5363 11.4755 92.3288 11.9572C92.1212 12.4388 92.0995 12.9803 92.2676 13.477C91.7184 13.3285 91.1395 13.3285 90.5903 13.477C90.3747 13.5679 90.1805 13.7029 90.0202 13.8733C89.8598 14.0438 89.737 14.2459 89.6594 14.4666C89.5099 15.0677 89.4899 15.6938 89.6007 16.3032C89.6007 16.4961 89.9781 16.5716 89.9529 16.3032C89.8449 15.7297 89.8678 15.1391 90.02 14.5756C90.0995 14.3385 90.2396 14.1263 90.4265 13.9601C90.6133 13.7938 90.8404 13.6794 91.0851 13.628C91.5532 13.5482 92.0328 13.5653 92.494 13.6783C92.9447 13.7536 93.364 13.9575 93.7017 14.2653C93.3888 13.8328 92.9249 13.5335 92.4018 13.4267C92.3304 13.1436 92.321 12.8484 92.3741 12.5612C92.4272 12.2741 92.5417 12.0018 92.7097 11.763C92.8777 11.5242 93.0952 11.3244 93.3475 11.1773C93.5997 11.0302 93.8807 10.9393 94.1713 10.9108C94.4754 10.8585 94.7628 10.7349 95.01 10.5502C95.167 10.4343 95.3503 10.3591 95.5434 10.3313C95.7366 10.3035 95.9336 10.324 96.117 10.3908C96.878 10.6559 97.5957 11.0318 98.2471 11.5062C98.3894 11.5964 98.5266 11.6944 98.6581 11.7997C98.7839 11.9088 98.9348 11.9675 99.0606 12.0597C99.1864 12.152 99.287 12.261 99.3961 12.3532C99.6284 12.5519 99.8366 12.7771 100.017 13.0241C100.202 13.258 100.336 13.5282 100.409 13.8172C100.483 14.1062 100.495 14.4075 100.444 14.7014C100.364 15.0403 100.181 15.3459 99.9195 15.5758C99.658 15.8058 99.3315 15.9486 98.9851 15.9846C98.3805 16.1713 97.7277 16.1234 97.1569 15.8504C97.0416 15.7621 96.9467 15.6499 96.8789 15.5215C96.811 15.3931 96.7718 15.2515 96.7638 15.1065C96.7558 14.9615 96.7793 14.8165 96.8327 14.6814C96.8861 14.5463 96.9681 14.4244 97.073 14.324C97.593 13.7705 98.3981 14.257 98.9935 13.888C99.1361 13.7957 98.9264 13.5693 98.8006 13.6028C98.1213 13.7957 97.3666 13.4938 96.8131 14.0054L96.7627 13.846C96.7211 13.7224 96.6707 13.6018 96.6118 13.4854C96.4866 13.2376 96.3347 13.0042 96.1589 12.7893C95.8216 12.3631 95.3711 12.0405 94.859 11.8584C94.7919 11.8584 94.7835 11.9758 94.859 12.0094C95.3151 12.2576 95.7126 12.6008 96.0247 13.0158C96.1544 13.2036 96.2667 13.4029 96.3602 13.6112C96.4108 13.7196 96.4528 13.8317 96.486 13.9467C96.5242 14.2278 96.5014 14.5138 96.4189 14.7853C96.3698 15.072 96.4169 15.3669 96.5531 15.6239C96.5873 15.6858 96.6266 15.7447 96.6705 15.8001C96.4141 16.0949 96.1074 16.3419 95.7648 16.5297C95.3816 16.7142 94.9551 16.7897 94.5319 16.7477C94.0562 16.6948 93.6068 16.5022 93.2404 16.1942C92.8714 15.8839 92.5779 15.4898 92.2424 15.1543C92.167 15.0788 92.125 15.213 92.1586 15.2717C92.4382 15.7617 92.7983 16.2011 93.2236 16.5716C93.5361 16.7984 93.881 16.9765 94.2468 17.1C94.3367 17.1384 94.4107 17.2065 94.4564 17.2928C94.4984 17.4019 94.4564 17.469 94.381 17.5696C94.3109 17.6995 94.2295 17.823 94.1378 17.9386C93.9566 18.1673 93.7349 18.3606 93.4836 18.5089C93.3327 18.6011 93.0643 18.7772 92.8714 18.685C92.6785 18.5927 92.7037 18.4334 92.6198 18.316C92.4607 18.1139 92.2677 17.9408 92.0495 17.8044C91.6232 17.5361 91.1637 17.3246 90.6826 17.1754C90.221 17.0217 89.7421 16.9259 89.2569 16.8903C89.0199 16.865 88.781 16.865 88.544 16.8903C88.2924 16.8903 88.0492 16.9909 87.806 17.0329C87.7641 17.0329 87.7641 17.1419 87.806 17.1419C88.2767 17.1182 88.7486 17.1406 89.2149 17.209C89.63 17.2548 90.0399 17.339 90.4394 17.4606C90.8409 17.5929 91.2285 17.7642 91.5967 17.9721C91.8133 18.083 92.0091 18.2305 92.1753 18.4082C92.2119 18.4551 92.2377 18.5095 92.2507 18.5675C92.2638 18.6255 92.2638 18.6857 92.2508 18.7437C92.1921 18.8947 91.9573 18.8443 91.8231 18.8695C91.5796 18.9253 91.3561 19.0472 91.1774 19.2217C90.9546 19.4293 90.6881 19.584 90.3974 19.6746C90.0728 19.7787 89.7304 19.8158 89.3911 19.7836C89.1479 19.7836 88.8375 19.5069 88.913 19.2301C88.9886 19.0156 89.1152 18.8228 89.282 18.6682C89.5225 18.402 89.806 18.178 90.1207 18.0057C90.1207 18.0057 90.1207 17.8967 90.1207 17.9134C89.8917 17.9478 89.6703 18.0216 89.4665 18.1315C89.2988 18.2327 89.1439 18.3538 89.0053 18.4921C88.7034 18.794 88.5356 19.1714 88.1247 19.3307C87.6897 19.5106 87.2011 19.5106 86.7661 19.3307C86.5882 19.2529 86.4325 19.1318 86.3132 18.9785C86.1958 18.8192 86.1623 18.6263 86.0532 18.4753C85.9442 18.3244 85.9023 18.3411 85.852 18.425C85.6591 18.7605 86.0365 19.2637 86.2881 19.4565C86.6478 19.7439 87.1041 19.882 87.5628 19.8423C87.914 19.8248 88.256 19.7242 88.5608 19.5488C88.5789 19.6076 88.6042 19.664 88.6363 19.7165C88.7322 19.851 88.8577 19.9618 89.003 20.0403C89.1484 20.1188 89.3098 20.163 89.4749 20.1694C89.8569 20.2071 90.2425 20.1672 90.6086 20.0519C90.9747 19.9365 91.3137 19.7483 91.6051 19.4985C91.7422 19.3605 91.9231 19.2746 92.1166 19.2553ZM100.352 15.7246C100.509 15.5699 100.632 15.3842 100.713 15.1795C100.713 15.2382 100.713 15.2885 100.78 15.3388C100.855 15.5317 100.914 15.733 100.973 15.9426C101.066 16.3066 101.106 16.6825 101.09 17.058C101.07 17.3902 100.985 17.7152 100.839 18.0141C100.704 18.3311 100.464 18.5918 100.159 18.7521C100.006 18.7981 99.8428 18.7945 99.6921 18.7418C99.5414 18.6891 99.4114 18.5899 99.3206 18.4586C99.1203 18.171 98.9726 17.8501 98.8845 17.5109C98.7868 17.1098 98.6132 16.7312 98.3729 16.3955C99.091 16.4117 99.7919 16.1741 100.352 15.7246ZM103.136 18.4921C103.136 18.5424 103.195 18.4921 103.187 18.4334C103.022 17.8801 103.006 17.293 103.142 16.7318C103.277 16.1706 103.559 15.6553 103.958 15.2382C104.266 14.8873 104.512 14.4877 104.688 14.0557C104.786 13.8455 104.825 13.6123 104.8 13.3816C104.775 13.1508 104.687 12.9315 104.545 12.7474C104.503 12.7055 104.42 12.6971 104.411 12.7474C104.411 12.9738 104.487 13.1919 104.47 13.4183C104.45 13.7132 104.364 13.9999 104.218 14.257C103.933 14.7685 103.514 15.1795 103.22 15.6826C102.958 16.1014 102.813 16.5823 102.798 17.076C102.783 17.5697 102.9 18.0585 103.136 18.4921ZM104.671 9.56055C104.777 9.58645 104.881 9.62009 104.981 9.66119C105.088 9.72174 105.179 9.80475 105.25 9.9044C105.4 10.1247 105.506 10.3727 105.56 10.634C105.679 11.1908 105.65 11.7692 105.476 12.3113C105.476 12.3616 105.476 12.3113 105.476 12.3113C105.691 12.0837 105.817 11.7857 105.828 11.4727C105.886 11.1436 105.872 10.806 105.787 10.4831C105.717 10.1737 105.573 9.88598 105.367 9.64442C105.199 9.44314 104.839 9.17478 104.529 9.29219C104.478 9.35928 104.587 9.52701 104.671 9.56055ZM107.766 12.999C107.964 12.7517 108.11 12.4662 108.193 12.1603C108.269 11.8647 108.294 11.5586 108.269 11.2546C108.265 10.9506 108.162 10.6562 107.975 10.416C107.799 10.265 107.59 10.4747 107.774 10.634C107.847 10.7287 107.89 10.8422 107.9 10.9611C107.932 11.0847 107.951 11.2111 107.959 11.3385C107.983 11.6198 107.961 11.9033 107.892 12.1771C107.817 12.3914 107.718 12.5968 107.598 12.7893C107.541 12.9029 107.467 13.0074 107.38 13.0996C107.275 13.1927 107.163 13.2768 107.044 13.3512C107.044 13.3512 107.044 13.4267 107.044 13.4351C107.355 13.4854 107.598 13.1919 107.766 12.999ZM110.357 13.8376C110.671 14.0232 110.927 14.2935 111.095 14.6176C111.446 15.3295 111.865 16.0062 112.345 16.6387C112.828 17.1809 113.443 17.5883 114.131 17.8212L114.416 17.9218C114.277 18.6327 114.329 19.3678 114.567 20.052C114.795 20.7821 115.243 21.4238 115.85 21.8886C115.926 21.9389 115.934 21.7964 115.892 21.7544C115.416 21.2821 115.052 20.7089 114.827 20.0771C114.602 19.4275 114.558 18.7286 114.701 18.056C115.259 18.2123 115.771 18.4998 116.194 18.8947C116.236 18.8947 116.253 18.8359 116.236 18.8024C115.744 18.1808 115.069 17.7291 114.307 17.5109C113.476 17.2363 112.761 16.6898 112.278 15.9594C111.904 15.2379 111.461 14.5553 110.953 13.9215C110.665 13.6358 110.296 13.4455 109.896 13.3764C109.46 13.342 109.021 13.3933 108.604 13.5273C108.604 13.5273 108.604 13.586 108.604 13.586C109.2 13.5211 109.803 13.6077 110.357 13.8376ZM116.479 23.5575C114.886 23.3143 114.282 21.6789 113.888 20.3287C113.578 19.2637 112.856 17.8128 111.489 18.0644C111.242 18.105 111.014 18.2238 110.839 18.4034C110.664 18.583 110.551 18.8139 110.516 19.0624C110.569 19.7087 110.87 20.3095 111.355 20.7397C111.845 21.2606 112.204 21.8899 112.403 22.5763C112.487 22.9285 112.403 23.2891 112.471 23.6498C112.512 23.8263 112.591 23.9921 112.7 24.1365C112.81 24.281 112.949 24.4008 113.108 24.4884C113.22 24.5694 113.356 24.6107 113.494 24.6058C113.544 24.6058 113.603 24.6058 113.611 24.5303C113.619 24.4549 113.544 24.4213 113.485 24.3961C113.299 24.3107 113.143 24.1698 113.04 23.9927C112.936 23.8157 112.89 23.611 112.907 23.4066C112.906 22.9289 112.812 22.4559 112.63 22.0144C112.392 21.4999 112.082 21.0225 111.707 20.5971C111.355 20.1694 110.76 19.574 110.994 18.9198C111.107 18.6958 111.301 18.5231 111.536 18.4374C111.771 18.3516 112.031 18.3592 112.261 18.4586C112.562 18.6021 112.827 18.8116 113.036 19.0715C113.245 19.3313 113.393 19.6349 113.469 19.9597C113.728 20.6894 113.98 21.4274 114.248 22.1654C114.405 22.4811 114.618 22.7653 114.877 23.004C115.263 23.3982 115.942 23.9517 116.555 23.8426C116.63 23.7504 116.555 23.5659 116.479 23.5575ZM115.188 25.6373C114.588 25.6257 114.005 25.838 113.552 26.2328C113.087 26.6762 112.555 27.044 111.976 27.323C111.562 27.4407 111.13 27.4833 110.701 27.4488C110.821 27.3812 110.935 27.3056 111.045 27.2224C111.366 26.9952 111.603 26.6677 111.719 26.2913C111.834 25.9149 111.821 25.5109 111.682 25.1425C111.591 24.9702 111.464 24.8187 111.311 24.6975C111.158 24.5763 110.982 24.488 110.793 24.4381C110.621 24.3941 110.443 24.3716 110.265 24.371C110.165 24.3585 110.063 24.3585 109.963 24.371C110.169 24.1712 110.344 23.9424 110.483 23.6917C110.662 23.4101 110.741 23.0759 110.706 22.7439C110.671 22.4118 110.524 22.1014 110.29 21.8634C110.118 21.6991 109.911 21.5772 109.684 21.5073C109.456 21.4374 109.216 21.4215 108.982 21.4609C109.057 21.3603 109.133 21.2596 109.2 21.1506C109.383 20.9167 109.504 20.6405 109.553 20.3474C109.601 20.0542 109.575 19.7536 109.477 19.4733C109.389 19.3389 109.273 19.2249 109.138 19.1389C109.003 19.0529 108.85 18.9969 108.691 18.9746C108.532 18.9524 108.371 18.9644 108.217 19.0099C108.063 19.0554 107.92 19.1334 107.799 19.2385C107.397 19.5236 107.137 19.9681 106.709 20.2197C106.626 20.2673 106.539 20.3066 106.449 20.3371C106.338 19.8564 106.376 19.3533 106.558 18.8947C106.608 18.7856 106.676 18.6934 106.717 18.5844C106.74 18.5037 106.78 18.4292 106.835 18.3663C106.971 18.2389 107.13 18.1392 107.304 18.0728C107.541 17.9962 107.748 17.85 107.9 17.6535C108.017 17.4606 108.042 17.2928 108.252 17.1754C108.509 17.0364 108.798 16.967 109.091 16.9742C109.376 16.9755 109.66 17.0236 109.929 17.1167C109.926 17.0733 109.913 17.0312 109.891 16.9935C109.869 16.9558 109.839 16.9234 109.804 16.8987C109.548 16.7583 109.256 16.697 108.965 16.7226C108.678 16.7368 108.395 16.7963 108.126 16.8987C108.068 16.8987 107.992 16.8987 107.967 16.8987C107.942 16.8987 107.967 16.8987 107.967 16.8484C107.959 16.7171 107.959 16.5855 107.967 16.4542C107.979 16.3236 108.013 16.1959 108.068 16.0768C108.132 15.9652 108.222 15.87 108.33 15.7987C108.437 15.7274 108.56 15.682 108.688 15.6659C108.871 15.6323 109.059 15.6323 109.242 15.6659C109.394 15.6953 109.551 15.6953 109.703 15.6659C109.71 15.6604 109.716 15.6534 109.719 15.6454C109.723 15.6374 109.725 15.6286 109.725 15.6198C109.725 15.6109 109.723 15.6021 109.719 15.5941C109.716 15.5861 109.71 15.5791 109.703 15.5736C109.537 15.4712 109.351 15.4054 109.158 15.3807C108.958 15.3514 108.754 15.3514 108.554 15.3807C108.38 15.3996 108.214 15.4597 108.068 15.556C107.922 15.6523 107.801 15.7819 107.715 15.9342C107.579 16.2659 107.539 16.629 107.598 16.9825C107.598 17.2425 107.657 17.5528 107.422 17.7373C107.187 17.9218 107.003 17.8547 106.81 17.9805C106.552 18.149 106.349 18.3876 106.223 18.6682C105.961 19.2265 105.905 19.8588 106.063 20.4545C105.72 20.481 105.377 20.4082 105.074 20.2449C105.132 20.1718 105.182 20.0932 105.225 20.01C105.447 19.2256 105.524 18.4069 105.451 17.5948C105.474 17.1577 105.586 16.7298 105.778 16.3368C105.943 16.0347 106.143 15.7532 106.374 15.4981C106.374 15.4981 106.374 15.3891 106.374 15.3975C105.736 15.5652 105.426 16.2865 105.292 16.8651C105.099 17.7038 105.233 18.5424 105.065 19.3811C105.035 19.5761 104.96 19.7615 104.847 19.923C104.734 20.0844 104.584 20.2175 104.411 20.312C104.048 20.4858 103.647 20.5665 103.245 20.5468C102.801 20.5468 102.642 20.2533 102.407 19.9178C102.232 19.7075 101.994 19.5602 101.727 19.4985C101.689 19.4903 101.649 19.4903 101.61 19.4985C101.591 19.5017 101.574 19.5107 101.56 19.5242C101.547 19.5377 101.538 19.5551 101.535 19.574C101.535 19.574 101.535 19.574 101.535 19.641C101.609 19.7122 101.688 19.7794 101.769 19.8423C102.155 20.27 101.3 20.5384 101.006 20.5132C100.713 20.4881 100.31 20.2616 99.9747 20.312C99.6393 20.3623 99.5638 20.681 99.3541 20.8319C99.0795 21.0214 98.7567 21.1291 98.4232 21.1422C98.0777 21.1481 97.7367 21.0637 97.4337 20.8975C97.1308 20.7314 96.8764 20.4891 96.6956 20.1946C96.2679 19.5404 95.9576 18.4334 96.9388 18.1566C96.9388 18.1566 96.9892 18.0644 96.9388 18.056C96.5531 17.9134 96.1925 18.2573 96.1002 18.6179C96.0116 19.0263 96.0557 19.4523 96.226 19.8339C96.4036 20.2795 96.6923 20.6721 97.0646 20.9745C97.0646 20.9745 97.0646 20.9745 97.0646 21.0248C96.964 22.266 95.3202 22.266 94.4816 21.8634C94.0491 21.5866 93.5979 21.34 93.1314 21.1254C92.6014 20.9619 92.0344 20.9619 91.5044 21.1254C91.4541 21.1254 91.4541 21.2596 91.5044 21.2596C91.8863 21.2176 92.2715 21.2176 92.6534 21.2596C92.9844 21.3177 93.2991 21.4464 93.5759 21.637C93.9883 21.9533 94.4464 22.2049 94.9345 22.3834C94.9376 22.638 94.8549 22.8861 94.6997 23.0879C94.5976 23.1981 94.4787 23.2915 94.3474 23.3646L94.1462 23.4485C94.0628 23.4879 93.9757 23.5188 93.8862 23.5407C93.8862 23.5407 93.8862 23.6162 93.8862 23.6246C93.9814 23.6542 94.0801 23.6711 94.1797 23.6749C94.2687 23.6877 94.3591 23.6877 94.4481 23.6749C94.6604 23.6095 94.8477 23.4807 94.9848 23.3059C95.1767 23.0698 95.2752 22.7713 95.2616 22.4673C96.1002 22.5931 97.4756 22.266 97.4169 21.2345C97.584 21.3251 97.7614 21.3955 97.9452 21.4441C98.3393 21.5365 98.7512 21.5191 99.1361 21.3938C99.2976 21.3354 99.4523 21.2594 99.5973 21.1674C99.7651 21.05 99.8741 20.8655 100.033 20.7481C100.193 20.6306 100.654 20.8068 100.872 20.8487C101.072 20.8864 101.276 20.8864 101.476 20.8487C101.647 20.8216 101.806 20.7453 101.934 20.6291C102.062 20.513 102.154 20.3619 102.197 20.1946C102.3 20.3705 102.43 20.529 102.583 20.6642C102.858 20.8446 103.185 20.93 103.514 20.9074C104.039 20.9064 104.547 20.7192 104.948 20.3791C105.182 20.561 105.458 20.6821 105.751 20.7319C106.043 20.7816 106.344 20.7584 106.625 20.6642C107.237 20.4629 107.548 19.901 108.059 19.5572C108.319 19.3727 108.797 19.1966 109.024 19.5572C109.094 19.6947 109.131 19.8471 109.131 20.0017C109.131 20.1563 109.094 20.3086 109.024 20.4461C108.79 21.0332 108.401 21.5461 107.9 21.9305C106.743 22.7956 105.302 23.1911 103.866 23.0376C102.449 22.9537 101.023 22.5008 99.5973 22.8111C98.9699 22.9255 98.3881 23.2164 97.92 23.6498C97.6985 23.9141 97.4967 24.1944 97.3162 24.4884C97.1906 24.6667 97.0198 24.8086 96.8214 24.8993C96.7586 24.9283 96.6893 24.9405 96.6203 24.9348C96.5513 24.9292 96.485 24.9058 96.4276 24.8671C96.3703 24.8283 96.324 24.7754 96.2931 24.7134C96.2621 24.6515 96.2477 24.5827 96.2512 24.5136C96.2512 24.4381 96.1086 24.2871 96.0415 24.3878C95.7396 24.8658 96.2847 25.3522 96.7627 25.327C97.5427 25.2851 97.8026 24.4465 98.2723 23.9684C99.4715 22.7692 101.35 23.1298 102.851 23.3311C104.47 23.6615 106.153 23.4308 107.623 22.6769C108.135 22.375 108.562 21.8383 109.208 21.8383C109.364 21.8326 109.519 21.8596 109.663 21.9173C109.807 21.9751 109.938 22.0624 110.047 22.1737C110.217 22.4307 110.292 22.7393 110.259 23.0458C110.225 23.3524 110.085 23.6373 109.862 23.851C108.976 24.7691 107.848 25.4175 106.608 25.7212C106.005 25.9639 105.35 26.0476 104.705 25.9644C104.16 25.8556 103.629 25.6897 103.12 25.4696C102.182 24.9869 101.107 24.8417 100.075 25.0587C99.4695 25.327 98.9048 25.68 98.3981 26.107C98.109 26.3323 97.764 26.4744 97.4001 26.5179C97.3028 26.5209 97.2059 26.503 97.1161 26.4653C97.0263 26.4276 96.9457 26.3711 96.8797 26.2995C96.8137 26.2279 96.7639 26.143 96.7335 26.0504C96.7032 25.9579 96.6932 25.8599 96.704 25.7631C96.704 25.6457 96.5363 25.4277 96.4357 25.587C96.0918 26.1238 96.6034 26.736 97.1317 26.8785C97.3572 26.9221 97.5892 26.9201 97.8139 26.8726C98.0386 26.825 98.2515 26.733 98.44 26.6018L99.1277 26.6856C99.4464 26.7245 99.7627 26.7805 100.075 26.8534C100.621 26.9616 101.144 27.1661 101.618 27.4572C102.046 27.721 102.399 28.0907 102.642 28.5307C102.763 28.741 102.834 28.9762 102.851 29.2183C102.863 29.3696 102.831 29.521 102.759 29.6544C102.7 29.7719 102.658 29.797 102.7 29.9396C102.742 30.0822 102.784 30.0738 102.851 30.057C103.12 30.0067 103.204 29.6796 103.229 29.4448C103.251 29.1757 103.208 28.9053 103.103 28.6565C102.867 28.1262 102.493 27.6687 102.021 27.3314C101.517 26.9711 100.947 26.7146 100.344 26.5766C99.9723 26.4794 99.5937 26.4121 99.2116 26.3753H98.7838L98.96 26.2412C99.5061 25.7364 100.194 25.4114 100.931 25.3103C101.596 25.3352 102.251 25.486 102.86 25.7548C103.475 26.016 104.116 26.2127 104.772 26.3418C105.47 26.4319 106.18 26.3425 106.835 26.0818C107.388 25.8978 107.931 25.685 108.462 25.4445C108.705 25.3353 108.941 25.2092 109.166 25.0671C109.259 25.0084 109.342 24.9832 109.435 24.9329C109.548 24.8659 109.665 24.807 109.787 24.7568C109.909 24.7399 110.033 24.7399 110.156 24.7568C110.394 24.7455 110.633 24.7767 110.86 24.849C111.077 24.9323 111.254 25.0942 111.357 25.3026C111.46 25.5109 111.48 25.7502 111.414 25.9728C111.305 26.3359 111.103 26.6641 110.828 26.9246C110.553 27.1851 110.214 27.3688 109.846 27.4572C108.227 27.9436 106.239 27.1888 104.814 28.3629C104.526 28.6067 104.318 28.9312 104.216 29.2944C104.114 29.6577 104.124 30.0431 104.243 30.4008C104.327 30.5853 104.721 30.6357 104.629 30.4008C104.517 29.9707 104.571 29.5143 104.779 29.1216C104.987 28.7289 105.334 28.4283 105.753 28.2791C106.673 27.9871 107.641 27.8732 108.604 27.9436C108.758 27.952 108.912 27.952 109.066 27.9436C108.878 28.0937 108.728 28.2863 108.63 28.5055C108.523 28.7505 108.492 29.0215 108.54 29.2842C108.588 29.5469 108.712 29.7896 108.898 29.9815C109.105 30.1559 109.346 30.2837 109.607 30.3561C109.867 30.4284 110.14 30.4437 110.407 30.4008C110.722 30.3547 111.033 30.2875 111.338 30.1996C111.579 30.1072 111.845 30.1072 112.085 30.1996C112.145 30.2265 112.197 30.268 112.237 30.3204C112.277 30.3727 112.303 30.4342 112.313 30.4993C112.323 30.5643 112.317 30.6308 112.294 30.6927C112.272 30.7546 112.235 30.81 112.185 30.8537C112.135 30.8537 112.143 31.0298 112.227 31.0047C112.303 30.9705 112.37 30.92 112.424 30.8568C112.478 30.7935 112.517 30.7191 112.539 30.6389C112.561 30.5587 112.564 30.4747 112.549 30.3929C112.535 30.3111 112.502 30.2336 112.454 30.166C112.278 29.9885 112.053 29.8674 111.808 29.8181C111.563 29.7688 111.309 29.7936 111.078 29.8893C110.574 30.0785 110.025 30.1107 109.502 29.9815C109.359 29.9159 109.235 29.8161 109.14 29.6911C109.045 29.566 108.982 29.4195 108.958 29.2645C108.933 29.1095 108.946 28.9508 108.997 28.8023C109.048 28.6538 109.135 28.5202 109.25 28.4133C109.494 28.2015 109.78 28.0446 110.09 27.9535C110.4 27.8623 110.725 27.8389 111.045 27.8849C111.643 27.9237 112.24 27.7898 112.764 27.4991C113.267 27.1888 113.67 26.7611 114.156 26.4341C114.643 26.107 115.683 25.7631 116.035 26.5515C116.387 27.3398 115.456 27.5327 115.087 27.8849C114.718 28.2371 114.508 28.8242 114.894 29.1932C114.961 29.2519 114.978 29.1009 114.953 29.0674C114.517 28.4803 115.565 27.9939 115.926 27.734C116.123 27.6179 116.275 27.4393 116.359 27.2264C116.442 27.0136 116.452 26.779 116.387 26.5599C116.298 26.3098 116.139 26.0903 115.93 25.927C115.72 25.7636 115.469 25.6632 115.205 25.6373H115.188Z" fill="var(--fill-0, #455A64)"/>
<path id="Vector_12" d="M111.187 32.7742C110.237 32.764 109.295 32.5909 108.403 32.2626C106.919 31.7343 106.047 31.3736 105.401 31.1137C103.983 30.5266 103.564 30.3505 99.9076 29.7131L99.287 29.6125C95.8822 29.0338 93.1817 28.5726 93.7772 23.851C88.955 23.851 88.5105 23.5156 86.8248 21.7376L86.6738 21.5867C86.2213 21.2158 85.8783 20.7286 85.6818 20.1775C85.4853 19.6263 85.4427 19.0321 85.5585 18.4585C85.6058 18.0826 85.6058 17.7023 85.5585 17.3264C85.3656 15.5568 86.0113 14.433 87.7893 13.4602C88.5346 13.0054 89.2242 12.465 89.8439 11.85C91.0031 10.6479 92.4036 9.70471 93.9533 9.08251C96.9137 8.04259 106.248 7.76583 110.902 11.9926C116.462 17.0245 118.702 21.6873 117.737 26.2495C117.142 29.0506 115.859 31.0717 114.039 32.12C113.16 32.5773 112.178 32.8025 111.187 32.7742ZM99.1109 8.96509C97.4402 8.91898 95.7721 9.12538 94.1629 9.5773C92.6815 10.1769 91.3417 11.0795 90.2297 12.2274C89.5851 12.8719 88.8641 13.4352 88.0828 13.9047C86.2462 14.9027 85.9694 15.9258 86.112 17.2593C86.1639 17.6742 86.1639 18.0939 86.112 18.5089C86.0042 19.0062 86.0383 19.5237 86.2102 20.0027C86.3822 20.4816 86.6853 20.9025 87.0848 21.2177L87.2274 21.3686C88.8375 23.0459 89.0892 23.3227 94.1126 23.3227C94.1496 23.3229 94.186 23.3313 94.2194 23.3473C94.2527 23.3632 94.2821 23.3863 94.3055 23.4149C94.3314 23.4408 94.3504 23.4729 94.3606 23.508C94.3709 23.5432 94.3721 23.5804 94.3642 23.6162C93.6933 28.1197 95.966 28.5055 99.3961 29.0925L100.008 29.1932C103.723 29.8473 104.16 30.0318 105.619 30.6189C106.256 30.8872 107.128 31.2395 108.588 31.7594C109.424 32.1142 110.328 32.2823 111.236 32.2518C112.144 32.2214 113.035 31.9933 113.846 31.5833C115.523 30.644 116.722 28.7403 117.293 26.0902C118.207 21.7628 116.026 17.2761 110.584 12.3616C107.749 9.79535 102.935 8.96509 99.1109 8.96509Z" fill="var(--fill-0, #455A64)"/>
</g>
<path id="Vector_13" d="M89.8104 53.3042C89.7807 53.3044 89.7512 53.2986 89.7238 53.2871C89.6964 53.2756 89.6716 53.2585 89.651 53.2371C89.6292 53.2168 89.6119 53.1921 89.6003 53.1646C89.5887 53.1372 89.5831 53.1075 89.5839 53.0777V47.6601C89.5839 47.6 89.6078 47.5425 89.6503 47.5C89.6927 47.4575 89.7503 47.4337 89.8104 47.4337H92.2844C92.5913 47.4237 92.897 47.478 93.1817 47.593C93.4005 47.6893 93.5974 47.8291 93.7604 48.0039C93.8963 48.162 94.0015 48.344 94.0707 48.5407C94.1342 48.7155 94.1682 48.8998 94.1713 49.0858C94.172 49.2365 94.1494 49.3865 94.1042 49.5303C94.0637 49.6491 94.0073 49.762 93.9365 49.8657C93.8785 49.949 93.814 50.0275 93.7436 50.1005L93.5927 50.2263C93.7804 50.3613 93.9423 50.5289 94.0707 50.7211C94.2266 50.9722 94.3026 51.2646 94.2887 51.5598C94.2864 51.7747 94.2466 51.9875 94.1713 52.1888C94.0914 52.3977 93.975 52.5908 93.8275 52.7591C93.6677 52.9317 93.4734 53.0689 93.2572 53.1616C93.0114 53.2691 92.7456 53.3234 92.4773 53.3209L89.8104 53.3042ZM93.0392 49.1109C93.0458 49.0198 93.031 48.9284 92.9961 48.8439C92.9612 48.7595 92.907 48.6844 92.8379 48.6245C92.6487 48.5028 92.4247 48.4468 92.2005 48.4652H90.7161V49.7567H92.2005C92.4257 49.7733 92.65 49.7142 92.8379 49.589C92.904 49.5322 92.9564 49.4612 92.9913 49.3814C93.0261 49.3015 93.0425 49.2148 93.0392 49.1277V49.1109ZM90.7161 52.2391H92.2676C92.5087 52.2593 92.7484 52.1874 92.9385 52.0378C93.0093 51.9731 93.0654 51.8939 93.103 51.8057C93.1407 51.7174 93.1589 51.6221 93.1566 51.5262C93.1603 51.4281 93.1418 51.3305 93.1026 51.2405C93.0634 51.1504 93.0045 51.0704 92.9301 51.0063C92.7418 50.8595 92.5057 50.7878 92.2676 50.805H90.7161V52.2391Z" fill="var(--fill-0, #455A64)"/>
<path id="Vector_14" d="M97.7271 47.4337C98.3001 47.3932 98.8678 47.5665 99.3205 47.9201C99.507 48.0897 99.6529 48.2992 99.7473 48.533C99.8416 48.7667 99.8821 49.0187 99.8657 49.2703C99.8738 49.6373 99.7747 49.9987 99.5805 50.3102C99.378 50.6103 99.0838 50.8369 98.7419 50.956L99.8992 53.0274C99.9067 53.0577 99.9067 53.0894 99.8992 53.1197C99.8954 53.1673 99.8747 53.2121 99.8409 53.2459C99.8071 53.2797 99.7624 53.3003 99.7147 53.3042H99.0019C98.9104 53.3092 98.8204 53.2792 98.7503 53.2203C98.7055 53.1798 98.6686 53.1315 98.6412 53.0777L97.5426 51.1237H96.4272V53.0442C96.4272 53.1042 96.4034 53.1618 96.3609 53.2043C96.3184 53.2468 96.2608 53.2706 96.2008 53.2706H95.5215C95.4918 53.2709 95.4623 53.2651 95.4349 53.2535C95.4075 53.242 95.3827 53.225 95.3621 53.2035C95.3403 53.1833 95.323 53.1586 95.3114 53.1311C95.2999 53.1036 95.2943 53.074 95.295 53.0442V47.6601C95.295 47.6001 95.3189 47.5425 95.3614 47.5C95.4038 47.4575 95.4614 47.4337 95.5215 47.4337H97.7271ZM96.4692 50.0754H97.6852C97.9498 50.0863 98.2127 50.0285 98.4483 49.9077C98.5478 49.836 98.6265 49.7392 98.6766 49.6273C98.7267 49.5154 98.7463 49.3922 98.7335 49.2703C98.7494 49.1493 98.7311 49.0263 98.6807 48.9151C98.6303 48.804 98.5498 48.7091 98.4483 48.6413C98.2118 48.5238 97.949 48.4689 97.6852 48.482H96.4692V50.0754Z" fill="var(--fill-0, #455A64)"/>
<path id="Vector_15" d="M103.715 47.4337C103.751 47.4306 103.788 47.435 103.823 47.4465C103.857 47.458 103.889 47.4765 103.916 47.5008C103.969 47.5653 104.009 47.6393 104.034 47.7188L106.088 53.0442C106.088 53.0442 106.088 53.0442 106.088 53.1029C106.088 53.163 106.065 53.2206 106.022 53.263C105.98 53.3055 105.922 53.3293 105.862 53.3293H105.258C105.216 53.3345 105.173 53.3305 105.132 53.3175C105.092 53.3044 105.055 53.2827 105.023 53.2539C104.983 53.2162 104.952 53.1705 104.931 53.1197L104.579 52.2056H101.929L101.568 53.1365C101.544 53.1855 101.513 53.2307 101.476 53.2706C101.444 53.2982 101.406 53.319 101.366 53.332C101.326 53.345 101.283 53.3498 101.241 53.3461H100.637C100.607 53.3464 100.578 53.3406 100.551 53.329C100.523 53.3175 100.498 53.3005 100.478 53.279C100.456 53.2588 100.439 53.2341 100.427 53.2066C100.416 53.1791 100.41 53.1495 100.411 53.1197C100.406 53.1004 100.406 53.0803 100.411 53.061L102.465 47.7607C102.487 47.6798 102.527 47.6051 102.583 47.5427C102.609 47.517 102.641 47.4977 102.676 47.486C102.711 47.4744 102.748 47.4709 102.784 47.4756L103.715 47.4337ZM104.176 51.1153L103.254 48.7252L102.331 51.1153H104.176Z" fill="var(--fill-0, #455A64)"/>
<path id="Vector_16" d="M107.086 53.3042C107.057 53.3044 107.027 53.2986 107 53.2871C106.972 53.2756 106.948 53.2585 106.927 53.2371C106.905 53.2168 106.888 53.1921 106.876 53.1646C106.865 53.1372 106.859 53.1075 106.86 53.0777V47.6601C106.86 47.6001 106.884 47.5425 106.926 47.5C106.969 47.4575 107.026 47.4337 107.086 47.4337H107.766C107.796 47.4329 107.825 47.4385 107.853 47.45C107.88 47.4616 107.905 47.4789 107.925 47.5008C107.947 47.5213 107.964 47.5461 107.975 47.5735C107.987 47.6009 107.992 47.6304 107.992 47.6601V53.0442C107.992 53.1042 107.968 53.1618 107.926 53.2043C107.883 53.2468 107.826 53.2706 107.766 53.2706L107.086 53.3042Z" fill="var(--fill-0, #455A64)"/>
<path id="Vector_17" d="M113.108 53.3042C113.068 53.3075 113.028 53.3025 112.991 53.2895C112.953 53.2765 112.919 53.2558 112.89 53.2287L112.781 53.1113L110.433 49.6225V53.0442C110.433 53.1043 110.409 53.1618 110.366 53.2043C110.324 53.2468 110.266 53.2706 110.206 53.2706H109.527C109.497 53.2709 109.468 53.2651 109.44 53.2536C109.413 53.242 109.388 53.225 109.368 53.2035C109.341 53.1858 109.319 53.1621 109.303 53.1345C109.287 53.1069 109.278 53.076 109.275 53.0442V47.6601C109.275 47.6001 109.299 47.5425 109.342 47.5C109.384 47.4575 109.442 47.4337 109.502 47.4337H110.089C110.169 47.429 110.247 47.4561 110.307 47.5092L110.416 47.6266L112.764 51.1153V47.6601C112.764 47.6001 112.788 47.5425 112.83 47.5C112.873 47.4575 112.93 47.4337 112.99 47.4337H113.67C113.7 47.4329 113.729 47.4385 113.757 47.45C113.784 47.4616 113.809 47.4789 113.829 47.5008C113.851 47.5213 113.868 47.5461 113.879 47.5735C113.891 47.6009 113.897 47.6304 113.896 47.6601V53.0442C113.896 53.1043 113.872 53.1618 113.83 53.2043C113.787 53.2468 113.73 53.2706 113.67 53.2706L113.108 53.3042Z" fill="var(--fill-0, #455A64)"/>
</g>
</svg>
