<svg preserveAspectRatio="none" width="100%" height="100%" overflow="visible" style="display: block;" viewBox="0 0 136 66" fill="none" xmlns="http://www.w3.org/2000/svg">
<g id="freepik--thymus--inject-128">
<path id="Vector" d="M91.1941 34.6192H67.9133L67.8211 34.5689L1.55986 2.12177L1.92887 1.367L68.1062 33.7806H91.1941V34.6192Z" fill="var(--fill-0, #455A64)"/>
<path id="Vector_2" d="M3.48877 1.74438C3.48877 2.08939 3.38646 2.42664 3.19478 2.7135C3.00311 3.00037 2.73068 3.22395 2.41193 3.35597C2.09319 3.488 1.74244 3.52255 1.40407 3.45524C1.06569 3.38793 0.75489 3.22179 0.510934 2.97784C0.266979 2.73388 0.100823 2.42307 0.0335155 2.08469C-0.0337917 1.74632 0.000764352 1.39558 0.132792 1.07683C0.26482 0.758091 0.488401 0.485659 0.775262 0.293985C1.06212 0.10231 1.39938 0 1.74438 0C2.20702 0 2.65072 0.183786 2.97785 0.51092C3.30499 0.838055 3.48877 1.28174 3.48877 1.74438Z" fill="var(--fill-0, #455A64)"/>
<path id="Vector_3" d="M113.209 56.6336C108.805 56.6336 104.5 55.3277 100.838 52.8811C97.1766 50.4345 94.3227 46.957 92.6375 42.8884C90.9522 38.8199 90.5112 34.3429 91.3704 30.0237C92.2295 25.7046 94.3502 21.7371 97.4641 18.6232C100.578 15.5092 104.545 13.3886 108.865 12.5295C113.184 11.6703 117.661 12.1113 121.729 13.7965C125.798 15.4818 129.275 18.3357 131.722 21.9973C134.169 25.6589 135.475 29.9638 135.475 34.3676C135.468 40.2709 133.12 45.9305 128.946 50.1047C124.771 54.2789 119.112 56.6269 113.209 56.6336ZM113.209 12.5964C108.896 12.5964 104.68 13.8753 101.094 16.2712C97.5087 18.6671 94.7139 22.0726 93.0636 26.0569C91.4132 30.0411 90.9814 34.4253 91.8228 38.655C92.6641 42.8848 94.7408 46.77 97.7903 49.8194C100.84 52.8689 104.725 54.9456 108.955 55.7869C113.184 56.6283 117.569 56.1964 121.553 54.5461C125.537 52.8958 128.943 50.101 131.339 46.5152C133.734 42.9295 135.013 38.7137 135.013 34.4012C135.013 28.6182 132.716 23.0721 128.627 18.9829C124.538 14.8937 118.992 12.5964 113.209 12.5964Z" fill="var(--fill-0, #0061DF)"/>
<g id="freepik--thymus--inject-128_2">
<path id="Vector_4" d="M111.691 42.6366V50.478C111.691 51.4005 114.123 51.4005 114.123 50.478V38.9969H111.808L111.691 42.6366Z" fill="var(--fill-0, #455A64)"/>
<path id="Vector_5" d="M112.194 26.2747C112.138 26.184 112.09 26.0886 112.051 25.9896C111.958 25.4743 111.978 24.9448 112.11 24.4381C112.245 23.8124 112.137 23.1586 111.808 22.6098C111.556 22.2744 111.162 22.0647 110.969 21.6957C110.651 21.1506 110.844 20.4461 110.6 19.8591C110.517 19.6808 110.396 19.5226 110.247 19.3949C110.097 19.2673 109.921 19.1732 109.732 19.1192C109.543 19.0651 109.344 19.0523 109.15 19.0816C108.955 19.1108 108.769 19.1815 108.604 19.2888C108.097 19.8 107.798 20.4816 107.766 21.2009C107.606 21.9812 107.251 22.7083 106.734 23.3143C106.353 23.7512 105.95 24.1683 105.526 24.5639C105.057 24.9042 104.715 25.3911 104.554 25.9476C104.554 26.1405 104.554 26.3334 104.554 26.5179C104.461 27.583 103.354 27.7927 102.742 28.4803C102.04 29.2536 101.641 30.2542 101.618 31.2982C101.618 32.5561 102.122 33.8141 101.795 35.0553C101.543 36.0197 100.763 36.8752 100.88 37.8564C100.998 38.8376 101.845 39.4498 101.954 40.3723C101.966 40.7373 101.941 41.1027 101.878 41.4625C101.848 42.4125 102.097 43.3505 102.593 44.1611C103.089 44.9717 103.811 45.6195 104.671 46.0248C106.411 46.81 108.369 46.9729 110.215 46.486C110.652 46.4216 111.065 46.2454 111.414 45.9744C111.827 45.4669 112.099 44.8594 112.202 44.2133C112.252 44.0579 112.352 43.9234 112.486 43.8307C112.62 43.738 112.781 43.6925 112.944 43.7011C113.107 43.7097 113.262 43.7721 113.386 43.8784C113.51 43.9847 113.595 44.129 113.628 44.2888C113.678 44.5403 113.72 44.8003 113.779 45.0351C113.928 45.5017 114.18 45.9287 114.517 46.2844C114.854 46.6401 115.267 46.9154 115.724 47.0898C117.708 47.7337 119.851 47.6864 121.805 46.9556C122.307 46.7297 122.744 46.3807 123.075 45.9409C123.406 45.5011 123.621 44.9847 123.7 44.4397C123.75 43.7772 123.549 43.1147 123.616 42.4521C123.683 41.7896 123.985 41.2613 124.111 40.649C124.337 39.4749 123.859 38.2673 123.91 37.0597C123.977 35.6256 124.748 34.1244 124.144 32.8664C123.876 32.3297 123.39 31.9104 123.172 31.3569C122.87 30.5937 123.13 29.6796 122.744 28.95C122.358 28.2204 121.612 27.9604 121.067 27.3985C120.696 26.9512 120.412 26.4395 120.228 25.8889C119.711 24.6397 119.263 23.3631 118.886 22.0647C118.769 21.4306 118.533 20.8244 118.19 20.2784C118.01 20.0144 117.749 19.8171 117.445 19.717C117.142 19.6169 116.814 19.6197 116.513 19.7249C116.242 19.9039 116.029 20.1576 115.899 20.4553C115.77 20.7531 115.729 21.082 115.783 21.4022C115.893 22.0419 115.916 22.6936 115.85 23.3394C115.666 24.1781 115.012 24.7568 114.668 25.5283C114.483 25.9728 113.879 28.799 113.099 27.7507C113.032 27.6422 112.976 27.5269 112.932 27.4069C112.718 27.0095 112.471 26.6308 112.194 26.2747Z" fill="var(--fill-0, white)"/>
<path id="Vector_6" d="M122.299 39.3827H122.132C121.1 39.3827 120.303 38.3847 119.28 38.3092C119.877 38.7013 120.381 39.2195 120.756 39.8272C120.939 40.0764 121.065 40.3627 121.125 40.6658C121.208 41.04 121.236 41.4241 121.209 41.8064C121.21 41.9405 121.178 42.0728 121.117 42.1922C121.083 42.2518 121.032 42.3003 120.971 42.3316C120.91 42.3628 120.841 42.3756 120.773 42.3683C121.044 42.6645 121.209 43.0419 121.243 43.4417C121.266 43.8412 121.218 44.2417 121.1 44.6242C121.057 44.8224 120.975 45.0098 120.859 45.1755C120.742 45.3412 120.593 45.4817 120.421 45.5887C120.15 45.6874 119.853 45.6874 119.582 45.5887C119.321 45.516 119.085 45.3706 118.903 45.1693C118.826 45.0755 118.771 44.9663 118.74 44.849C118.71 44.7317 118.705 44.6093 118.727 44.49C118.727 44.3978 118.802 44.1127 118.618 44.1378C118.554 44.1567 118.497 44.1913 118.45 44.2384C118.286 44.3429 118.087 44.379 117.897 44.3391C117.569 44.2468 117.477 43.8946 117.427 43.6095C117.378 43.233 117.252 42.8705 117.058 42.5444C117.115 42.8235 117.098 43.1128 117.008 43.383C116.962 43.5183 116.889 43.643 116.794 43.7496C116.699 43.8562 116.583 43.9426 116.454 44.0036C116.248 44.0813 116.023 44.0907 115.811 44.0303C115.6 43.9698 115.414 43.8429 115.28 43.6682C114.776 42.9761 114.503 42.1426 114.5 41.2864C114.331 40.5728 114.405 39.8232 114.71 39.1563C114.939 38.8602 115.143 38.5461 115.322 38.217C115.354 38.1247 115.354 38.0241 115.322 37.9318C115.294 37.8687 115.248 37.8151 115.19 37.7778C115.132 37.7406 115.064 37.7212 114.995 37.7222C114.852 37.7222 114.718 37.7222 114.575 37.7222C114.359 37.6917 114.157 37.5946 113.997 37.4444C113.838 37.2942 113.73 37.0982 113.687 36.8835C113.615 36.4363 113.615 35.9806 113.687 35.5333C113.745 35.0122 113.745 34.4862 113.687 33.9651C113.628 33.5625 113.544 33.1264 113.485 32.7574C113.393 31.6885 113.435 30.6122 113.611 29.5538C112.927 30.4726 112.626 31.6212 112.772 32.7574C112.846 33.3274 112.765 33.9067 112.538 34.4347C112.521 34.4855 112.49 34.5304 112.448 34.5638C112.406 34.5973 112.356 34.618 112.302 34.6233C112.249 34.6286 112.195 34.6184 112.148 34.5938C112.1 34.5693 112.061 34.5315 112.034 34.485C111.693 34.1726 111.439 33.7766 111.296 33.3361C111.218 33.6644 111.207 34.0051 111.263 34.338C111.319 34.6708 111.442 34.9889 111.623 35.2733C111.858 35.7346 112.37 36.4558 112.286 37.0009C112.203 37.2498 112.105 37.4934 111.992 37.7306C111.899 38.023 111.876 38.3333 111.925 38.6363C112.043 39.2317 112.521 39.7098 112.638 40.3136C112.703 40.7037 112.639 41.1045 112.454 41.4542C112.445 41.4839 112.428 41.5102 112.403 41.5296C112.303 41.6303 112.127 41.5296 112.034 41.4374C111.691 41.0097 111.758 40.3723 111.456 39.9194C111.385 40.5343 111.086 41.1001 110.617 41.5045C110.424 41.7352 110.198 41.9358 109.946 42.0999C109.751 42.2271 109.518 42.2854 109.286 42.2656C109.054 42.2459 108.834 42.1492 108.663 41.9909C109.015 42.4018 109.393 42.9889 109.099 43.4417C108.96 43.5957 108.783 43.7102 108.586 43.7735C108.388 43.8369 108.178 43.8468 107.975 43.8023C107.367 43.8187 106.765 43.6648 106.239 43.3579C106.027 43.1604 105.882 42.9012 105.824 42.6167C105.767 42.3323 105.801 42.0371 105.921 41.7728C106.03 41.5045 106.172 41.2529 106.281 40.9845C106.474 40.4768 106.54 39.93 106.474 39.3911C106.189 40.1626 105.677 41.0684 104.797 41.1187C104.609 41.1354 104.42 41.0986 104.253 41.0125C104.085 40.9264 103.945 40.7946 103.849 40.6323C103.767 40.4231 103.719 40.2024 103.707 39.9781C103.693 40.167 103.645 40.3518 103.564 40.5233C103.528 40.6162 103.465 40.6961 103.382 40.7525C103.3 40.8088 103.203 40.839 103.103 40.839C103.003 40.839 102.906 40.8088 102.823 40.7525C102.741 40.6961 102.678 40.6162 102.642 40.5233C102.569 40.3219 102.538 40.108 102.549 39.8943C102.531 39.181 102.674 38.4728 102.969 37.8228C103.069 37.6216 103.229 37.4035 103.447 37.3951C103.665 37.3867 103.841 37.5964 104.009 37.7306C104.176 37.8648 104.428 37.8899 104.487 38.0493C104.214 37.2403 104.111 36.3838 104.185 35.5333C104.195 35.3501 104.232 35.1693 104.294 34.9966C104.45 34.7035 104.693 34.4661 104.99 34.3173C105.225 34.1871 105.472 34.0803 105.728 33.9986C105.786 33.9986 105.862 33.9399 105.854 33.8812C105.845 33.8225 105.778 33.8141 105.728 33.8057C104.979 33.7216 104.267 33.4313 103.673 32.9671C103.418 32.7977 103.238 32.5363 103.17 32.2375C103.082 31.8568 103.115 31.4585 103.262 31.0969C103.522 30.5879 103.868 30.1282 104.285 29.7383C104.562 29.428 104.881 28.8493 105.275 28.6732C105.359 28.6415 105.449 28.6303 105.538 28.6405C105.627 28.6507 105.712 28.6821 105.786 28.7319C105.937 28.8292 106.07 28.9511 106.181 29.0925L106.558 29.5286C106.379 28.9246 106.095 28.3568 105.719 27.8514C105.36 27.3778 105.137 26.8153 105.074 26.2244C105.092 25.9811 105.132 25.7398 105.191 25.5032C105.191 25.4277 105.476 24.7903 105.485 24.7903L105.367 24.6394C104.936 24.9611 104.625 25.4192 104.487 25.9393C104.487 26.1321 104.487 26.325 104.487 26.5095C104.394 27.5746 103.287 27.7843 102.675 28.4719C101.973 29.2453 101.574 30.2458 101.551 31.2898C101.551 32.5478 102.055 33.8057 101.727 35.0469C101.476 36.0114 100.696 36.8668 100.813 37.848C100.931 38.8292 101.778 39.4414 101.887 40.3639C101.899 40.729 101.874 41.0943 101.811 41.4542C101.781 42.4041 102.029 43.3421 102.526 44.1527C103.022 44.9634 103.744 45.6112 104.604 46.0164C106.344 46.8016 108.301 46.9645 110.147 46.4776C110.585 46.4132 110.998 46.237 111.347 45.966C111.76 45.4585 112.032 44.851 112.135 44.2049C112.185 44.0495 112.284 43.915 112.419 43.8223C112.553 43.7297 112.714 43.6841 112.877 43.6927C113.04 43.7013 113.195 43.7637 113.319 43.87C113.443 43.9763 113.528 44.1206 113.561 44.2804C113.611 44.532 113.653 44.792 113.712 45.0268C113.861 45.4934 114.113 45.9203 114.45 46.276C114.787 46.6317 115.2 46.907 115.657 47.0814C117.641 47.7253 119.784 47.678 121.738 46.9473C122.24 46.7213 122.677 46.3723 123.008 45.9325C123.339 45.4927 123.554 44.9763 123.633 44.4313C123.683 43.7688 123.482 43.1063 123.549 42.4437C123.616 41.7812 123.918 41.2529 124.044 40.6407C124.128 40.1128 124.128 39.5751 124.044 39.0472C124.025 38.7796 123.988 38.5135 123.935 38.2505C123.871 38.0637 123.739 37.9079 123.566 37.8144C123.089 37.4708 122.643 37.0863 122.232 36.6655C122.518 36.9682 122.75 37.3169 122.92 37.697C123.001 37.8881 123.042 38.0934 123.042 38.3008C123.042 38.5083 123.001 38.7136 122.92 38.9047C122.857 39.0398 122.762 39.1577 122.643 39.2485C122.54 39.3182 122.423 39.3641 122.299 39.3827Z" fill="var(--fill-0, #0061DF)"/>
<path id="Vector_7" opacity="0.6" d="M122.299 39.3827H122.132C121.1 39.3827 120.303 38.3847 119.28 38.3092C119.877 38.7013 120.381 39.2195 120.756 39.8272C120.939 40.0764 121.065 40.3627 121.125 40.6658C121.208 41.04 121.236 41.4241 121.209 41.8064C121.21 41.9405 121.178 42.0728 121.117 42.1922C121.083 42.2518 121.032 42.3003 120.971 42.3316C120.91 42.3628 120.841 42.3756 120.773 42.3683C121.044 42.6645 121.209 43.0419 121.243 43.4417C121.266 43.8412 121.218 44.2417 121.1 44.6242C121.057 44.8224 120.975 45.0098 120.859 45.1755C120.742 45.3412 120.593 45.4817 120.421 45.5887C120.15 45.6874 119.853 45.6874 119.582 45.5887C119.321 45.516 119.085 45.3706 118.903 45.1693C118.826 45.0755 118.771 44.9663 118.74 44.849C118.71 44.7317 118.705 44.6093 118.727 44.49C118.727 44.3978 118.802 44.1127 118.618 44.1378C118.554 44.1567 118.497 44.1913 118.45 44.2384C118.286 44.3429 118.087 44.379 117.897 44.3391C117.569 44.2468 117.477 43.8946 117.427 43.6095C117.378 43.233 117.252 42.8705 117.058 42.5444C117.115 42.8235 117.098 43.1128 117.008 43.383C116.962 43.5183 116.889 43.643 116.794 43.7496C116.699 43.8562 116.583 43.9426 116.454 44.0036C116.248 44.0813 116.023 44.0907 115.811 44.0303C115.6 43.9698 115.414 43.8429 115.28 43.6682C114.776 42.9761 114.503 42.1426 114.5 41.2864C114.331 40.5728 114.405 39.8232 114.71 39.1563C114.939 38.8602 115.143 38.5461 115.322 38.217C115.354 38.1247 115.354 38.0241 115.322 37.9318C115.294 37.8687 115.248 37.8151 115.19 37.7778C115.132 37.7406 115.064 37.7212 114.995 37.7222C114.852 37.7222 114.718 37.7222 114.575 37.7222C114.359 37.6917 114.157 37.5946 113.997 37.4444C113.838 37.2942 113.73 37.0982 113.687 36.8835C113.615 36.4363 113.615 35.9806 113.687 35.5333C113.745 35.0122 113.745 34.4862 113.687 33.9651C113.628 33.5625 113.544 33.1264 113.485 32.7574C113.393 31.6885 113.435 30.6122 113.611 29.5538C112.927 30.4726 112.626 31.6212 112.772 32.7574C112.846 33.3274 112.765 33.9067 112.538 34.4347C112.521 34.4855 112.49 34.5304 112.448 34.5638C112.406 34.5973 112.356 34.618 112.302 34.6233C112.249 34.6286 112.195 34.6184 112.148 34.5938C112.1 34.5693 112.061 34.5315 112.034 34.485C111.693 34.1726 111.439 33.7766 111.296 33.3361C111.218 33.6644 111.207 34.0051 111.263 34.338C111.319 34.6708 111.442 34.9889 111.623 35.2733C111.858 35.7346 112.37 36.4558 112.286 37.0009C112.203 37.2498 112.105 37.4934 111.992 37.7306C111.899 38.023 111.876 38.3333 111.925 38.6363C112.043 39.2317 112.521 39.7098 112.638 40.3136C112.703 40.7037 112.639 41.1045 112.454 41.4542C112.445 41.4839 112.428 41.5102 112.403 41.5296C112.303 41.6303 112.127 41.5296 112.034 41.4374C111.691 41.0097 111.758 40.3723 111.456 39.9194C111.385 40.5343 111.086 41.1001 110.617 41.5045C110.424 41.7352 110.198 41.9358 109.946 42.0999C109.751 42.2271 109.518 42.2854 109.286 42.2656C109.054 42.2459 108.834 42.1492 108.663 41.9909C109.015 42.4018 109.393 42.9889 109.099 43.4417C108.96 43.5957 108.783 43.7102 108.586 43.7735C108.388 43.8369 108.178 43.8468 107.975 43.8023C107.367 43.8187 106.765 43.6648 106.239 43.3579C106.027 43.1604 105.882 42.9012 105.824 42.6167C105.767 42.3323 105.801 42.0371 105.921 41.7728C106.03 41.5045 106.172 41.2529 106.281 40.9845C106.474 40.4768 106.54 39.93 106.474 39.3911C106.189 40.1626 105.677 41.0684 104.797 41.1187C104.609 41.1354 104.42 41.0986 104.253 41.0125C104.085 40.9264 103.945 40.7946 103.849 40.6323C103.767 40.4231 103.719 40.2024 103.707 39.9781C103.693 40.167 103.645 40.3518 103.564 40.5233C103.528 40.6162 103.465 40.6961 103.382 40.7525C103.3 40.8088 103.203 40.839 103.103 40.839C103.003 40.839 102.906 40.8088 102.823 40.7525C102.741 40.6961 102.678 40.6162 102.642 40.5233C102.569 40.3219 102.538 40.108 102.549 39.8943C102.531 39.181 102.674 38.4728 102.969 37.8228C103.069 37.6216 103.229 37.4035 103.447 37.3951C103.665 37.3867 103.841 37.5964 104.009 37.7306C104.176 37.8648 104.428 37.8899 104.487 38.0493C104.214 37.2403 104.111 36.3838 104.185 35.5333C104.195 35.3501 104.232 35.1693 104.294 34.9966C104.45 34.7035 104.693 34.4661 104.99 34.3173C105.225 34.1871 105.472 34.0803 105.728 33.9986C105.786 33.9986 105.862 33.9399 105.854 33.8812C105.845 33.8225 105.778 33.8141 105.728 33.8057C104.979 33.7216 104.267 33.4313 103.673 32.9671C103.418 32.7977 103.238 32.5363 103.17 32.2375C103.082 31.8568 103.115 31.4585 103.262 31.0969C103.522 30.5879 103.868 30.1282 104.285 29.7383C104.562 29.428 104.881 28.8493 105.275 28.6732C105.359 28.6415 105.449 28.6303 105.538 28.6405C105.627 28.6507 105.712 28.6821 105.786 28.7319C105.937 28.8292 106.07 28.9511 106.181 29.0925L106.558 29.5286C106.379 28.9246 106.095 28.3568 105.719 27.8514C105.36 27.3778 105.137 26.8153 105.074 26.2244C105.092 25.9811 105.132 25.7398 105.191 25.5032C105.191 25.4277 105.476 24.7903 105.485 24.7903L105.367 24.6394C104.936 24.9611 104.625 25.4192 104.487 25.9393C104.487 26.1321 104.487 26.325 104.487 26.5095C104.394 27.5746 103.287 27.7843 102.675 28.4719C101.973 29.2453 101.574 30.2458 101.551 31.2898C101.551 32.5478 102.055 33.8057 101.727 35.0469C101.476 36.0114 100.696 36.8668 100.813 37.848C100.931 38.8292 101.778 39.4414 101.887 40.3639C101.899 40.729 101.874 41.0943 101.811 41.4542C101.781 42.4041 102.029 43.3421 102.526 44.1527C103.022 44.9634 103.744 45.6112 104.604 46.0164C106.344 46.8016 108.301 46.9645 110.147 46.4776C110.585 46.4132 110.998 46.237 111.347 45.966C111.76 45.4585 112.032 44.851 112.135 44.2049C112.185 44.0495 112.284 43.915 112.419 43.8223C112.553 43.7297 112.714 43.6841 112.877 43.6927C113.04 43.7013 113.195 43.7637 113.319 43.87C113.443 43.9763 113.528 44.1206 113.561 44.2804C113.611 44.532 113.653 44.792 113.712 45.0268C113.861 45.4934 114.113 45.9203 114.45 46.276C114.787 46.6317 115.2 46.907 115.657 47.0814C117.641 47.7253 119.784 47.678 121.738 46.9473C122.24 46.7213 122.677 46.3723 123.008 45.9325C123.339 45.4927 123.554 44.9763 123.633 44.4313C123.683 43.7688 123.482 43.1063 123.549 42.4437C123.616 41.7812 123.918 41.2529 124.044 40.6407C124.128 40.1128 124.128 39.5751 124.044 39.0472C124.025 38.7796 123.988 38.5135 123.935 38.2505C123.871 38.0637 123.739 37.9079 123.566 37.8144C123.089 37.4708 122.643 37.0863 122.232 36.6655C122.518 36.9682 122.75 37.3169 122.92 37.697C123.001 37.8881 123.042 38.0934 123.042 38.3008C123.042 38.5083 123.001 38.7136 122.92 38.9047C122.857 39.0398 122.762 39.1577 122.643 39.2485C122.54 39.3182 122.423 39.3641 122.299 39.3827Z" fill="var(--fill-0, white)"/>
<path id="Vector_8" d="M118.484 47.7188C117.5 47.7544 116.52 47.5947 115.599 47.2492C115.114 47.0654 114.678 46.7735 114.323 46.3956C113.969 46.0177 113.705 45.5639 113.552 45.0687C113.51 44.9094 113.477 44.7332 113.443 44.5487V44.3223C113.422 44.2002 113.359 44.089 113.267 44.0064C113.174 43.9239 113.057 43.8748 112.933 43.8671C112.809 43.8593 112.686 43.8934 112.584 43.9638C112.482 44.0342 112.407 44.1368 112.37 44.2552C112.37 44.3642 112.303 44.4816 112.278 44.5907C112.171 45.1526 111.913 45.6747 111.531 46.1002C111.156 46.3945 110.711 46.5879 110.24 46.6621C108.352 47.1463 106.356 46.9748 104.579 46.1757C103.685 45.7568 102.934 45.0842 102.42 44.2417C101.905 43.3992 101.65 42.4239 101.686 41.4374C101.686 41.3284 101.686 41.2193 101.727 41.1103C101.752 40.8677 101.752 40.6233 101.727 40.3807C101.645 39.9541 101.47 39.5506 101.216 39.1982C100.929 38.812 100.729 38.3687 100.629 37.8983C100.608 37.2427 100.78 36.5954 101.124 36.0365C101.297 35.7159 101.437 35.3788 101.543 35.0301C101.684 34.3029 101.669 33.5542 101.501 32.8329C101.411 32.329 101.364 31.8184 101.358 31.3066C101.387 30.2193 101.803 29.1781 102.533 28.3713C102.765 28.1325 103.027 27.924 103.313 27.7507C103.807 27.4236 104.243 27.1301 104.294 26.5179C104.298 26.4397 104.298 26.3613 104.294 26.2831C104.286 26.1686 104.286 26.0537 104.294 25.9392C104.445 25.3533 104.795 24.8378 105.283 24.48C105.704 24.0871 106.104 23.6729 106.483 23.2388C106.979 22.6569 107.319 21.9586 107.472 21.2093L107.522 20.9661C107.564 20.2878 107.864 19.6514 108.361 19.1882C108.549 19.063 108.762 18.9809 108.985 18.9475C109.209 18.9142 109.436 18.9305 109.653 18.9953C109.868 19.0538 110.068 19.1594 110.237 19.3044C110.407 19.4495 110.542 19.6303 110.634 19.8339C110.739 20.1247 110.795 20.4306 110.802 20.7396C110.793 21.0526 110.859 21.3631 110.994 21.6454C111.111 21.8261 111.256 21.9874 111.422 22.1234C111.574 22.2503 111.715 22.3907 111.841 22.5427C112.193 23.1326 112.312 23.8321 112.177 24.5052C112.177 24.6142 112.177 24.7316 112.118 24.8574C112.031 25.2212 112.031 25.6006 112.118 25.9644C112.155 26.0552 112.199 26.1422 112.252 26.2244C112.328 26.3586 112.429 26.4844 112.521 26.6185C112.703 26.8429 112.857 27.0877 112.982 27.3482V27.3985C113.02 27.4885 113.065 27.5754 113.116 27.6585C113.167 27.7255 113.25 27.8262 113.334 27.8094C113.678 27.7507 114.072 26.4257 114.223 25.9225C114.282 25.7212 114.332 25.5535 114.366 25.478C114.519 25.1447 114.704 24.8273 114.919 24.5303C115.201 24.1678 115.412 23.7552 115.54 23.3143C115.615 22.8955 115.615 22.4667 115.54 22.0479C115.54 21.8383 115.49 21.6286 115.481 21.4273C115.424 21.0691 115.474 20.702 115.623 20.3712C115.772 20.0405 116.014 19.7604 116.32 19.5656C116.663 19.4457 117.036 19.4406 117.382 19.551C117.729 19.6614 118.03 19.8814 118.24 20.1778C118.576 20.6863 118.807 21.2565 118.92 21.855L118.97 22.0479C119.348 23.3395 119.793 24.6104 120.303 25.8554C120.482 26.3829 120.748 26.8764 121.092 27.3146C121.301 27.519 121.525 27.7068 121.763 27.8765C122.183 28.105 122.528 28.4513 122.754 28.8729C122.981 29.2945 123.079 29.7731 123.037 30.2499C123.033 30.6139 123.087 30.9762 123.197 31.3233C123.324 31.6053 123.491 31.8679 123.692 32.1033C123.872 32.3272 124.029 32.5689 124.161 32.8245C124.485 33.7474 124.485 34.753 124.161 35.6759C124.043 36.155 123.964 36.6431 123.926 37.1351C123.927 37.6409 123.969 38.1458 124.052 38.6447C124.196 39.34 124.219 40.055 124.119 40.7581C124.056 41.0416 123.978 41.3216 123.884 41.5967C123.625 42.2135 123.549 42.892 123.666 43.5508C123.713 43.8841 123.73 44.2208 123.717 44.5571C123.637 45.1333 123.411 45.6794 123.06 46.1433C122.709 46.6072 122.245 46.9735 121.712 47.2072C120.679 47.6533 119.558 47.8625 118.433 47.8195L118.484 47.7188ZM112.848 43.5256H112.898C113.1 43.5353 113.292 43.6125 113.444 43.7449C113.596 43.8773 113.699 44.0571 113.737 44.2552L113.787 44.49C113.81 44.6569 113.844 44.8222 113.888 44.9848C114.028 45.4252 114.266 45.8281 114.584 46.1636C114.902 46.499 115.292 46.7583 115.724 46.9221C116.624 47.2459 117.578 47.394 118.534 47.3582C119.604 47.4062 120.67 47.2113 121.654 46.7879C122.13 46.5818 122.545 46.2568 122.859 45.8441C123.173 45.4314 123.376 44.945 123.448 44.4313C123.463 44.1204 123.449 43.8088 123.406 43.5004C123.273 42.7883 123.355 42.0526 123.641 41.3871C123.729 41.1373 123.802 40.8825 123.859 40.6239C123.95 39.9624 123.927 39.2902 123.792 38.6363C123.699 38.1161 123.657 37.588 123.666 37.0597C123.703 36.5481 123.781 36.0404 123.901 35.5417C124.195 34.6943 124.195 33.7726 123.901 32.9252C123.779 32.6901 123.633 32.4681 123.465 32.2626C123.247 32.0102 123.066 31.7278 122.928 31.424C122.798 31.0405 122.733 30.638 122.735 30.2331C122.75 29.8215 122.672 29.4119 122.509 29.0338C122.281 28.6713 121.974 28.3646 121.612 28.1365C121.352 27.9558 121.111 27.7508 120.89 27.5243C120.516 27.0584 120.231 26.5265 120.052 25.956C119.533 24.6981 119.082 23.4131 118.702 22.1066L118.651 21.9138C118.544 21.3698 118.334 20.8516 118.031 20.3874C117.875 20.1566 117.648 19.9826 117.385 19.8919C117.122 19.8011 116.836 19.7984 116.571 19.8842C116.336 20.054 116.151 20.2856 116.039 20.5534C115.926 20.8213 115.89 21.115 115.934 21.4022C115.934 21.5951 115.976 21.7963 115.993 21.9976C116.105 22.4733 116.103 22.9688 115.988 23.4438C115.873 23.9187 115.648 24.36 115.33 24.7316C115.132 24.9952 114.958 25.2758 114.81 25.5702C114.81 25.6457 114.735 25.7967 114.685 25.9896C114.357 27.063 114.022 28.0359 113.502 28.1281C113.389 28.1409 113.274 28.1198 113.172 28.0676C113.071 28.0154 112.987 27.9343 112.932 27.8346C112.858 27.7281 112.799 27.6125 112.756 27.4907V27.4488C112.641 27.2157 112.5 26.9962 112.336 26.7947C112.236 26.6521 112.135 26.5095 112.051 26.367C111.903 26.1285 111.812 25.8595 111.785 25.5804C111.757 25.3012 111.794 25.0195 111.892 24.7568C111.892 24.6393 111.892 24.5219 111.951 24.4213C112.063 23.8481 111.968 23.2534 111.682 22.744C111.572 22.6085 111.449 22.4849 111.313 22.375C111.118 22.2141 110.949 22.0246 110.81 21.8131C110.647 21.4821 110.563 21.1172 110.567 20.748C110.567 20.4795 110.522 20.2129 110.433 19.9597C110.36 19.8066 110.256 19.6706 110.127 19.5609C109.998 19.4512 109.848 19.3702 109.685 19.3234C109.522 19.2766 109.351 19.265 109.184 19.2894C109.016 19.3138 108.856 19.3736 108.713 19.4649C108.286 19.8736 108.026 20.4266 107.984 21.0164L107.933 21.268C107.771 22.0766 107.404 22.8301 106.868 23.4569C106.482 23.8966 106.073 24.3165 105.644 24.7148V24.7568C105.217 25.063 104.904 25.5026 104.755 26.0063C104.755 26.0986 104.755 26.1992 104.755 26.2999C104.755 26.4005 104.755 26.476 104.755 26.5598C104.699 26.8853 104.565 27.1924 104.365 27.4552C104.165 27.7179 103.905 27.9286 103.606 28.0694C103.345 28.2209 103.105 28.4071 102.893 28.6229C102.222 29.3651 101.838 30.3229 101.811 31.3233C101.817 31.8129 101.865 32.3012 101.954 32.7826C102.122 33.5563 102.122 34.357 101.954 35.1308C101.827 35.5088 101.664 35.8739 101.467 36.221C101.15 36.7222 100.987 37.3053 100.998 37.8983C101.086 38.3207 101.26 38.7204 101.509 39.0724C101.785 39.4701 101.974 39.9217 102.063 40.3975C102.098 40.6759 102.098 40.9577 102.063 41.2361C102.063 41.3367 102.063 41.4458 102.021 41.5464C101.996 42.4588 102.237 43.3587 102.715 44.1362C103.193 44.9136 103.887 45.5349 104.713 45.9241C106.418 46.6853 108.331 46.8449 110.139 46.377C110.546 46.3241 110.932 46.1618 111.254 45.9073C111.59 45.5287 111.814 45.0641 111.9 44.5655C111.9 44.4565 111.959 44.3391 112.001 44.2301C112.039 44.0323 112.144 43.8536 112.298 43.7239C112.452 43.5941 112.646 43.5212 112.848 43.5172V43.5256Z" fill="var(--fill-0, #455A64)"/>
<path id="Vector_9" d="M105.157 28.4719C105.417 28.7235 105.711 28.9332 105.996 29.168C106.289 29.3804 106.515 29.6711 106.65 30.0067C106.65 30.0821 106.734 30.0067 106.717 29.948C106.478 29.2946 106.041 28.7319 105.468 28.3378C105.198 28.109 104.983 27.8224 104.839 27.4991C104.775 27.348 104.727 27.1906 104.696 27.0295C104.684 26.8749 104.629 26.7269 104.537 26.6018C104.243 26.736 104.487 27.323 104.537 27.5327C104.675 27.8861 104.887 28.2063 105.157 28.4719ZM108.814 26.2328C108.773 26.0269 108.693 25.8306 108.579 25.6541C108.453 25.4696 108.311 25.2935 108.168 25.1174C108.021 24.9599 107.889 24.7886 107.774 24.6058C107.664 24.4427 107.595 24.2558 107.573 24.0607C107.539 23.4182 107.539 22.7743 107.573 22.1318C107.573 22.1989 107.439 22.3498 107.405 22.4169C107.371 22.484 107.288 22.6518 107.237 22.7692C107.183 22.981 107.183 23.2031 107.237 23.4149C107.237 23.6106 107.237 23.8035 107.237 23.9936C107.237 24.4297 107.145 24.8322 107.103 25.2935C106.965 25.9916 107.047 26.7155 107.338 27.3649C107.338 27.3649 107.38 27.3649 107.338 27.323C107.078 26.5331 107.078 25.6808 107.338 24.8909C107.338 24.7484 107.397 24.6142 107.422 24.4716C107.513 24.6795 107.631 24.8742 107.774 25.0503C108.14 25.4038 108.453 25.8076 108.705 26.2495C108.772 26.3502 108.822 26.2915 108.814 26.2328ZM103.598 36.003C103.665 36.7499 103.981 37.4526 104.495 37.9989C104.495 37.9989 104.495 37.957 104.495 37.9486C103.933 37.328 103.916 36.4391 103.656 35.6759C103.519 35.2556 103.328 34.8552 103.086 34.485C102.977 34.3173 102.86 34.1496 102.734 33.9902L102.642 33.8728C102.878 34.0116 103.132 34.1187 103.396 34.1915C103.823 34.3047 104.268 34.3303 104.705 34.267C104.944 34.2417 105.18 34.1911 105.409 34.116C105.621 34.031 105.822 33.9182 106.004 33.7806C106.004 33.7806 106.004 33.6632 106.004 33.6799C105.248 33.9532 104.438 34.0451 103.64 33.9483C103.279 33.9064 102.929 33.7983 102.608 33.6296C102.287 33.4657 102.024 33.2083 101.853 32.8916C101.811 32.8161 101.761 32.7239 101.685 32.7239C101.702 33.0671 101.839 33.3935 102.071 33.6464C102.409 33.9825 102.71 34.3536 102.969 34.7534C103.245 35.133 103.457 35.5551 103.598 36.003ZM106.642 38.9466C106.498 39.5112 106.238 40.0396 105.879 40.4981C105.492 40.9654 105.044 41.3774 104.545 41.7225C104.132 42.047 103.748 42.4061 103.396 42.796C103.505 42.4186 103.656 42.0496 103.765 41.6722C103.853 41.3864 103.904 41.0904 103.916 40.7916C103.915 40.4684 103.858 40.1479 103.749 39.844C103.819 40.1859 103.836 40.5367 103.799 40.8839C103.749 41.151 103.665 41.4105 103.547 41.6554C103.292 42.1503 103.116 42.6824 103.027 43.2321C102.898 43.3875 102.804 43.5693 102.751 43.7649C102.699 43.9604 102.69 44.1649 102.725 44.3642C102.725 44.5571 103.103 44.641 103.061 44.3642C102.96 43.7772 103.497 43.2908 103.858 42.905C104.275 42.4553 104.72 42.0324 105.191 41.6387C105.991 40.946 106.547 40.0137 106.776 38.9801C106.768 38.955 106.667 38.8292 106.642 38.9466ZM111.506 39.8356C111.571 40.2955 111.539 40.7638 111.414 41.2109C111.258 41.6719 111.061 42.1181 110.827 42.5444C110.607 42.9398 110.419 43.3521 110.265 43.7772C110.255 43.7341 110.241 43.692 110.223 43.6514C110.069 43.1851 109.81 42.7601 109.467 42.4085C109.124 42.0568 108.706 41.7879 108.244 41.6219C108.185 41.6219 108.168 41.7225 108.244 41.7393C108.66 41.9317 109.026 42.2157 109.317 42.5701C109.607 42.9245 109.814 43.34 109.921 43.7856C109.988 44.0152 110.03 44.2514 110.047 44.49C110.047 44.8996 109.918 45.2987 109.678 45.6306C109.602 45.7722 109.506 45.9021 109.393 46.0164C109.29 46.1094 109.177 46.191 109.057 46.2596C108.853 46.3911 108.637 46.5034 108.411 46.595C108.52 46.5827 108.63 46.5827 108.738 46.595C108.845 46.6034 108.951 46.6034 109.057 46.595C109.284 46.595 109.502 46.595 109.728 46.595C109.586 46.595 109.577 46.4609 109.619 46.3686C109.745 46.0835 109.971 45.857 110.105 45.5719C110.184 45.385 110.246 45.1913 110.29 44.9932C110.469 44.3653 110.708 43.7559 111.003 43.1734C111.129 42.9134 111.254 42.6618 111.363 42.4018C111.596 42.0088 111.743 41.5711 111.795 41.1174C111.847 40.6636 111.803 40.2039 111.665 39.7685C111.531 39.693 111.531 39.7936 111.531 39.8356H111.506ZM118.651 44.0707C118.351 44.5238 117.99 44.933 117.578 45.2867C117.472 45.4042 117.377 45.5305 117.293 45.6641C117.335 45.3622 117.402 45.0603 117.418 44.7584C117.444 44.3236 117.418 43.8874 117.343 43.4585C117.275 43.1163 117.166 42.7839 117.016 42.4689C117.288 43.3751 117.331 44.3346 117.142 45.2616C117.142 45.8403 116.957 46.4021 116.94 46.9389C116.927 47.006 116.929 47.0752 116.945 47.1418C116.961 47.2083 116.991 47.2707 117.033 47.3247C117.091 47.371 117.16 47.4 117.234 47.4085C117.387 47.4506 117.545 47.4759 117.704 47.484H117.754C117.754 47.484 117.754 47.4085 117.754 47.375C117.64 47.2306 117.544 47.0729 117.469 46.9053C117.42 46.7595 117.402 46.6051 117.416 46.4519C117.431 46.2988 117.477 46.1504 117.553 46.0164C117.66 45.7899 117.792 45.5761 117.947 45.379C118.266 44.9827 118.531 44.5455 118.735 44.0791C118.735 44.0791 118.685 44.012 118.651 44.0707ZM122.677 42.6534C122.079 42.2287 121.609 41.6487 121.318 40.9761C121.145 40.2962 120.843 39.6557 120.429 39.0892C119.985 38.681 119.467 38.3621 118.903 38.1499C118.903 38.1499 118.861 38.2002 118.903 38.217C119.395 38.4974 119.847 38.8445 120.245 39.2485C120.626 39.7748 120.895 40.3745 121.033 41.0097C121.255 41.5682 121.595 42.0719 122.031 42.4857C122.128 42.5776 122.231 42.6618 122.341 42.7373C121.88 42.536 121.36 42.4689 120.882 42.3012C120.832 42.3012 120.815 42.3934 120.882 42.4186C121.46 42.6048 122.021 42.8405 122.559 43.123C122.77 43.2843 122.951 43.4799 123.096 43.7017C123.311 44.0959 123.446 44.5294 123.49 44.9765C123.531 44.9233 123.56 44.8623 123.576 44.7974C123.592 44.7324 123.594 44.6649 123.582 44.5991C123.612 44.1994 123.563 43.7978 123.44 43.4166C123.245 43.1086 122.985 42.8479 122.677 42.6534ZM124.17 34.8624C124.06 34.9719 123.942 35.0728 123.817 35.1643C123.55 35.351 123.269 35.5191 122.979 35.6675C122.721 35.8183 122.436 35.9153 122.14 35.9526C121.694 35.9606 121.253 35.8568 120.857 35.6507C120.526 35.4779 120.155 35.3983 119.783 35.4205C119.41 35.4426 119.051 35.5657 118.743 35.7765C118.743 35.7765 118.743 35.8688 118.743 35.852C119.216 35.6681 119.731 35.6244 120.228 35.7262C121.511 35.9694 122.417 36.959 123.272 37.8648C123.348 37.9486 123.851 38.3512 123.842 38.4434C123.844 38.2846 123.812 38.1272 123.747 37.9824C123.681 37.8375 123.585 37.7086 123.465 37.6048C123.322 37.4564 123.171 37.3164 123.012 37.1854L121.989 36.2629C122.502 36.1465 122.995 35.9513 123.448 35.6843C123.759 35.4998 124.245 35.2063 124.17 34.7869V34.8624ZM119.289 32.7239C120.196 32.6611 121.076 32.3915 121.863 31.9355C122.23 31.7569 122.54 31.4814 122.761 31.1388C122.813 31.0401 122.855 30.9361 122.886 30.8285C122.895 30.7001 122.895 30.5712 122.886 30.4428C122.916 30.2259 122.932 30.0075 122.937 29.7886C122.937 29.7383 122.861 29.646 122.819 29.7299C122.75 29.9255 122.702 30.1279 122.677 30.3337C122.677 30.4511 122.584 30.5602 122.551 30.6776C122.52 30.7812 122.475 30.88 122.417 30.9711C122.164 31.2844 121.847 31.5391 121.486 31.7175C120.804 32.1503 120.052 32.4597 119.263 32.6316C119.263 32.6316 119.247 32.7323 119.289 32.7239ZM117.779 29.9228C117.855 28.7487 118.71 27.8094 119.163 26.7779C119.161 26.75 119.161 26.722 119.163 26.694C119.209 26.9291 119.267 27.1615 119.339 27.3901C119.569 27.9348 119.694 28.5181 119.708 29.1093C119.751 28.5984 119.7 28.0839 119.557 27.5914C119.498 27.323 119.406 27.0714 119.356 26.8031C119.321 26.6202 119.299 26.4353 119.289 26.2495C119.371 25.9146 119.416 25.5714 119.423 25.2264C119.423 24.8155 119.423 24.3878 119.423 23.9852C119.397 23.69 119.263 23.4149 119.045 23.2137C119.057 23.5319 119.093 23.8488 119.154 24.1613C119.154 24.4381 119.154 24.7232 119.154 25C119.149 25.5994 119.026 26.1919 118.794 26.7443C118.341 27.801 117.62 28.7319 117.636 29.9312C117.72 29.9899 117.779 29.9731 117.779 29.9228Z" fill="var(--fill-0, #455A64)"/>
</g>
<path id="Vector_10" d="M100.344 59.9798C100.374 59.979 100.403 59.9846 100.431 59.9961C100.458 60.0077 100.483 60.025 100.503 60.0469C100.524 60.0675 100.542 60.0922 100.553 60.1196C100.565 60.147 100.57 60.1765 100.57 60.2062V60.8017C100.57 60.8617 100.546 60.9193 100.504 60.9618C100.461 61.0042 100.404 61.0281 100.344 61.0281H98.8341V65.6238C98.8341 65.6839 98.8103 65.7415 98.7678 65.784C98.7253 65.8264 98.6678 65.8503 98.6077 65.8503H97.9284C97.8987 65.8506 97.8692 65.8447 97.8418 65.8332C97.8144 65.8217 97.7896 65.8047 97.7691 65.7832C97.7472 65.7629 97.7299 65.7382 97.7183 65.7108C97.7068 65.6833 97.7012 65.6537 97.702 65.6238V61.0281H96.1924C96.1627 61.0284 96.1332 61.0225 96.1058 61.011C96.0784 60.9995 96.0536 60.9825 96.0331 60.961C96.0112 60.9407 95.9939 60.916 95.9823 60.8886C95.9708 60.8611 95.9652 60.8315 95.966 60.8017V60.2062C95.966 60.1462 95.9898 60.0886 96.0323 60.0461C96.0748 60.0036 96.1323 59.9798 96.1924 59.9798H100.344Z" fill="var(--fill-0, #455A64)"/>
<path id="Vector_11" d="M105.979 59.9798C106.009 59.979 106.039 59.9846 106.066 59.9961C106.094 60.0077 106.118 60.025 106.139 60.0469C106.16 60.0675 106.177 60.0922 106.189 60.1196C106.2 60.147 106.206 60.1765 106.206 60.2062V65.6238C106.206 65.6839 106.182 65.7415 106.139 65.784C106.097 65.8264 106.039 65.8503 105.979 65.8503H105.3C105.27 65.8506 105.241 65.8447 105.213 65.8332C105.186 65.8217 105.161 65.8047 105.141 65.7832C105.119 65.7629 105.102 65.7382 105.09 65.7108C105.078 65.6833 105.073 65.6537 105.074 65.6238V63.4098H102.558V65.6238C102.558 65.6839 102.534 65.7415 102.491 65.784C102.449 65.8264 102.391 65.8503 102.331 65.8503H101.652C101.622 65.8506 101.593 65.8447 101.565 65.8332C101.538 65.8217 101.513 65.8047 101.493 65.7832C101.469 65.7641 101.451 65.7396 101.439 65.7119C101.428 65.6841 101.423 65.6539 101.425 65.6238V60.2062C101.425 60.1462 101.449 60.0886 101.492 60.0461C101.534 60.0036 101.592 59.9798 101.652 59.9798H102.306C102.336 59.979 102.366 59.9846 102.393 59.9961C102.42 60.0077 102.445 60.025 102.465 60.0469C102.487 60.0675 102.504 60.0922 102.515 60.1196C102.527 60.147 102.533 60.1765 102.532 60.2062V62.3615H105.048V60.2062C105.048 60.1462 105.072 60.0886 105.115 60.0461C105.157 60.0036 105.215 59.9798 105.275 59.9798H105.979Z" fill="var(--fill-0, #455A64)"/>
<path id="Vector_12" d="M111.976 59.9798C112.005 59.979 112.035 59.9846 112.063 59.9961C112.09 60.0077 112.115 60.025 112.135 60.0469C112.156 60.0675 112.174 60.0922 112.185 60.1196C112.197 60.147 112.202 60.1765 112.202 60.2062C112.206 60.2312 112.206 60.2567 112.202 60.2817L110.215 63.7788V65.6238C110.215 65.6839 110.191 65.7415 110.148 65.784C110.106 65.8264 110.048 65.8503 109.988 65.8503H109.317C109.287 65.8506 109.258 65.8447 109.231 65.8332C109.203 65.8217 109.178 65.8046 109.158 65.7832C109.136 65.7629 109.119 65.7382 109.107 65.7108C109.096 65.6833 109.09 65.6536 109.091 65.6238V63.7788L107.103 60.2817C107.095 60.2571 107.095 60.2308 107.103 60.2062C107.103 60.1462 107.127 60.0886 107.169 60.0461C107.212 60.0036 107.27 59.9798 107.33 59.9798H107.959C108.004 59.9759 108.05 59.9814 108.093 59.9958C108.136 60.0102 108.176 60.0333 108.21 60.0636C108.25 60.1003 108.284 60.1427 108.311 60.1894L109.669 62.5628L111.028 60.1894C111.049 60.1389 111.084 60.0954 111.129 60.0636C111.162 60.0324 111.202 60.0088 111.245 59.9943C111.289 59.9798 111.335 59.9749 111.38 59.9798H111.976Z" fill="var(--fill-0, #455A64)"/>
<path id="Vector_13" d="M115.817 62.9737L117.41 60.2062C117.442 60.1583 117.479 60.1134 117.519 60.072C117.551 60.0378 117.59 60.0116 117.634 59.9955C117.678 59.9795 117.724 59.9741 117.771 59.9798H118.341C118.371 59.979 118.4 59.9846 118.428 59.9961C118.455 60.0077 118.48 60.025 118.5 60.0469C118.522 60.0675 118.539 60.0922 118.55 60.1196C118.562 60.147 118.568 60.1765 118.567 60.2062V65.6239C118.567 65.6839 118.544 65.7415 118.501 65.784C118.459 65.8264 118.401 65.8503 118.341 65.8503H117.662C117.632 65.8506 117.602 65.8447 117.575 65.8332C117.548 65.8217 117.523 65.8047 117.502 65.7832C117.48 65.7629 117.463 65.7382 117.452 65.7108C117.44 65.6833 117.434 65.6537 117.435 65.6239V62.3448L116.345 64.2317L116.228 64.3659C116.202 64.3906 116.172 64.41 116.139 64.423C116.106 64.4359 116.07 64.4422 116.035 64.4414H115.599C115.563 64.4432 115.527 64.4374 115.494 64.4244C115.461 64.4114 115.431 64.3914 115.406 64.3659C115.362 64.3257 115.322 64.2807 115.288 64.2317L114.198 62.3448V65.6239C114.198 65.6839 114.174 65.7415 114.132 65.784C114.089 65.8264 114.032 65.8503 113.972 65.8503H113.292C113.263 65.8506 113.233 65.8447 113.206 65.8332C113.178 65.8217 113.154 65.8047 113.133 65.7832C113.111 65.7629 113.094 65.7382 113.082 65.7108C113.071 65.6833 113.065 65.6537 113.066 65.6239V60.2062C113.066 60.1462 113.09 60.0886 113.132 60.0461C113.175 60.0036 113.232 59.9798 113.292 59.9798H113.863C113.908 59.9748 113.953 59.9805 113.995 59.9966C114.038 60.0126 114.076 60.0385 114.106 60.072L114.223 60.2062L115.817 62.9737Z" fill="var(--fill-0, #455A64)"/>
<path id="Vector_14" d="M124.413 59.9798C124.443 59.979 124.472 59.9846 124.5 59.9961C124.527 60.0077 124.552 60.025 124.572 60.0469C124.594 60.0675 124.611 60.0922 124.622 60.1196C124.634 60.147 124.639 60.1765 124.639 60.2062V63.6447C124.643 63.9641 124.592 64.2818 124.488 64.5839C124.392 64.8547 124.237 65.101 124.035 65.3052C123.821 65.513 123.563 65.6705 123.281 65.7664C122.597 65.9923 121.859 65.9923 121.176 65.7664C120.895 65.6704 120.64 65.5128 120.429 65.3052C120.227 65.101 120.072 64.8547 119.976 64.5839C119.875 64.2813 119.827 63.9636 119.834 63.6447V60.2062C119.834 60.1462 119.858 60.0886 119.9 60.0461C119.943 60.0036 120 59.9798 120.06 59.9798H120.756C120.786 59.979 120.816 59.9846 120.843 59.9961C120.871 60.0077 120.895 60.025 120.916 60.0469C120.937 60.0675 120.954 60.0922 120.966 60.1196C120.977 60.147 120.983 60.1765 120.983 60.2062V63.6027C120.976 63.8025 121.007 64.0018 121.075 64.1898C121.126 64.3413 121.216 64.4771 121.335 64.5839C121.451 64.6884 121.588 64.7658 121.737 64.8104C121.903 64.8618 122.076 64.8873 122.249 64.8858C122.422 64.8873 122.595 64.8618 122.761 64.8104C122.912 64.764 123.052 64.6869 123.172 64.5839C123.285 64.4726 123.374 64.3382 123.432 64.1898C123.502 64.0024 123.537 63.803 123.532 63.6027V60.2062C123.532 60.1462 123.556 60.0886 123.598 60.0461C123.641 60.0036 123.699 59.9798 123.759 59.9798H124.413Z" fill="var(--fill-0, #455A64)"/>
<path id="Vector_15" d="M127.918 59.8959C128.254 59.8903 128.589 59.9414 128.908 60.0469C129.164 60.1335 129.405 60.261 129.621 60.4243C129.794 60.5595 129.94 60.7277 130.048 60.9191C130.139 61.0791 130.197 61.256 130.216 61.439C130.219 61.4691 130.214 61.4993 130.202 61.5271C130.191 61.5548 130.172 61.5793 130.149 61.5984C130.106 61.6395 130.049 61.6634 129.99 61.6655H129.403C129.326 61.6686 129.25 61.6481 129.185 61.6068C129.132 61.5695 129.089 61.5207 129.059 61.4642C128.963 61.3111 128.83 61.1843 128.673 61.0952C128.439 60.9798 128.179 60.9277 127.918 60.9442C127.777 60.9405 127.636 60.9546 127.499 60.9862C127.378 61.014 127.263 61.0592 127.155 61.1203C127.062 61.1727 126.984 61.2477 126.929 61.3384C126.871 61.4221 126.842 61.522 126.845 61.6235C126.835 61.7362 126.864 61.8488 126.927 61.9432C126.989 62.0375 127.081 62.1081 127.189 62.1435C127.35 62.2158 127.519 62.272 127.692 62.3112L128.463 62.4873C128.75 62.5446 129.031 62.6288 129.302 62.7389C129.519 62.8227 129.72 62.9417 129.897 63.0912C130.047 63.2219 130.165 63.3855 130.241 63.5692C130.327 63.7783 130.366 64.0031 130.358 64.2288C130.349 64.4544 130.292 64.6756 130.191 64.8775C130.074 65.0949 129.911 65.2839 129.713 65.431C129.481 65.5952 129.223 65.7198 128.95 65.8C128.619 65.8902 128.278 65.9353 127.935 65.9342C127.632 65.9344 127.33 65.895 127.038 65.8167C126.768 65.7489 126.51 65.6385 126.275 65.4897C126.065 65.3571 125.885 65.183 125.746 64.9781C125.613 64.7782 125.535 64.5468 125.52 64.3072C125.514 64.2765 125.516 64.2449 125.526 64.2154C125.537 64.1859 125.555 64.1597 125.578 64.1395C125.625 64.0994 125.685 64.0785 125.746 64.0808H126.333C126.409 64.0766 126.485 64.094 126.551 64.1311C126.606 64.1694 126.649 64.2215 126.677 64.282C126.718 64.3591 126.765 64.4321 126.82 64.5001C126.882 64.5788 126.959 64.6443 127.046 64.693C127.157 64.7533 127.275 64.7984 127.398 64.8272C127.574 64.8675 127.754 64.8872 127.935 64.8858C128.098 64.8847 128.261 64.8707 128.421 64.8439C128.564 64.8223 128.702 64.7799 128.832 64.7181C128.94 64.6641 129.037 64.5901 129.118 64.5001C129.189 64.4095 129.228 64.297 129.227 64.1814C129.235 64.0792 129.205 63.9775 129.143 63.8963C129.041 63.8002 128.917 63.731 128.782 63.695C128.59 63.6284 128.394 63.5751 128.195 63.5356L127.356 63.3427C127.105 63.2707 126.861 63.1752 126.627 63.0576C126.434 62.979 126.258 62.8653 126.107 62.7222C125.972 62.5871 125.869 62.4238 125.805 62.2441C125.734 62.0365 125.699 61.8179 125.704 61.5984C125.699 61.3557 125.757 61.1159 125.872 60.9023C125.98 60.6865 126.138 60.4996 126.333 60.3572C126.542 60.1961 126.777 60.0739 127.029 59.9966C127.319 59.9179 127.619 59.884 127.918 59.8959Z" fill="var(--fill-0, #455A64)"/>
</g>
</svg>
