<svg preserveAspectRatio="none" width="100%" height="100%" overflow="visible" style="display: block;" viewBox="0 0 159 150" fill="none" xmlns="http://www.w3.org/2000/svg">
<g id="freepik--liver--inject-128">
<path id="Vector" d="M114.508 117.821H91.127L91.0013 117.653L1.40899 2.00436L2.07989 1.48441L91.538 116.982H114.508V117.821Z" fill="var(--fill-0, #455A64)"/>
<path id="Vector_2" d="M3.48875 1.74438C3.48875 2.08939 3.38646 2.42664 3.19478 2.7135C3.00311 3.00036 2.73068 3.22394 2.41193 3.35597C2.09319 3.488 1.74244 3.52254 1.40407 3.45523C1.06569 3.38792 0.754864 3.22179 0.510909 2.97784C0.266953 2.73388 0.100823 2.42307 0.0335155 2.08469C-0.0337917 1.74632 0.000764352 1.39557 0.132792 1.07683C0.26482 0.758085 0.488401 0.485653 0.775263 0.293978C1.06212 0.102303 1.39938 0 1.74438 0C2.20702 0 2.65069 0.183786 2.97783 0.51092C3.30496 0.838055 3.48875 1.28174 3.48875 1.74438Z" fill="var(--fill-0, #455A64)"/>
<path id="Vector_3" d="M136.263 139.668C131.859 139.668 127.554 138.362 123.893 135.915C120.231 133.469 117.377 129.991 115.692 125.923C114.007 121.854 113.566 117.377 114.425 113.058C115.284 108.739 117.404 104.771 120.518 101.657C123.632 98.5433 127.6 96.4227 131.919 95.5636C136.238 94.7044 140.715 95.1453 144.784 96.8306C148.852 98.5159 152.33 101.37 154.776 105.031C157.223 108.693 158.529 112.998 158.529 117.402C158.522 123.305 156.174 128.965 152 133.139C147.826 137.313 142.166 139.661 136.263 139.668ZM136.263 95.6221C131.95 95.6221 127.735 96.9009 124.149 99.2969C120.563 101.693 117.768 105.098 116.118 109.083C114.468 113.067 114.036 117.451 114.877 121.681C115.718 125.91 117.795 129.796 120.845 132.845C123.894 135.895 127.779 137.971 132.009 138.813C136.239 139.654 140.623 139.222 144.607 137.572C148.591 135.921 151.997 133.127 154.393 129.541C156.789 125.955 158.068 121.739 158.068 117.427C158.068 111.644 155.77 106.098 151.681 102.009C147.592 97.9194 142.046 95.6221 136.263 95.6221Z" fill="var(--fill-0, #0061DF)"/>
<g id="freepik--liver--inject-128_2">
<path id="Vector_4" d="M127.507 131.046C126.864 131.044 126.23 130.904 125.645 130.635C124.48 130.107 123.7 129.218 123.7 128.405C123.7 126.585 123.138 124.622 121.461 120.622C119.683 116.362 120.874 111.892 124.295 109.988C125.986 109.1 127.88 108.669 129.788 108.738C130.426 108.738 131.038 108.738 131.617 108.797C132.195 108.856 132.606 108.839 133.034 108.839C133.286 108.839 133.529 108.839 133.747 108.839C134.492 108.739 135.222 108.545 135.919 108.26C136.819 107.885 137.779 107.669 138.753 107.623C139.446 107.623 140.131 107.766 140.766 108.042L140.9 108.101L141.018 108.009C141.635 107.545 142.393 107.308 143.165 107.338C143.966 107.365 144.761 107.477 145.538 107.673C146.487 107.91 147.462 108.026 148.44 108.017L149.815 108.059C152.281 108.168 153.639 109.183 153.639 110.902C153.639 113.116 152.289 115.305 149.832 117.058C149.077 117.595 148.348 118.089 147.651 118.551C145.96 119.572 144.404 120.803 143.022 122.215L142.184 123.146L142.259 123.297C142.397 123.587 142.45 123.91 142.41 124.228C142.41 124.279 142.41 124.354 142.41 124.455C142.437 124.707 142.397 124.962 142.293 125.193C142.248 125.159 142.216 125.112 142.2 125.059C142.188 124.964 142.188 124.868 142.2 124.773C142.237 124.442 142.211 124.106 142.125 123.784L141.999 123.373L141.705 123.692C140.179 125.369 138.351 127.046 136.305 127.189C135.396 127.226 134.498 127.396 133.638 127.692H133.546L133.395 127.985C133.213 128.324 132.956 128.617 132.643 128.841C132.33 129.064 131.971 129.214 131.591 129.277H131.457C131.365 129.285 131.273 129.285 131.181 129.277H131.063L130.971 129.352C130.694 129.579 130.401 129.83 130.082 130.116C129.368 130.732 128.451 131.064 127.507 131.046Z" fill="var(--fill-0, white)"/>
<path id="Vector_5" d="M153.036 109.233C153.176 109.712 153.222 110.213 153.17 110.709C152.943 112.621 151.107 113.913 149.32 114.617C147.534 115.322 145.555 115.716 144.096 116.966C143.475 117.486 142.913 118.182 142.116 118.316C141.7 118.354 141.282 118.272 140.911 118.08C140.539 117.889 140.23 117.595 140.02 117.234C139.614 116.503 139.355 115.699 139.257 114.869C138.979 115.781 138.877 116.737 138.955 117.687C138.99 118.161 138.923 118.638 138.76 119.084C138.596 119.531 138.34 119.938 138.007 120.278C137.068 121.041 135.684 120.765 134.518 121.117C133.813 121.38 133.141 121.723 132.514 122.14C131.737 122.688 130.844 123.049 129.904 123.195C128.964 123.341 128.003 123.268 127.096 122.981C126.19 122.695 125.361 122.203 124.676 121.543C123.991 120.884 123.467 120.075 123.146 119.18C122.392 117.617 122.115 115.867 122.35 114.148C122.607 112.417 123.531 110.855 124.924 109.795L124.84 109.753L124.295 110.03C120.79 111.976 119.725 116.454 121.477 120.639C123.23 124.824 123.717 126.677 123.717 128.43C123.717 130.183 127.516 132.33 130.04 130.107C132.564 127.885 133.646 127.382 136.28 127.18C138.913 126.979 141.244 124.161 142.989 122.216C144.733 120.27 147.073 119.004 149.798 117.058C152.524 115.112 153.598 112.865 153.598 110.919C153.63 110.306 153.43 109.704 153.036 109.233Z" fill="var(--fill-0, #0061DF)"/>
<path id="Vector_6" opacity="0.6" d="M153.036 109.233C153.176 109.712 153.222 110.213 153.17 110.709C152.943 112.621 151.107 113.913 149.32 114.617C147.534 115.322 145.555 115.716 144.096 116.966C143.475 117.486 142.913 118.182 142.116 118.316C141.7 118.354 141.282 118.272 140.911 118.08C140.539 117.889 140.23 117.595 140.02 117.234C139.614 116.503 139.355 115.699 139.257 114.869C138.979 115.781 138.877 116.737 138.955 117.687C138.99 118.161 138.923 118.638 138.76 119.084C138.596 119.531 138.34 119.938 138.007 120.278C137.068 121.041 135.684 120.765 134.518 121.117C133.813 121.38 133.141 121.723 132.514 122.14C131.737 122.688 130.844 123.049 129.904 123.195C128.964 123.341 128.003 123.268 127.096 122.981C126.19 122.695 125.361 122.203 124.676 121.543C123.991 120.884 123.467 120.075 123.146 119.18C122.392 117.617 122.115 115.867 122.35 114.148C122.607 112.417 123.531 110.855 124.924 109.795L124.84 109.753L124.295 110.03C120.79 111.976 119.725 116.454 121.477 120.639C123.23 124.824 123.717 126.677 123.717 128.43C123.717 130.183 127.516 132.33 130.04 130.107C132.564 127.885 133.646 127.382 136.28 127.18C138.913 126.979 141.244 124.161 142.989 122.216C144.733 120.27 147.073 119.004 149.798 117.058C152.524 115.112 153.598 112.865 153.598 110.919C153.63 110.306 153.43 109.704 153.036 109.233Z" fill="var(--fill-0, white)"/>
<path id="Vector_7" d="M127.507 131.298C126.83 131.293 126.161 131.145 125.545 130.862C124.287 130.3 123.448 129.31 123.448 128.405C123.448 126.618 122.886 124.681 121.234 120.723C119.398 116.337 120.63 111.732 124.178 109.762C126.786 108.311 129.47 108.437 131.633 108.546C132.332 108.587 133.032 108.587 133.73 108.546C134.453 108.451 135.161 108.262 135.835 107.984C137.236 107.481 138.829 106.91 140.867 107.766C142.175 106.759 143.785 106.994 145.588 107.38C146.523 107.616 147.484 107.732 148.448 107.724L149.832 107.766C152.449 107.883 153.891 108.982 153.891 110.86C153.891 113.158 152.499 115.414 149.975 117.217C149.211 117.771 148.473 118.266 147.769 118.735C146.105 119.744 144.572 120.955 143.207 122.341L142.829 122.761C141.06 124.74 138.863 127.205 136.305 127.398C133.747 127.591 132.699 128.069 130.233 130.25C129.486 130.926 128.515 131.3 127.507 131.298ZM129.805 109.032C127.942 108.964 126.093 109.38 124.438 110.24C121.15 112.068 120.01 116.387 121.737 120.513C123.465 124.639 123.993 126.543 123.993 128.405C123.993 129.092 124.723 129.897 125.771 130.367C126.429 130.698 127.169 130.825 127.9 130.734C128.63 130.643 129.316 130.337 129.872 129.856C132.388 127.6 133.562 127.071 136.263 126.87C138.603 126.694 140.716 124.354 142.427 122.408L142.796 121.989C144.191 120.571 145.757 119.331 147.459 118.299C148.163 117.829 148.893 117.335 149.656 116.789C152.038 115.112 153.346 112.999 153.346 110.877C153.346 108.906 151.417 108.403 149.807 108.361H148.44C147.442 108.369 146.448 108.25 145.479 108.009C143.425 107.564 142.125 107.497 141.085 108.386C141.045 108.42 140.996 108.441 140.944 108.448C140.892 108.456 140.84 108.449 140.791 108.428C138.879 107.59 137.437 108.084 136.02 108.588C135.3 108.884 134.544 109.084 133.772 109.183C133.049 109.224 132.323 109.224 131.6 109.183C131.038 109.066 130.434 109.032 129.805 109.032Z" fill="var(--fill-0, #455A64)"/>
<path id="Vector_8" d="M142.133 121.57C141.798 121.192 141.429 120.857 141.093 120.48C140.432 119.693 139.994 118.743 139.827 117.729C139.664 116.59 139.621 115.438 139.701 114.29C139.706 113.166 139.807 112.043 140.003 110.936C140.186 109.745 140.779 108.657 141.68 107.858C141.831 107.732 141.555 107.497 141.412 107.564C140.975 107.814 140.593 108.15 140.29 108.553C139.987 108.955 139.77 109.415 139.651 109.904C139.325 111.031 139.147 112.195 139.123 113.368C139.022 115.548 138.795 118.115 140.053 120.077C140.399 120.562 140.802 121.004 141.253 121.394C141.462 121.587 141.68 121.779 141.873 121.989C142.066 122.199 142.267 122.517 142.511 122.752C142.603 122.836 142.787 122.853 142.779 122.677C142.691 122.247 142.464 121.858 142.133 121.57Z" fill="var(--fill-0, #455A64)"/>
<path id="Vector_9" d="M142.662 124.237C142.698 123.972 142.677 123.702 142.6 123.446C142.524 123.19 142.393 122.954 142.217 122.752C141.887 122.441 141.471 122.234 141.023 122.16C140.575 122.085 140.115 122.145 139.701 122.333C139.337 122.57 139.005 122.851 138.712 123.172C138.376 123.482 138.108 123.851 137.806 124.186C137.493 124.581 137.07 124.873 136.59 125.025C136.439 125.064 136.284 125.087 136.129 125.092C135.351 125.07 134.576 125.005 133.805 124.899C132.749 124.833 131.702 125.129 130.837 125.738C130.413 126.047 130.096 126.481 129.931 126.979C129.855 127.252 129.816 127.534 129.814 127.818C129.79 128.054 129.819 128.293 129.899 128.516C129.979 128.74 130.107 128.943 130.275 129.111C130.442 129.28 130.645 129.409 130.868 129.49C131.091 129.571 131.33 129.601 131.566 129.579C131.986 129.514 132.385 129.352 132.732 129.106C133.078 128.86 133.363 128.537 133.562 128.161C133.696 127.927 133.797 127.667 133.94 127.432C134.119 127.106 134.383 126.834 134.703 126.644C135.197 126.47 135.724 126.404 136.246 126.451C136.89 126.355 137.482 126.041 137.923 125.562C138.544 124.924 138.846 124.094 139.542 123.541C139.857 123.284 140.243 123.129 140.649 123.096C140.85 123.083 141.052 123.121 141.235 123.206C141.418 123.291 141.577 123.42 141.697 123.583C141.887 123.937 141.955 124.343 141.89 124.74C141.873 124.868 141.873 124.998 141.89 125.126C141.901 125.189 141.927 125.249 141.967 125.301C142.006 125.352 142.058 125.393 142.116 125.419C142.703 125.595 142.628 124.497 142.662 124.237Z" fill="var(--fill-0, #455A64)"/>
</g>
<path id="Vector_10" d="M128.975 148.868C129.005 148.867 129.034 148.872 129.062 148.884C129.089 148.896 129.114 148.913 129.134 148.935C129.156 148.955 129.173 148.98 129.184 149.007C129.196 149.035 129.202 149.064 129.201 149.094V149.689C129.201 149.75 129.178 149.807 129.135 149.85C129.093 149.892 129.035 149.916 128.975 149.916H125.302C125.272 149.916 125.243 149.91 125.215 149.899C125.188 149.887 125.163 149.87 125.142 149.849C125.12 149.829 125.103 149.804 125.092 149.776C125.08 149.749 125.074 149.719 125.075 149.689V144.272C125.075 144.212 125.099 144.154 125.142 144.112C125.184 144.069 125.242 144.045 125.302 144.045H125.981C126.011 144.045 126.04 144.05 126.068 144.062C126.095 144.073 126.12 144.091 126.14 144.112C126.162 144.133 126.179 144.158 126.19 144.185C126.202 144.213 126.208 144.242 126.207 144.272V148.868H128.975Z" fill="var(--fill-0, #455A64)"/>
<path id="Vector_11" d="M130.233 149.916C130.203 149.916 130.174 149.91 130.146 149.899C130.119 149.887 130.094 149.87 130.074 149.849C130.052 149.829 130.034 149.804 130.023 149.776C130.011 149.749 130.006 149.719 130.007 149.689V144.272C130.007 144.212 130.03 144.154 130.073 144.112C130.115 144.069 130.173 144.045 130.233 144.045H130.912C130.942 144.045 130.972 144.05 130.999 144.062C131.027 144.073 131.051 144.091 131.072 144.112C131.093 144.133 131.11 144.158 131.122 144.185C131.133 144.213 131.139 144.242 131.139 144.272V149.689C131.139 149.75 131.115 149.807 131.072 149.85C131.03 149.892 130.972 149.916 130.912 149.916H130.233Z" fill="var(--fill-0, #455A64)"/>
<path id="Vector_12" d="M134.586 148.255L135.994 144.255C136.013 144.202 136.041 144.154 136.078 144.113C136.131 144.066 136.201 144.041 136.271 144.045H136.909C136.938 144.045 136.968 144.05 136.995 144.062C137.023 144.073 137.048 144.091 137.068 144.113C137.089 144.133 137.106 144.158 137.118 144.185C137.129 144.213 137.135 144.242 137.135 144.272V144.331L135.231 149.606C135.207 149.683 135.167 149.754 135.114 149.815C135.087 149.841 135.056 149.861 135.021 149.874C134.987 149.887 134.95 149.893 134.913 149.891H134.242C134.205 149.894 134.167 149.889 134.133 149.876C134.098 149.863 134.066 149.842 134.04 149.815C133.985 149.756 133.944 149.684 133.923 149.606L132.07 144.356C132.065 144.336 132.065 144.316 132.07 144.297C132.07 144.237 132.093 144.179 132.136 144.137C132.178 144.094 132.236 144.071 132.296 144.071H132.908C132.942 144.068 132.976 144.073 133.008 144.085C133.039 144.096 133.068 144.114 133.093 144.138C133.132 144.179 133.163 144.227 133.185 144.28L134.586 148.255Z" fill="var(--fill-0, #455A64)"/>
<path id="Vector_13" d="M141.924 148.868C141.953 148.867 141.983 148.872 142.011 148.884C142.038 148.896 142.063 148.913 142.083 148.935C142.104 148.955 142.121 148.98 142.133 149.007C142.145 149.035 142.15 149.064 142.15 149.094V149.689C142.15 149.75 142.126 149.807 142.084 149.85C142.041 149.892 141.984 149.916 141.924 149.916H138.242C138.212 149.916 138.183 149.91 138.155 149.899C138.128 149.887 138.103 149.87 138.083 149.849C138.061 149.829 138.044 149.804 138.032 149.776C138.02 149.749 138.015 149.719 138.016 149.689V144.272C138.016 144.212 138.039 144.154 138.082 144.112C138.124 144.069 138.182 144.045 138.242 144.045H141.857C141.886 144.045 141.916 144.05 141.943 144.062C141.971 144.073 141.996 144.091 142.016 144.112C142.037 144.133 142.054 144.158 142.066 144.185C142.077 144.213 142.083 144.242 142.083 144.272V144.867C142.083 144.927 142.059 144.985 142.017 145.027C141.974 145.07 141.917 145.094 141.857 145.094H139.148V146.427H141.664C141.693 146.426 141.723 146.432 141.751 146.443C141.778 146.455 141.803 146.472 141.823 146.494C141.844 146.515 141.862 146.54 141.873 146.567C141.885 146.594 141.89 146.624 141.89 146.654V147.249C141.89 147.309 141.866 147.367 141.824 147.409C141.781 147.452 141.724 147.475 141.664 147.475H139.148V148.868H141.924Z" fill="var(--fill-0, #455A64)"/>
<path id="Vector_14" d="M145.58 144.045C146.153 144.005 146.721 144.178 147.174 144.532C147.36 144.701 147.506 144.911 147.6 145.145C147.695 145.378 147.735 145.63 147.719 145.882C147.727 146.249 147.628 146.61 147.434 146.922C147.231 147.222 146.937 147.449 146.595 147.568L147.752 149.639C147.76 149.669 147.76 149.701 147.752 149.731C147.752 149.755 147.746 149.779 147.736 149.8C147.726 149.822 147.711 149.841 147.694 149.857C147.679 149.876 147.66 149.892 147.638 149.902C147.616 149.912 147.592 149.917 147.568 149.916H146.855C146.809 149.921 146.763 149.916 146.72 149.901C146.677 149.887 146.637 149.863 146.603 149.832C146.559 149.792 146.522 149.743 146.494 149.689L145.396 147.735H144.28V149.689C144.28 149.75 144.256 149.807 144.214 149.85C144.171 149.892 144.114 149.916 144.054 149.916H143.375C143.345 149.916 143.315 149.91 143.288 149.899C143.261 149.887 143.236 149.87 143.215 149.849C143.193 149.829 143.176 149.804 143.164 149.776C143.153 149.749 143.147 149.719 143.148 149.689V144.272C143.148 144.212 143.172 144.154 143.214 144.112C143.257 144.069 143.314 144.045 143.375 144.045H145.58ZM144.322 146.687H145.538C145.803 146.698 146.066 146.64 146.301 146.519C146.401 146.448 146.48 146.351 146.53 146.239C146.58 146.127 146.599 146.004 146.587 145.882C146.602 145.761 146.584 145.638 146.534 145.527C146.483 145.416 146.403 145.321 146.301 145.253C146.065 145.135 145.802 145.081 145.538 145.094H144.322V146.687Z" fill="var(--fill-0, #455A64)"/>
</g>
</svg>
