<svg preserveAspectRatio="none" width="100%" height="100%" overflow="visible" style="display: block;" viewBox="0 0 119 76" fill="none" xmlns="http://www.w3.org/2000/svg">
<g id="freepik--spleen--inject-128">
<path id="Vector" d="M74.5638 44.8255H51.2243L51.1069 44.7249L1.43404 2.02951L1.97918 1.40053L51.5346 43.9868H74.5638V44.8255Z" fill="var(--fill-0, #455A64)"/>
<path id="Vector_2" d="M3.48875 1.74438C3.48875 2.08939 3.38644 2.42664 3.19476 2.7135C3.00309 3.00036 2.73066 3.22395 2.41191 3.35598C2.09317 3.48801 1.74245 3.52255 1.40407 3.45525C1.0657 3.38794 0.754871 3.2218 0.510915 2.97784C0.26696 2.73388 0.100829 2.42307 0.0335222 2.08469C-0.0337851 1.74632 0.000745369 1.39558 0.132773 1.07684C0.264801 0.758097 0.488382 0.485653 0.775244 0.293978C1.06211 0.102303 1.39938 0 1.74439 0C2.20703 0 2.6507 0.183786 2.97783 0.51092C3.30497 0.838055 3.48875 1.28174 3.48875 1.74438Z" fill="var(--fill-0, #455A64)"/>
<path id="Vector_3" d="M96.5782 66.1019C92.1744 66.1019 87.8695 64.796 84.2078 62.3494C80.5462 59.9028 77.6923 56.4253 76.0071 52.3567C74.3218 48.2881 73.8809 43.8112 74.74 39.492C75.5992 35.1728 77.7198 31.2054 80.8337 28.0915C83.9477 24.9775 87.9151 22.8569 92.2343 21.9977C96.5535 21.1386 101.03 21.5795 105.099 23.2648C109.168 24.9501 112.645 27.8039 115.092 31.4656C117.538 35.1272 118.844 39.4321 118.844 43.8359C118.84 49.7398 116.492 55.4007 112.318 59.5754C108.143 63.7501 102.482 66.0974 96.5782 66.1019ZM96.5782 22.0647C92.2656 22.0647 88.0499 23.3435 84.4641 25.7395C80.8783 28.1354 78.0836 31.5408 76.4332 35.5251C74.7829 39.5094 74.3511 43.8936 75.1924 48.1233C76.0337 52.353 78.1105 56.2383 81.1599 59.2877C84.2094 62.3372 88.0946 64.4138 92.3243 65.2552C96.554 66.0965 100.938 65.6647 104.922 64.0144C108.907 62.364 112.312 59.5693 114.708 55.9835C117.104 52.3977 118.383 48.182 118.383 43.8694C118.383 38.0865 116.086 32.5404 111.996 28.4512C107.907 24.362 102.361 22.0647 96.5782 22.0647Z" fill="var(--fill-0, #0061DF)"/>
<g id="freepik--spleen--inject-128_2">
<path id="Vector_4" d="M90.6574 29.1093C88.2421 31.1892 87.7892 34.8876 88.6865 37.9486C89.022 39.0724 89.5252 40.1459 89.9026 41.2445C91.2592 44.6923 91.5026 48.4782 90.5986 52.0714C90.2133 53.1702 89.8913 54.2902 89.6342 55.4259C88.6446 61.7996 97.3833 60.9107 100.78 58.6799C104.881 55.9794 107.489 51.0398 108.529 46.3183C108.719 45.4343 108.843 44.5372 108.898 43.6346C109.04 41.1563 108.65 38.6763 107.753 36.3616C106.856 34.047 105.474 31.9514 103.698 30.2163C100.444 27.1804 94.2216 26.065 90.6574 29.1093Z" fill="var(--fill-0, white)"/>
<path id="Vector_5" d="M101.124 54.5286C100.425 55.0797 99.6751 55.5627 98.8844 55.9711C97.5176 56.778 95.9397 57.1549 94.3558 57.0529C93.4138 56.9614 92.5388 56.5254 91.8985 55.8285C91.2925 55.1137 90.9027 54.241 90.7747 53.3126C90.7244 53.0023 90.6741 52.5662 90.5735 52.1636C90.1915 53.2386 89.8778 54.3366 89.6342 55.4511C88.6446 61.8248 97.3833 60.9358 100.78 58.705C104.881 56.0046 107.489 51.065 108.529 46.3434C109.459 42.0452 108.737 37.5544 106.508 33.7638C107.07 41.0013 107.237 49.6225 101.124 54.5286Z" fill="var(--fill-0, #0061DF)"/>
<path id="Vector_6" opacity="0.6" d="M101.124 54.5286C100.425 55.0797 99.6751 55.5627 98.8844 55.9711C97.5176 56.778 95.9397 57.1549 94.3558 57.0529C93.4138 56.9614 92.5388 56.5254 91.8985 55.8285C91.2925 55.1137 90.9027 54.241 90.7747 53.3126C90.7244 53.0023 90.6741 52.5662 90.5735 52.1636C90.1915 53.2386 89.8778 54.3366 89.6342 55.4511C88.6446 61.8248 97.3833 60.9358 100.78 58.705C104.881 56.0046 107.489 51.065 108.529 46.3434C109.459 42.0452 108.737 37.5544 106.508 33.7638C107.07 41.0013 107.237 49.6225 101.124 54.5286Z" fill="var(--fill-0, white)"/>
<path id="Vector_7" d="M94.8505 46.008C94.6576 46.4357 94.4647 46.8466 94.2802 47.2911C93.7402 48.3934 93.5277 49.6275 93.668 50.8469C93.6811 51.1031 93.7784 51.3478 93.9447 51.543C94.0073 50.5642 94.4006 49.6357 95.0601 48.9097C96.0162 47.7524 97.358 46.7711 97.9535 45.3538C98.1594 44.8484 98.2593 44.3061 98.247 43.7604C98.2033 42.618 97.8528 41.5085 97.2322 40.5484C96.4942 39.3156 95.295 38.5105 94.6156 37.1938C94.7736 37.9551 95.0272 38.6934 95.3704 39.3911C95.5452 39.9421 95.6908 40.502 95.8065 41.0684C95.9085 41.5847 95.9311 42.1135 95.8736 42.6366C95.7505 43.8153 95.4032 44.9596 94.8505 46.008Z" fill="var(--fill-0, #0061DF)"/>
<path id="Vector_8" opacity="0.6" d="M94.8505 46.008C94.6576 46.4357 94.4647 46.8466 94.2802 47.2911C93.7402 48.3934 93.5277 49.6275 93.668 50.8469C93.6811 51.1031 93.7784 51.3478 93.9447 51.543C94.0073 50.5642 94.4006 49.6357 95.0601 48.9097C96.0162 47.7524 97.358 46.7711 97.9535 45.3538C98.1594 44.8484 98.2593 44.3061 98.247 43.7604C98.2033 42.618 97.8528 41.5085 97.2322 40.5484C96.4942 39.3156 95.295 38.5105 94.6156 37.1938C94.7736 37.9551 95.0272 38.6934 95.3704 39.3911C95.5452 39.9421 95.6908 40.502 95.8065 41.0684C95.9085 41.5847 95.9311 42.1135 95.8736 42.6366C95.7505 43.8153 95.4032 44.9596 94.8505 46.008Z" fill="var(--fill-0, white)"/>
<path id="Vector_9" d="M94.6409 60.5752C93.3827 60.6251 92.1359 60.3199 91.0431 59.6946C89.6929 58.856 89.131 57.3548 89.4329 55.4259C89.5806 54.6515 89.7852 53.8891 90.0451 53.1448C90.1709 52.7674 90.2967 52.39 90.4057 52.0127C91.2899 48.4626 91.0466 44.7254 89.7096 41.32C89.5754 40.9342 89.4245 40.5568 89.2735 40.1794C88.9968 39.4749 88.7116 38.7453 88.4936 38.0073C87.6549 35.0972 87.9317 31.1808 90.5231 28.9583C94.1377 25.8554 100.537 26.9875 103.841 30.0654C105.637 31.8288 107.035 33.9552 107.943 36.3024C108.852 38.6496 109.249 41.1637 109.107 43.6765C109.05 44.5904 108.924 45.4987 108.73 46.3937C107.589 51.7275 104.663 56.3904 100.889 58.8728C98.9927 59.9812 96.8372 60.5686 94.6409 60.5752ZM90.7915 29.2687C88.3426 31.3736 88.0743 35.1392 88.8877 37.8899C89.0974 38.6111 89.3826 39.3324 89.6593 40.0284C89.8103 40.4142 89.9612 40.7916 90.0954 41.1774C91.4649 44.6659 91.7111 48.4949 90.7999 52.1301C90.6908 52.5158 90.565 52.8932 90.4392 53.2706C90.1821 53.9945 89.983 54.7376 89.8438 55.493C89.5671 57.2626 90.0451 58.5625 91.2611 59.3508C93.7771 60.9694 98.5154 59.9546 100.662 58.5121C104.344 56.0885 107.212 51.5179 108.328 46.2847C108.941 43.4425 108.826 40.4914 107.993 37.7057C107.16 34.9199 105.637 32.3898 103.564 30.3505C100.377 27.3901 94.2467 26.2915 90.7915 29.2519V29.2687Z" fill="var(--fill-0, #455A64)"/>
<path id="Vector_10" d="M98.1045 44.012C97.6142 43.8046 97.0852 43.7046 96.553 43.7185C95.9748 43.7055 95.3973 43.7647 94.8338 43.8946L94.6241 43.9533C94.7774 43.8604 94.9257 43.7597 95.0686 43.6514C95.3276 43.4665 95.5741 43.2648 95.8066 43.0476L96.0917 42.9385C96.297 42.8561 96.507 42.7861 96.7207 42.7289C96.9955 42.6389 97.2756 42.5661 97.5594 42.5108C97.7718 42.4887 97.9822 42.4495 98.1883 42.3934C98.2554 42.3934 98.1883 42.2509 98.1883 42.2341C97.9491 42.2007 97.7063 42.2007 97.4671 42.2341C97.1848 42.2551 96.9045 42.2971 96.6284 42.3599L96.4356 42.4102C96.6442 42.1474 96.8294 41.8668 96.9891 41.5716C97.1715 41.3027 97.3368 41.0226 97.4839 40.7329C97.4839 40.7329 97.4839 40.5904 97.4168 40.6407C97.2485 40.8325 97.0916 41.0341 96.9471 41.2445C96.7459 41.5129 96.511 41.7477 96.293 41.9993C95.9668 42.3772 95.6076 42.7252 95.2195 43.0392C94.3809 43.7017 93.4081 44.2217 92.561 44.8926C90.9508 46.1589 89.2065 47.5846 87.0344 47.6769C86.3803 47.6728 85.7273 47.6224 85.0803 47.5259L83.0928 47.3079C83.0517 47.2982 83.0091 47.2974 82.9678 47.3057C82.9265 47.3139 82.8874 47.3309 82.8532 47.3556C82.8191 47.3803 82.7906 47.4121 82.7698 47.4487C82.7491 47.4854 82.7364 47.5261 82.7328 47.5681C82.7291 47.6101 82.7346 47.6524 82.7487 47.6921C82.7629 47.7318 82.7854 47.7679 82.8148 47.7982C82.8441 47.8284 82.8797 47.8519 82.919 47.8671C82.9582 47.8824 83.0003 47.889 83.0424 47.8865C84.1997 48.0123 85.3739 48.2052 86.5396 48.2304C87.6495 48.234 88.7436 47.9663 89.7264 47.4504C90.6756 46.8536 91.6779 46.3454 92.7204 45.9325C93.3745 45.7396 94.3976 45.4209 94.9428 46.0751C95.1022 46.3253 95.1839 46.6171 95.1776 46.9137C95.1098 47.5496 95.1438 48.1922 95.2782 48.8174C95.2782 48.8678 95.3537 48.8678 95.3537 48.8174C95.3537 48.4736 95.3537 48.1298 95.4124 47.7943C95.4723 47.4285 95.4948 47.0576 95.4795 46.6873C95.4769 46.3786 95.3639 46.0811 95.1608 45.8486L95.0434 45.7564C95.2461 45.8122 95.4541 45.846 95.664 45.857C95.8775 45.9054 96.0855 45.9756 96.2846 46.0667C96.474 46.1585 96.6491 46.2771 96.8046 46.4189C96.922 46.5363 96.9975 46.7628 97.1652 46.8047C97.3329 46.4525 96.6368 45.9241 96.3936 45.7648C95.9415 45.4868 95.4299 45.3201 94.9008 45.2784C94.3019 45.2071 93.6967 45.2071 93.0978 45.2784L92.6868 45.3706L92.821 45.27C93.039 45.1442 93.2739 45.0268 93.5087 44.9177C93.9578 44.7043 94.427 44.5357 94.9092 44.4146C95.3987 44.2971 95.8989 44.2297 96.402 44.2133C96.6872 44.2133 96.9723 44.2133 97.2407 44.2133C97.5186 44.2542 97.7986 44.2793 98.0793 44.2888C98.2554 44.2636 98.1799 44.0623 98.1045 44.012Z" fill="var(--fill-0, #455A64)"/>
<path id="Vector_11" d="M96.7794 47.1234C96.7918 47.1317 96.8064 47.1361 96.8213 47.1361C96.8362 47.1361 96.8508 47.1317 96.8632 47.1234C96.88 47.1108 96.8935 47.0943 96.9022 47.0753C96.911 47.0562 96.9149 47.0353 96.9136 47.0143C96.8815 46.7827 96.8253 46.555 96.7458 46.335C96.6368 45.8402 96.6368 45.3287 96.4942 44.8339C96.4351 44.6689 96.3847 44.501 96.3433 44.3307C96.3311 44.2954 96.3311 44.257 96.3433 44.2217C96.4271 44.0875 97.8193 45.3287 97.9703 45.4712C98.1212 45.6138 98.0541 45.4125 98.029 45.3706C97.4404 44.6165 96.7287 43.9672 95.924 43.4501C95.5551 43.1888 95.1314 43.0152 94.6852 42.9425C94.239 42.8699 93.7821 42.9 93.3493 43.0308C93.1085 43.1063 92.8776 43.2105 92.6616 43.3411C92.5191 43.425 92.2591 43.5004 92.4184 43.2237C92.6238 42.9224 92.9165 42.6912 93.2571 42.5612C93.7664 42.286 94.3262 42.1166 94.9027 42.0633C95.4791 42.0099 96.0605 42.0738 96.6117 42.2509C97.133 42.5168 97.5819 42.9053 97.9199 43.383C97.9954 43.4669 98.0457 43.383 98.0122 43.274C97.7614 42.7977 97.4024 42.3869 96.9639 42.0747C96.8481 42.005 96.7276 41.9433 96.6033 41.8902C96.511 41.8902 96.3936 41.8902 96.5278 41.7561C96.6829 41.6933 96.8472 41.6565 97.0142 41.647L97.4419 41.5883C97.5845 41.5883 98.1799 41.4541 97.7522 41.3367C97.4408 41.2906 97.1243 41.2906 96.8129 41.3367H95.9156C95.3163 41.3374 94.7193 41.4106 94.1376 41.5548C93.9891 41.6019 93.8434 41.6579 93.7016 41.7225L93.8022 41.6135C94.2383 41.1606 94.6408 40.7245 95.1189 40.2717C95.5108 39.8907 95.7771 39.3991 95.882 38.8627C95.882 38.8627 95.8233 38.7118 95.7814 38.7789C95.1908 39.5862 94.513 40.3258 93.7603 40.9845C93.3158 41.4374 92.9216 41.9322 92.452 42.3766C91.9823 42.8211 91.5463 43.3579 91.1102 43.8694C90.8178 44.2316 90.4982 44.5708 90.1541 44.8842C89.1309 45.7228 87.764 45.7228 86.4892 45.8067C85.2814 45.8375 84.0731 45.7758 82.8747 45.6222V46.3686C83.9483 46.5027 85.03 46.5616 86.1118 46.5447C86.6477 46.5574 87.1836 46.5238 87.7136 46.4441C87.9413 46.4065 88.1709 46.3813 88.4013 46.3686C88.0116 46.5788 87.6048 46.7555 87.1853 46.8969C86.4782 47.1104 85.7498 47.2454 85.0132 47.2995C84.3087 47.3666 83.5791 47.3498 82.8747 47.4504V48.1801C83.0561 48.1948 83.2384 48.1948 83.4198 48.1801C83.7552 48.1801 84.1075 48.1801 84.4429 48.1801C85.1766 48.0937 85.9046 47.9649 86.6234 47.7943C86.9912 47.7289 87.353 47.6336 87.7053 47.5092C88.3818 47.2168 89.0119 46.8268 89.5754 46.3518C90.1541 45.9241 90.7495 45.5635 91.2947 45.1022C91.8683 44.5397 92.5175 44.0599 93.2235 43.6765C93.5898 43.4899 93.9949 43.3922 94.406 43.3914C94.7517 43.402 95.0856 43.5192 95.3621 43.7269C95.6587 43.9504 95.9021 44.2368 96.0749 44.5655C96.2072 44.8906 96.3083 45.2276 96.3768 45.5719C96.4439 45.8402 96.5026 46.1086 96.5697 46.3686C96.6013 46.6238 96.6633 46.8744 96.7542 47.115C96.7625 47.1182 96.7709 47.121 96.7794 47.1234Z" fill="var(--fill-0, #0061DF)"/>
<path id="Vector_12" d="M98.2554 42.3096C97.9073 41.1733 97.2819 40.1415 96.4356 39.3072C95.4879 38.2338 94.3557 37.0513 94.4983 35.4998C94.4983 35.4495 94.4228 35.3824 94.4061 35.4998C94.0538 38.2086 96.922 39.693 97.6852 42.0244C98.0258 43.121 97.9993 44.2988 97.6097 45.379C97.116 46.4519 96.3881 47.4005 95.4795 48.1549C94.9992 48.6164 94.5996 49.155 94.297 49.7483C93.9986 50.4046 93.8744 51.1267 93.9364 51.8449C93.9364 51.9204 94.0874 52.0462 94.1041 51.912C94.2905 50.5428 94.9455 49.2803 95.9576 48.3394C96.8253 47.5968 97.5304 46.6833 98.029 45.6558C98.4493 44.5907 98.5284 43.4215 98.2554 42.3096Z" fill="var(--fill-0, #455A64)"/>
</g>
<path id="Vector_13" d="M83.1599 69.8841C83.4959 69.8786 83.8304 69.9296 84.1495 70.0351C84.4058 70.1217 84.6465 70.2492 84.8623 70.4125C85.034 70.5498 85.179 70.7176 85.29 70.9073C85.381 71.0673 85.4381 71.2443 85.4577 71.4272C85.4604 71.4573 85.4557 71.4875 85.444 71.5153C85.4323 71.543 85.414 71.5675 85.3907 71.5866C85.3476 71.6277 85.2909 71.6516 85.2313 71.6537H84.6443C84.5669 71.6614 84.4893 71.6405 84.4262 71.595C84.376 71.5555 84.3334 71.5071 84.3004 71.4524C84.2021 71.3012 84.0701 71.1749 83.9146 71.0834C83.6806 70.968 83.4203 70.9159 83.1599 70.9324C83.0191 70.9331 82.8787 70.9471 82.7406 70.9744C82.62 71.0022 82.5042 71.0474 82.3967 71.1086C82.304 71.1609 82.2261 71.2359 82.1703 71.3266C82.1127 71.4103 82.0834 71.5102 82.0864 71.6117C82.0815 71.7203 82.1077 71.8279 82.1619 71.922C82.2287 72.0169 82.322 72.0899 82.4303 72.1317C82.5921 72.204 82.7606 72.2602 82.9334 72.2994L83.705 72.4755C83.9918 72.5328 84.2726 72.6171 84.5436 72.7272C84.7602 72.8109 84.9614 72.9299 85.1391 73.0794C85.287 73.2118 85.4044 73.375 85.4829 73.5574C85.5635 73.7513 85.6035 73.9596 85.6003 74.1696C85.6017 74.4118 85.5441 74.6507 85.4326 74.8657C85.3159 75.0831 85.1527 75.2721 84.9546 75.4192C84.7241 75.5865 84.4657 75.7115 84.1914 75.7882C83.8607 75.8784 83.5194 75.9235 83.1766 75.9224C82.8737 75.9227 82.572 75.8832 82.2793 75.805C82.0092 75.7371 81.7516 75.6267 81.5161 75.4779C81.3069 75.3453 81.1271 75.1712 80.9878 74.9663C80.8547 74.7665 80.7766 74.5351 80.7614 74.2954C80.7554 74.2648 80.7577 74.2331 80.768 74.2036C80.7783 74.1741 80.7963 74.1479 80.82 74.1277C80.8666 74.0877 80.9265 74.0667 80.9878 74.069H81.5748C81.6508 74.0648 81.7264 74.0822 81.7929 74.1193C81.8474 74.1576 81.8908 74.2097 81.9187 74.2703C81.9592 74.3473 82.0069 74.4203 82.0613 74.4883C82.1232 74.567 82.2002 74.6325 82.2877 74.6812C82.3985 74.7415 82.517 74.7866 82.6399 74.8154C82.8152 74.8599 82.9959 74.8797 83.1766 74.8741C83.3396 74.873 83.5023 74.8589 83.6631 74.8321C83.8054 74.8105 83.9439 74.7681 84.074 74.7063C84.1837 74.6551 84.2809 74.5807 84.3591 74.4883C84.431 74.3977 84.4695 74.2852 84.4682 74.1696C84.4701 74.1139 84.4606 74.0585 84.4405 74.0066C84.4203 73.9547 84.3898 73.9074 84.3508 73.8677C84.2492 73.7716 84.1252 73.7024 83.9901 73.6664C83.7984 73.5998 83.6022 73.5466 83.4031 73.5071L82.5644 73.3142C82.3114 73.2561 82.0644 73.1747 81.8264 73.071C81.6338 72.9924 81.4575 72.8786 81.3065 72.7355C81.1718 72.6004 81.0686 72.4372 81.0046 72.2575C80.9325 72.05 80.8984 71.8313 80.9039 71.6117C80.8986 71.3691 80.9564 71.1293 81.0717 70.9157C81.1799 70.6999 81.338 70.513 81.5329 70.3705C81.7433 70.2126 81.9786 70.0907 82.229 70.0099C82.5306 69.9184 82.8448 69.876 83.1599 69.8841Z" fill="var(--fill-0, #455A64)"/>
<path id="Vector_14" d="M89.0807 69.968C89.6465 69.934 90.2057 70.1036 90.6573 70.4461C90.8499 70.6226 91.0003 70.84 91.0976 71.0824C91.1948 71.3248 91.2364 71.586 91.2192 71.8466C91.2347 72.1083 91.1924 72.3702 91.0953 72.6136C90.9982 72.8571 90.8486 73.0763 90.6573 73.2555C90.2065 73.6003 89.6474 73.7728 89.0807 73.7419H87.7389V75.6121C87.7389 75.6721 87.715 75.7297 87.6725 75.7722C87.6301 75.8147 87.5725 75.8385 87.5124 75.8385H86.8331C86.8034 75.8388 86.7739 75.833 86.7465 75.8215C86.7191 75.8099 86.6944 75.7929 86.6738 75.7714C86.6519 75.7512 86.6346 75.7265 86.6231 75.699C86.6115 75.6715 86.6059 75.6419 86.6067 75.6121V70.1945C86.6067 70.1344 86.6306 70.0768 86.673 70.0343C86.7155 69.9919 86.7731 69.968 86.8331 69.968H89.0807ZM87.7389 72.6936H89.0304C89.2982 72.7056 89.5636 72.6385 89.7935 72.5007C89.8925 72.4247 89.9706 72.3248 90.0204 72.2104C90.0703 72.096 90.0903 71.9708 90.0787 71.8466C90.0911 71.7223 90.0715 71.5968 90.0215 71.4823C89.9716 71.3678 89.8931 71.2679 89.7935 71.1924C89.5601 71.0649 89.2961 71.004 89.0304 71.0163H87.7305L87.7389 72.6936Z" fill="var(--fill-0, #455A64)"/>
<path id="Vector_15" d="M96.033 74.7902C96.0628 74.7894 96.0925 74.795 96.1199 74.8066C96.1474 74.8181 96.1721 74.8354 96.1924 74.8573C96.2138 74.8779 96.2308 74.9026 96.2424 74.93C96.2539 74.9574 96.2597 74.9869 96.2595 75.0166V75.6121C96.2595 75.6721 96.2356 75.7297 96.1931 75.7722C96.1507 75.8147 96.0931 75.8385 96.033 75.8385H92.3849C92.3552 75.8388 92.3257 75.833 92.2983 75.8215C92.2709 75.8099 92.2462 75.7929 92.2256 75.7714C92.2037 75.7512 92.1864 75.7265 92.1749 75.699C92.1633 75.6715 92.1577 75.6419 92.1585 75.6121V70.1944C92.1585 70.1344 92.1823 70.0768 92.2248 70.0343C92.2673 69.9919 92.3249 69.968 92.3849 69.968H93.0642C93.094 69.9672 93.1237 69.9728 93.1511 69.9844C93.1786 69.9959 93.2033 70.0132 93.2236 70.0351C93.245 70.0557 93.262 70.0804 93.2736 70.1078C93.2851 70.1352 93.2909 70.1647 93.2906 70.1944V74.7902H96.033Z" fill="var(--fill-0, #455A64)"/>
<path id="Vector_16" d="M100.973 74.7902C101.002 74.7894 101.032 74.795 101.06 74.8066C101.087 74.8181 101.112 74.8354 101.132 74.8573C101.153 74.8779 101.17 74.9026 101.182 74.93C101.194 74.9574 101.199 74.9869 101.199 75.0166V75.6121C101.199 75.6721 101.175 75.7297 101.133 75.7722C101.09 75.8147 101.033 75.8385 100.973 75.8385H97.291C97.2613 75.8388 97.2318 75.833 97.2044 75.8215C97.177 75.8099 97.1522 75.7929 97.1316 75.7714C97.1098 75.7512 97.0925 75.7265 97.0809 75.699C97.0694 75.6715 97.0638 75.6419 97.0645 75.6121V70.1944C97.0645 70.1344 97.0884 70.0768 97.1309 70.0343C97.1733 69.9919 97.2309 69.968 97.291 69.968H100.906C100.935 69.9672 100.965 69.9728 100.992 69.9844C101.02 69.9959 101.045 70.0132 101.065 70.0351C101.086 70.0557 101.103 70.0804 101.115 70.1078C101.126 70.1352 101.132 70.1647 101.132 70.1944V70.7899C101.132 70.8499 101.108 70.9075 101.066 70.95C101.023 70.9925 100.966 71.0163 100.906 71.0163H98.1967V72.3498H100.713C100.742 72.349 100.772 72.3546 100.8 72.3661C100.827 72.3777 100.852 72.395 100.872 72.4168C100.893 72.4374 100.91 72.4622 100.922 72.4896C100.934 72.517 100.939 72.5465 100.939 72.5762V73.1716C100.939 73.2317 100.915 73.2893 100.873 73.3318C100.83 73.3742 100.773 73.3981 100.713 73.3981H98.1967V74.7902H100.973Z" fill="var(--fill-0, #455A64)"/>
<path id="Vector_17" d="M106.147 74.7902C106.177 74.7894 106.207 74.795 106.234 74.8066C106.261 74.8181 106.286 74.8354 106.306 74.8573C106.328 74.8779 106.345 74.9026 106.356 74.93C106.368 74.9574 106.374 74.9869 106.373 75.0166V75.6121C106.373 75.6721 106.35 75.7297 106.307 75.7722C106.265 75.8147 106.207 75.8385 106.147 75.8385H102.449C102.419 75.8388 102.389 75.833 102.362 75.8215C102.335 75.8099 102.31 75.7929 102.289 75.7714C102.267 75.7512 102.25 75.7265 102.239 75.699C102.227 75.6715 102.221 75.6419 102.222 75.6121V70.1944C102.222 70.1344 102.246 70.0768 102.289 70.0343C102.331 69.9919 102.389 69.968 102.449 69.968H106.063C106.093 69.9672 106.123 69.9728 106.15 69.9844C106.178 69.9959 106.202 70.0132 106.223 70.0351C106.244 70.0557 106.261 70.0804 106.273 70.1078C106.284 70.1352 106.29 70.1647 106.29 70.1944V70.7899C106.29 70.8499 106.266 70.9075 106.223 70.95C106.181 70.9925 106.123 71.0163 106.063 71.0163H103.371V72.3498H105.887C105.917 72.349 105.947 72.3546 105.974 72.3661C106.001 72.3777 106.026 72.395 106.046 72.4168C106.068 72.4374 106.085 72.4622 106.096 72.4896C106.108 72.517 106.114 72.5465 106.114 72.5762V73.1716C106.114 73.2317 106.09 73.2893 106.047 73.3318C106.005 73.3742 105.947 73.3981 105.887 73.3981H103.371V74.7902H106.147Z" fill="var(--fill-0, #455A64)"/>
<path id="Vector_18" d="M111.221 75.8385C111.181 75.8418 111.141 75.8368 111.104 75.8239C111.066 75.8109 111.032 75.7901 111.003 75.7631L110.894 75.6456L108.546 72.1569V75.6121C108.546 75.6721 108.522 75.7297 108.479 75.7722C108.437 75.8147 108.379 75.8385 108.319 75.8385H107.64C107.61 75.8388 107.581 75.833 107.553 75.8215C107.526 75.8099 107.501 75.7929 107.481 75.7714C107.459 75.7512 107.441 75.7265 107.43 75.699C107.418 75.6715 107.413 75.6419 107.413 75.6121V70.1945C107.413 70.1344 107.437 70.0768 107.48 70.0343C107.522 69.9919 107.58 69.968 107.64 69.968H108.227C108.307 69.9633 108.385 69.9905 108.445 70.0435L108.554 70.1609L110.902 73.6497V70.1945C110.902 70.1344 110.926 70.0768 110.969 70.0343C111.011 69.9919 111.069 69.968 111.129 69.968H111.808C111.838 69.9672 111.867 69.9728 111.895 69.9844C111.922 69.996 111.947 70.0132 111.967 70.0351C111.989 70.0557 112.006 70.0805 112.017 70.1079C112.029 70.1353 112.035 70.1647 112.034 70.1945V75.6121C112.034 75.6721 112.011 75.7297 111.968 75.7722C111.926 75.8147 111.868 75.8385 111.808 75.8385H111.221Z" fill="var(--fill-0, #455A64)"/>
</g>
</svg>
