<svg width="17" height="22" viewBox="0 0 17 22" fill="none" xmlns="http://www.w3.org/2000/svg">
<path fill-rule="evenodd" clip-rule="evenodd" d="M8.36093 10.237C10.7837 10.237 12.7473 8.27338 12.7473 5.85065C12.7473 3.42792 10.7837 1.46338 8.36093 1.46338C5.9382 1.46338 3.97366 3.42792 3.97366 5.85065C3.96548 8.2652 5.91548 10.2288 8.33002 10.237C8.34093 10.237 8.35093 10.237 8.36093 10.237Z" stroke="#AAAAAA" stroke-width="2" stroke-linecap="round" stroke-linejoin="round"/>
<path fill-rule="evenodd" clip-rule="evenodd" d="M8.36048 20.5368C4.66866 20.5368 1.51593 19.9623 1.51593 17.6615C1.51593 15.3608 4.64866 13.2368 8.36048 13.2368C12.0523 13.2368 15.205 15.3402 15.205 17.641C15.205 19.9408 12.0723 20.5368 8.36048 20.5368Z" stroke="#AAAAAA" stroke-width="2" stroke-linecap="round" stroke-linejoin="round"/>
</svg>
