<svg width="17" height="18" viewBox="0 0 17 18" fill="none" xmlns="http://www.w3.org/2000/svg">
<path d="M2.26592 1.49999C1.57557 1.49999 1.01593 2.05963 1.01593 2.74998V7.75C1.01593 9.82105 2.69485 11.5 4.76593 11.5C6.83698 11.5 8.51593 9.82105 8.51593 7.75V2.74998C8.51593 2.05963 7.95626 1.49999 7.26591 1.49999" stroke="white" stroke-width="1.5" stroke-miterlimit="10" stroke-linecap="round" stroke-linejoin="round"/>
<path d="M16.0159 6.49999C16.0159 7.88069 14.8966 9 13.5159 9C12.1352 9 11.0159 7.88069 11.0159 6.49999C11.0159 5.11929 12.1352 4.00001 13.5159 4.00001C14.8966 4.00001 16.0159 5.11929 16.0159 6.49999Z" stroke="white" stroke-width="1.5" stroke-miterlimit="10" stroke-linecap="round" stroke-linejoin="round"/>
<path d="M4.76587 11.5V12.125C4.76587 14.5412 6.72461 16.5 9.14088 16.5C11.5571 16.5 13.5159 14.5412 13.5159 12.125V9" stroke="white" stroke-width="1.5" stroke-miterlimit="10" stroke-linecap="round" stroke-linejoin="round"/>
</svg>
