<svg preserveAspectRatio="none" width="100%" height="100%" overflow="visible" style="display: block;" viewBox="0 0 29 32" fill="none" xmlns="http://www.w3.org/2000/svg">
<g id="Group">
<path id="Vector" d="M11.5469 5.66309C11.9808 5.66309 12.333 6.01532 12.333 6.44922C12.333 6.88311 11.9808 7.23535 11.5469 7.23535C11.113 7.23535 10.7607 6.88311 10.7607 6.44922C10.7607 6.01532 11.113 5.66309 11.5469 5.66309ZM17.4062 5.66309C17.8401 5.66309 18.1924 6.01532 18.1924 6.44922C18.1924 6.88311 17.8401 7.23535 17.4062 7.23535C16.9724 7.23535 16.6201 6.88311 16.6201 6.44922C16.6201 6.01532 16.9724 5.66309 17.4062 5.66309Z" fill="var(--fill-0, #AAAAAA)" stroke="var(--stroke-0, #AAAAAA)" stroke-width="0.4"/>
<g id="Vector_2">
<mask id="path-2-outside-1_465_8047" maskUnits="userSpaceOnUse" x="0" y="0" width="29" height="32" fill="black">
<rect fill="white" width="29" height="32"/>
<path d="M27.1986 18.5126C27.7015 17.7578 27.9531 16.816 27.9531 16C27.9531 14.7698 27.4066 13.6268 26.4688 12.8517C26.6764 12.3558 26.7812 11.84 26.7812 11.3125C26.7812 9.68037 25.8288 8.15998 24.4126 7.45C24.6275 5.66793 23.4662 4.03445 21.7454 3.61779C21.0719 2.06078 19.5728 1 17.9922 1C16.5209 1 15.2013 1.85816 14.4766 3.11031C13.7518 1.85816 12.4322 1 10.9609 1C9.38025 1 7.88113 2.06078 7.20772 3.61785C5.47656 4.03715 4.32625 5.67877 4.54053 7.45C3.12443 8.15992 2.17188 9.68037 2.17188 11.3125C2.17188 11.84 2.27676 12.3558 2.4843 12.8517C1.5465 13.6268 1 14.7698 1 16C1 16.8203 1.25371 17.7609 1.75451 18.5126C1.26514 19.2034 1 20.0221 1 20.8633C1 21.9541 1.44227 22.9932 2.22455 23.7647C1.82236 26.1959 3.76123 28.6562 6.27344 28.6562C6.2916 28.6562 6.30947 28.656 6.32699 28.6554C7.1599 30.0923 8.70596 31 10.375 31C12.1145 31 13.6689 29.9559 14.4766 28.4515C15.2842 29.9559 16.8386 31 18.5781 31C20.2472 31 21.7932 30.0923 22.6261 28.6554C22.6437 28.656 22.6615 28.6562 22.6797 28.6562C24.903 28.6562 26.7812 26.6975 26.7812 24.3789C26.7812 24.1815 26.7639 23.9785 26.7286 23.7647C27.5109 22.9932 27.9531 21.9541 27.9531 20.8633C27.9531 20.0221 27.688 19.2034 27.1986 18.5126ZM13.8906 9.86998C13.5347 9.66315 13.1304 9.55436 12.7188 9.55469C12.3951 9.55469 12.1328 9.81701 12.1328 10.1406C12.1328 10.4642 12.3951 10.7266 12.7188 10.7266C13.3649 10.7266 13.8906 11.2523 13.8906 11.8984V23.0412C13.031 22.0661 11.774 21.4492 10.375 21.4492C10.0514 21.4492 9.78906 21.7115 9.78906 22.0352C9.78906 22.3588 10.0514 22.6211 10.375 22.6211C12.3135 22.6211 13.8906 24.1982 13.8906 26.1367C13.8906 28.1376 12.2806 29.8281 10.375 29.8281C9.01844 29.8281 7.76963 29.0259 7.19342 27.7844C7.14159 27.6728 7.05599 27.5804 6.94873 27.5202C6.84147 27.46 6.71799 27.435 6.59576 27.4489C6.55434 27.4536 6.51314 27.4591 6.47195 27.4647C4.80438 27.6928 2.92645 25.8045 3.4348 23.6921C3.46039 23.5857 3.45569 23.4743 3.42125 23.3705C3.38681 23.2667 3.324 23.1746 3.23992 23.1047C2.56117 22.5399 2.17188 21.7229 2.17188 20.8633C2.17188 20.3318 2.32217 19.8116 2.60184 19.3555C3.30461 19.9315 4.17877 20.2773 5.10156 20.2773C5.42518 20.2773 5.6875 20.015 5.6875 19.6914C5.6875 19.3678 5.42518 19.1055 5.10156 19.1055C3.51139 19.1055 2.17188 17.6541 2.17188 16C2.17188 14.9966 2.68334 14.0735 3.54016 13.5307C3.66724 13.4502 3.75849 13.3239 3.795 13.178C3.83151 13.032 3.81048 12.8776 3.73627 12.7468C3.47582 12.2874 3.34375 11.8049 3.34375 11.3125C3.34375 9.73105 4.63293 8.20703 6.27344 8.20703C7.83414 8.20703 9.20312 9.65822 9.20312 11.3125C9.20312 11.6361 9.46545 11.8984 9.78906 11.8984C10.1127 11.8984 10.375 11.6361 10.375 11.3125C10.375 8.99395 8.49672 7.03516 6.27344 7.03516C6.07727 7.03516 5.88215 7.05103 5.68896 7.08109C5.68867 7.06568 5.6875 7.05068 5.6875 7.03516C5.6875 5.72752 6.74904 4.69141 8.03125 4.69141C8.65715 4.69141 9.2459 4.93521 9.68898 5.37783C9.91791 5.60652 10.2889 5.60629 10.5176 5.37742C10.7463 5.14844 10.7461 4.77748 10.5172 4.54879C9.98266 4.01482 9.30654 3.67428 8.57383 3.56143C9.09057 2.79438 9.94984 2.17188 10.9609 2.17188C12.5216 2.17188 13.8906 3.62301 13.8906 5.27734V9.86998ZM23.8516 20.2773C24.7744 20.2773 25.6486 19.9315 26.3513 19.3557C26.631 19.8118 26.7812 20.3318 26.7812 20.8633C26.7812 21.7229 26.392 22.5399 25.7133 23.1047C25.6292 23.1746 25.5664 23.2667 25.5319 23.3705C25.4975 23.4743 25.4928 23.5857 25.5184 23.6921C25.5805 23.9501 25.6094 24.1683 25.6094 24.3788C25.6094 26.1976 23.9644 27.6675 22.4812 27.4647C22.44 27.459 22.3987 27.4537 22.3574 27.4489C22.2351 27.4349 22.1116 27.4598 22.0044 27.5201C21.8971 27.5803 21.8115 27.6728 21.7598 27.7844C21.1836 29.0259 19.9346 29.8281 18.5781 29.8281C16.6725 29.8281 15.0625 28.1376 15.0625 26.1367C15.0625 24.1982 16.6396 22.6211 18.5781 22.6211C18.9017 22.6211 19.1641 22.3588 19.1641 22.0352C19.1641 21.7115 18.9017 21.4492 18.5781 21.4492C17.1791 21.4492 15.9221 22.0661 15.0625 23.0412V11.8984C15.0625 11.2523 15.5882 10.7266 16.2344 10.7266C16.5579 10.7266 16.8203 10.4642 16.8203 10.1406C16.8203 9.81701 16.5579 9.55469 16.2344 9.55469C15.8227 9.55436 15.4184 9.66315 15.0625 9.86998V5.27734C15.0625 3.62301 16.4315 2.17188 17.9922 2.17188C19.0033 2.17188 19.8625 2.79438 20.3792 3.56137C19.6466 3.67422 18.9705 4.01477 18.4359 4.54873C18.2069 4.77742 18.2067 5.14838 18.4354 5.37736C18.6641 5.60635 19.0352 5.60652 19.264 5.37783C19.7073 4.93521 20.296 4.69141 20.9219 4.69141C22.2105 4.69141 23.2656 5.73361 23.2656 7.03516C23.2656 7.05062 23.2645 7.06568 23.2642 7.08109C23.0708 7.05075 22.8754 7.03539 22.6797 7.03516C20.4564 7.03516 18.5781 8.99395 18.5781 11.3125C18.5781 11.6361 18.8405 11.8984 19.1641 11.8984C19.4876 11.8984 19.75 11.6361 19.75 11.3125C19.75 9.65822 21.119 8.20703 22.6797 8.20703C24.3193 8.20703 25.6094 9.73029 25.6094 11.3125C25.6094 11.8049 25.4773 12.2874 25.2169 12.7468C25.1427 12.8776 25.1216 13.032 25.1582 13.178C25.1947 13.3239 25.2859 13.4502 25.413 13.5307C26.2698 14.0735 26.7812 14.9966 26.7812 16C26.7812 17.66 25.4371 19.1055 23.8516 19.1055C23.528 19.1055 23.2656 19.3678 23.2656 19.6914C23.2656 20.015 23.528 20.2773 23.8516 20.2773Z"/>
</mask>
<path d="M27.1986 18.5126C27.7015 17.7578 27.9531 16.816 27.9531 16C27.9531 14.7698 27.4066 13.6268 26.4688 12.8517C26.6764 12.3558 26.7812 11.84 26.7812 11.3125C26.7812 9.68037 25.8288 8.15998 24.4126 7.45C24.6275 5.66793 23.4662 4.03445 21.7454 3.61779C21.0719 2.06078 19.5728 1 17.9922 1C16.5209 1 15.2013 1.85816 14.4766 3.11031C13.7518 1.85816 12.4322 1 10.9609 1C9.38025 1 7.88113 2.06078 7.20772 3.61785C5.47656 4.03715 4.32625 5.67877 4.54053 7.45C3.12443 8.15992 2.17188 9.68037 2.17188 11.3125C2.17188 11.84 2.27676 12.3558 2.4843 12.8517C1.5465 13.6268 1 14.7698 1 16C1 16.8203 1.25371 17.7609 1.75451 18.5126C1.26514 19.2034 1 20.0221 1 20.8633C1 21.9541 1.44227 22.9932 2.22455 23.7647C1.82236 26.1959 3.76123 28.6562 6.27344 28.6562C6.2916 28.6562 6.30947 28.656 6.32699 28.6554C7.1599 30.0923 8.70596 31 10.375 31C12.1145 31 13.6689 29.9559 14.4766 28.4515C15.2842 29.9559 16.8386 31 18.5781 31C20.2472 31 21.7932 30.0923 22.6261 28.6554C22.6437 28.656 22.6615 28.6562 22.6797 28.6562C24.903 28.6562 26.7812 26.6975 26.7812 24.3789C26.7812 24.1815 26.7639 23.9785 26.7286 23.7647C27.5109 22.9932 27.9531 21.9541 27.9531 20.8633C27.9531 20.0221 27.688 19.2034 27.1986 18.5126ZM13.8906 9.86998C13.5347 9.66315 13.1304 9.55436 12.7188 9.55469C12.3951 9.55469 12.1328 9.81701 12.1328 10.1406C12.1328 10.4642 12.3951 10.7266 12.7188 10.7266C13.3649 10.7266 13.8906 11.2523 13.8906 11.8984V23.0412C13.031 22.0661 11.774 21.4492 10.375 21.4492C10.0514 21.4492 9.78906 21.7115 9.78906 22.0352C9.78906 22.3588 10.0514 22.6211 10.375 22.6211C12.3135 22.6211 13.8906 24.1982 13.8906 26.1367C13.8906 28.1376 12.2806 29.8281 10.375 29.8281C9.01844 29.8281 7.76963 29.0259 7.19342 27.7844C7.14159 27.6728 7.05599 27.5804 6.94873 27.5202C6.84147 27.46 6.71799 27.435 6.59576 27.4489C6.55434 27.4536 6.51314 27.4591 6.47195 27.4647C4.80438 27.6928 2.92645 25.8045 3.4348 23.6921C3.46039 23.5857 3.45569 23.4743 3.42125 23.3705C3.38681 23.2667 3.324 23.1746 3.23992 23.1047C2.56117 22.5399 2.17188 21.7229 2.17188 20.8633C2.17188 20.3318 2.32217 19.8116 2.60184 19.3555C3.30461 19.9315 4.17877 20.2773 5.10156 20.2773C5.42518 20.2773 5.6875 20.015 5.6875 19.6914C5.6875 19.3678 5.42518 19.1055 5.10156 19.1055C3.51139 19.1055 2.17188 17.6541 2.17188 16C2.17188 14.9966 2.68334 14.0735 3.54016 13.5307C3.66724 13.4502 3.75849 13.3239 3.795 13.178C3.83151 13.032 3.81048 12.8776 3.73627 12.7468C3.47582 12.2874 3.34375 11.8049 3.34375 11.3125C3.34375 9.73105 4.63293 8.20703 6.27344 8.20703C7.83414 8.20703 9.20312 9.65822 9.20312 11.3125C9.20312 11.6361 9.46545 11.8984 9.78906 11.8984C10.1127 11.8984 10.375 11.6361 10.375 11.3125C10.375 8.99395 8.49672 7.03516 6.27344 7.03516C6.07727 7.03516 5.88215 7.05103 5.68896 7.08109C5.68867 7.06568 5.6875 7.05068 5.6875 7.03516C5.6875 5.72752 6.74904 4.69141 8.03125 4.69141C8.65715 4.69141 9.2459 4.93521 9.68898 5.37783C9.91791 5.60652 10.2889 5.60629 10.5176 5.37742C10.7463 5.14844 10.7461 4.77748 10.5172 4.54879C9.98266 4.01482 9.30654 3.67428 8.57383 3.56143C9.09057 2.79438 9.94984 2.17188 10.9609 2.17188C12.5216 2.17188 13.8906 3.62301 13.8906 5.27734V9.86998ZM23.8516 20.2773C24.7744 20.2773 25.6486 19.9315 26.3513 19.3557C26.631 19.8118 26.7812 20.3318 26.7812 20.8633C26.7812 21.7229 26.392 22.5399 25.7133 23.1047C25.6292 23.1746 25.5664 23.2667 25.5319 23.3705C25.4975 23.4743 25.4928 23.5857 25.5184 23.6921C25.5805 23.9501 25.6094 24.1683 25.6094 24.3788C25.6094 26.1976 23.9644 27.6675 22.4812 27.4647C22.44 27.459 22.3987 27.4537 22.3574 27.4489C22.2351 27.4349 22.1116 27.4598 22.0044 27.5201C21.8971 27.5803 21.8115 27.6728 21.7598 27.7844C21.1836 29.0259 19.9346 29.8281 18.5781 29.8281C16.6725 29.8281 15.0625 28.1376 15.0625 26.1367C15.0625 24.1982 16.6396 22.6211 18.5781 22.6211C18.9017 22.6211 19.1641 22.3588 19.1641 22.0352C19.1641 21.7115 18.9017 21.4492 18.5781 21.4492C17.1791 21.4492 15.9221 22.0661 15.0625 23.0412V11.8984C15.0625 11.2523 15.5882 10.7266 16.2344 10.7266C16.5579 10.7266 16.8203 10.4642 16.8203 10.1406C16.8203 9.81701 16.5579 9.55469 16.2344 9.55469C15.8227 9.55436 15.4184 9.66315 15.0625 9.86998V5.27734C15.0625 3.62301 16.4315 2.17188 17.9922 2.17188C19.0033 2.17188 19.8625 2.79438 20.3792 3.56137C19.6466 3.67422 18.9705 4.01477 18.4359 4.54873C18.2069 4.77742 18.2067 5.14838 18.4354 5.37736C18.6641 5.60635 19.0352 5.60652 19.264 5.37783C19.7073 4.93521 20.296 4.69141 20.9219 4.69141C22.2105 4.69141 23.2656 5.73361 23.2656 7.03516C23.2656 7.05062 23.2645 7.06568 23.2642 7.08109C23.0708 7.05075 22.8754 7.03539 22.6797 7.03516C20.4564 7.03516 18.5781 8.99395 18.5781 11.3125C18.5781 11.6361 18.8405 11.8984 19.1641 11.8984C19.4876 11.8984 19.75 11.6361 19.75 11.3125C19.75 9.65822 21.119 8.20703 22.6797 8.20703C24.3193 8.20703 25.6094 9.73029 25.6094 11.3125C25.6094 11.8049 25.4773 12.2874 25.2169 12.7468C25.1427 12.8776 25.1216 13.032 25.1582 13.178C25.1947 13.3239 25.2859 13.4502 25.413 13.5307C26.2698 14.0735 26.7812 14.9966 26.7812 16C26.7812 17.66 25.4371 19.1055 23.8516 19.1055C23.528 19.1055 23.2656 19.3678 23.2656 19.6914C23.2656 20.015 23.528 20.2773 23.8516 20.2773Z" fill="#AAAAAA"/>
<path d="M27.1986 18.5126C27.7015 17.7578 27.9531 16.816 27.9531 16C27.9531 14.7698 27.4066 13.6268 26.4688 12.8517C26.6764 12.3558 26.7812 11.84 26.7812 11.3125C26.7812 9.68037 25.8288 8.15998 24.4126 7.45C24.6275 5.66793 23.4662 4.03445 21.7454 3.61779C21.0719 2.06078 19.5728 1 17.9922 1C16.5209 1 15.2013 1.85816 14.4766 3.11031C13.7518 1.85816 12.4322 1 10.9609 1C9.38025 1 7.88113 2.06078 7.20772 3.61785C5.47656 4.03715 4.32625 5.67877 4.54053 7.45C3.12443 8.15992 2.17188 9.68037 2.17188 11.3125C2.17188 11.84 2.27676 12.3558 2.4843 12.8517C1.5465 13.6268 1 14.7698 1 16C1 16.8203 1.25371 17.7609 1.75451 18.5126C1.26514 19.2034 1 20.0221 1 20.8633C1 21.9541 1.44227 22.9932 2.22455 23.7647C1.82236 26.1959 3.76123 28.6562 6.27344 28.6562C6.2916 28.6562 6.30947 28.656 6.32699 28.6554C7.1599 30.0923 8.70596 31 10.375 31C12.1145 31 13.6689 29.9559 14.4766 28.4515C15.2842 29.9559 16.8386 31 18.5781 31C20.2472 31 21.7932 30.0923 22.6261 28.6554C22.6437 28.656 22.6615 28.6562 22.6797 28.6562C24.903 28.6562 26.7812 26.6975 26.7812 24.3789C26.7812 24.1815 26.7639 23.9785 26.7286 23.7647C27.5109 22.9932 27.9531 21.9541 27.9531 20.8633C27.9531 20.0221 27.688 19.2034 27.1986 18.5126ZM13.8906 9.86998C13.5347 9.66315 13.1304 9.55436 12.7188 9.55469C12.3951 9.55469 12.1328 9.81701 12.1328 10.1406C12.1328 10.4642 12.3951 10.7266 12.7188 10.7266C13.3649 10.7266 13.8906 11.2523 13.8906 11.8984V23.0412C13.031 22.0661 11.774 21.4492 10.375 21.4492C10.0514 21.4492 9.78906 21.7115 9.78906 22.0352C9.78906 22.3588 10.0514 22.6211 10.375 22.6211C12.3135 22.6211 13.8906 24.1982 13.8906 26.1367C13.8906 28.1376 12.2806 29.8281 10.375 29.8281C9.01844 29.8281 7.76963 29.0259 7.19342 27.7844C7.14159 27.6728 7.05599 27.5804 6.94873 27.5202C6.84147 27.46 6.71799 27.435 6.59576 27.4489C6.55434 27.4536 6.51314 27.4591 6.47195 27.4647C4.80438 27.6928 2.92645 25.8045 3.4348 23.6921C3.46039 23.5857 3.45569 23.4743 3.42125 23.3705C3.38681 23.2667 3.324 23.1746 3.23992 23.1047C2.56117 22.5399 2.17188 21.7229 2.17188 20.8633C2.17188 20.3318 2.32217 19.8116 2.60184 19.3555C3.30461 19.9315 4.17877 20.2773 5.10156 20.2773C5.42518 20.2773 5.6875 20.015 5.6875 19.6914C5.6875 19.3678 5.42518 19.1055 5.10156 19.1055C3.51139 19.1055 2.17188 17.6541 2.17188 16C2.17188 14.9966 2.68334 14.0735 3.54016 13.5307C3.66724 13.4502 3.75849 13.3239 3.795 13.178C3.83151 13.032 3.81048 12.8776 3.73627 12.7468C3.47582 12.2874 3.34375 11.8049 3.34375 11.3125C3.34375 9.73105 4.63293 8.20703 6.27344 8.20703C7.83414 8.20703 9.20312 9.65822 9.20312 11.3125C9.20312 11.6361 9.46545 11.8984 9.78906 11.8984C10.1127 11.8984 10.375 11.6361 10.375 11.3125C10.375 8.99395 8.49672 7.03516 6.27344 7.03516C6.07727 7.03516 5.88215 7.05103 5.68896 7.08109C5.68867 7.06568 5.6875 7.05068 5.6875 7.03516C5.6875 5.72752 6.74904 4.69141 8.03125 4.69141C8.65715 4.69141 9.2459 4.93521 9.68898 5.37783C9.91791 5.60652 10.2889 5.60629 10.5176 5.37742C10.7463 5.14844 10.7461 4.77748 10.5172 4.54879C9.98266 4.01482 9.30654 3.67428 8.57383 3.56143C9.09057 2.79438 9.94984 2.17188 10.9609 2.17188C12.5216 2.17188 13.8906 3.62301 13.8906 5.27734V9.86998ZM23.8516 20.2773C24.7744 20.2773 25.6486 19.9315 26.3513 19.3557C26.631 19.8118 26.7812 20.3318 26.7812 20.8633C26.7812 21.7229 26.392 22.5399 25.7133 23.1047C25.6292 23.1746 25.5664 23.2667 25.5319 23.3705C25.4975 23.4743 25.4928 23.5857 25.5184 23.6921C25.5805 23.9501 25.6094 24.1683 25.6094 24.3788C25.6094 26.1976 23.9644 27.6675 22.4812 27.4647C22.44 27.459 22.3987 27.4537 22.3574 27.4489C22.2351 27.4349 22.1116 27.4598 22.0044 27.5201C21.8971 27.5803 21.8115 27.6728 21.7598 27.7844C21.1836 29.0259 19.9346 29.8281 18.5781 29.8281C16.6725 29.8281 15.0625 28.1376 15.0625 26.1367C15.0625 24.1982 16.6396 22.6211 18.5781 22.6211C18.9017 22.6211 19.1641 22.3588 19.1641 22.0352C19.1641 21.7115 18.9017 21.4492 18.5781 21.4492C17.1791 21.4492 15.9221 22.0661 15.0625 23.0412V11.8984C15.0625 11.2523 15.5882 10.7266 16.2344 10.7266C16.5579 10.7266 16.8203 10.4642 16.8203 10.1406C16.8203 9.81701 16.5579 9.55469 16.2344 9.55469C15.8227 9.55436 15.4184 9.66315 15.0625 9.86998V5.27734C15.0625 3.62301 16.4315 2.17188 17.9922 2.17188C19.0033 2.17188 19.8625 2.79438 20.3792 3.56137C19.6466 3.67422 18.9705 4.01477 18.4359 4.54873C18.2069 4.77742 18.2067 5.14838 18.4354 5.37736C18.6641 5.60635 19.0352 5.60652 19.264 5.37783C19.7073 4.93521 20.296 4.69141 20.9219 4.69141C22.2105 4.69141 23.2656 5.73361 23.2656 7.03516C23.2656 7.05062 23.2645 7.06568 23.2642 7.08109C23.0708 7.05075 22.8754 7.03539 22.6797 7.03516C20.4564 7.03516 18.5781 8.99395 18.5781 11.3125C18.5781 11.6361 18.8405 11.8984 19.1641 11.8984C19.4876 11.8984 19.75 11.6361 19.75 11.3125C19.75 9.65822 21.119 8.20703 22.6797 8.20703C24.3193 8.20703 25.6094 9.73029 25.6094 11.3125C25.6094 11.8049 25.4773 12.2874 25.2169 12.7468C25.1427 12.8776 25.1216 13.032 25.1582 13.178C25.1947 13.3239 25.2859 13.4502 25.413 13.5307C26.2698 14.0735 26.7812 14.9966 26.7812 16C26.7812 17.66 25.4371 19.1055 23.8516 19.1055C23.528 19.1055 23.2656 19.3678 23.2656 19.6914C23.2656 20.015 23.528 20.2773 23.8516 20.2773Z" stroke="var(--stroke-0, #AAAAAA)" stroke-width="0.8" mask="url(#path-2-outside-1_465_8047)"/>
</g>
<path id="Vector_3" d="M6.27344 23.5928C8.615 23.5928 10.5752 25.6493 10.5752 28.0703C10.5752 28.5044 10.2231 28.8564 9.78906 28.8564C9.35499 28.8564 9.00293 28.5044 9.00293 28.0703C9.00293 26.5153 7.71286 25.165 6.27344 25.165C5.83937 25.165 5.4873 24.813 5.4873 24.3789C5.4873 23.9448 5.83937 23.5928 6.27344 23.5928ZM22.6797 23.5928C23.1137 23.5928 23.4658 23.9448 23.4658 24.3789C23.4658 24.813 23.1137 25.165 22.6797 25.165C21.2403 25.165 19.9502 26.5153 19.9502 28.0703C19.9502 28.5044 19.5981 28.8564 19.1641 28.8564C18.7301 28.8564 18.3779 28.5044 18.3779 28.0703C18.3779 25.6493 20.3381 23.5928 22.6797 23.5928ZM10.9609 18.9053C11.395 18.9053 11.7471 19.2573 11.7471 19.6914C11.7471 20.1255 11.395 20.4775 10.9609 20.4775C9.49411 20.4775 8.23188 21.2802 7.56641 22.4541C7.35234 22.8317 6.8727 22.9649 6.49512 22.751C6.11761 22.537 5.98546 22.0573 6.19922 21.6797V21.6787C7.13073 20.036 8.90016 18.9053 10.9609 18.9053ZM17.9922 18.9053C19.9288 18.9053 21.603 19.9027 22.5703 21.3779L22.7539 21.6797L22.79 21.751C22.9505 22.1156 22.8121 22.5503 22.458 22.751C22.081 22.9647 21.601 22.8322 21.3867 22.4541C20.7213 21.28 19.458 20.4775 17.9922 20.4775C17.5582 20.4775 17.2061 20.1255 17.2061 19.6914C17.2061 19.2573 17.5582 18.9053 17.9922 18.9053ZM6.27344 10.5264C6.70751 10.5264 7.05957 10.8784 7.05957 11.3125C7.05957 13.6607 9.85826 14.9121 11.6084 13.3467C11.9319 13.0573 12.4294 13.0857 12.7188 13.4092C12.9898 13.7125 12.9823 14.1678 12.7139 14.4619L12.6572 14.5186C12.0466 15.0651 11.2922 15.4217 10.4854 15.5537C10.1568 16.9301 8.92145 17.958 7.44531 17.958C7.01124 17.958 6.65918 17.6059 6.65918 17.1719C6.65918 16.7378 7.01124 16.3857 7.44531 16.3857C8.05999 16.3857 8.59255 16.0272 8.8457 15.5078C6.92632 15.0765 5.4873 13.3607 5.4873 11.3125C5.4873 10.8784 5.83937 10.5264 6.27344 10.5264ZM22.6797 10.5264C23.1137 10.5264 23.4658 10.8784 23.4658 11.3125C23.4658 13.361 22.0263 15.0768 20.1064 15.5078C20.3595 16.0274 20.893 16.3857 21.5078 16.3857C21.9418 16.3857 22.2939 16.7378 22.2939 17.1719C22.2939 17.606 21.9418 17.958 21.5078 17.958C20.0316 17.958 18.7952 16.9302 18.4668 15.5537C17.767 15.4391 17.1069 15.1561 16.5459 14.7256L16.2959 14.5186C15.9728 14.2293 15.9452 13.7326 16.2344 13.4092C16.5238 13.0856 17.0213 13.0573 17.3447 13.3467C17.845 13.7946 18.4926 14.0423 19.1641 14.042L19.4424 14.0283C20.8172 13.8884 21.8936 12.7235 21.8936 11.3125C21.8936 10.8784 22.2457 10.5264 22.6797 10.5264Z" fill="var(--fill-0, #AAAAAA)" stroke="var(--stroke-0, #AAAAAA)" stroke-width="0.4"/>
</g>
</svg>
