<svg preserveAspectRatio="none" width="100%" height="100%" overflow="visible" style="display: block;" viewBox="0 0 15 15" fill="none" xmlns="http://www.w3.org/2000/svg">
<g id="Copy">
<path id="Rectangle 1703" d="M5.55 9.45C5.55 7.61152 5.55 6.69228 6.12114 6.12114C6.69228 5.55 7.61152 5.55 9.45 5.55L10.1 5.55C11.9385 5.55 12.8577 5.55 13.4289 6.12114C14 6.69228 14 7.61152 14 9.45V10.1C14 11.9385 14 12.8577 13.4289 13.4289C12.8577 14 11.9385 14 10.1 14H9.45C7.61152 14 6.69228 14 6.12114 13.4289C5.55 12.8577 5.55 11.9385 5.55 10.1L5.55 9.45Z" stroke="var(--stroke-0, white)" stroke-linecap="round" stroke-linejoin="round"/>
<path id="Rectangle 1704" d="M10.7499 5.55C10.7484 3.62789 10.7193 2.63229 10.1598 1.95058C10.0518 1.81893 9.93107 1.69821 9.79942 1.59017C9.0803 1 8.01186 1 5.875 1C3.73814 1 2.66971 1 1.95058 1.59017C1.81893 1.69821 1.69821 1.81893 1.59017 1.95058C1 2.6697 1 3.73814 1 5.875C1 8.01186 1 9.08029 1.59017 9.79942C1.69821 9.93107 1.81893 10.0518 1.95058 10.1598C2.63228 10.7193 3.62789 10.7484 5.55 10.7499" stroke="var(--stroke-0, white)" stroke-linecap="round" stroke-linejoin="round"/>
</g>
</svg>
