<svg preserveAspectRatio="none" width="100%" height="100%" overflow="visible" style="display: block;" viewBox="0 0 23 32" fill="none" xmlns="http://www.w3.org/2000/svg">
<g id="Group">
<path id="Vector" d="M20.375 6.4248C21.5209 6.4248 22.4502 7.35411 22.4502 8.5V9.75C22.4502 10.8962 21.5209 11.8252 20.375 11.8252H18.5C16.1961 11.8295 14.3296 13.696 14.3252 16L14.3242 16.2002H12.6748V16C12.6791 12.785 15.285 10.1793 18.5 10.1748H20.375C20.6096 10.1748 20.7998 9.9848 20.7998 9.75V8.5C20.7998 8.26527 20.6096 8.0752 20.375 8.0752H16.624C13.4906 8.05949 10.8693 10.4506 10.5977 13.5723V13.5732C10.5393 14.1958 10.2635 14.7776 9.82034 15.2188L9.82131 15.2197L7.96096 17.0801L6.79495 15.9141L8.66311 14.0459C8.83083 13.8773 8.93486 13.6557 8.95706 13.4189C9.30403 9.44781 12.6386 6.40704 16.625 6.42578L20.375 6.4248Z" fill="var(--fill-0, white)" stroke="var(--stroke-0, white)" stroke-width="0.4"/>
<path id="Vector_2" d="M9.98633 6.32031L9.89062 6.45703L9.59375 6.88574L9.59473 6.88672C8.19662 8.91579 8.46928 11.6586 10.2402 13.3721L10.3828 13.5098L10.2461 13.6533L9.3877 14.5596L9.24902 14.7061L9.10352 14.5654C6.92615 12.4679 6.42817 9.17847 7.86914 6.53516L6.1543 4.82031L7.32031 3.6543L9.98633 6.32031ZM17.4502 0.799805V5.11523C17.9621 5.63588 18.3841 6.23794 18.6963 6.89844L18.7822 7.08008L18.6006 7.16504L17.4678 7.69629L17.2861 7.78223L17.2021 7.60059C16.9327 7.02308 16.5514 6.50419 16.0811 6.07422L15.8701 5.89453L15.7998 5.83496V0.799805H17.4502ZM14.3252 0.799805V5.01953L14.1113 5.00391L13.4473 4.95703V4.95605C12.9729 4.92608 12.4966 4.97682 12.0391 5.10547L11.6885 5.20801L11.5752 5.24023L11.4912 5.15723L8.6543 2.32031L9.82031 1.1543L12.0742 3.4082C12.2728 3.3692 12.4732 3.34014 12.6748 3.32227V0.799805H14.3252Z" fill="var(--fill-0, white)" stroke="var(--stroke-0, white)" stroke-width="0.4"/>
<path id="Vector_3" d="M8.21387 7.12031L8.58887 8.31563L8.64941 8.50605L8.45898 8.56563C4.84736 9.70816 2.45024 12.7038 2.4502 16.0002C2.4502 19.9207 3.97069 23.3158 5.88965 25.7307C6.84904 26.938 7.9049 27.8968 8.91406 28.552C9.92733 29.2098 10.8766 29.55 11.625 29.55C12.3734 29.55 13.3227 29.2098 14.3359 28.552C15.3451 27.8968 16.401 26.9379 17.3604 25.7307C19.2793 23.3158 20.7998 19.9207 20.7998 16.0002C20.7998 14.3915 20.2465 12.8416 19.1875 11.5158L19.0625 11.3596L20.3516 10.3283L20.4766 10.4846C21.7691 12.1043 22.4502 14.0077 22.4502 16.0002C22.4502 20.192 20.8232 23.985 18.668 26.7297C17.5902 28.1022 16.3764 29.2165 15.1621 29.9895C13.95 30.761 12.7245 31.2004 11.625 31.2004C10.5255 31.2004 9.30001 30.7611 8.08789 29.9895C6.87361 29.2165 5.65984 28.1022 4.58203 26.7297C2.42681 23.985 0.799805 20.192 0.799805 16.0002C0.799851 11.955 3.68969 8.33994 7.96289 6.98945L8.1543 6.92891L8.21387 7.12031Z" fill="var(--fill-0, white)" stroke="var(--stroke-0, white)" stroke-width="0.4"/>
</g>
</svg>
