<svg preserveAspectRatio="none" width="100%" height="100%" overflow="visible" style="display: block;" viewBox="0 0 32 32" fill="none" xmlns="http://www.w3.org/2000/svg">
<g id="Group">
<g id="Layer 22">
<mask id="path-1-outside-1_465_7987" maskUnits="userSpaceOnUse" x="0" y="0" width="32" height="32" fill="black">
<rect fill="white" width="32" height="32"/>
<path d="M30.712 26.0552L25.9171 12.3793C25.6119 11.6696 25.084 11.0785 24.4132 10.6953C23.7424 10.312 22.9651 10.1575 22.1987 10.2551C21.4323 10.3526 20.7185 10.6969 20.165 11.236C19.6116 11.775 19.2486 12.4795 19.1309 13.2431L19.0016 14.2776C18.5196 13.9047 18.1292 13.4266 17.8603 12.8797C17.5914 12.3329 17.451 11.7318 17.4499 11.1224V1.51724C17.4499 1.38006 17.3954 1.2485 17.2984 1.1515C17.2014 1.05449 17.0698 1 16.9327 1H15.0706C14.9334 1 14.8018 1.05449 14.7048 1.1515C14.6078 1.2485 14.5533 1.38006 14.5533 1.51724V11.1069C14.5519 11.7162 14.4113 12.3172 14.1424 12.8639C13.8735 13.4107 13.4833 13.8889 13.0016 14.2621L12.8723 13.2276C12.7535 12.4597 12.3867 11.7518 11.8278 11.212C11.2689 10.6721 10.5486 10.3301 9.77708 10.238C9.00552 10.146 8.22504 10.309 7.55483 10.7022C6.88462 11.0954 6.36152 11.6971 6.06541 12.4155L1.29128 26.019C1.05834 26.5596 0.962758 27.1495 1.01305 27.736C1.06333 28.3226 1.25793 28.8876 1.5795 29.3807C1.90107 29.8738 2.33962 30.2797 2.85608 30.5622C3.37255 30.8447 3.95088 30.9951 4.53955 31C4.77396 31.0007 5.00786 30.9782 5.23783 30.9327L11.6102 29.7017C12.5179 29.5303 13.3225 29.0106 13.8521 28.2539C14.3818 27.4971 14.5945 26.5632 14.4447 25.6517L13.4102 17.469L15.9964 16.7448L18.5827 17.469L17.5482 25.6362C17.3956 26.5514 17.6081 27.4899 18.1401 28.2501C18.672 29.0103 19.4809 29.5315 20.393 29.7017L26.7551 30.9327C26.985 30.9782 27.2189 31.0007 27.4533 31C28.0387 30.9956 28.614 30.8471 29.1284 30.5676C29.6427 30.288 30.0803 29.8861 30.4024 29.3973C30.7245 28.9085 30.9213 28.3479 30.9753 27.765C31.0293 27.182 30.9388 26.5948 30.712 26.0552ZM13.4102 25.8276C13.5204 26.4772 13.3706 27.144 12.9931 27.6841C12.6157 28.2241 12.0409 28.594 11.393 28.7138L5.04128 29.919C4.5865 30.0054 4.11673 29.9656 3.68295 29.804C3.24917 29.6423 2.86795 29.365 2.58065 29.002C2.29335 28.639 2.11096 28.2043 2.05326 27.745C1.99556 27.2856 2.06476 26.8193 2.25335 26.3965L7.02748 12.7931C7.23736 12.2821 7.60907 11.8541 8.08558 11.5747C8.56209 11.2953 9.11711 11.1799 9.6655 11.2463C10.2139 11.3126 10.7254 11.557 11.1215 11.942C11.5176 12.327 11.7765 12.8313 11.8585 13.3776L12.0395 14.8207C11.9115 14.8766 11.7802 14.925 11.6464 14.9655L10.5033 15.2914C10.1999 15.3757 9.93226 15.5567 9.74092 15.8068C9.54958 16.057 9.44499 16.3627 9.443 16.6776C9.4446 16.8122 9.46373 16.9461 9.4999 17.0759C9.60597 17.4389 9.84989 17.7461 10.1795 17.9317C10.5091 18.1173 10.8982 18.1665 11.2637 18.069L12.4016 17.7483L13.4102 25.8276ZM15.9964 15.6896C15.9502 15.6821 15.903 15.6821 15.8568 15.6896L10.9844 17.0552C10.9317 17.0709 10.8765 17.0761 10.8218 17.0703C10.7672 17.0645 10.7143 17.0479 10.6661 17.0214C10.618 16.9949 10.5756 16.9591 10.5414 16.916C10.5072 16.873 10.482 16.8236 10.4671 16.7707C10.4606 16.733 10.4606 16.6945 10.4671 16.6569C10.4685 16.5671 10.499 16.4802 10.554 16.4093C10.6091 16.3384 10.6857 16.2873 10.7723 16.2638L11.9154 15.9431C12.9738 15.644 13.9059 15.008 14.5704 14.1316C15.235 13.2552 15.5958 12.1861 15.5982 11.0862V2.03448H16.4154V11.1069C16.4178 12.2068 16.7786 13.2759 17.4431 14.1523C18.1077 15.0287 19.0398 15.6646 20.0982 15.9638L21.2413 16.2896C21.2937 16.3025 21.3428 16.3262 21.3856 16.3591C21.4284 16.3921 21.4638 16.4336 21.4895 16.481C21.5171 16.5273 21.5345 16.5789 21.5408 16.6323C21.547 16.6858 21.5419 16.74 21.5258 16.7914C21.5136 16.8459 21.49 16.8972 21.4565 16.9419C21.423 16.9866 21.3804 17.0236 21.3315 17.0506C21.2825 17.0775 21.2284 17.0937 21.1727 17.098C21.117 17.1024 21.061 17.0948 21.0085 17.0759L16.1361 15.7103C16.091 15.6959 16.0438 15.6889 15.9964 15.6896ZM29.3982 29.019C29.1131 29.3801 28.7337 29.6553 28.3019 29.8142C27.8701 29.973 27.4027 30.0093 26.9516 29.919L20.5792 28.6879C19.9326 28.5623 19.3611 28.1879 18.9877 27.6452C18.6144 27.1025 18.4689 26.435 18.5827 25.7862L19.6171 17.7483L20.7602 18.069C20.8882 18.1052 21.0204 18.1243 21.1533 18.1259C21.4649 18.1255 21.7681 18.0246 22.0178 17.8383C22.2676 17.6519 22.4505 17.39 22.5395 17.0914C22.6414 16.7224 22.593 16.3281 22.405 15.9947C22.2169 15.6613 21.9045 15.4158 21.5361 15.3121L20.3671 14.9655C20.2331 14.9258 20.1018 14.8774 19.974 14.8207L20.1344 13.4138C20.2219 12.8779 20.4796 12.3844 20.8693 12.0063C21.259 11.6282 21.76 11.3856 22.2983 11.3142C22.8365 11.2429 23.3835 11.3466 23.8582 11.6102C24.3329 11.8737 24.7102 12.283 24.9344 12.7776L29.7292 26.4534C29.9145 26.8703 29.9817 27.3301 29.9233 27.7826C29.8649 28.2351 29.6833 28.6628 29.3982 29.019Z"/>
</mask>
<path d="M30.712 26.0552L25.9171 12.3793C25.6119 11.6696 25.084 11.0785 24.4132 10.6953C23.7424 10.312 22.9651 10.1575 22.1987 10.2551C21.4323 10.3526 20.7185 10.6969 20.165 11.236C19.6116 11.775 19.2486 12.4795 19.1309 13.2431L19.0016 14.2776C18.5196 13.9047 18.1292 13.4266 17.8603 12.8797C17.5914 12.3329 17.451 11.7318 17.4499 11.1224V1.51724C17.4499 1.38006 17.3954 1.2485 17.2984 1.1515C17.2014 1.05449 17.0698 1 16.9327 1H15.0706C14.9334 1 14.8018 1.05449 14.7048 1.1515C14.6078 1.2485 14.5533 1.38006 14.5533 1.51724V11.1069C14.5519 11.7162 14.4113 12.3172 14.1424 12.8639C13.8735 13.4107 13.4833 13.8889 13.0016 14.2621L12.8723 13.2276C12.7535 12.4597 12.3867 11.7518 11.8278 11.212C11.2689 10.6721 10.5486 10.3301 9.77708 10.238C9.00552 10.146 8.22504 10.309 7.55483 10.7022C6.88462 11.0954 6.36152 11.6971 6.06541 12.4155L1.29128 26.019C1.05834 26.5596 0.962758 27.1495 1.01305 27.736C1.06333 28.3226 1.25793 28.8876 1.5795 29.3807C1.90107 29.8738 2.33962 30.2797 2.85608 30.5622C3.37255 30.8447 3.95088 30.9951 4.53955 31C4.77396 31.0007 5.00786 30.9782 5.23783 30.9327L11.6102 29.7017C12.5179 29.5303 13.3225 29.0106 13.8521 28.2539C14.3818 27.4971 14.5945 26.5632 14.4447 25.6517L13.4102 17.469L15.9964 16.7448L18.5827 17.469L17.5482 25.6362C17.3956 26.5514 17.6081 27.4899 18.1401 28.2501C18.672 29.0103 19.4809 29.5315 20.393 29.7017L26.7551 30.9327C26.985 30.9782 27.2189 31.0007 27.4533 31C28.0387 30.9956 28.614 30.8471 29.1284 30.5676C29.6427 30.288 30.0803 29.8861 30.4024 29.3973C30.7245 28.9085 30.9213 28.3479 30.9753 27.765C31.0293 27.182 30.9388 26.5948 30.712 26.0552ZM13.4102 25.8276C13.5204 26.4772 13.3706 27.144 12.9931 27.6841C12.6157 28.2241 12.0409 28.594 11.393 28.7138L5.04128 29.919C4.5865 30.0054 4.11673 29.9656 3.68295 29.804C3.24917 29.6423 2.86795 29.365 2.58065 29.002C2.29335 28.639 2.11096 28.2043 2.05326 27.745C1.99556 27.2856 2.06476 26.8193 2.25335 26.3965L7.02748 12.7931C7.23736 12.2821 7.60907 11.8541 8.08558 11.5747C8.56209 11.2953 9.11711 11.1799 9.6655 11.2463C10.2139 11.3126 10.7254 11.557 11.1215 11.942C11.5176 12.327 11.7765 12.8313 11.8585 13.3776L12.0395 14.8207C11.9115 14.8766 11.7802 14.925 11.6464 14.9655L10.5033 15.2914C10.1999 15.3757 9.93226 15.5567 9.74092 15.8068C9.54958 16.057 9.44499 16.3627 9.443 16.6776C9.4446 16.8122 9.46373 16.9461 9.4999 17.0759C9.60597 17.4389 9.84989 17.7461 10.1795 17.9317C10.5091 18.1173 10.8982 18.1665 11.2637 18.069L12.4016 17.7483L13.4102 25.8276ZM15.9964 15.6896C15.9502 15.6821 15.903 15.6821 15.8568 15.6896L10.9844 17.0552C10.9317 17.0709 10.8765 17.0761 10.8218 17.0703C10.7672 17.0645 10.7143 17.0479 10.6661 17.0214C10.618 16.9949 10.5756 16.9591 10.5414 16.916C10.5072 16.873 10.482 16.8236 10.4671 16.7707C10.4606 16.733 10.4606 16.6945 10.4671 16.6569C10.4685 16.5671 10.499 16.4802 10.554 16.4093C10.6091 16.3384 10.6857 16.2873 10.7723 16.2638L11.9154 15.9431C12.9738 15.644 13.9059 15.008 14.5704 14.1316C15.235 13.2552 15.5958 12.1861 15.5982 11.0862V2.03448H16.4154V11.1069C16.4178 12.2068 16.7786 13.2759 17.4431 14.1523C18.1077 15.0287 19.0398 15.6646 20.0982 15.9638L21.2413 16.2896C21.2937 16.3025 21.3428 16.3262 21.3856 16.3591C21.4284 16.3921 21.4638 16.4336 21.4895 16.481C21.5171 16.5273 21.5345 16.5789 21.5408 16.6323C21.547 16.6858 21.5419 16.74 21.5258 16.7914C21.5136 16.8459 21.49 16.8972 21.4565 16.9419C21.423 16.9866 21.3804 17.0236 21.3315 17.0506C21.2825 17.0775 21.2284 17.0937 21.1727 17.098C21.117 17.1024 21.061 17.0948 21.0085 17.0759L16.1361 15.7103C16.091 15.6959 16.0438 15.6889 15.9964 15.6896ZM29.3982 29.019C29.1131 29.3801 28.7337 29.6553 28.3019 29.8142C27.8701 29.973 27.4027 30.0093 26.9516 29.919L20.5792 28.6879C19.9326 28.5623 19.3611 28.1879 18.9877 27.6452C18.6144 27.1025 18.4689 26.435 18.5827 25.7862L19.6171 17.7483L20.7602 18.069C20.8882 18.1052 21.0204 18.1243 21.1533 18.1259C21.4649 18.1255 21.7681 18.0246 22.0178 17.8383C22.2676 17.6519 22.4505 17.39 22.5395 17.0914C22.6414 16.7224 22.593 16.3281 22.405 15.9947C22.2169 15.6613 21.9045 15.4158 21.5361 15.3121L20.3671 14.9655C20.2331 14.9258 20.1018 14.8774 19.974 14.8207L20.1344 13.4138C20.2219 12.8779 20.4796 12.3844 20.8693 12.0063C21.259 11.6282 21.76 11.3856 22.2983 11.3142C22.8365 11.2429 23.3835 11.3466 23.8582 11.6102C24.3329 11.8737 24.7102 12.283 24.9344 12.7776L29.7292 26.4534C29.9145 26.8703 29.9817 27.3301 29.9233 27.7826C29.8649 28.2351 29.6833 28.6628 29.3982 29.019Z" fill="#AAAAAA"/>
<path d="M30.712 26.0552L25.9171 12.3793C25.6119 11.6696 25.084 11.0785 24.4132 10.6953C23.7424 10.312 22.9651 10.1575 22.1987 10.2551C21.4323 10.3526 20.7185 10.6969 20.165 11.236C19.6116 11.775 19.2486 12.4795 19.1309 13.2431L19.0016 14.2776C18.5196 13.9047 18.1292 13.4266 17.8603 12.8797C17.5914 12.3329 17.451 11.7318 17.4499 11.1224V1.51724C17.4499 1.38006 17.3954 1.2485 17.2984 1.1515C17.2014 1.05449 17.0698 1 16.9327 1H15.0706C14.9334 1 14.8018 1.05449 14.7048 1.1515C14.6078 1.2485 14.5533 1.38006 14.5533 1.51724V11.1069C14.5519 11.7162 14.4113 12.3172 14.1424 12.8639C13.8735 13.4107 13.4833 13.8889 13.0016 14.2621L12.8723 13.2276C12.7535 12.4597 12.3867 11.7518 11.8278 11.212C11.2689 10.6721 10.5486 10.3301 9.77708 10.238C9.00552 10.146 8.22504 10.309 7.55483 10.7022C6.88462 11.0954 6.36152 11.6971 6.06541 12.4155L1.29128 26.019C1.05834 26.5596 0.962758 27.1495 1.01305 27.736C1.06333 28.3226 1.25793 28.8876 1.5795 29.3807C1.90107 29.8738 2.33962 30.2797 2.85608 30.5622C3.37255 30.8447 3.95088 30.9951 4.53955 31C4.77396 31.0007 5.00786 30.9782 5.23783 30.9327L11.6102 29.7017C12.5179 29.5303 13.3225 29.0106 13.8521 28.2539C14.3818 27.4971 14.5945 26.5632 14.4447 25.6517L13.4102 17.469L15.9964 16.7448L18.5827 17.469L17.5482 25.6362C17.3956 26.5514 17.6081 27.4899 18.1401 28.2501C18.672 29.0103 19.4809 29.5315 20.393 29.7017L26.7551 30.9327C26.985 30.9782 27.2189 31.0007 27.4533 31C28.0387 30.9956 28.614 30.8471 29.1284 30.5676C29.6427 30.288 30.0803 29.8861 30.4024 29.3973C30.7245 28.9085 30.9213 28.3479 30.9753 27.765C31.0293 27.182 30.9388 26.5948 30.712 26.0552ZM13.4102 25.8276C13.5204 26.4772 13.3706 27.144 12.9931 27.6841C12.6157 28.2241 12.0409 28.594 11.393 28.7138L5.04128 29.919C4.5865 30.0054 4.11673 29.9656 3.68295 29.804C3.24917 29.6423 2.86795 29.365 2.58065 29.002C2.29335 28.639 2.11096 28.2043 2.05326 27.745C1.99556 27.2856 2.06476 26.8193 2.25335 26.3965L7.02748 12.7931C7.23736 12.2821 7.60907 11.8541 8.08558 11.5747C8.56209 11.2953 9.11711 11.1799 9.6655 11.2463C10.2139 11.3126 10.7254 11.557 11.1215 11.942C11.5176 12.327 11.7765 12.8313 11.8585 13.3776L12.0395 14.8207C11.9115 14.8766 11.7802 14.925 11.6464 14.9655L10.5033 15.2914C10.1999 15.3757 9.93226 15.5567 9.74092 15.8068C9.54958 16.057 9.44499 16.3627 9.443 16.6776C9.4446 16.8122 9.46373 16.9461 9.4999 17.0759C9.60597 17.4389 9.84989 17.7461 10.1795 17.9317C10.5091 18.1173 10.8982 18.1665 11.2637 18.069L12.4016 17.7483L13.4102 25.8276ZM15.9964 15.6896C15.9502 15.6821 15.903 15.6821 15.8568 15.6896L10.9844 17.0552C10.9317 17.0709 10.8765 17.0761 10.8218 17.0703C10.7672 17.0645 10.7143 17.0479 10.6661 17.0214C10.618 16.9949 10.5756 16.9591 10.5414 16.916C10.5072 16.873 10.482 16.8236 10.4671 16.7707C10.4606 16.733 10.4606 16.6945 10.4671 16.6569C10.4685 16.5671 10.499 16.4802 10.554 16.4093C10.6091 16.3384 10.6857 16.2873 10.7723 16.2638L11.9154 15.9431C12.9738 15.644 13.9059 15.008 14.5704 14.1316C15.235 13.2552 15.5958 12.1861 15.5982 11.0862V2.03448H16.4154V11.1069C16.4178 12.2068 16.7786 13.2759 17.4431 14.1523C18.1077 15.0287 19.0398 15.6646 20.0982 15.9638L21.2413 16.2896C21.2937 16.3025 21.3428 16.3262 21.3856 16.3591C21.4284 16.3921 21.4638 16.4336 21.4895 16.481C21.5171 16.5273 21.5345 16.5789 21.5408 16.6323C21.547 16.6858 21.5419 16.74 21.5258 16.7914C21.5136 16.8459 21.49 16.8972 21.4565 16.9419C21.423 16.9866 21.3804 17.0236 21.3315 17.0506C21.2825 17.0775 21.2284 17.0937 21.1727 17.098C21.117 17.1024 21.061 17.0948 21.0085 17.0759L16.1361 15.7103C16.091 15.6959 16.0438 15.6889 15.9964 15.6896ZM29.3982 29.019C29.1131 29.3801 28.7337 29.6553 28.3019 29.8142C27.8701 29.973 27.4027 30.0093 26.9516 29.919L20.5792 28.6879C19.9326 28.5623 19.3611 28.1879 18.9877 27.6452C18.6144 27.1025 18.4689 26.435 18.5827 25.7862L19.6171 17.7483L20.7602 18.069C20.8882 18.1052 21.0204 18.1243 21.1533 18.1259C21.4649 18.1255 21.7681 18.0246 22.0178 17.8383C22.2676 17.6519 22.4505 17.39 22.5395 17.0914C22.6414 16.7224 22.593 16.3281 22.405 15.9947C22.2169 15.6613 21.9045 15.4158 21.5361 15.3121L20.3671 14.9655C20.2331 14.9258 20.1018 14.8774 19.974 14.8207L20.1344 13.4138C20.2219 12.8779 20.4796 12.3844 20.8693 12.0063C21.259 11.6282 21.76 11.3856 22.2983 11.3142C22.8365 11.2429 23.3835 11.3466 23.8582 11.6102C24.3329 11.8737 24.7102 12.283 24.9344 12.7776L29.7292 26.4534C29.9145 26.8703 29.9817 27.3301 29.9233 27.7826C29.8649 28.2351 29.6833 28.6628 29.3982 29.019Z" stroke="var(--stroke-0, #AAAAAA)" stroke-width="0.8" mask="url(#path-1-outside-1_465_7987)"/>
</g>
</g>
</svg>
