<svg preserveAspectRatio="none" width="100%" height="100%" overflow="visible" style="display: block;" viewBox="0 0 16 22" fill="none" xmlns="http://www.w3.org/2000/svg">
<g id="Profile">
<path id="Stroke 3" fill-rule="evenodd" clip-rule="evenodd" d="M7.84501 9.77364C10.2677 9.77364 12.2314 7.81 12.2314 5.38727C12.2314 2.96455 10.2677 1 7.84501 1C5.42229 1 3.45774 2.96455 3.45774 5.38727C3.44956 7.80182 5.39956 9.76546 7.8141 9.77364C7.82501 9.77364 7.83501 9.77364 7.84501 9.77364Z" stroke="var(--stroke-0, #AAAAAA)" stroke-width="2" stroke-linecap="round" stroke-linejoin="round"/>
<path id="Stroke 1" fill-rule="evenodd" clip-rule="evenodd" d="M7.84455 20.0736C4.15273 20.0736 1 19.4991 1 17.1984C1 14.8976 4.13273 12.7736 7.84455 12.7736C11.5364 12.7736 14.6891 14.877 14.6891 17.1778C14.6891 19.4776 11.5564 20.0736 7.84455 20.0736Z" stroke="var(--stroke-0, #AAAAAA)" stroke-width="2" stroke-linecap="round" stroke-linejoin="round"/>
</g>
</svg>
