<svg preserveAspectRatio="none" width="100%" height="100%" overflow="visible" style="display: block;" viewBox="0 0 16 15" fill="none" xmlns="http://www.w3.org/2000/svg">
<g id="share-02">
<path id="Vector" d="M13.5845 4.44268L12.3892 3.40468C11.528 2.65679 11.1904 2.25446 10.7241 2.39669C10.1425 2.57404 10.334 3.69307 10.334 4.07085C9.42988 4.07085 8.48991 4.00131 7.59873 4.1462C4.65677 4.6245 3.73683 6.71765 3.73683 8.97274C4.5695 8.46232 5.40134 7.89313 6.40211 7.65656C7.65135 7.36126 9.04654 7.50217 10.334 7.50217C10.334 7.87993 10.1425 8.99901 10.7241 9.17633C11.2525 9.33747 11.528 8.91623 12.3892 8.16834L13.5845 7.13035C14.3176 6.49366 14.6842 6.17531 14.6842 5.78651C14.6842 5.39772 14.3176 5.07937 13.5845 4.44268Z" stroke="var(--stroke-0, white)" stroke-linecap="round" stroke-linejoin="round"/>
<path id="Rectangle 1702" d="M6.86203 1C4.22082 1.00475 2.83775 1.06946 1.95386 1.95155C1 2.90348 1 4.43559 1 7.49981C0.999999 10.564 0.999999 12.0961 1.95386 13.0481C2.90772 14 4.44294 14 7.51337 14C10.5838 14 12.119 14 13.0729 13.0481C13.737 12.3853 13.9387 11.4413 14 9.89474" stroke="var(--stroke-0, white)" stroke-linecap="round" stroke-linejoin="round"/>
</g>
</svg>
