<svg preserveAspectRatio="none" width="100%" height="100%" overflow="visible" style="display: block;" viewBox="0 0 12 11" fill="none" xmlns="http://www.w3.org/2000/svg">
<path id="Star" d="M9.21558 6.8427C9.06564 6.98801 8.99675 7.19815 9.0309 7.40424L9.54555 10.2525C9.58897 10.4939 9.48708 10.7382 9.28505 10.8777C9.08706 11.0224 8.82365 11.0398 8.60772 10.924L6.04374 9.58673C5.95458 9.53926 5.85559 9.51379 5.75428 9.51089H5.5974C5.54298 9.519 5.48972 9.53636 5.44109 9.56299L2.87653 10.9066C2.74974 10.9703 2.60618 10.9929 2.4655 10.9703C2.12279 10.9055 1.89412 10.579 1.95027 10.2345L2.4655 7.3863C2.49966 7.17847 2.43077 6.96717 2.28083 6.81954L0.190389 4.79336C0.0155586 4.62374 -0.0452268 4.36902 0.0346626 4.1392C0.112236 3.90995 0.310223 3.74265 0.549312 3.70502L3.42649 3.28762C3.64532 3.26505 3.83751 3.1319 3.93593 2.93507L5.20374 0.335767C5.23384 0.277876 5.27263 0.224617 5.31952 0.179462L5.37162 0.138938C5.39883 0.108835 5.43009 0.0839418 5.46483 0.06368L5.52793 0.0405236L5.62634 0H5.87006C6.08773 0.0225774 6.27935 0.152832 6.3795 0.347345L7.6641 2.93507C7.75673 3.12437 7.93677 3.25578 8.1446 3.28762L11.0218 3.70502C11.2649 3.73975 11.4681 3.90763 11.5486 4.1392C11.6244 4.37134 11.559 4.62606 11.3807 4.79336L9.21558 6.8427Z" fill="var(--fill-0, white)"/>
</svg>
