<svg preserveAspectRatio="none" width="100%" height="100%" overflow="visible" style="display: block;" viewBox="0 0 17 17" fill="none" xmlns="http://www.w3.org/2000/svg">
<g id="icon">
<path id="Vector" d="M2.24999 15.9999C1.55964 15.9999 1 15.4402 1 14.7499V9.74988C1 7.67883 2.67892 5.99988 4.75 5.99988C6.82105 5.99988 8.5 7.67883 8.5 9.74988V14.7499C8.5 15.4402 7.94033 15.9999 7.24998 15.9999" stroke="var(--stroke-0, white)" stroke-width="1.5" stroke-miterlimit="10" stroke-linecap="round" stroke-linejoin="round"/>
<path id="Vector_2" d="M16 11C16 9.61931 14.8807 8.5 13.5 8.5C12.1193 8.5 11 9.61931 11 11C11 12.3807 12.1193 13.5 13.5 13.5C14.8807 13.5 16 12.3807 16 11Z" stroke="var(--stroke-0, white)" stroke-width="1.5" stroke-miterlimit="10" stroke-linecap="round" stroke-linejoin="round"/>
<path id="Vector_3" d="M4.74997 5.99999V5.37501C4.74997 2.95877 6.70871 1 9.12498 1C11.5412 1 13.5 2.95877 13.5 5.37501V8.5" stroke="var(--stroke-0, white)" stroke-width="1.5" stroke-miterlimit="10" stroke-linecap="round" stroke-linejoin="round"/>
</g>
</svg>
