<svg preserveAspectRatio="none" width="100%" height="100%" overflow="visible" style="display: block;" viewBox="0 0 29 32" fill="none" xmlns="http://www.w3.org/2000/svg">
<g id="Group">
<path id="Vector" d="M12.2154 2.70605C12.4339 1.45555 13.6292 0.616402 14.8794 0.833984C16.1283 1.05216 16.9677 2.24592 16.7515 3.49512V3.49902C16.7509 3.50257 16.7496 3.5079 16.7486 3.51465C16.7464 3.5284 16.7436 3.54896 16.7398 3.5752C16.7321 3.62756 16.7215 3.7039 16.7095 3.80078C16.6854 3.9951 16.655 4.27212 16.6323 4.60352C16.5869 5.26775 16.5699 6.14731 16.6802 7.02441C16.7385 7.488 16.8251 7.89422 16.9341 8.24512C17.8136 7.66829 18.8161 7.30331 19.8638 7.18555L20.1968 7.15625C21.861 7.04924 23.4868 7.55391 24.8062 8.59375C26.2144 9.70366 27.1114 11.2955 27.3306 13.0752C27.5542 14.8915 27.081 16.7652 26.607 17.8252C26.0263 19.124 25.2593 20.3534 24.1245 21.8066C22.9657 23.2908 21.5635 24.5538 20.0679 25.459C18.6643 26.3085 17.2366 26.7975 16.0454 26.8164H15.6089C14.2045 26.7757 12.8658 26.3377 11.8404 25.5762C11.0455 24.9859 10.469 24.2297 10.1314 23.3545H9.12454C8.96804 23.3545 8.84039 23.4822 8.84036 23.6387V28.9346C8.84029 30.1839 7.8241 31.2002 6.57473 31.2002C5.32542 31.2001 4.30917 30.1839 4.30911 28.9346V23.6387C4.30914 20.9834 6.46926 18.8233 9.12454 18.8232H10.5064C10.6284 18.6135 10.7644 18.4122 10.9136 18.2207V18.2197C11.7514 17.147 12.9424 16.4487 14.2808 16.2393C14.0897 15.7195 13.9632 15.178 13.9038 14.627C13.8221 13.8781 13.868 13.1211 14.0376 12.3877C13.8003 12.1156 13.5842 11.8256 13.3941 11.5186C12.7236 10.4381 12.2917 9.09239 12.1031 7.52539C11.8091 5.08354 12.1978 2.80659 12.2154 2.70605ZM9.12454 20.4033C7.34103 20.4035 5.8902 21.8551 5.89016 23.6387V28.9346C5.89023 29.3121 6.19724 29.62 6.57473 29.6201C6.95233 29.6201 7.26021 29.3122 7.26028 28.9346V23.6387C7.26032 22.6105 8.09636 21.7746 9.12454 21.7744H9.79544C9.77035 21.3102 9.80573 20.8502 9.89895 20.4033H9.12454ZM20.6236 8.72266C20.4292 8.72267 20.2346 8.73397 20.0415 8.75586C17.2183 9.07575 15.1697 11.6333 15.4751 14.4561V14.457C15.5257 14.9274 15.6405 15.3887 15.8159 15.8281C15.9826 16.2446 15.9483 16.706 15.7202 17.0908C15.4922 17.4756 15.1041 17.7263 14.6587 17.7803L14.6519 17.7822H14.6509C13.6584 17.9044 12.7738 18.4046 12.1587 19.1924C11.5435 19.9803 11.2729 20.96 11.395 21.9521C11.662 24.1198 13.6908 25.1795 15.6548 25.2363C15.7696 25.2396 15.9064 25.237 16.0249 25.2363C16.8362 25.2222 17.9612 24.8779 19.1841 24.1523C20.4037 23.4287 21.7083 22.3327 22.8784 20.834C23.9379 19.477 24.6411 18.3514 25.1646 17.1807C25.5846 16.2413 25.9334 14.6605 25.7622 13.2686C25.4409 10.6583 23.1963 8.72278 20.6236 8.72266ZM14.4829 2.38086C14.139 2.38088 13.8331 2.62874 13.772 2.97852C13.7567 3.06657 13.4065 5.1273 13.6724 7.33594C13.8324 8.66555 14.1848 9.77418 14.7105 10.6396C14.9723 10.1672 15.2889 9.72715 15.6548 9.3291C15.396 8.73786 15.2149 8.03332 15.1128 7.22168C14.861 5.22011 15.188 3.26647 15.1948 3.22656V3.22559C15.2625 2.83382 14.9987 2.46007 14.6079 2.3916C14.5659 2.38427 14.5239 2.38086 14.4829 2.38086Z" fill="var(--fill-0, #AAAAAA)" stroke="var(--stroke-0, #AAAAAA)" stroke-width="0.4"/>
<path id="Vector_2" d="M18.1211 21.7392C18.1939 21.7392 18.2667 21.7534 18.334 21.7812C18.4011 21.8091 18.4623 21.85 18.5137 21.9013C18.5651 21.9528 18.606 22.0139 18.6338 22.081C18.6616 22.1481 18.6757 22.2203 18.6758 22.2929V22.914C18.6731 23.0591 18.6132 23.1971 18.5098 23.2988C18.4061 23.4006 18.2663 23.458 18.1211 23.458C17.976 23.4579 17.8369 23.4005 17.7334 23.2988C17.6299 23.1971 17.5701 23.0591 17.5674 22.914V22.2929C17.5675 22.1461 17.6257 22.0052 17.7295 21.9013C17.8333 21.7975 17.9743 21.7394 18.1211 21.7392ZM15.7275 21.122C15.8003 21.122 15.8723 21.1372 15.9395 21.165C16.0067 21.1929 16.0677 21.2337 16.1191 21.2851C16.1706 21.3366 16.2114 21.3976 16.2393 21.4648C16.2671 21.532 16.2822 21.604 16.2822 21.6767V22.2969C16.2796 22.4421 16.2198 22.5808 16.1162 22.6826C16.0126 22.7843 15.8727 22.8408 15.7275 22.8408C15.5826 22.8407 15.4434 22.7841 15.3398 22.6826C15.2362 22.5808 15.1765 22.442 15.1738 22.2969V21.6767C15.1739 21.5299 15.2322 21.389 15.3359 21.2851C15.4398 21.1813 15.5807 21.1221 15.7275 21.122ZM19.8447 19.0595C19.9916 19.0596 20.1325 19.1178 20.2363 19.2217C20.3402 19.3255 20.3984 19.4664 20.3984 19.6133V20.2344C20.3957 20.3794 20.3359 20.5175 20.2324 20.6191C20.1289 20.7207 19.9898 20.7783 19.8447 20.7783C19.6995 20.7783 19.5597 20.7209 19.4561 20.6191C19.3527 20.5175 19.2938 20.3793 19.291 20.2344L19.29 20.2304V19.6133C19.2901 19.4664 19.3493 19.3255 19.4531 19.2217C19.557 19.1179 19.6979 19.0596 19.8447 19.0595ZM3.12793 14.0254C3.29318 14.0255 3.44434 14.13 3.50586 14.3027L3.99023 15.666C3.99312 15.6741 3.99683 15.6777 3.99805 15.6787L5.20898 16.2246C5.38175 16.3025 5.45503 16.4728 5.45508 16.6201C5.45508 16.7674 5.38173 16.9376 5.20898 17.0156L3.99805 17.5615C3.99992 17.5606 3.99444 17.5625 3.99023 17.5742L3.50586 18.9375C3.4444 19.1103 3.29324 19.2146 3.12793 19.2148C2.96244 19.2148 2.81054 19.1105 2.74902 18.9375L2.26465 17.5742C2.26155 17.5655 2.25776 17.5622 2.25684 17.5615L1.0459 17.0156C0.873255 16.9376 0.799805 16.7673 0.799805 16.6201C0.799873 16.4728 0.873225 16.3025 1.0459 16.2246L2.25684 15.6787C2.25804 15.6777 2.26169 15.6743 2.26465 15.666L2.74902 14.3027C2.81056 14.1299 2.96251 14.0254 3.12793 14.0254ZM16.8818 13.1357C16.9508 12.7048 17.3561 12.4115 17.7871 12.4804C18.2181 12.5493 18.5113 12.9548 18.4424 13.3857C18.3592 13.9058 18.3687 14.4546 18.4717 15.0176C18.5502 15.4467 18.2659 15.8588 17.8369 15.9375H17.8359C17.7883 15.9462 17.7404 15.9502 17.6934 15.9502C17.3191 15.9501 16.9868 15.6831 16.917 15.3017C16.7823 14.5652 16.7698 13.8362 16.8818 13.1357ZM8.84668 10.082C8.97392 10.082 9.09 10.1526 9.15234 10.2695L9.17578 10.3222L9.53027 11.3193L10.4121 11.7177C10.5628 11.7858 10.625 11.9339 10.625 12.0586C10.6249 12.1833 10.5628 12.3315 10.4121 12.3994L9.53027 12.7959L9.17578 13.7949C9.12302 13.9428 8.99198 14.0342 8.84668 14.0342C8.70141 14.0341 8.5703 13.9428 8.51758 13.7949L8.16211 12.7959L7.28223 12.3994C7.13149 12.3315 7.06844 12.1833 7.06836 12.0586C7.06836 11.9338 7.13139 11.7857 7.28223 11.7177L8.16211 11.3193L8.51758 10.3222C8.5702 10.1741 8.70131 10.0821 8.84668 10.082ZM18.1973 10.3408C18.5034 10.0296 19.0035 10.0258 19.3145 10.332C19.6254 10.6382 19.6295 11.1382 19.3232 11.4492C19.2583 11.5151 19.187 11.6032 19.0977 11.7314C19.0248 11.8361 18.9275 11.9215 18.8145 11.9804C18.7016 12.0393 18.5764 12.0694 18.4492 12.0693V12.0703C18.2932 12.0703 18.1345 12.0236 17.9971 11.9277C17.6394 11.6781 17.5515 11.186 17.8008 10.8281C17.9374 10.6322 18.0639 10.4763 18.1973 10.3408ZM26.5967 3.04099C26.7239 3.04105 26.84 3.11167 26.9023 3.22849L26.9258 3.28123L27.2803 4.27927L28.1611 4.67673C28.312 4.7447 28.375 4.89278 28.375 5.01755C28.375 5.14231 28.3119 5.29043 28.1611 5.35837L27.2803 5.75486L26.9258 6.75388C26.8731 6.90183 26.742 6.99406 26.5967 6.99412C26.4513 6.99412 26.3203 6.90182 26.2676 6.75388L25.9121 5.75486L25.0312 5.35837C24.8805 5.29041 24.8184 5.14228 24.8184 5.01755C24.8184 4.89283 24.8805 4.74473 25.0312 4.67673L25.9121 4.27927L26.2676 3.28123L26.291 3.22849C26.3534 3.11169 26.4695 3.04099 26.5967 3.04099Z" fill="var(--fill-0, #AAAAAA)" stroke="var(--stroke-0, #AAAAAA)" stroke-width="0.4"/>
<path id="Vector_3" d="M2.98338 5.90348C3.47487 5.41201 4.27208 5.41199 4.76357 5.90348C5.25503 6.39497 5.25503 7.19219 4.76357 7.68368C4.27208 8.17517 3.47487 8.17515 2.98338 7.68368C2.49188 7.19218 2.49188 6.39498 2.98338 5.90348Z" fill="var(--fill-0, #AAAAAA)" stroke="var(--stroke-0, #AAAAAA)" stroke-width="0.4"/>
<path id="Vector_4" d="M21.2302 3.04102C21.5926 3.04124 21.8864 3.33574 21.8864 3.69825C21.8862 4.06056 21.5925 4.35427 21.2302 4.3545C20.8677 4.3545 20.5732 4.0607 20.5729 3.69825C20.5729 3.3356 20.8675 3.04102 21.2302 3.04102Z" fill="var(--fill-0, #AAAAAA)" stroke="var(--stroke-0, #AAAAAA)" stroke-width="0.4"/>
</g>
</svg>
