<svg preserveAspectRatio="none" width="100%" height="100%" overflow="visible" style="display: block;" viewBox="0 0 32 32" fill="none" xmlns="http://www.w3.org/2000/svg">
<g id="Group">
<path id="Vector" d="M4.3916 8.24414C5.98829 4.51998 10.3022 2.79512 14.0264 4.3916L14.2617 4.48535C14.817 4.68952 15.4051 4.79395 15.998 4.79395C16.6754 4.79389 17.3456 4.65704 17.9688 4.3916L18.3145 4.25391C19.1285 3.95281 19.9905 3.79875 20.8604 3.79883C24.9123 3.79916 28.1974 7.08372 28.1973 11.1357C28.1984 14.1172 27.36 17.0394 25.7793 19.5674L25.6543 19.7666L23.5039 29.2344C23.3929 29.7225 23.1386 30.1662 22.7744 30.5098C22.4102 30.8534 21.9519 31.0807 21.458 31.1631C20.0835 31.3922 18.783 30.4644 18.5537 29.0898L17.0547 20.0938C17.0178 19.8741 16.9133 19.6712 16.7559 19.5137C16.5983 19.3561 16.3946 19.2517 16.1748 19.2148C15.5917 19.1173 15.0403 19.5107 14.9424 20.0938L13.4424 29.0898C13.3603 29.584 13.1327 30.0427 12.7891 30.4072C12.4453 30.7718 12.0004 31.0258 11.5117 31.1367C10.1531 31.4451 8.80167 30.5939 8.49316 29.2354L6.34082 19.7676L6.2168 19.5684C4.63555 17.0402 3.79784 14.1177 3.79883 11.1357C3.79881 10.1417 3.99991 9.15778 4.3916 8.24414ZM26.3174 8.79785C25.0662 5.87786 21.751 4.47602 18.8047 5.56543L18.5205 5.67871C17.7231 6.01894 16.865 6.19428 15.998 6.19434C15.2393 6.19434 14.4868 6.06041 13.7764 5.79883L13.4746 5.67871C12.7358 5.36137 11.9398 5.19837 11.1357 5.19922C7.85833 5.20297 5.20223 7.85839 5.19824 11.1357C5.19749 13.8555 5.9614 16.5211 7.40332 18.8271L7.5918 19.127V19.1279C7.61219 19.1608 7.6307 19.1948 7.64551 19.2305L7.68066 19.3408L7.68164 19.3428L9.8584 28.9238C9.90772 29.1413 10.0204 29.3392 10.1826 29.4922C10.3449 29.6453 10.5494 29.7467 10.7695 29.7832C11.3812 29.8846 11.9601 29.4711 12.0615 28.8594L13.5605 19.8623C13.6453 19.3547 13.8871 18.8863 14.251 18.5225C14.6149 18.1586 15.0833 17.9178 15.5908 17.833C16.9365 17.6083 18.2099 18.5167 18.4346 19.8623L19.9346 28.8584C19.9713 29.0781 20.0718 29.2823 20.2246 29.4443C20.3775 29.6064 20.5757 29.7191 20.793 29.7686C21.3978 29.9061 22 29.5276 22.1377 28.9229L24.3145 19.3418V19.3398C24.3323 19.2646 24.3626 19.1927 24.4033 19.127V19.126L24.5918 18.8262C26.0335 16.5203 26.7975 13.8552 26.7969 11.1357C26.7968 10.332 26.6339 9.5366 26.3174 8.79785ZM3.49805 0.799805C3.66345 0.799805 3.82386 0.859056 3.9502 0.96582C4.07631 1.07247 4.16083 1.21998 4.18848 1.38281V1.38379C4.2479 1.74008 4.41748 2.06875 4.67285 2.32422C4.92825 2.57969 5.25698 2.74906 5.61328 2.80859C5.75657 2.83283 5.88943 2.90115 5.99219 3.00391C6.09481 3.10657 6.16323 3.23872 6.1875 3.38184C6.20282 3.47245 6.2002 3.56569 6.17969 3.65527C6.15917 3.74486 6.12062 3.82938 6.06738 3.9043C6.01419 3.97915 5.94691 4.04297 5.86914 4.0918C5.79127 4.14064 5.70392 4.17413 5.61328 4.18945C5.25699 4.24899 4.92824 4.41836 4.67285 4.67383C4.44931 4.89748 4.29145 5.17712 4.21582 5.48242L4.18848 5.61426C4.16091 5.77729 4.07646 5.92547 3.9502 6.03223C3.82386 6.13899 3.66345 6.19824 3.49805 6.19824C3.33279 6.19814 3.17311 6.1389 3.04688 6.03223C2.9521 5.95212 2.88113 5.8489 2.83984 5.7334L2.80859 5.61426C2.74919 5.25801 2.57953 4.92929 2.32422 4.67383C2.06886 4.41839 1.74003 4.24901 1.38379 4.18945H1.38281C1.22007 4.16184 1.07247 4.07715 0.96582 3.95117C0.859069 3.82485 0.799819 3.66441 0.799805 3.49902C0.799805 3.33362 0.859056 3.17321 0.96582 3.04688C1.07247 2.92086 1.22005 2.83621 1.38281 2.80859H1.38379C1.74004 2.74905 2.06886 2.57966 2.32422 2.32422C2.57956 2.06876 2.74919 1.74006 2.80859 1.38379V1.38281C2.83625 1.21996 2.92072 1.07247 3.04688 0.96582C3.17311 0.859145 3.33279 0.799902 3.49805 0.799805ZM3.49805 3.11328C3.38074 3.25301 3.25111 3.38178 3.11133 3.49902C3.25092 3.61611 3.38087 3.74428 3.49805 3.88379C3.61518 3.74428 3.74523 3.61612 3.88477 3.49902C3.74504 3.38178 3.6153 3.253 3.49805 3.11328Z" fill="var(--fill-0, #AAAAAA)" stroke="var(--stroke-0, #AAAAAA)" stroke-width="0.4"/>
<path id="Vector_2" d="M28.4973 21.7985C28.6624 21.7987 28.8223 21.8571 28.9485 21.9636C29.0747 22.0703 29.1591 22.2186 29.1867 22.3815V22.3825C29.2462 22.7388 29.4158 23.0675 29.6711 23.323C29.9265 23.5784 30.2553 23.7478 30.6115 23.8073C30.7548 23.8316 30.8877 23.8999 30.9905 24.0026C31.0931 24.1053 31.1615 24.2374 31.1858 24.3806C31.2011 24.4712 31.1985 24.5644 31.178 24.654C31.1574 24.7436 31.1189 24.8281 31.0656 24.903C31.0124 24.9779 30.9452 25.0417 30.8674 25.0905C30.7895 25.1394 30.7022 25.1729 30.6115 25.1882C30.2553 25.2477 29.9265 25.4171 29.6711 25.6726C29.4478 25.896 29.2898 26.1752 29.2141 26.4802L29.1867 26.613C29.1592 26.7761 29.0748 26.9242 28.9485 27.031C28.8222 27.1376 28.6625 27.1969 28.4973 27.197C28.3319 27.197 28.1715 27.1377 28.0451 27.031C27.9504 26.9509 27.8794 26.8476 27.8381 26.7321L27.8069 26.613C27.7475 26.2568 27.5778 25.928 27.3225 25.6726C27.0671 25.4171 26.7383 25.2477 26.3821 25.1882C26.219 25.1606 26.0708 25.0753 25.9641 24.9489C25.8574 24.8226 25.7981 24.6631 25.7981 24.4978C25.7981 24.3324 25.8573 24.1719 25.9641 24.0456C26.0708 23.9194 26.2191 23.8349 26.3821 23.8073L26.5139 23.78C26.8191 23.7042 27.0989 23.5466 27.3225 23.323C27.5778 23.0675 27.7474 22.7388 27.8069 22.3825V22.3815C27.8345 22.2186 27.9189 22.0703 28.0451 21.9636C28.1714 21.857 28.332 21.7985 28.4973 21.7985ZM28.4963 24.112C28.3791 24.2516 28.2492 24.3797 28.1096 24.4968C28.2494 24.614 28.379 24.7428 28.4963 24.8825C28.6136 24.7428 28.7433 24.614 28.883 24.4968C28.7435 24.3796 28.6134 24.2516 28.4963 24.112ZM9.59397 6.96846L9.69358 7.45869L9.79416 7.94795L9.83322 8.14131L9.64084 8.1833C9.61315 8.18933 9.12363 8.29936 8.64475 8.70284C8.17361 9.09995 7.69846 9.793 7.69846 10.9987V11.1989H6.29807V10.9987C6.29807 8.18295 8.29003 7.02649 9.35861 6.81221L9.55393 6.77315L9.59397 6.96846ZM11.6975 6.79854V8.19893H10.2981V6.79854H11.6975Z" fill="var(--fill-0, #AAAAAA)" stroke="var(--stroke-0, #AAAAAA)" stroke-width="0.4"/>
</g>
</svg>
