<svg preserveAspectRatio="none" width="100%" height="100%" overflow="visible" style="display: block;" viewBox="0 0 57 66" fill="none" xmlns="http://www.w3.org/2000/svg">
<g id="logo">
<path id="Vector" fill-rule="evenodd" clip-rule="evenodd" d="M7.83172 0.567057C6.98359 0.961308 5.66616 1.94822 4.90387 2.75986C4.14159 3.572 3.05598 5.28059 2.49108 6.55792C1.92669 7.83474 1.23483 10.3791 0.954173 12.2121C0.673006 14.0446 0.289033 18.5515 0.100903 22.2267C-0.0990494 26.124 0.00530781 31.7874 0.350727 35.8158C0.6761 39.6143 1.38184 45.2814 1.91847 48.4092C2.45562 51.5364 3.3788 55.6573 3.97043 57.5653C4.71524 59.9673 5.64767 61.6677 7.00159 63.091C8.61303 64.7852 9.30129 65.1471 10.9086 65.1471C11.9814 65.1471 13.8688 64.6428 15.103 64.0265C16.3372 63.4102 18.9093 61.2704 20.8194 59.2719C22.7289 57.2729 24.8899 54.8374 25.6208 53.8598L26.9501 52.0813L28.6715 54.1168C29.6183 55.2358 31.6261 57.333 33.1337 58.7764C34.6408 60.2202 36.9996 62.0136 38.3756 62.7626C39.7511 63.511 41.8843 64.2532 43.1159 64.4115C44.8445 64.6336 45.8823 64.428 47.668 63.5094C49.5827 62.5246 50.2658 61.7448 51.6347 58.9789C52.8539 56.5157 53.5612 53.9497 54.3256 49.2126C54.8956 45.6787 55.5967 40.243 55.8841 37.1332C56.1709 34.0234 56.4053 29.1659 56.4053 26.3388C56.4053 23.5117 56.1719 18.7339 55.8861 15.7208C55.6003 12.7081 55.0179 9.25445 54.5913 8.04599C54.1647 6.83754 53.2292 5.07909 52.5111 4.13793C51.7935 3.19728 50.2489 1.93897 49.079 1.34219C47.3627 0.466822 46.3362 0.305936 43.7754 0.511542C41.5456 0.69042 39.6838 1.25481 37.5229 2.40621C35.8307 3.30831 32.9096 5.32172 31.0319 6.88022L27.6183 9.71347L23.9852 6.39806C21.9872 4.57433 19.0702 2.43345 17.5029 1.64084C15.8 0.778834 13.5908 0.128601 12.0132 0.0242556C10.4717 -0.0775197 8.73228 0.148134 7.83172 0.567057ZM9.38765 8.2552C8.95793 8.91058 8.37812 10.5878 8.09952 11.9818C7.82092 13.3758 7.43952 18.2174 7.25293 22.7407C7.03448 28.0335 7.13882 33.1639 7.54541 37.1332C7.8934 40.5257 8.60737 45.6977 9.13218 48.6261C9.69708 51.7755 10.446 54.3481 10.9667 54.9228C11.4504 55.4574 12.2831 55.8948 12.8167 55.8948C13.3502 55.8948 14.9447 54.8117 16.3603 53.4882C17.7754 52.164 19.7518 49.9661 20.752 48.6029L22.5711 46.1249L20.5387 42.9066C19.4207 41.1368 17.7815 38.2527 16.8954 36.4979C16.0097 34.743 15.285 32.7224 15.285 32.0079C15.285 31.2929 15.7476 30.2454 16.313 29.6799C16.8784 29.1145 17.8191 28.6519 18.403 28.6519C18.9869 28.6519 19.8931 28.8812 20.4169 29.1618C20.9407 29.4419 22.5424 31.899 23.9754 34.6217C25.409 37.3439 27.9144 41.4412 29.5433 43.7254C31.1717 46.0103 34.0635 49.5338 35.969 51.556C37.8744 53.5781 40.4918 55.7863 41.7856 56.4633L44.1372 57.6938L45.0532 56.5769C45.5575 55.9626 46.3475 53.5339 46.8101 51.1797C47.2722 48.8255 48.0294 43.7768 48.4925 39.9603C49.1273 34.725 49.2656 30.5594 49.0553 22.9977C48.9022 17.4849 48.5192 12.1175 48.2046 11.07C47.8901 10.0229 47.0569 8.71319 46.3532 8.1596C45.2655 7.30427 44.7859 7.23231 43.158 7.68105C42.1048 7.97147 40.0863 8.9779 38.6727 9.91804C37.2592 10.8582 35.2519 12.5087 34.2121 13.5861L32.322 15.5445L35.2915 20.2529C36.9245 22.8425 38.905 26.4781 39.693 28.3312C40.9688 31.333 41.0542 31.8717 40.4764 33.2673C40.0971 34.1827 39.3209 34.9604 38.6074 35.1393C37.9366 35.3079 36.8274 35.3048 36.1422 35.1331C35.1738 34.89 34.3344 33.6492 32.3668 29.5514C30.9748 26.6539 28.3723 22.3166 26.5825 19.9136C24.7932 17.5106 22.053 14.297 20.4935 12.7719C18.934 11.2473 16.6157 9.33875 15.3425 8.53123C14.0693 7.72371 12.3844 7.0632 11.5979 7.0632C10.6701 7.0632 9.89447 7.48161 9.38765 8.2552Z" fill="var(--fill-0, #FAFBFB)"/>
</g>
</svg>
