<svg width="35" height="41" viewBox="0 0 35 41" fill="none" xmlns="http://www.w3.org/2000/svg">
<path d="M17.1331 7.4541C17.4522 7.38005 17.7863 7.40292 18.092 7.52051C18.3979 7.63821 18.6617 7.84532 18.8489 8.11426C19.0355 8.38249 19.1382 8.70066 19.1428 9.02734L19.1399 9.18555C19.1295 9.34371 19.095 9.50014 19.0374 9.64844C18.9608 9.84509 18.8444 10.0233 18.6965 10.1738L18.6975 10.1748C18.5437 10.3378 18.3588 10.4686 18.1536 10.5586C17.948 10.6486 17.7256 10.6957 17.5012 10.6982H17.4983C17.0691 10.6926 16.6586 10.5209 16.3528 10.2197C16.047 9.91852 15.8689 9.51105 15.8567 9.08203V9.08105C15.8493 8.86982 15.8856 8.65893 15.9622 8.46191C16.039 8.2644 16.1552 8.08456 16.304 7.93359C16.5263 7.69482 16.8152 7.52791 17.1331 7.4541ZM0.931885 8.84277C1.10681 8.84277 1.27499 8.91244 1.39868 9.03613C1.52221 9.15978 1.59201 9.32717 1.59204 9.50195C1.59204 9.67688 1.52237 9.84506 1.39868 9.96875C1.27501 10.0923 1.10673 10.1611 0.931885 10.1611H0.854736C0.679836 10.1611 0.511625 10.0924 0.387939 9.96875C0.264249 9.84506 0.19458 9.67688 0.19458 9.50195C0.194609 9.32722 0.26448 9.15977 0.387939 9.03613C0.51163 8.91244 0.679811 8.84277 0.854736 8.84277H0.931885ZM2.37231 8.84277C2.54724 8.84277 2.71542 8.91244 2.83911 9.03613C2.96256 9.15976 3.03244 9.32723 3.03247 9.50195C3.03247 9.67688 2.9628 9.84506 2.83911 9.96875C2.71542 10.0924 2.54722 10.1611 2.37231 10.1611H2.32153C2.14661 10.1611 1.97843 10.0924 1.85474 9.96875C1.73108 9.84506 1.66235 9.67685 1.66235 9.50195C1.66238 9.32727 1.73134 9.15976 1.85474 9.03613C1.97843 8.91244 2.14661 8.84277 2.32153 8.84277H2.37231ZM4.38696 8.84277C4.56175 8.84287 4.72918 8.91253 4.85278 9.03613C4.97636 9.15978 5.04611 9.32713 5.04614 9.50195C5.04614 9.67688 4.97647 9.84506 4.85278 9.96875C4.72921 10.0922 4.56164 10.161 4.38696 10.1611H4.36255C4.18786 10.1611 4.02033 10.0922 3.89673 9.96875C3.77304 9.84506 3.70337 9.67688 3.70337 9.50195C3.7034 9.3271 3.77311 9.15979 3.89673 9.03613C4.02036 8.9125 4.18772 8.84284 4.36255 8.84277H4.38696ZM30.637 8.84277C30.8119 8.84277 30.9801 8.91244 31.1038 9.03613C31.2272 9.15976 31.2961 9.32726 31.2961 9.50195C31.2961 9.67687 31.2274 9.84506 31.1038 9.96875C30.9801 10.0924 30.8119 10.1611 30.637 10.1611H30.6135C30.4386 10.1611 30.2704 10.0924 30.1467 9.96875C30.023 9.84506 29.9534 9.67688 29.9534 9.50195C29.9534 9.32721 30.0232 9.15977 30.1467 9.03613C30.2704 8.91244 30.4386 8.84277 30.6135 8.84277H30.637ZM32.679 8.84277C32.8537 8.8429 33.0212 8.91256 33.1448 9.03613C33.2683 9.15978 33.3381 9.32716 33.3381 9.50195C33.3381 9.67688 33.2685 9.84506 33.1448 9.96875C33.0212 10.0922 32.8536 10.161 32.679 10.1611H32.6272C32.4525 10.161 32.285 10.0922 32.1614 9.96875C32.0377 9.84506 31.968 9.67688 31.968 9.50195C31.968 9.32712 32.0378 9.15979 32.1614 9.03613C32.285 8.91252 32.4524 8.84286 32.6272 8.84277H32.679ZM34.1458 8.84277C34.3205 8.84287 34.488 8.91253 34.6116 9.03613C34.7352 9.15979 34.8049 9.32713 34.8049 9.50195C34.8049 9.67688 34.7353 9.84506 34.6116 9.96875C34.488 10.0922 34.3204 10.161 34.1458 10.1611H34.0676C33.8927 10.1611 33.7245 10.0924 33.6008 9.96875C33.4772 9.84507 33.4084 9.67686 33.4084 9.50195C33.4085 9.32726 33.4774 9.15975 33.6008 9.03613C33.7245 8.91244 33.8927 8.84277 34.0676 8.84277H34.1458ZM17.5002 8.73047C17.4077 8.73596 17.3204 8.77778 17.2571 8.8457L17.2532 8.85059C17.2289 8.87433 17.2088 8.90236 17.1956 8.93359C17.1829 8.96349 17.1758 8.99588 17.175 9.02832C17.1847 9.21549 17.3118 9.37584 17.4963 9.37793C17.59 9.37321 17.6784 9.33333 17.7424 9.26465L17.7473 9.25977C17.7716 9.23596 17.7907 9.2071 17.804 9.17578C17.8167 9.14573 17.8228 9.11365 17.8235 9.08105C17.8135 8.893 17.6863 8.73161 17.5002 8.73145V8.73047Z" fill="#AAAAAA" stroke="#AAAAAA" stroke-width="0.3"/>
<mask id="path-2-outside-1_464_5407" maskUnits="userSpaceOnUse" x="1.71436" y="-0.5" width="31" height="42" fill="black">
<rect fill="white" x="1.71436" y="-0.5" width="31" height="42"/>
<path d="M27.4991 10.0117H28.6636C28.7987 10.0117 28.9283 9.95799 29.0239 9.86243C29.1194 9.76687 29.1731 9.63727 29.1731 9.50212C29.1731 9.36698 29.1194 9.23737 29.0239 9.14181C28.9283 9.04625 28.7987 8.99257 28.6636 8.99257H27.2572C26.9201 7.11002 27.1281 5.01015 27.8745 2.60217C28.014 2.13662 28.1903 1.6829 28.4017 1.24531C28.4422 1.16764 28.462 1.08084 28.4592 0.993281C28.4564 0.905722 28.4311 0.820362 28.3857 0.745444C28.3403 0.670525 28.2763 0.608579 28.2 0.565585C28.1237 0.522592 28.0376 0.500003 27.9499 0.5H7.04973C6.96218 0.499998 6.87611 0.522553 6.79981 0.565492C6.72351 0.608431 6.65957 0.670303 6.61414 0.745144C6.56871 0.819985 6.54333 0.905269 6.54044 0.992772C6.53756 1.08027 6.55727 1.16704 6.59767 1.24471C6.80925 1.68252 6.98566 2.13646 7.12523 2.60225C7.87173 5.01057 8.07971 7.11028 7.7423 8.99257H6.33619C6.20105 8.99257 6.07144 9.04625 5.97588 9.14181C5.88032 9.23737 5.82663 9.36698 5.82663 9.50212C5.82663 9.63727 5.88032 9.76687 5.97588 9.86243C6.07144 9.95799 6.20105 10.0117 6.33619 10.0117H7.50035C7.19085 11.036 6.71142 12.001 6.08209 12.8664C3.85067 15.9741 2.71725 18.2338 2.71436 21.9607C2.71122 25.5124 3.6995 30.2849 5.49381 38.9485L5.72532 40.0801C5.74844 40.1963 5.8104 40.3012 5.90103 40.3775C5.99167 40.4538 6.10556 40.497 6.224 40.5H28.7758C28.8943 40.4971 29.0083 40.4539 29.099 40.3776C29.1897 40.3013 29.2517 40.1964 29.2749 40.0801L29.5064 38.9553C31.3004 30.2919 32.289 25.5158 32.2855 21.9641C32.2823 18.2372 31.1488 15.9758 28.9177 12.8681C28.288 12.0022 27.8085 11.0366 27.4991 10.0117ZM6.90969 13.4607C7.66759 12.4217 8.22901 11.2527 8.56625 10.0117H10.4271L9.53534 10.9231C9.43971 11.0206 9.38615 11.1517 9.38615 11.2883C9.38615 11.4248 9.43971 11.556 9.53534 11.6535C9.63031 11.7505 9.75984 11.8059 9.89559 11.8077C9.96238 11.8083 10.0286 11.7956 10.0905 11.7704C10.1523 11.7452 10.2086 11.708 10.2559 11.6609L12.0175 9.90127C12.0649 9.85402 12.1024 9.79791 12.128 9.73614C12.1537 9.67436 12.1668 9.60815 12.1668 9.54127C12.1668 9.4744 12.1537 9.40818 12.128 9.34641C12.1024 9.28464 12.0649 9.22852 12.0175 9.18127L10.2563 7.42059C10.1607 7.32504 10.0311 7.27136 9.89598 7.27136C9.76084 7.27136 9.63124 7.32504 9.53568 7.42059C9.48847 7.46591 9.45091 7.52031 9.42525 7.58051C9.39959 7.64071 9.38636 7.70547 9.38636 7.77091C9.38636 7.83635 9.39959 7.90112 9.42525 7.96132C9.45091 8.02152 9.48847 8.07591 9.53568 8.12123L10.4271 8.99257H8.78375C9.10468 7.00284 8.87411 4.80183 8.09882 2.30042C8.0173 2.03692 7.92666 1.77632 7.82706 1.51911H27.173C27.088 1.73813 26.9946 2.00064 26.9012 2.30042C26.1259 4.80166 25.8953 7.00276 26.2163 8.99257H24.573L25.4647 8.12115C25.512 8.07483 25.5495 8.01954 25.5751 7.95853C25.6008 7.89751 25.614 7.832 25.614 7.76582C25.614 7.69964 25.6008 7.63412 25.5751 7.57311C25.5495 7.51209 25.512 7.45681 25.4647 7.41049C25.3685 7.31562 25.2385 7.26286 25.1034 7.2638C24.9683 7.26474 24.8391 7.3193 24.7442 7.4155L22.9824 9.17941C22.8868 9.27519 22.8331 9.405 22.8331 9.54034C22.8331 9.67568 22.8868 9.80549 22.9824 9.90127L24.7441 11.6631C24.8396 11.7587 24.9691 11.8124 25.1042 11.8125C25.2394 11.8126 25.369 11.759 25.4646 11.6636C25.5604 11.5641 25.6139 11.4314 25.6139 11.2933C25.6139 11.1552 25.5604 11.0225 25.4646 10.923L24.5728 10.0117H26.4336C26.7708 11.2528 27.3322 12.4217 28.0902 13.4607C28.3753 13.8577 28.6396 14.238 28.8843 14.6072L26.9255 14.9992C20.704 16.25 14.2958 16.25 8.07436 14.9992L6.11555 14.6072C6.36022 14.238 6.6246 13.8577 6.90969 13.4607ZM16.9904 39.4809H6.63878L6.49143 38.7555C4.97339 31.4256 4.02646 26.8456 3.79292 23.5234C8.56048 23.8178 13.9149 26.2386 14.8605 30.3533C14.9813 30.8572 15.2476 31.3143 15.6264 31.6679C16.0051 32.0215 16.4794 32.2558 16.9904 32.3418V39.4809ZM28.5084 38.7555L28.3611 39.4809H18.0095V32.317C18.4942 32.2132 18.9391 31.973 19.2919 31.6247C19.6447 31.2765 19.8906 30.8347 20.0006 30.3514C20.567 27.8614 22.6808 26.2732 24.3543 25.3794C26.337 24.3203 28.807 23.6533 31.2084 23.5065C30.9767 26.8299 30.0291 31.413 28.5084 38.7555ZM31.2579 22.476C28.6789 22.6176 26.0125 23.3383 23.8742 24.4802C21.2058 25.9055 19.5228 27.8575 19.0069 30.125C18.92 30.4777 18.7173 30.791 18.4312 31.0149C18.1451 31.2387 17.7923 31.3602 17.429 31.3598C17.0658 31.3595 16.7131 31.2373 16.4275 31.0128C16.1419 30.7884 15.9399 30.4746 15.8536 30.1217C15.3331 27.8572 13.6731 25.911 11.0529 24.4937C8.94587 23.3539 6.30553 22.6347 3.74239 22.4931C3.69466 20.6543 3.90808 19.2065 4.4133 17.8259L6.99504 18.3425C10.4536 19.0366 13.9724 19.3869 17.4999 19.3884C21.0276 19.3871 24.5465 19.0369 28.0052 18.3429L30.587 17.8263C31.0902 19.202 31.3038 20.6454 31.2579 22.476ZM30.1853 16.8672L27.8054 17.3436C21.0032 18.7111 13.9968 18.7111 7.19453 17.3436L4.81457 16.8672C5.0223 16.4256 5.26137 15.9835 5.53254 15.5296L7.87445 15.9983C11.0435 16.6342 14.2677 16.9551 17.4999 16.9563C20.7322 16.9551 23.9564 16.6342 27.1255 15.9983L29.4673 15.5296C29.7385 15.9835 29.9775 16.4258 30.1853 16.8672Z"/>
</mask>
<path d="M27.4991 10.0117H28.6636C28.7987 10.0117 28.9283 9.95799 29.0239 9.86243C29.1194 9.76687 29.1731 9.63727 29.1731 9.50212C29.1731 9.36698 29.1194 9.23737 29.0239 9.14181C28.9283 9.04625 28.7987 8.99257 28.6636 8.99257H27.2572C26.9201 7.11002 27.1281 5.01015 27.8745 2.60217C28.014 2.13662 28.1903 1.6829 28.4017 1.24531C28.4422 1.16764 28.462 1.08084 28.4592 0.993281C28.4564 0.905722 28.4311 0.820362 28.3857 0.745444C28.3403 0.670525 28.2763 0.608579 28.2 0.565585C28.1237 0.522592 28.0376 0.500003 27.9499 0.5H7.04973C6.96218 0.499998 6.87611 0.522553 6.79981 0.565492C6.72351 0.608431 6.65957 0.670303 6.61414 0.745144C6.56871 0.819985 6.54333 0.905269 6.54044 0.992772C6.53756 1.08027 6.55727 1.16704 6.59767 1.24471C6.80925 1.68252 6.98566 2.13646 7.12523 2.60225C7.87173 5.01057 8.07971 7.11028 7.7423 8.99257H6.33619C6.20105 8.99257 6.07144 9.04625 5.97588 9.14181C5.88032 9.23737 5.82663 9.36698 5.82663 9.50212C5.82663 9.63727 5.88032 9.76687 5.97588 9.86243C6.07144 9.95799 6.20105 10.0117 6.33619 10.0117H7.50035C7.19085 11.036 6.71142 12.001 6.08209 12.8664C3.85067 15.9741 2.71725 18.2338 2.71436 21.9607C2.71122 25.5124 3.6995 30.2849 5.49381 38.9485L5.72532 40.0801C5.74844 40.1963 5.8104 40.3012 5.90103 40.3775C5.99167 40.4538 6.10556 40.497 6.224 40.5H28.7758C28.8943 40.4971 29.0083 40.4539 29.099 40.3776C29.1897 40.3013 29.2517 40.1964 29.2749 40.0801L29.5064 38.9553C31.3004 30.2919 32.289 25.5158 32.2855 21.9641C32.2823 18.2372 31.1488 15.9758 28.9177 12.8681C28.288 12.0022 27.8085 11.0366 27.4991 10.0117ZM6.90969 13.4607C7.66759 12.4217 8.22901 11.2527 8.56625 10.0117H10.4271L9.53534 10.9231C9.43971 11.0206 9.38615 11.1517 9.38615 11.2883C9.38615 11.4248 9.43971 11.556 9.53534 11.6535C9.63031 11.7505 9.75984 11.8059 9.89559 11.8077C9.96238 11.8083 10.0286 11.7956 10.0905 11.7704C10.1523 11.7452 10.2086 11.708 10.2559 11.6609L12.0175 9.90127C12.0649 9.85402 12.1024 9.79791 12.128 9.73614C12.1537 9.67436 12.1668 9.60815 12.1668 9.54127C12.1668 9.4744 12.1537 9.40818 12.128 9.34641C12.1024 9.28464 12.0649 9.22852 12.0175 9.18127L10.2563 7.42059C10.1607 7.32504 10.0311 7.27136 9.89598 7.27136C9.76084 7.27136 9.63124 7.32504 9.53568 7.42059C9.48847 7.46591 9.45091 7.52031 9.42525 7.58051C9.39959 7.64071 9.38636 7.70547 9.38636 7.77091C9.38636 7.83635 9.39959 7.90112 9.42525 7.96132C9.45091 8.02152 9.48847 8.07591 9.53568 8.12123L10.4271 8.99257H8.78375C9.10468 7.00284 8.87411 4.80183 8.09882 2.30042C8.0173 2.03692 7.92666 1.77632 7.82706 1.51911H27.173C27.088 1.73813 26.9946 2.00064 26.9012 2.30042C26.1259 4.80166 25.8953 7.00276 26.2163 8.99257H24.573L25.4647 8.12115C25.512 8.07483 25.5495 8.01954 25.5751 7.95853C25.6008 7.89751 25.614 7.832 25.614 7.76582C25.614 7.69964 25.6008 7.63412 25.5751 7.57311C25.5495 7.51209 25.512 7.45681 25.4647 7.41049C25.3685 7.31562 25.2385 7.26286 25.1034 7.2638C24.9683 7.26474 24.8391 7.3193 24.7442 7.4155L22.9824 9.17941C22.8868 9.27519 22.8331 9.405 22.8331 9.54034C22.8331 9.67568 22.8868 9.80549 22.9824 9.90127L24.7441 11.6631C24.8396 11.7587 24.9691 11.8124 25.1042 11.8125C25.2394 11.8126 25.369 11.759 25.4646 11.6636C25.5604 11.5641 25.6139 11.4314 25.6139 11.2933C25.6139 11.1552 25.5604 11.0225 25.4646 10.923L24.5728 10.0117H26.4336C26.7708 11.2528 27.3322 12.4217 28.0902 13.4607C28.3753 13.8577 28.6396 14.238 28.8843 14.6072L26.9255 14.9992C20.704 16.25 14.2958 16.25 8.07436 14.9992L6.11555 14.6072C6.36022 14.238 6.6246 13.8577 6.90969 13.4607ZM16.9904 39.4809H6.63878L6.49143 38.7555C4.97339 31.4256 4.02646 26.8456 3.79292 23.5234C8.56048 23.8178 13.9149 26.2386 14.8605 30.3533C14.9813 30.8572 15.2476 31.3143 15.6264 31.6679C16.0051 32.0215 16.4794 32.2558 16.9904 32.3418V39.4809ZM28.5084 38.7555L28.3611 39.4809H18.0095V32.317C18.4942 32.2132 18.9391 31.973 19.2919 31.6247C19.6447 31.2765 19.8906 30.8347 20.0006 30.3514C20.567 27.8614 22.6808 26.2732 24.3543 25.3794C26.337 24.3203 28.807 23.6533 31.2084 23.5065C30.9767 26.8299 30.0291 31.413 28.5084 38.7555ZM31.2579 22.476C28.6789 22.6176 26.0125 23.3383 23.8742 24.4802C21.2058 25.9055 19.5228 27.8575 19.0069 30.125C18.92 30.4777 18.7173 30.791 18.4312 31.0149C18.1451 31.2387 17.7923 31.3602 17.429 31.3598C17.0658 31.3595 16.7131 31.2373 16.4275 31.0128C16.1419 30.7884 15.9399 30.4746 15.8536 30.1217C15.3331 27.8572 13.6731 25.911 11.0529 24.4937C8.94587 23.3539 6.30553 22.6347 3.74239 22.4931C3.69466 20.6543 3.90808 19.2065 4.4133 17.8259L6.99504 18.3425C10.4536 19.0366 13.9724 19.3869 17.4999 19.3884C21.0276 19.3871 24.5465 19.0369 28.0052 18.3429L30.587 17.8263C31.0902 19.202 31.3038 20.6454 31.2579 22.476ZM30.1853 16.8672L27.8054 17.3436C21.0032 18.7111 13.9968 18.7111 7.19453 17.3436L4.81457 16.8672C5.0223 16.4256 5.26137 15.9835 5.53254 15.5296L7.87445 15.9983C11.0435 16.6342 14.2677 16.9551 17.4999 16.9563C20.7322 16.9551 23.9564 16.6342 27.1255 15.9983L29.4673 15.5296C29.7385 15.9835 29.9775 16.4258 30.1853 16.8672Z" fill="#AAAAAA"/>
<path d="M27.4991 10.0117H28.6636C28.7987 10.0117 28.9283 9.95799 29.0239 9.86243C29.1194 9.76687 29.1731 9.63727 29.1731 9.50212C29.1731 9.36698 29.1194 9.23737 29.0239 9.14181C28.9283 9.04625 28.7987 8.99257 28.6636 8.99257H27.2572C26.9201 7.11002 27.1281 5.01015 27.8745 2.60217C28.014 2.13662 28.1903 1.6829 28.4017 1.24531C28.4422 1.16764 28.462 1.08084 28.4592 0.993281C28.4564 0.905722 28.4311 0.820362 28.3857 0.745444C28.3403 0.670525 28.2763 0.608579 28.2 0.565585C28.1237 0.522592 28.0376 0.500003 27.9499 0.5H7.04973C6.96218 0.499998 6.87611 0.522553 6.79981 0.565492C6.72351 0.608431 6.65957 0.670303 6.61414 0.745144C6.56871 0.819985 6.54333 0.905269 6.54044 0.992772C6.53756 1.08027 6.55727 1.16704 6.59767 1.24471C6.80925 1.68252 6.98566 2.13646 7.12523 2.60225C7.87173 5.01057 8.07971 7.11028 7.7423 8.99257H6.33619C6.20105 8.99257 6.07144 9.04625 5.97588 9.14181C5.88032 9.23737 5.82663 9.36698 5.82663 9.50212C5.82663 9.63727 5.88032 9.76687 5.97588 9.86243C6.07144 9.95799 6.20105 10.0117 6.33619 10.0117H7.50035C7.19085 11.036 6.71142 12.001 6.08209 12.8664C3.85067 15.9741 2.71725 18.2338 2.71436 21.9607C2.71122 25.5124 3.6995 30.2849 5.49381 38.9485L5.72532 40.0801C5.74844 40.1963 5.8104 40.3012 5.90103 40.3775C5.99167 40.4538 6.10556 40.497 6.224 40.5H28.7758C28.8943 40.4971 29.0083 40.4539 29.099 40.3776C29.1897 40.3013 29.2517 40.1964 29.2749 40.0801L29.5064 38.9553C31.3004 30.2919 32.289 25.5158 32.2855 21.9641C32.2823 18.2372 31.1488 15.9758 28.9177 12.8681C28.288 12.0022 27.8085 11.0366 27.4991 10.0117ZM6.90969 13.4607C7.66759 12.4217 8.22901 11.2527 8.56625 10.0117H10.4271L9.53534 10.9231C9.43971 11.0206 9.38615 11.1517 9.38615 11.2883C9.38615 11.4248 9.43971 11.556 9.53534 11.6535C9.63031 11.7505 9.75984 11.8059 9.89559 11.8077C9.96238 11.8083 10.0286 11.7956 10.0905 11.7704C10.1523 11.7452 10.2086 11.708 10.2559 11.6609L12.0175 9.90127C12.0649 9.85402 12.1024 9.79791 12.128 9.73614C12.1537 9.67436 12.1668 9.60815 12.1668 9.54127C12.1668 9.4744 12.1537 9.40818 12.128 9.34641C12.1024 9.28464 12.0649 9.22852 12.0175 9.18127L10.2563 7.42059C10.1607 7.32504 10.0311 7.27136 9.89598 7.27136C9.76084 7.27136 9.63124 7.32504 9.53568 7.42059C9.48847 7.46591 9.45091 7.52031 9.42525 7.58051C9.39959 7.64071 9.38636 7.70547 9.38636 7.77091C9.38636 7.83635 9.39959 7.90112 9.42525 7.96132C9.45091 8.02152 9.48847 8.07591 9.53568 8.12123L10.4271 8.99257H8.78375C9.10468 7.00284 8.87411 4.80183 8.09882 2.30042C8.0173 2.03692 7.92666 1.77632 7.82706 1.51911H27.173C27.088 1.73813 26.9946 2.00064 26.9012 2.30042C26.1259 4.80166 25.8953 7.00276 26.2163 8.99257H24.573L25.4647 8.12115C25.512 8.07483 25.5495 8.01954 25.5751 7.95853C25.6008 7.89751 25.614 7.832 25.614 7.76582C25.614 7.69964 25.6008 7.63412 25.5751 7.57311C25.5495 7.51209 25.512 7.45681 25.4647 7.41049C25.3685 7.31562 25.2385 7.26286 25.1034 7.2638C24.9683 7.26474 24.8391 7.3193 24.7442 7.4155L22.9824 9.17941C22.8868 9.27519 22.8331 9.405 22.8331 9.54034C22.8331 9.67568 22.8868 9.80549 22.9824 9.90127L24.7441 11.6631C24.8396 11.7587 24.9691 11.8124 25.1042 11.8125C25.2394 11.8126 25.369 11.759 25.4646 11.6636C25.5604 11.5641 25.6139 11.4314 25.6139 11.2933C25.6139 11.1552 25.5604 11.0225 25.4646 10.923L24.5728 10.0117H26.4336C26.7708 11.2528 27.3322 12.4217 28.0902 13.4607C28.3753 13.8577 28.6396 14.238 28.8843 14.6072L26.9255 14.9992C20.704 16.25 14.2958 16.25 8.07436 14.9992L6.11555 14.6072C6.36022 14.238 6.6246 13.8577 6.90969 13.4607ZM16.9904 39.4809H6.63878L6.49143 38.7555C4.97339 31.4256 4.02646 26.8456 3.79292 23.5234C8.56048 23.8178 13.9149 26.2386 14.8605 30.3533C14.9813 30.8572 15.2476 31.3143 15.6264 31.6679C16.0051 32.0215 16.4794 32.2558 16.9904 32.3418V39.4809ZM28.5084 38.7555L28.3611 39.4809H18.0095V32.317C18.4942 32.2132 18.9391 31.973 19.2919 31.6247C19.6447 31.2765 19.8906 30.8347 20.0006 30.3514C20.567 27.8614 22.6808 26.2732 24.3543 25.3794C26.337 24.3203 28.807 23.6533 31.2084 23.5065C30.9767 26.8299 30.0291 31.413 28.5084 38.7555ZM31.2579 22.476C28.6789 22.6176 26.0125 23.3383 23.8742 24.4802C21.2058 25.9055 19.5228 27.8575 19.0069 30.125C18.92 30.4777 18.7173 30.791 18.4312 31.0149C18.1451 31.2387 17.7923 31.3602 17.429 31.3598C17.0658 31.3595 16.7131 31.2373 16.4275 31.0128C16.1419 30.7884 15.9399 30.4746 15.8536 30.1217C15.3331 27.8572 13.6731 25.911 11.0529 24.4937C8.94587 23.3539 6.30553 22.6347 3.74239 22.4931C3.69466 20.6543 3.90808 19.2065 4.4133 17.8259L6.99504 18.3425C10.4536 19.0366 13.9724 19.3869 17.4999 19.3884C21.0276 19.3871 24.5465 19.0369 28.0052 18.3429L30.587 17.8263C31.0902 19.202 31.3038 20.6454 31.2579 22.476ZM30.1853 16.8672L27.8054 17.3436C21.0032 18.7111 13.9968 18.7111 7.19453 17.3436L4.81457 16.8672C5.0223 16.4256 5.26137 15.9835 5.53254 15.5296L7.87445 15.9983C11.0435 16.6342 14.2677 16.9551 17.4999 16.9563C20.7322 16.9551 23.9564 16.6342 27.1255 15.9983L29.4673 15.5296C29.7385 15.9835 29.9775 16.4258 30.1853 16.8672Z" stroke="#AAAAAA" stroke-width="0.6" mask="url(#path-2-outside-1_464_5407)"/>
<path d="M6.47705 30.7407C6.5622 30.7582 6.64343 30.7924 6.71533 30.8413C6.78718 30.8902 6.8484 30.9532 6.896 31.0259C6.94354 31.0985 6.97662 31.1798 6.99268 31.2651L7.38916 33.271C7.53972 34.0191 7.71224 34.8609 7.91357 35.8394C7.93103 35.9242 7.93089 36.0121 7.91455 36.0972C7.89819 36.1821 7.86544 36.2632 7.81787 36.3354C7.77028 36.4076 7.70877 36.4695 7.63721 36.5181C7.56551 36.5667 7.48474 36.6012 7.3999 36.6187C7.31527 36.636 7.22793 36.6368 7.14307 36.6206C7.05808 36.6043 6.97707 36.5705 6.90479 36.5229C6.83245 36.4753 6.76979 36.414 6.72119 36.3423C6.67264 36.2706 6.63903 36.1898 6.62158 36.105C6.21803 34.1439 5.93284 32.7288 5.69775 31.5171L5.68506 31.3882C5.68499 31.3448 5.68827 31.3011 5.69678 31.2583C5.71375 31.1731 5.748 31.0922 5.79639 31.02C5.84478 30.9478 5.90661 30.8855 5.979 30.8374C6.0514 30.7894 6.13297 30.7563 6.21826 30.7397C6.30363 30.7232 6.39186 30.7232 6.47705 30.7407ZM6.06104 28.481C6.14565 28.4995 6.22627 28.534 6.29736 28.5835C6.36831 28.6329 6.4284 28.6963 6.4751 28.769C6.52184 28.842 6.55454 28.924 6.56982 29.0093C6.59372 29.1424 6.61821 29.2775 6.64307 29.4136C6.65854 29.4986 6.65638 29.5859 6.63818 29.6704C6.61996 29.755 6.58584 29.8355 6.53662 29.9067C6.48737 29.978 6.42384 30.0385 6.35107 30.0854C6.27835 30.1324 6.19696 30.1637 6.11182 30.1792L6.11279 30.1802C6.02755 30.1959 5.93973 30.1944 5.85498 30.1763C5.77032 30.1581 5.6899 30.1239 5.61865 30.0747C5.54735 30.0254 5.48691 29.962 5.43994 29.8892C5.39299 29.8163 5.36066 29.7352 5.34521 29.6499C5.32007 29.5123 5.29513 29.3763 5.271 29.2417C5.25572 29.1564 5.25737 29.0685 5.27588 28.9839C5.29439 28.8995 5.32911 28.8194 5.37842 28.7485C5.42787 28.6775 5.4911 28.6166 5.56396 28.5698C5.63688 28.5231 5.71894 28.4914 5.8042 28.4761C5.88931 28.4609 5.97657 28.4625 6.06104 28.481Z" fill="#AAAAAA" stroke="#AAAAAA" stroke-width="0.3"/>
</svg>
