<svg width="40" height="40" viewBox="0 0 40 40" fill="none" xmlns="http://www.w3.org/2000/svg">
<path d="M33.75 0H6.25C2.79992 0.00414062 0.00414062 2.79992 0 6.25V33.75C0.00414062 37.2001 2.79992 39.9959 6.25 40H33.75C37.2001 39.9959 39.9959 37.2001 40 33.75V6.25C39.9959 2.79992 37.2001 0.00414062 33.75 0ZM37.5 33.75C37.5 35.8211 35.8211 37.5 33.75 37.5H21.25V30H18.75V37.5H6.25C4.17891 37.5 2.5 35.8211 2.5 33.75V6.25C2.5 4.17891 4.17891 2.5 6.25 2.5H33.75C35.8211 2.5 37.5 4.17891 37.5 6.25V33.75Z" fill="white"/>
<path d="M20.0001 7.50001H20.1501L20.1776 5.00001H20.0001C19.1606 4.99907 18.3221 5.05923 17.4913 5.18001L17.8526 7.65376C18.5638 7.55113 19.2815 7.49975 20.0001 7.50001ZM15.6251 8.16876L14.8613 5.79376C14.0001 6.06956 13.1637 6.41789 12.3613 6.83501L13.5138 9.05376C14.1916 8.70018 14.8978 8.40414 15.6251 8.16876Z" fill="white"/>
<path d="M22.8549 5.23364L22.4424 7.69989C25.2136 8.14971 27.7724 9.46193 29.7549 11.4499L26.7274 17.4999H22.3349L26.0399 11.9436L23.9599 10.5561L19.3311 17.4999H13.2724L10.2499 11.4461C10.6663 11.0226 11.1129 10.63 11.5861 10.2711L10.0674 8.28114C9.20455 8.92021 8.42589 9.66569 7.74988 10.4999L7.28613 11.1249L11.7274 19.9999H28.2724L32.7161 11.1049L32.2386 10.4799C29.8415 7.6619 26.5109 5.79987 22.8549 5.23364Z" fill="white"/>
</svg>
