<svg width="41" height="41" viewBox="0 0 41 41" fill="none" xmlns="http://www.w3.org/2000/svg">
<path d="M32.513 24.1869C32.3157 24.187 32.1226 24.1296 31.9574 24.0215C31.7923 23.9135 31.6623 23.7596 31.5834 23.5787C31.5044 23.3979 31.48 23.1979 31.5132 23.0033C31.5463 22.8088 31.6355 22.6282 31.7698 22.4836C31.8907 22.3532 34.7771 19.2871 39.4829 19.2871C39.7517 19.2871 40.0095 19.3939 40.1996 19.5839C40.3896 19.774 40.4964 20.0318 40.4964 20.3006C40.4964 20.5694 40.3896 20.8271 40.1996 21.0172C40.0095 21.2073 39.7517 21.314 39.4829 21.314C35.6892 21.314 33.2799 23.8362 33.2562 23.8619C33.1616 23.9646 33.0467 24.0465 32.9187 24.1024C32.7908 24.1584 32.6526 24.1871 32.513 24.1869Z" fill="#AAAAAA"/>
<path d="M14.7854 28.2107C14.6071 28.2105 14.4319 28.1632 14.2776 28.0736C14.1234 27.984 13.9955 27.8552 13.9069 27.7004C13.8183 27.5455 13.7722 27.37 13.7732 27.1917C13.7742 27.0133 13.8222 26.8383 13.9125 26.6844C16.5252 22.2292 19.6933 19.6962 23.3276 19.1544C28.7091 18.353 33.0197 22.2589 33.2008 22.4258C33.2988 22.516 33.3781 22.6247 33.4341 22.7455C33.4901 22.8664 33.5218 22.9971 33.5272 23.1302C33.5327 23.2632 33.5119 23.3961 33.4659 23.5211C33.42 23.6462 33.3499 23.7609 33.2596 23.8589C33.1693 23.9568 33.0606 24.036 32.9397 24.0918C32.8188 24.1477 32.6881 24.1792 32.555 24.1846C32.4219 24.1899 32.2891 24.169 32.1641 24.1229C32.0391 24.0769 31.9244 24.0067 31.8266 23.9163C31.7907 23.8832 28.0261 20.4955 23.6114 21.1617C20.6196 21.613 17.9448 23.8163 15.6604 27.71C15.5709 27.8626 15.4431 27.989 15.2896 28.0769C15.1361 28.1647 14.9623 28.2108 14.7854 28.2107ZM26.8869 35.1536C25.5816 35.1536 24.1033 34.9361 22.4695 34.3672C22.2175 34.277 22.0113 34.0909 21.896 33.8493C21.7806 33.6077 21.7655 33.3303 21.8539 33.0777C21.9423 32.825 22.127 32.6175 22.3678 32.5005C22.6086 32.3835 22.8858 32.3664 23.1391 32.4531C29.6145 34.707 33.1015 30.5788 33.1387 30.5369C33.2207 30.4275 33.3241 30.3358 33.4425 30.2674C33.5609 30.1989 33.692 30.1552 33.8278 30.1387C33.9636 30.1223 34.1013 30.1335 34.2326 30.1717C34.364 30.2099 34.4862 30.2743 34.592 30.3611C34.6978 30.4478 34.7849 30.555 34.8482 30.6763C34.9114 30.7976 34.9495 30.9304 34.96 31.0668C34.9705 31.2032 34.9534 31.3403 34.9095 31.4698C34.8656 31.5994 34.796 31.7187 34.7048 31.8207C34.6589 31.8761 33.5609 33.1956 31.4989 34.1537C30.0532 34.8205 28.4789 35.1618 26.8869 35.1536ZM17.8515 19.4266C17.7654 19.4265 17.6796 19.4156 17.5961 19.3942C17.4673 19.3608 17.3463 19.3023 17.2401 19.2221C17.1338 19.1419 17.0444 19.0415 16.977 18.9268C16.9096 18.812 16.8654 18.6851 16.847 18.5533C16.8286 18.4214 16.8363 18.2873 16.8698 18.1585L19.4373 8.28323C19.4653 8.14886 19.5203 8.02158 19.599 7.90911C19.6776 7.79664 19.7783 7.70132 19.895 7.62893C20.0116 7.55655 20.1417 7.50861 20.2774 7.48803C20.4131 7.46744 20.5516 7.47463 20.6844 7.50917C20.8173 7.54371 20.9417 7.60488 21.0502 7.68896C21.1587 7.77303 21.249 7.87828 21.3156 7.9983C21.3822 8.11832 21.4237 8.25061 21.4376 8.38716C21.4516 8.52372 21.4376 8.66167 21.3966 8.79267L18.8292 18.6679C18.7729 18.8846 18.6465 19.0766 18.4696 19.2138C18.2927 19.3511 18.0754 19.4259 17.8515 19.4266Z" fill="#AAAAAA"/>
<path d="M23.979 40.5C18.8306 40.5 14.5294 38.9636 11.7627 37.6278C9.86314 36.7184 7.85468 36.0567 5.78658 35.659C3.4306 35.1989 1.7773 34.1577 1.00639 32.6477C0.22129 31.1112 0.356419 29.1681 1.40705 26.8722C3.82991 19.4564 9.47019 10.5318 13.7808 4.34423C14.3718 3.49725 15.1338 2.78363 16.0177 2.24945C16.9016 1.71527 17.8877 1.37242 18.9123 1.24302L24.558 0.531564C25.5721 0.4031 26.5967 0.669788 27.4195 1.27634C28.2423 1.8829 28.8002 2.78281 28.9774 3.78952L29.4801 6.63669C29.5816 7.21286 29.5386 7.80521 29.355 8.36069C29.1713 8.91616 28.8528 9.41741 28.4278 9.81953C28.0029 10.2216 27.4848 10.5121 26.92 10.6648C26.3553 10.8175 25.7615 10.8278 25.1918 10.6946L20.1839 9.52507C20.0535 9.49555 19.9303 9.44052 19.8212 9.36317C19.7122 9.28582 19.6195 9.18767 19.5486 9.07437C19.4777 8.96106 19.4298 8.83485 19.4079 8.70298C19.3859 8.57112 19.3902 8.43621 19.4206 8.30603C19.451 8.17585 19.5068 8.05297 19.5849 7.94445C19.663 7.83593 19.7617 7.74393 19.8755 7.67374C19.9893 7.60355 20.1158 7.55655 20.2478 7.53546C20.3798 7.51437 20.5147 7.51959 20.6447 7.55084L25.6526 8.72038C25.896 8.77796 26.1499 8.77415 26.3915 8.70928C26.6331 8.6444 26.8548 8.5205 27.0366 8.34872C27.2184 8.17694 27.3547 7.96265 27.4332 7.72514C27.5117 7.48763 27.5299 7.23433 27.4862 6.98802L26.9836 4.14086C26.8963 3.64649 26.6222 3.20462 26.2181 2.90678C25.814 2.60894 25.3108 2.47795 24.8127 2.54093L19.165 3.25103C18.4218 3.34504 17.7066 3.59392 17.0656 3.98158C16.4245 4.36925 15.872 4.88707 15.4436 5.50161C11.2005 11.5932 5.65212 20.3658 3.31574 27.5546C3.30351 27.5931 3.28885 27.6308 3.27183 27.6675C2.47254 29.3937 2.31782 30.7586 2.81171 31.7254C3.41506 32.9064 4.97377 33.4348 6.17575 33.6692C8.4143 34.1003 10.5883 34.817 12.6444 35.8016C17.286 38.0434 26.5924 40.8946 36.7649 34.8036C36.8791 34.7353 37.0056 34.6901 37.1373 34.6706C37.2689 34.6511 37.4031 34.6578 37.5322 34.6902C37.6613 34.7226 37.7827 34.7801 37.8896 34.8595C37.9965 34.9388 38.0867 35.0384 38.155 35.1526C38.2234 35.2668 38.2686 35.3933 38.288 35.525C38.3075 35.6567 38.3008 35.7909 38.2684 35.9199C38.236 36.049 38.1785 36.1705 38.0992 36.2773C38.0198 36.3842 37.9202 36.4744 37.806 36.5427C32.8867 39.4865 28.1538 40.5 23.979 40.5Z" fill="#AAAAAA"/>
</svg>
