<svg width="34" height="40" viewBox="0 0 34 40" fill="none" xmlns="http://www.w3.org/2000/svg">
<path fill-rule="evenodd" clip-rule="evenodd" d="M7.00004 8.09524C7.00004 6.70601 7.55191 5.37368 8.53424 4.39135C9.51658 3.40901 10.8489 2.85714 12.2381 2.85714H21.7619C23.1512 2.85714 24.4835 3.40901 25.4658 4.39135C26.4482 5.37368 27 6.70601 27 8.09524V15.7143C27 16.5029 27.64 17.1429 28.4286 17.1429H32.2381C32.617 17.1429 32.9804 16.9923 33.2483 16.7244C33.5162 16.4565 33.6667 16.0932 33.6667 15.7143V8.09524C33.6667 7.71636 33.5162 7.35299 33.2483 7.08509C32.9804 6.81718 32.617 6.66667 32.2381 6.66667H29.7315C29.3959 4.79719 28.4139 3.10516 26.957 1.88649C25.5002 0.667816 23.6613 6.11109e-05 21.7619 2.89672e-08H12.2381C10.1735 -0.000174527 8.18674 0.78856 6.68441 2.20485C5.18208 3.62114 4.27768 5.55795 4.15623 7.61905H1.76195C1.38306 7.61905 1.0197 7.76956 0.751793 8.03747C0.483884 8.30538 0.333374 8.66874 0.333374 9.04762V16.6667C0.333374 17.4552 0.973374 18.0952 1.76195 18.0952H5.57147C5.95035 18.0952 6.31371 17.9447 6.58162 17.6768C6.84953 17.4089 7.00004 17.0455 7.00004 16.6667V9.04762V8.09524ZM17 7.61905C15.3582 7.61905 13.7837 8.27126 12.6227 9.4322C11.4618 10.5931 10.8096 12.1677 10.8096 13.8095C10.8096 15.4513 11.4618 17.0259 12.6227 18.1869C13.7837 19.3478 15.3582 20 17 20C18.6419 20 20.2164 19.3478 21.3774 18.1869C22.5383 17.0259 23.1905 15.4513 23.1905 13.8095C23.1905 12.1677 22.5383 10.5931 21.3774 9.4322C20.2164 8.27126 18.6419 7.61905 17 7.61905ZM26.0477 13.8095C26.0487 15.1054 25.7708 16.3864 25.2327 17.5653C24.6947 18.7443 23.9092 19.7936 22.9296 20.6419C25.4997 21.4899 27.7368 23.127 29.3226 25.3202C30.9084 27.5133 31.762 30.1507 31.7619 32.8571V34.7619C31.7619 36.1511 31.2101 37.4835 30.2277 38.4658C29.2454 39.4481 27.9131 40 26.5239 40H7.47623C6.087 40 4.75467 39.4481 3.77234 38.4658C2.79 37.4835 2.23814 36.1511 2.23814 34.7619V32.8571C2.23851 30.1511 3.09231 27.514 4.67806 25.3213C6.26381 23.1285 8.50073 21.4917 11.0705 20.6438C9.92627 19.651 9.04964 18.3867 8.52104 16.967C7.99245 15.5472 7.82881 14.0175 8.04514 12.5181C8.26148 11.0186 8.85085 9.59756 9.75921 8.38514C10.6676 7.17273 11.8658 6.20781 13.244 5.5789C14.6223 4.95 16.1364 4.67723 17.6474 4.78563C19.1585 4.89403 20.6181 5.38012 21.8925 6.19932C23.1668 7.01852 24.2151 8.1446 24.9411 9.47425C25.6671 10.8039 26.0476 12.2946 26.0477 13.8095ZM15.0953 22.8571H18.9048C24.4286 22.8571 28.9048 27.3333 28.9048 32.8571V34.7619C28.9048 36.0762 27.8381 37.1429 26.5239 37.1429H7.47623C6.16195 37.1429 5.09528 36.0762 5.09528 34.7619V32.8571C5.09528 27.3333 9.57147 22.8571 15.0953 22.8571Z" fill="#AAAAAA"/>
</svg>
