<svg width="40" height="40" viewBox="0 0 40 40" fill="none" xmlns="http://www.w3.org/2000/svg">
<path d="M29.8769 7.20235C30.5379 7.20235 31.0738 6.66649 31.0738 6.00547C31.0738 5.34445 30.5379 4.80859 29.8769 4.80859C29.2159 4.80859 28.6801 5.34445 28.6801 6.00547C28.6801 6.66649 29.2159 7.20235 29.8769 7.20235Z" fill="white"/>
<path d="M39.684 3.77392L39.4585 2.7865L37.2699 2.73025L37.2136 0.541649L36.2262 0.316102C33.8308 -0.231008 30.4514 -0.0607737 27.1861 0.771337C24.7539 1.39118 21.4072 2.63118 18.3534 5.08822C15.3592 5.16541 10.9157 7.17682 8.54163 9.55096C7.90304 10.1896 7.59109 11.006 7.63945 11.9124C7.70241 13.0932 8.39054 14.4232 9.6846 15.8654C9.92226 16.1296 10.1684 16.386 10.4225 16.6343C9.63539 19.0811 9.3557 21.4064 9.43835 23.4183C5.91382 23.1622 2.01584 24.4392 0.63701 26.0036C0.0309156 26.6911 -0.153694 27.5072 0.130681 28.2423C0.666542 29.6274 2.13998 29.8919 3.56506 30.1476C5.02694 30.4101 6.68405 30.7074 7.98827 32.0117C9.29249 33.316 9.58992 34.973 9.85234 36.4349C10.108 37.8599 10.3726 39.3334 11.7576 39.8693C11.9796 39.9556 12.2157 40 12.4539 40C12.9834 40 13.5206 39.7824 13.9964 39.363C15.5608 37.9841 16.8378 34.0865 16.5816 30.5616C16.8064 30.5708 17.0351 30.5756 17.2674 30.5756C19.1148 30.5755 21.1926 30.2765 23.3661 29.5772C23.6018 29.8194 23.8742 30.0858 24.1733 30.3541C25.6155 31.6482 26.9456 32.3363 28.1264 32.3993C28.1873 32.4026 28.2478 32.4041 28.3079 32.4041C29.1416 32.4041 29.8921 32.0926 30.4878 31.4969C32.8855 29.0993 34.9134 24.591 34.9525 21.5967C37.383 18.5564 38.6122 15.2327 39.2286 12.8139C40.0608 9.54878 40.2311 6.16932 39.684 3.77392ZM10.2443 11.7737C10.2354 11.6082 10.2727 11.5092 10.3862 11.3956C11.4805 10.3014 13.1946 9.26252 14.8982 8.56526C13.4365 10.3417 12.3132 12.1612 11.4762 13.9541C10.8127 13.1814 10.2754 12.3564 10.2443 11.7737ZM28.6432 29.6526C28.5298 29.7661 28.4307 29.8029 28.266 29.7946C27.6757 29.7637 26.8304 29.2058 26.0439 28.5244C27.8648 27.6747 29.7131 26.5301 31.5158 25.0351C30.8187 26.7732 29.7601 28.5358 28.6432 29.6526ZM36.701 12.1697C36.4598 13.116 36.1139 14.2171 35.6209 15.3814C32.8296 15.0375 30.2314 13.7746 28.2285 11.7715C26.8089 10.352 25.7746 8.67245 25.154 6.77955L22.6753 7.59213C23.4246 9.8776 24.6723 11.9043 26.384 13.616C28.5803 15.8124 31.3703 17.2703 34.3891 17.8289C33.6663 19.0503 32.7625 20.2727 31.6328 21.4023C29.1019 23.9331 26.1263 25.8462 23.0274 26.9349C20.3452 27.8772 17.5823 28.1893 15.2475 27.8134L13.2988 27.4999L13.7744 29.4155C14.1327 30.8586 14.0687 32.7267 13.5989 34.5405C13.2956 35.7119 12.9145 36.5126 12.6184 36.9751C12.5441 36.6677 12.4763 36.2887 12.4198 35.974C12.1226 34.318 11.7155 32.0498 9.83273 30.1671C7.94999 28.2844 5.68186 27.8772 4.02584 27.5801C3.71116 27.5236 3.33225 27.4555 3.02475 27.3814C3.48725 27.0854 4.28795 26.7042 5.45928 26.4009C7.27312 25.9311 9.14117 25.8671 10.5844 26.2254L12.5 26.701L12.1865 24.7523C11.8108 22.4176 12.1228 19.6547 13.065 16.9724C14.1536 13.8735 16.0667 10.8979 18.5976 8.36705C21.6093 5.35533 25.2806 3.94861 27.8303 3.29869C30.6002 2.59275 33.0196 2.50986 34.6596 2.69587L34.7258 5.27377L37.3037 5.34002C37.4898 6.98057 37.4068 9.39995 36.701 12.1697Z" fill="white"/>
</svg>
