<svg width="40" height="40" viewBox="0 0 40 40" fill="none" xmlns="http://www.w3.org/2000/svg">
<path d="M39.1663 8.39019C38.2059 3.92361 36.717 0.795548 36.6541 0.66461C36.3956 0.126327 35.7733 -0.131643 35.2097 0.0664827C35.0996 0.10492 32.4757 1.03539 29.17 3.00774C26.442 4.63588 22.7756 7.27933 20.0006 10.9679C19.3838 10.1464 18.7008 9.34566 17.9535 8.56871C16.2844 6.83409 14.2917 5.21385 12.0297 3.75267C8.19237 1.27344 4.9279 0.114764 4.79064 0.0664827C4.2272 -0.131643 3.60501 0.126249 3.34618 0.66461C3.28329 0.795548 1.79437 3.92361 0.833978 8.39019C0.268195 11.0226 0.00452195 13.5776 0.0508503 15.9842C0.109444 19.0265 0.666087 21.8405 1.70461 24.3478C2.74344 26.8555 4.33977 29.2389 6.44955 31.4316C8.11831 33.166 10.1113 34.7865 12.373 36.2476C16.2103 38.7269 19.4748 39.8859 19.6121 39.9341C19.8634 40.0219 20.137 40.0219 20.3882 39.9341C20.5252 39.8859 23.79 38.7269 27.6273 36.2476C29.889 34.7865 31.8818 33.1659 33.5508 31.4316C35.6604 29.2389 37.2569 26.8555 38.2953 24.3478C39.3342 21.8406 39.8905 19.0265 39.9491 15.9842C39.9958 13.5776 39.7321 11.0226 39.1663 8.39019ZM3.87016 23.4512C1.76812 18.3768 2.29852 12.7588 3.11336 8.93918C3.70508 6.1651 4.5297 3.90712 5.02712 2.68118C7.68854 3.80915 14.949 7.32995 18.9948 13.624C19.0063 13.6435 19.0188 13.663 19.0317 13.6819C19.6054 14.581 20.1132 15.5362 20.5328 16.5491C23.4513 23.5953 21.3906 31.6818 19.9798 35.7166L9.56105 10.5636C9.31362 9.96582 8.62792 9.6816 8.03002 9.92949C7.43221 10.1773 7.14807 10.8627 7.39588 11.4608L17.8144 36.6133C16.6391 36.0477 15.1611 35.2619 13.5965 34.2478C10.3195 32.1232 5.97189 28.5254 3.87016 23.4513V23.4512ZM36.1301 23.4512C34.0284 28.5254 29.6809 32.1231 26.4038 34.2478C24.8392 35.2622 23.3618 36.0474 22.1863 36.613L33.7983 8.57847C34.0461 7.98058 33.7619 7.29487 33.1641 7.04737C32.566 6.79987 31.8805 7.0837 31.633 7.68151L24.3515 25.261C24.4388 21.7404 23.8867 18.522 22.6981 15.6522C22.3313 14.7669 21.8948 13.8965 21.391 13.0451C23.9655 9.32644 27.6343 6.65885 30.3244 5.04846C32.2492 3.89611 33.95 3.11243 34.9729 2.68032C35.4704 3.90587 36.2949 6.16448 36.8869 8.93918C37.7018 12.7587 38.2323 18.3767 36.1301 23.4513V23.4512Z" fill="white"/>
</svg>
