<svg width="36" height="40" viewBox="0 0 36 40" fill="none" xmlns="http://www.w3.org/2000/svg">
<path d="M27.1536 9.22655C24.6925 8.8296 22.2366 9.35507 20.1563 10.709C20.7768 9.34553 21.7479 8.11241 23.0612 7.0253C24.6256 5.73031 26.11 5.14015 26.1221 5.13539C26.7365 4.89789 27.042 4.20726 26.8045 3.59289C26.567 2.97859 25.8766 2.67297 25.262 2.91055C25.074 2.9832 22.1195 4.15797 19.786 6.90054C19.6985 6.46882 19.5764 6.03429 19.4111 5.60351C18.0227 1.98664 14.2084 0.185397 14.0467 0.110475C13.9019 0.0433951 13.745 0.0060594 13.5855 0.000678255C13.426 -0.00470289 13.267 0.0219799 13.1179 0.0791471C12.9689 0.136372 12.8329 0.222916 12.718 0.333653C12.603 0.444391 12.5114 0.57707 12.4487 0.723833C12.3786 0.887817 10.7494 4.77859 12.1378 8.39546C12.2611 8.71548 12.4048 9.02724 12.5681 9.32881C11.3619 9.0621 10.105 9.02343 8.8466 9.22647C3.32849 10.1169 -0.458538 15.4429 0.404741 21.0994C1.01919 25.1257 1.91747 28.5839 3.07497 31.3777C4.3877 34.5466 6.04575 36.8764 8.00301 38.3027C9.55277 39.432 11.2791 40.0002 13.1525 40C13.6707 40 14.2005 39.9565 14.7406 39.8694C15.9869 39.6684 17.0787 39.2115 18.0001 38.5074C18.9215 39.2115 20.0134 39.6684 21.2596 39.8694C23.7516 40.2714 26.0186 39.7444 27.9971 38.3027C29.9544 36.8765 31.6125 34.5467 32.9251 31.3777C34.0826 28.5838 34.9809 25.1257 35.5954 21.0994C36.4587 15.4429 32.6716 10.1169 27.1536 9.22655ZM14.2361 2.98453C15.2235 3.66766 16.5617 4.83632 17.1843 6.45827C17.8031 8.07007 17.5888 9.84171 17.3129 11.0144C16.3256 10.3314 14.9874 9.16272 14.3648 7.54069C13.746 5.92898 13.9602 4.15742 14.2361 2.98453ZM33.2375 20.7396C32.0251 28.684 29.7274 34.0906 26.5924 36.3749C25.1266 37.4431 23.5064 37.8159 21.6394 37.5145C20.4952 37.33 19.5913 36.8638 18.876 36.0895C18.7643 35.9686 18.6288 35.8722 18.4781 35.8062C18.3273 35.7403 18.1645 35.7062 17.9999 35.7062C17.8354 35.7062 17.6726 35.7403 17.5218 35.8062C17.371 35.8722 17.2355 35.9686 17.1238 36.0895C16.4086 36.8638 15.5047 37.3299 14.3605 37.5145C12.4935 37.8156 10.8734 37.4431 9.40746 36.3749C6.27246 34.0906 3.97473 28.684 2.76239 20.7396C2.09591 16.3722 4.99567 12.2639 9.22629 11.5814C9.628 11.5164 10.0343 11.4836 10.4412 11.4835C12.0882 11.4835 13.6855 12.0246 15.036 13.0565C16.781 14.3899 19.2186 14.3899 20.9637 13.0565C22.6448 11.7721 24.7082 11.248 26.7734 11.5814H26.7735C31.0043 12.264 33.904 16.3723 33.2375 20.7396Z" fill="#AAAAAA"/>
</svg>
