<svg width="44" height="42" viewBox="0 0 44 42" fill="none" xmlns="http://www.w3.org/2000/svg">
<path d="M8.34302 1V7.34948M12.909 1V7.34948M17.4751 1V7.34948M22.0412 1V7.34948M32.4052 24.6328V36.7493M32.4052 26.6833H35.5706M32.4052 34.5894H35.5706M33.9879 30.6364H32.4052M40.9784 20.0504H23.9464C22.9758 20.0504 22.1889 19.2636 22.1889 18.293V17.2616C22.1889 16.291 22.9758 15.5042 23.9464 15.5042H40.9784C41.949 15.5042 42.7359 16.291 42.7359 17.2616V18.293C42.7359 19.2636 41.949 20.0504 40.9784 20.0504ZM33.3089 11.6137H38.3017V15.5042H33.3089V11.6137ZM24.2098 20.0504L25.9612 38.6079C26.0891 39.9639 27.2277 41 28.5897 41H36.2206C37.5827 41 38.7212 39.9639 38.8492 38.6079L40.6006 20.0504H24.2098Z" stroke="#AAAAAA" stroke-width="1.5" stroke-miterlimit="10" stroke-linecap="round" stroke-linejoin="round"/>
<path d="M29.0838 15.5038C29.0792 13.8935 28.6279 12.171 27.6743 10.87L26.311 9.00757C25.9348 8.49369 25.4428 8.07573 24.8749 7.78758C24.3069 7.49943 23.6791 7.34922 23.0422 7.34912H7.3423C6.70545 7.3492 6.07758 7.49941 5.50965 7.78756C4.94171 8.07571 4.4497 8.49368 4.07353 9.00757L2.70935 10.87C1.77056 12.153 1.2644 13.7015 1.26416 15.2913V37.6013C1.26416 39.4781 2.78597 41 4.66282 41H28.5899C27.2274 41 26.0892 39.9638 25.961 38.608L25.6988 35.8308L24.2098 20.0508H23.9468C22.9755 20.0508 22.1888 19.2633 22.1888 18.2929V17.2617C22.1888 16.2913 22.9755 15.5038 23.9468 15.5038H29.0838Z" stroke="#AAAAAA" stroke-width="1.5" stroke-miterlimit="10" stroke-linecap="round" stroke-linejoin="round"/>
<path d="M13.9583 15.5038H23.9468C22.9755 15.5038 22.1889 16.2913 22.1889 17.2617V18.2929C22.1889 19.2633 22.9755 20.0508 23.9468 20.0508H24.2099L25.6989 35.8308H1.26416V15.5038H6.54633M25.2169 7.34948H5.16731C4.29851 7.34948 3.59416 6.64513 3.59416 5.77633V2.57314C3.59416 1.70435 4.29851 1 5.16731 1H25.217C26.0858 1 26.7901 1.70435 26.7901 2.57314V5.77633C26.79 6.64521 26.0858 7.34948 25.2169 7.34948Z" stroke="#AAAAAA" stroke-width="1.5" stroke-miterlimit="10" stroke-linecap="round" stroke-linejoin="round"/>
<path d="M31.7835 11.6138H39.8373C41.4382 11.6138 42.7359 12.9115 42.7359 14.5124V17.7773M15.665 18.7801L11.4937 25.166C10.9259 26.0353 11.5496 27.1877 12.5879 27.1877H15.2251V32.4435L19.5069 25.8582C20.0723 24.9888 19.4484 23.8388 18.4113 23.8388H15.665V18.7801Z" stroke="#AAAAAA" stroke-width="1.5" stroke-miterlimit="10" stroke-linecap="round" stroke-linejoin="round"/>
</svg>
