<svg width="40" height="40" viewBox="0 0 40 40" fill="none" xmlns="http://www.w3.org/2000/svg">
<path d="M38.8281 0H34.1406C33.4934 0 32.9688 0.524687 32.9688 1.17188V2.34375H23.3141C22.8303 0.979844 21.5277 0 20 0C18.4723 0 17.1697 0.979844 16.6859 2.34375H7.03125V1.17188C7.03125 0.524687 6.50656 0 5.85938 0H1.17188C0.524687 0 0 0.524687 0 1.17188V5.85938C0 6.50656 0.524687 7.03125 1.17188 7.03125H5.85938C6.50656 7.03125 7.03125 6.50656 7.03125 5.85938V4.67188H11.9045C7.67664 7.34953 5.10664 11.873 4.7975 16.6752C3.41703 17.1498 2.42188 18.4605 2.42188 20C2.42188 21.9385 3.99898 23.5156 5.9375 23.5156C7.87602 23.5156 9.45312 21.9385 9.45312 20C9.45312 18.4859 8.49102 17.1923 7.14609 16.6984C7.56219 11.1791 11.5366 6.42547 16.8512 5.07672C17.4273 6.23391 18.622 7.03125 20 7.03125C21.378 7.03125 22.5727 6.23391 23.1487 5.0768C28.4635 6.42555 32.4378 11.1792 32.8539 16.6985C31.509 17.1923 30.5469 18.4859 30.5469 20C30.5469 21.9385 32.124 23.5156 34.0625 23.5156C36.001 23.5156 37.5781 21.9385 37.5781 20C37.5781 18.4605 36.583 17.1498 35.2025 16.6752C34.8927 11.8634 32.3151 7.35992 28.0955 4.6875H32.9688V5.85938C32.9688 6.50656 33.4934 7.03125 34.1406 7.03125H38.8281C39.4753 7.03125 40 6.50656 40 5.85938V1.17188C40 0.524687 39.4753 0 38.8281 0ZM4.6875 4.6875H2.34375V2.34375H4.6875V4.6875ZM5.9375 21.1719C5.29133 21.1719 4.76562 20.6462 4.76562 20C4.76562 19.3538 5.29133 18.8281 5.9375 18.8281C6.58367 18.8281 7.10938 19.3538 7.10938 20C7.10938 20.6462 6.58367 21.1719 5.9375 21.1719ZM20 4.6875C19.3538 4.6875 18.8281 4.1618 18.8281 3.51562C18.8281 2.86945 19.3538 2.34375 20 2.34375C20.6462 2.34375 21.1719 2.86945 21.1719 3.51562C21.1719 4.1618 20.6462 4.6875 20 4.6875ZM34.0625 18.8281C34.7087 18.8281 35.2344 19.3538 35.2344 20C35.2344 20.6462 34.7087 21.1719 34.0625 21.1719C33.4163 21.1719 32.8906 20.6462 32.8906 20C32.8906 19.3538 33.4163 18.8281 34.0625 18.8281ZM37.6562 4.6875H35.3125V2.34375H37.6562V4.6875Z" fill="#AAAAAA"/>
<path d="M30.35 24.0376L20.975 9.97517L20.974 9.97368C20.9706 9.96868 20.9669 9.96392 20.9635 9.959C20.9474 9.93577 20.9305 9.91315 20.9128 9.89118C20.419 9.27759 19.4786 9.319 19.0365 9.959C19.033 9.96392 19.0293 9.96868 19.026 9.97368L19.025 9.97517L9.64997 24.0377C9.49968 24.2631 9.43214 24.5336 9.45883 24.8032C9.48552 25.0728 9.6048 25.3248 9.79637 25.5163C12.1344 27.8544 13.6225 30.9106 14.0279 34.1805C13.8441 34.3285 13.669 34.4871 13.5037 34.6556C12.403 35.7815 11.7968 37.2634 11.7968 38.8283C11.7968 39.4755 12.3215 40.0002 12.9687 40.0002H27.0312C27.6784 40.0002 28.2031 39.4755 28.2031 38.8283C28.2031 37.2634 27.5969 35.7815 26.4963 34.6555C26.331 34.487 26.1559 34.3284 25.972 34.1804C26.3773 30.9104 27.8654 27.8542 30.2035 25.5163C30.3951 25.3248 30.5144 25.0728 30.5411 24.8032C30.5678 24.5335 30.5002 24.263 30.35 24.0376ZM20 23.5158C20.6461 23.5158 21.1718 24.0415 21.1718 24.6877C21.1718 25.3338 20.6461 25.8595 20 25.8595C19.3538 25.8595 18.8281 25.3338 18.8281 24.6877C18.8281 24.0415 19.3538 23.5158 20 23.5158ZM14.3404 37.6564C14.828 36.2632 16.1497 35.2345 17.6562 35.2345H22.3437C23.8502 35.2345 25.1719 36.2632 25.6595 37.6564H14.3404ZM23.7691 33.0692C23.3033 32.9504 22.8244 32.8905 22.3437 32.8908H17.6562C17.1696 32.8908 16.6918 32.9515 16.2308 33.0692C15.6824 29.9107 14.2581 26.9582 12.1175 24.5615L18.8281 14.4956V21.3737C17.4641 21.8574 16.4843 23.16 16.4843 24.6877C16.4843 26.6263 18.0615 28.2034 20 28.2034C21.9385 28.2034 23.5156 26.6263 23.5156 24.6877C23.5156 23.16 22.5358 21.8574 21.1718 21.3737V14.4956L27.8825 24.5615C25.7418 26.958 24.3175 29.9106 23.7691 33.0692Z" fill="#AAAAAA"/>
</svg>
