<svg width="40" height="40" viewBox="0 0 40 40" fill="none" xmlns="http://www.w3.org/2000/svg">
<path d="M34.1467 5.85333C30.3733 2.08 25.3467 0 20 0C14.6533 0 9.64 2.08 5.85333 5.85333C2.06667 9.62667 0 14.6533 0 20C0 25.3467 2.08 30.36 5.85333 34.1467C9.62667 37.9333 14.6533 40 20 40C25.3467 40 30.36 37.92 34.1467 34.1467C37.9333 30.3733 40 25.3467 40 20C40 14.6533 37.92 9.64 34.1467 5.85333ZM37.3333 20C37.3333 20.1867 37.3067 20.36 37.3067 20.5467C34.0267 19.2533 30.88 17.2933 28.0667 14.7867C29.7867 12.5467 31.28 10.2933 32.5333 8.05333C35.6267 11.2933 37.3333 15.5067 37.3333 20ZM30.4933 6.22667C29.3067 8.41333 27.84 10.6667 26.1333 12.92C23.2 9.86667 20.9067 6.37333 19.4533 2.70667C19.64 2.70667 19.8133 2.68 20 2.68C23.84 2.68 27.4933 3.94667 30.4933 6.24V6.22667ZM15.0267 24.4667C11.4667 20.9867 7.33333 18.3333 2.98667 16.7333C3.54667 13.7867 4.88 11.04 6.85333 8.73333L19.0133 20.8933C17.7067 22.1467 16.3733 23.3467 15.0267 24.4533V24.4667ZM8.73333 6.85333C11.04 4.86667 13.7733 3.54667 16.7333 2.98667C18.3333 7.33333 20.9867 11.48 24.4667 15.0267C23.3467 16.3867 22.16 17.72 20.9067 19.0133L8.73333 6.85333ZM2.69333 19.4533C6.36 20.9067 9.85333 23.2 12.9067 26.1333C10.6667 27.84 8.41333 29.3067 6.21333 30.4933C3.90296 27.4833 2.65147 23.7945 2.65333 20C2.65333 19.8133 2.68 19.64 2.68 19.4533H2.69333ZM8.05333 32.5333C10.2933 31.28 12.5467 29.7867 14.7867 28.0667C17.2933 30.88 19.2533 34.0267 20.5467 37.3067C20.36 37.3067 20.1867 37.3333 20 37.3333C15.5067 37.3333 11.2933 35.6267 8.05333 32.5333ZM32.2533 32.2533C29.76 34.7467 26.6533 36.3733 23.2667 37.0133C21.88 33.2267 19.6933 29.6133 16.8533 26.4C18.2133 25.2667 19.56 24.0533 20.88 22.7733L24.6933 26.5867C24.96 26.8533 25.2933 26.9733 25.64 26.9733C25.9867 26.9733 26.32 26.84 26.5867 26.5867C26.7103 26.4633 26.8083 26.3168 26.8752 26.1555C26.9422 25.9942 26.9766 25.8213 26.9766 25.6467C26.9766 25.472 26.9422 25.2991 26.8752 25.1378C26.8083 24.9765 26.7103 24.83 26.5867 24.7067L22.7733 20.8933C24.0533 19.5733 25.2667 18.2267 26.4 16.8667C29.6133 19.7067 33.24 21.88 37.0133 23.28C36.3733 26.6667 34.7333 29.7733 32.2533 32.2667V32.2533Z" fill="#AAAAAA"/>
<path d="M29.8934 28.0134C29.6441 27.7641 29.306 27.624 28.9534 27.624C28.6008 27.624 28.2627 27.7641 28.0134 28.0134C27.7641 28.2627 27.624 28.6008 27.624 28.9534C27.624 29.306 27.7641 29.6441 28.0134 29.8934L28.96 30.84C29.2267 31.1067 29.5601 31.2267 29.9067 31.2267C30.2534 31.2267 30.5867 31.0934 30.8534 30.84C30.977 30.7167 31.0751 30.5702 31.142 30.4089C31.2089 30.2476 31.2433 30.0747 31.2433 29.9C31.2433 29.7254 31.2089 29.5525 31.142 29.3912C31.0751 29.2299 30.977 29.0834 30.8534 28.96L29.9067 28.0134H29.8934Z" fill="#AAAAAA"/>
</svg>
