<svg width="50" height="35" viewBox="0 0 50 35" fill="none" xmlns="http://www.w3.org/2000/svg">
<path d="M49.8656 14.7284C50.1667 11.716 49.385 8.68602 47.6648 6.1971C46.8638 5.03725 45.2356 4.78219 44.1116 5.64924C43.57 6.06698 43.2331 6.67125 43.1627 7.3502C42.9821 9.08518 42.542 10.7108 41.8521 12.2134C39.9286 9.50038 36.5015 8.19966 33.212 9.06426C33.055 8.4522 32.7968 7.87072 32.4478 7.34395C34.3807 7.07021 35.7974 5.5069 35.9938 3.66663C36.0074 3.5384 35.987 3.40883 35.9346 3.291C35.8822 3.17317 35.7997 3.07124 35.6953 2.9955C34.5956 2.19718 33.172 1.99217 31.9005 2.42643L32.4502 0.996365C32.4847 0.906485 32.5013 0.810679 32.4988 0.714418C32.4963 0.618156 32.4749 0.523326 32.4358 0.435341C32.3966 0.347355 32.3406 0.267938 32.2707 0.201625C32.2009 0.135312 32.1187 0.0834011 32.0288 0.0488572C31.939 0.0142913 31.8432 -0.00222816 31.7469 0.000241079C31.6506 0.00271032 31.5558 0.0241204 31.4678 0.0632487C31.3798 0.102377 31.3004 0.158457 31.2341 0.228284C31.1678 0.298112 31.1159 0.38032 31.0813 0.470211C31.0774 0.480085 29.3001 5.05955 29.2969 5.06942C26.6203 4.34471 23.6427 5.71367 22.617 8.61446C22.3214 9.47203 21.8304 10.2189 21.1808 10.8105C20.8078 8.42607 19.7673 6.52803 18.2603 5.50837C18.4592 4.58205 18.4306 3.62131 18.1769 2.70847C18.1424 2.5843 18.0759 2.4714 17.9839 2.38114C17.892 2.29089 17.7778 2.22645 17.6531 2.19434C15.4748 1.63416 13.0493 2.24781 11.4351 3.95376V2.19981C11.4351 1.79479 11.1069 1.4666 10.7019 1.4666C10.2969 1.4666 9.96868 1.79479 9.96868 2.19981V6.4853C6.92975 3.77867 3.40866 4.2099 1.48236 7.26652C-1.11341 11.3857 0.00889146 18.657 3.72599 22.5729L4.77508 23.8479L2.64465 23.6408C1.40219 23.5214 0.311953 24.4297 0.192391 25.6586C0.0720457 26.8978 0.980351 27.9911 2.2101 28.1107L4.34052 28.3178L2.60486 29.7459C1.64435 30.5363 1.51051 31.9512 2.29759 32.9061C3.08898 33.8681 4.50525 33.9975 5.45804 33.2135L8.46002 30.7433C9.05366 30.2563 9.7243 29.8716 10.4444 29.605L10.4435 29.614C10.1661 32.4693 12.398 35 15.3448 35L44.9428 34.9184C46.1616 34.9185 47.3366 34.464 48.238 33.6436C49.1395 32.8233 49.7025 31.6962 49.8169 30.4828C49.9383 29.2701 49.603 28.0556 48.8764 27.077C48.1499 26.0984 47.0844 25.4261 45.8883 25.1915L43.2957 24.6752C44.25 24.0955 45.1418 23.4188 45.9572 22.656C48.1742 20.5808 49.5621 17.7653 49.8656 14.7284ZM41.0596 13.7086C39.0974 16.9367 36.0095 19.2465 32.5196 20.3939C32.9958 18.9593 33.0681 17.3786 32.6476 15.8281C32.3732 14.8136 32.4729 13.6819 32.9284 12.641C33.2188 11.9772 33.3744 11.2623 33.3862 10.5379C36.3713 9.64976 39.5825 10.9993 41.0596 13.7086ZM34.4513 3.95063C33.9976 5.57133 32.19 6.39419 30.6638 5.64377C30.6735 5.63468 31.7158 2.59164 34.4513 3.95063ZM24.0018 9.0974C24.7333 7.01615 26.9804 5.72814 29.4775 6.68132C31.5126 7.57916 32.4889 9.98264 31.5848 12.0537C30.9962 13.3988 30.8708 14.8752 31.2322 16.2114C31.8006 18.3085 31.2626 20.4585 29.9733 22.022L27.9185 21.6128C28.5855 21.086 29.0982 20.3892 29.4029 19.5958C30.3429 17.151 29.1246 14.4124 26.6803 13.4728C24.2357 12.5327 21.497 13.7512 20.5574 16.1954C20.04 17.5407 20.1859 19.0092 20.8505 20.2052L18.8 19.7969C17.9644 17.0999 18.9644 14.1262 21.3761 12.5155C22.6062 11.694 23.5147 10.5104 24.0018 9.0974ZM23.2793 20.6888C21.9421 19.8781 21.3602 18.1933 21.9261 16.7216C22.5708 15.0446 24.4301 14.2178 26.0907 14.8172C29.2328 15.9511 28.8327 20.6183 25.4838 21.1279L23.2793 20.6888ZM16.8594 3.52459C16.9365 3.96764 16.9452 4.41991 16.885 4.86558C15.0083 4.33454 13.1131 5.06121 11.6066 6.33641C12.4519 4.3058 14.655 3.16062 16.8594 3.52459ZM2.72315 8.04842C4.63449 5.01516 7.88742 5.896 10.1207 8.80177C10.4115 9.18118 10.9895 9.18509 11.2834 8.80177C12.7946 6.83558 14.6699 5.87351 16.2997 6.22936C16.5698 6.28856 16.8311 6.3823 17.0771 6.50828C18.5837 7.27737 19.6206 9.30632 19.828 11.8516C17.6053 13.7395 16.6297 16.6763 17.2061 19.4793L16.8606 19.4105C14.0084 18.8429 11.2943 20.8666 11.0138 23.7515L11.0127 23.7622C10.3572 23.3617 9.77332 22.8545 9.28512 22.2614L6.81478 19.2592C5.87324 18.1149 4.08977 18.1731 3.23357 19.4114C2.65619 18.3686 2.20355 17.1895 1.90928 15.9384C1.20129 12.9301 1.50563 9.98039 2.72315 8.04842ZM7.52883 29.6108L4.52647 32.0812C4.19261 32.3561 3.70194 32.3043 3.43036 31.9751C3.36525 31.8962 3.31634 31.8051 3.28645 31.7073C3.25655 31.6094 3.24626 31.5065 3.25614 31.4047C3.26603 31.3028 3.29591 31.2039 3.34408 31.1136C3.39224 31.0233 3.45774 30.9433 3.53682 30.8784L6.6394 28.3256C6.7514 28.2335 6.83356 28.1102 6.8755 27.9713C6.91743 27.8325 6.91724 27.6843 6.87497 27.5456C6.83269 27.4069 6.75022 27.2838 6.63798 27.1919C6.52575 27.1001 6.38879 27.0436 6.24444 27.0296L2.35215 26.6512C1.92981 26.6101 1.61004 26.2324 1.65217 25.8005C1.69304 25.3805 2.0657 25.059 2.50289 25.1005L6.39519 25.4789C6.53956 25.4931 6.6849 25.4641 6.81275 25.3956C6.94061 25.327 7.0452 25.222 7.11325 25.0939C7.18146 24.9659 7.21019 24.8206 7.1958 24.6763C7.18141 24.5319 7.12454 24.3951 7.0324 24.2831L4.47964 21.1807C4.41449 21.1017 4.36558 21.0106 4.3357 20.9127C4.30581 20.8148 4.29556 20.712 4.30551 20.6101C4.31547 20.5082 4.34544 20.4093 4.3937 20.319C4.44197 20.2287 4.50759 20.1488 4.58679 20.084C4.66572 20.019 4.7567 19.9702 4.85452 19.9404C4.95234 19.9106 5.05507 19.9003 5.15684 19.9103C5.25861 19.9202 5.35743 19.9501 5.44763 19.9983C5.53782 20.0465 5.61764 20.112 5.6825 20.191L8.15314 23.1938C8.89397 24.0942 9.81552 24.8292 10.8582 25.3512L10.5992 28.0156C9.47601 28.3281 8.43028 28.8714 7.52883 29.6108ZM48.3576 30.3411C48.2773 31.1921 47.8825 31.9826 47.2502 32.558C46.618 33.1333 45.7938 33.4521 44.939 33.452C45.1449 33.452 41.0539 33.4635 35.8515 33.4777L36.0512 31.4237C36.07 31.2301 36.0111 31.0371 35.8876 30.8869C35.764 30.7367 35.5859 30.6418 35.3923 30.623C35.2965 30.6136 35.1997 30.6232 35.1076 30.6513C35.0155 30.6793 34.9298 30.7253 34.8554 30.7864C34.7811 30.8476 34.7195 30.9229 34.6742 31.0079C34.629 31.0929 34.6009 31.186 34.5917 31.2818L34.3778 33.4819L29.7723 33.4945L30.0306 30.8384C30.0494 30.6448 29.9905 30.4518 29.867 30.3016C29.7434 30.1514 29.5653 30.0565 29.3718 30.0377C28.9703 29.9973 28.6103 30.2934 28.5711 30.6965L28.2986 33.4985L23.6933 33.511L24.01 30.2531C24.0288 30.0595 23.97 29.8665 23.8464 29.7163C23.7229 29.5661 23.5447 29.4712 23.3512 29.4524C22.9486 29.4125 22.5897 29.7082 22.5505 30.1112L22.2196 33.5151L17.6141 33.5276L17.9894 29.6679C18.0082 29.4743 17.9493 29.2812 17.8258 29.1311C17.7022 28.9809 17.5241 28.886 17.3305 28.8672C17.2347 28.8578 17.1379 28.8674 17.0458 28.8954C16.9537 28.9235 16.868 28.9694 16.7936 29.0306C16.7192 29.0918 16.6577 29.167 16.6124 29.2521C16.5672 29.3371 16.5391 29.4302 16.5299 29.526L16.1405 33.5316L15.3411 33.5338C13.2713 33.5338 11.709 31.7557 11.9034 29.7561L12.4733 23.8935C12.6702 21.8675 14.5769 20.4508 16.5742 20.8487L20.3394 21.5985L19.9792 25.303C19.9604 25.4965 20.0192 25.6896 20.1428 25.8398C20.2663 25.9899 20.4445 26.0849 20.638 26.1037C21.0383 26.1433 21.3993 25.8499 21.4387 25.4449L21.7847 21.8863L26.3014 22.7858L25.9998 25.8883C25.981 26.0818 26.0398 26.2749 26.1634 26.4251C26.2869 26.5752 26.465 26.6702 26.6586 26.689C27.0588 26.7286 27.4199 26.4352 27.4593 26.0302L27.7467 23.0736L32.2635 23.9731L32.0203 26.4736C32.0034 26.6661 32.0632 26.8576 32.1867 27.0062C32.3102 27.1549 32.4874 27.2488 32.6798 27.2675C32.8722 27.2862 33.0642 27.2282 33.214 27.1061C33.3638 26.984 33.4593 26.8076 33.4798 26.6155L33.7088 24.261L38.2255 25.1605L38.041 27.0588C38.0222 27.2523 38.081 27.4454 38.2046 27.5956C38.3281 27.7457 38.5063 27.8407 38.6998 27.8595C39.1001 27.8991 39.4611 27.6057 39.5005 27.2007L39.6708 25.4483L45.6021 26.6295C46.441 26.7942 47.1883 27.2658 47.6979 27.9522C48.2075 28.6386 48.4427 29.4904 48.3576 30.3411ZM44.9555 21.5853C43.7946 22.6712 42.4711 23.5579 41.0249 24.2228L31.5645 22.3388C31.6042 22.2798 31.6431 22.2202 31.6812 22.1601C36.2679 21.0244 40.2131 18.1407 42.5228 14.1137L42.5298 14.1018C43.6693 12.1114 44.3718 9.90032 44.6215 7.50164C44.6351 7.36614 44.6764 7.23487 44.7428 7.11596C44.8091 6.99706 44.8992 6.89304 45.0074 6.81036C45.4819 6.44415 46.1444 6.57573 46.4585 7.03072C49.6037 11.5814 48.9574 17.8386 44.9555 21.5853Z" fill="white"/>
</svg>
