<svg width="38" height="40" viewBox="0 0 38 40" fill="none" xmlns="http://www.w3.org/2000/svg">
<path d="M1.97596 20C1.97596 20.4315 1.62627 20.7813 1.1947 20.7813C0.763453 20.7813 0.413452 20.4315 0.413452 20C0.413452 19.5685 0.763453 19.2188 1.1947 19.2188C1.62627 19.2188 1.97596 19.5685 1.97596 20Z" fill="#AAAAAA"/>
<path d="M33.9248 7.42971C33.9248 5.57086 31.2202 1.2162 30.6779 0.362359C30.6073 0.251327 30.5099 0.159901 30.3946 0.0965565C30.2794 0.0332119 30.15 0 30.0184 0C29.8869 0 29.7575 0.0332119 29.6422 0.0965565C29.5269 0.159901 29.4295 0.251327 29.359 0.362359C28.885 1.10846 26.7613 4.52647 26.2317 6.61759C21.3214 4.60038 16.2033 4.6553 11.7089 6.79728C7.2401 8.92722 3.63631 13.0703 2.35942 18.2865C2.25653 18.7058 2.51325 19.1284 2.93224 19.231C2.99474 19.2462 3.05732 19.2535 3.11873 19.2535C3.4703 19.2535 3.78983 19.0146 3.8771 18.6578C4.98695 14.1235 8.16637 10.2165 12.3812 8.20768C16.6429 6.17672 21.5399 6.21664 26.2128 8.31018C26.4579 9.37067 27.1394 10.2813 28.0769 10.819C27.617 12.493 27.2587 15.0336 27.0551 18.0964C26.9724 19.3397 26.9166 20.6595 26.8891 22.0261C23.9225 23.7285 21.9687 26.9676 22.2135 30.8364C22.3062 32.2982 22.4463 34.5074 20.1447 36.5136C18.5006 37.9471 16.0809 38.341 13.8302 37.5421C8.24355 35.5593 4.2021 30.4784 3.53342 24.5976C3.48498 24.1688 3.09701 23.8612 2.66919 23.9094C2.24036 23.9583 1.93247 24.3452 1.98098 24.774C2.73115 31.3735 7.22089 36.8542 13.3077 39.0146C16.0904 40.0024 19.1034 39.4943 21.1716 37.6913C24.0543 35.1782 23.8712 32.2894 23.7726 30.7372C23.5904 27.8542 24.8469 25.4151 26.8705 23.903V23.9061C26.8705 27.6063 27.154 34.8578 28.3467 38.2388C28.5163 38.7204 28.9677 40 29.9955 40C31.0237 40 31.4751 38.7204 31.6448 38.2388C32.83 34.8788 33.1206 27.6809 33.1206 23.9061C33.1206 23.3699 33.1159 22.8422 33.1071 22.3274C33.3482 22.324 33.5927 22.3237 33.8402 22.3277C35.3197 22.3493 36.6636 21.4491 37.1877 20.0852C38.6236 16.345 35.9547 12.6193 32.8068 10.165C33.5235 9.43501 33.9249 8.45273 33.9248 7.42971ZM30.0185 2.27887C31.1455 4.18686 32.3623 6.57001 32.3623 7.42971C32.3623 8.78621 31.2351 9.80333 29.9693 9.77504C28.7101 9.74661 27.6747 8.71902 27.6747 7.42971C27.6747 6.57001 28.8911 4.18686 30.0185 2.27887ZM30.0185 11.336C30.1564 11.336 30.2936 11.328 30.4294 11.3137C30.8123 12.7444 31.129 14.9249 31.3264 17.5012C30.4427 17.614 29.5481 17.6121 28.665 17.4954C28.8624 14.9194 29.1798 12.7398 29.5631 11.3091C29.7136 11.3268 29.8655 11.336 30.0184 11.336H30.0185ZM29.9955 38.1496C28.7333 35.4497 28.433 27.3179 28.433 23.9063C28.433 23.4699 28.4431 22.5089 28.4434 22.5064C28.4614 21.3166 28.5017 20.1611 28.5624 19.0582C29.0454 19.1182 29.5317 19.1483 30.0184 19.1483C30.4908 19.1483 30.963 19.1198 31.4296 19.0634C31.4758 19.9136 31.5091 20.7645 31.5296 21.6156C31.5486 22.3487 31.558 23.1193 31.558 23.9063C31.558 27.4244 31.2404 35.4874 29.9955 38.1496ZM35.7289 19.5252C35.439 20.2795 34.6889 20.7795 33.8646 20.7657C33.5991 20.7615 33.3336 20.7614 33.0681 20.7654C33.0379 19.8596 32.9939 18.9679 32.9368 18.1055C32.9366 18.1003 32.9356 18.0951 32.935 18.0898C32.7613 15.4754 32.4745 13.2418 32.1086 11.6042C35.2706 14.1635 36.65 17.1261 35.7289 19.5252Z" fill="#AAAAAA"/>
<path d="M10.1711 12.9688C8.37777 12.9688 6.91862 14.3708 6.91862 16.0938C6.91862 17.8169 8.37777 19.2189 10.1711 19.2189C11.9648 19.2189 13.4236 17.8169 13.4236 16.0938C13.4236 14.3708 11.9648 12.9688 10.1711 12.9688ZM10.1711 17.6563C9.27448 17.6563 8.54487 16.9553 8.54487 16.0938C8.54487 15.2323 9.27448 14.5313 10.1711 14.5313C11.0681 14.5313 11.7974 15.2323 11.7974 16.0938C11.7974 16.9553 11.0681 17.6563 10.1711 17.6563ZM22.368 12.1875C22.368 10.4645 20.9091 9.0625 19.1155 9.0625C17.3221 9.0625 15.863 10.4645 15.863 12.1875C15.863 13.9106 17.3221 15.3126 19.1155 15.3126C20.9091 15.3126 22.368 13.9106 22.368 12.1875ZM17.4892 12.1875C17.4892 11.326 18.2188 10.625 19.1155 10.625C20.0124 10.625 20.7417 11.326 20.7417 12.1875C20.7417 13.049 20.0124 13.7501 19.1155 13.7501C18.2188 13.7501 17.4892 13.049 17.4892 12.1875ZM4.47925 25.4689C4.47925 27.192 5.9384 28.594 7.73174 28.594C9.52541 28.594 10.9842 27.192 10.9842 25.4689C10.9842 23.7459 9.52541 22.3439 7.73174 22.3439C5.9384 22.3439 4.47925 23.7459 4.47925 25.4689ZM7.73174 23.9064C8.6287 23.9064 9.35799 24.6074 9.35799 25.4689C9.35799 26.3304 8.6287 27.0315 7.73174 27.0315C6.83511 27.0315 6.1055 26.3304 6.1055 25.4689C6.1055 24.6074 6.83511 23.9064 7.73174 23.9064ZM11.7974 31.719C11.7974 33.4421 13.2565 34.844 15.0499 34.844C16.8435 34.844 18.3024 33.4421 18.3024 31.719C18.3024 29.9959 16.8435 28.594 15.0499 28.594C13.2565 28.594 11.7974 29.9959 11.7974 31.719ZM16.6761 31.719C16.6761 32.5805 15.9468 33.2815 15.0499 33.2815C14.1532 33.2815 13.4236 32.5805 13.4236 31.719C13.4236 30.8575 14.1532 30.1565 15.0499 30.1565C15.9468 30.1565 16.6761 30.8575 16.6761 31.719Z" fill="#AAAAAA"/>
</svg>
