<svg width="15" height="18" viewBox="0 0 15 18" fill="none" xmlns="http://www.w3.org/2000/svg">
<path d="M7.61421 5.17182C6.9032 5.17182 5.80259 4.36342 4.64356 4.39264C3.11442 4.41212 1.71189 5.27896 0.922967 6.65226C-0.664615 9.40862 0.513897 13.4798 2.06252 15.72C2.82222 16.8108 3.71828 18.0381 4.90653 17.9991C6.04609 17.9504 6.47465 17.2589 7.8577 17.2589C9.23101 17.2589 9.6206 17.9991 10.8283 17.9699C12.0555 17.9504 12.8347 16.8595 13.5847 15.7589C14.4515 14.4928 14.8119 13.2656 14.8314 13.1974C14.8022 13.1876 12.4451 12.2819 12.4159 9.55472C12.3964 7.27561 14.2762 6.18476 14.3639 6.13606C13.2925 4.56795 11.6465 4.39264 11.0718 4.35368C9.5719 4.2368 8.31547 5.17182 7.61421 5.17182ZM10.1465 2.87323C10.7796 2.11353 11.1984 1.0519 11.0816 0C10.1758 0.0389591 9.08491 0.603867 8.43235 1.36357C7.84796 2.03561 7.34149 3.11673 7.47785 4.14914C8.48104 4.22706 9.51346 3.63294 10.1465 2.87323Z" fill="white"/>
</svg>
