<svg preserveAspectRatio="none" width="100%" height="100%" overflow="visible" style="display: block;" viewBox="0 0 21 24" fill="none" xmlns="http://www.w3.org/2000/svg">
<g id="icon">
<path id="Vector" d="M7.0462 11.5695C6.89458 12.2629 6.27601 12.7837 5.5378 12.7837C5.34099 12.7837 5.18143 12.9433 5.18143 13.1401C5.18143 13.337 5.34099 13.4965 5.5378 13.4965C6.66745 13.4965 7.6058 12.6622 7.76945 11.5775C8.46109 11.5027 9.09957 11.1945 9.59383 10.69C9.6585 10.6222 9.69386 10.5317 9.69228 10.438C9.69069 10.3443 9.65227 10.255 9.58534 10.1895C9.51841 10.1239 9.42836 10.0873 9.33466 10.0876C9.24096 10.088 9.15116 10.1252 9.0847 10.1912C8.64759 10.6374 8.06296 10.8831 7.43845 10.8831C6.16772 10.8831 5.13391 9.84928 5.13391 8.57856C5.13391 8.3817 4.97436 8.22219 4.77754 8.22219C4.58073 8.22219 4.42117 8.3817 4.42117 8.57856C4.42117 10.1093 5.56721 11.3765 7.0462 11.5695ZM8.55508 14.6606C8.55508 14.5661 8.51753 14.4755 8.4507 14.4086C8.38387 14.3418 8.29322 14.3043 8.19871 14.3043C6.53498 14.3043 5.18143 15.6578 5.18143 17.3215C5.18143 17.3387 5.18205 17.356 5.18233 17.3732C5.04818 17.3549 4.91295 17.3455 4.77754 17.3453C4.58073 17.3453 4.42117 17.5048 4.42117 17.7017C4.42117 17.8985 4.58073 18.058 4.77754 18.058C6.04827 18.058 7.08208 19.0918 7.08208 20.3626C7.08208 20.5594 7.24164 20.7189 7.43845 20.7189C7.63526 20.7189 7.79482 20.5594 7.79482 20.3626C7.79482 19.0981 7.01261 18.0135 5.90696 17.5654C5.89846 17.4844 5.89419 17.403 5.89417 17.3215C5.89417 16.0508 6.92798 15.017 8.19871 15.017C8.29322 15.017 8.38387 14.9795 8.4507 14.9126C8.51753 14.8458 8.55508 14.7551 8.55508 14.6606Z" fill="var(--fill-0, #172F41)" stroke="var(--stroke-0, #172F41)" stroke-width="0.5"/>
<path id="Vector_2" d="M20.7192 11.6199C20.7196 11.2206 20.6404 10.8253 20.4865 10.4569C20.3325 10.0885 20.1067 9.75448 19.8224 9.47423C19.913 9.18442 19.9591 8.8825 19.959 8.57883C19.959 7.11182 18.9064 5.88661 17.5169 5.6172C17.6238 5.35019 17.6786 5.06516 17.6782 4.77754C17.6782 3.84826 17.1136 3.04857 16.3094 2.70293C14.9697 1.63591 13.5045 1 12.3801 1C11.7551 1 11.2009 1.30733 10.8596 1.77851C10.5183 1.30733 9.96407 1 9.33909 1C8.21477 1 6.74951 1.63591 5.40979 2.70293C4.60567 3.04857 4.04104 3.84826 4.04104 4.77754C4.04104 5.06872 4.09611 5.35248 4.20231 5.6172C2.81284 5.88661 1.76026 7.11182 1.76026 8.57883C1.76026 8.88379 1.80611 9.18395 1.89687 9.47423C1.6125 9.75448 1.38675 10.0885 1.23277 10.4569C1.07879 10.8253 0.999665 11.2206 1 11.6199C1 12.2541 1.19715 12.843 1.5328 13.3293C1.18398 13.8335 1 14.4217 1 15.041C1 16.1381 1.59809 17.1432 2.54504 17.6732C2.52872 17.8089 2.52053 17.9454 2.52052 18.0821C2.52052 19.5619 3.48581 20.8703 4.88635 21.3162C5.49556 22.3588 6.60525 23 7.81857 23C9.14879 23 10.3022 22.2311 10.8596 21.1148C11.417 22.2311 12.5704 23 13.9006 23C15.114 23 16.2237 22.3588 16.8329 21.3162C18.2334 20.8702 19.1987 19.5619 19.1987 18.0821C19.1987 17.9455 19.1905 17.8088 19.1742 17.6732C20.1211 17.1432 20.7192 16.1381 20.7192 15.041C20.7192 14.4217 20.5352 13.8335 20.1864 13.3293C20.5221 12.843 20.7192 12.2541 20.7192 11.6199ZM7.81857 22.2873C6.81936 22.2873 5.90885 21.7364 5.44234 20.8496C5.41949 20.8062 5.3879 20.7679 5.34957 20.7372C5.31124 20.7066 5.26699 20.6841 5.21958 20.6714C4.05007 20.3566 3.23326 19.2919 3.23326 18.0821C3.23326 17.901 3.25151 17.7197 3.28748 17.543C3.30367 17.4635 3.29223 17.3809 3.25506 17.3087C3.21789 17.2366 3.15722 17.1793 3.08306 17.1463C2.25063 16.7762 1.71274 15.9498 1.71274 15.041C1.71274 14.6277 1.81994 14.2326 2.0245 13.8826C2.55649 14.3517 3.25398 14.6371 4.01728 14.6371C4.21409 14.6371 4.37365 14.4776 4.37365 14.2808C4.37365 14.0839 4.21409 13.9244 4.01728 13.9244C2.74655 13.9244 1.71274 12.8906 1.71274 11.6199C1.71274 10.9358 2.01457 10.2911 2.54086 9.85127C2.59876 9.80288 2.6398 9.73735 2.65807 9.66413C2.67635 9.59092 2.67091 9.51379 2.64254 9.44387C2.53055 9.16922 2.47297 8.87543 2.473 8.57883C2.473 7.30811 3.50681 6.2743 4.77754 6.2743C6.04826 6.2743 7.08207 7.30811 7.08207 8.57883C7.08207 8.77569 7.24163 8.9352 7.43845 8.9352C7.63526 8.9352 7.79482 8.77569 7.79482 8.57883C7.79482 6.98029 6.54505 5.6688 4.97136 5.56844C4.82871 5.33001 4.75378 5.05888 4.75378 4.77754C4.75378 4.14229 5.13942 3.59557 5.6888 3.35875C5.71027 3.3524 5.73108 3.34401 5.75096 3.33371C5.92569 3.26721 6.1111 3.23317 6.29806 3.23326C6.89472 3.23326 7.42737 3.56687 7.68819 4.104C7.70863 4.1461 7.73716 4.18377 7.77215 4.21485C7.80715 4.24592 7.84793 4.2698 7.89216 4.28511C7.93638 4.30042 7.9832 4.30687 8.02992 4.30408C8.07664 4.3013 8.12235 4.28933 8.16445 4.26888C8.20655 4.24844 8.24421 4.21991 8.27528 4.18492C8.30635 4.14992 8.33023 4.10915 8.34554 4.06493C8.36085 4.02071 8.3673 3.9739 8.36452 3.92719C8.36174 3.88047 8.34978 3.83476 8.32933 3.79267C8.03159 3.17957 7.4681 2.7389 6.81917 2.58281C7.72872 2.02782 8.62416 1.71274 9.33909 1.71274C9.98099 1.71274 10.5032 2.23495 10.5032 2.87689V7.48838C10.183 7.23436 9.77862 7.08207 9.33909 7.08207C9.14228 7.08207 8.98272 7.24159 8.98272 7.43844C8.98272 7.6353 9.14228 7.79482 9.33909 7.79482C9.98099 7.79482 10.5032 8.31702 10.5032 8.95896V17.5251C10.0602 16.9535 9.4355 16.522 8.70071 16.3246C8.65542 16.3121 8.6081 16.3087 8.56149 16.3146C8.51489 16.3205 8.4699 16.3356 8.42913 16.3589C8.38836 16.3823 8.3526 16.4134 8.32392 16.4506C8.29524 16.4878 8.2742 16.5304 8.26201 16.5757C8.24982 16.6211 8.24672 16.6684 8.25289 16.715C8.25906 16.7616 8.27438 16.8065 8.29797 16.8471C8.32155 16.8877 8.35294 16.9233 8.39032 16.9518C8.4277 16.9802 8.47034 17.001 8.51578 17.0129C9.68596 17.3273 10.5032 18.3922 10.5032 19.6026C10.5032 21.0829 9.29889 22.2873 7.81857 22.2873ZM18.6362 17.1463C18.562 17.1793 18.5013 17.2366 18.4641 17.3088C18.427 17.3809 18.4155 17.4636 18.4317 17.5431C18.4678 17.7205 18.486 17.9011 18.486 18.0821C18.486 19.2919 17.6692 20.3567 16.4996 20.6714C16.4522 20.6842 16.408 20.7066 16.3696 20.7373C16.3313 20.7679 16.2997 20.8062 16.2769 20.8497C15.8104 21.7364 14.8999 22.2873 13.9006 22.2873C12.4203 22.2873 11.216 21.0829 11.216 19.6026C11.216 19.5024 11.2113 19.403 11.2026 19.3046C11.2114 19.2735 11.2159 19.2413 11.216 19.209V7.43844C11.216 6.7965 11.7382 6.2743 12.3801 6.2743C12.5769 6.2743 12.7365 6.11479 12.7365 5.91793C12.7365 5.72107 12.5769 5.56155 12.3801 5.56155C11.9406 5.56155 11.5362 5.71384 11.216 5.96787V2.87689C11.216 2.23495 11.7382 1.71274 12.3801 1.71274C13.0951 1.71274 13.9905 2.02782 14.9001 2.58281C14.2511 2.73886 13.6876 3.17957 13.3899 3.79267C13.3694 3.83476 13.3575 3.88047 13.3547 3.92719C13.3519 3.9739 13.3584 4.02071 13.3737 4.06493C13.389 4.10915 13.4129 4.14992 13.4439 4.18492C13.475 4.21991 13.5127 4.24844 13.5548 4.26888C13.5969 4.28933 13.6426 4.30129 13.6893 4.30407C13.736 4.30685 13.7828 4.3004 13.8271 4.28509C13.8713 4.26978 13.9121 4.24591 13.9471 4.21483C13.9821 4.18376 14.0106 4.1461 14.031 4.104C14.2918 3.56687 14.8245 3.23326 15.4212 3.23326C15.6138 3.23326 15.7981 3.26899 15.9683 3.33371C15.9883 3.34416 16.0091 3.35238 16.0303 3.3587C16.5798 3.59552 16.9654 4.14225 16.9654 4.77754C16.9654 5.05888 16.8905 5.33001 16.7479 5.56844C15.1742 5.6688 13.9244 6.98029 13.9244 8.57883C13.9244 8.77569 14.084 8.9352 14.2808 8.9352C14.4776 8.9352 14.6371 8.77569 14.6371 8.57883C14.6371 7.30811 15.671 6.2743 16.9417 6.2743C18.2124 6.2743 19.2462 7.30811 19.2462 8.57883C19.2462 8.87552 19.1892 9.16656 19.0767 9.44387C19.0484 9.51379 19.0429 9.59092 19.0612 9.66413C19.0795 9.73735 19.1205 9.80288 19.1784 9.85127C19.7047 10.2911 20.0065 10.9358 20.0065 11.6199C20.0065 12.8906 18.9727 13.9244 17.7019 13.9244C17.5051 13.9244 17.3456 14.0839 17.3456 14.2808C17.3456 14.4776 17.5051 14.6371 17.7019 14.6371C18.4652 14.6371 19.1627 14.3517 19.6947 13.8826C19.8993 14.2326 20.0065 14.6277 20.0065 15.041C20.0065 15.9498 19.4686 16.7762 18.6362 17.1463Z" fill="var(--fill-0, #172F41)" stroke="var(--stroke-0, #172F41)" stroke-width="0.5"/>
<path id="Vector_3" d="M16.9417 12.4039C16.2035 12.4039 15.5849 11.8831 15.4333 11.1897C16.9123 10.9967 18.0583 9.72945 18.0583 8.19872C18.0583 8.00186 17.8988 7.84234 17.702 7.84234C17.5051 7.84234 17.3456 8.00186 17.3456 8.19872C17.3456 9.46944 16.3118 10.5033 15.041 10.5033C14.4165 10.5033 13.8319 10.2575 13.3948 9.81137C13.3287 9.74385 13.2384 9.70538 13.1439 9.70441C13.0494 9.70344 12.9583 9.74006 12.8908 9.80621C12.8233 9.87236 12.7848 9.96262 12.7839 10.0571C12.7829 10.1516 12.8195 10.2427 12.8857 10.3102C13.3799 10.8147 14.0184 11.1229 14.71 11.1977C14.8737 12.2824 15.812 13.1166 16.9417 13.1166C17.1385 13.1166 17.2981 12.9571 17.2981 12.7603C17.2981 12.5634 17.1385 12.4039 16.9417 12.4039ZM15.8013 16.5853C15.664 16.5853 15.529 16.5954 15.3965 16.6133C15.3968 16.596 15.3974 16.5788 15.3974 16.5616C15.3974 14.8978 14.0439 13.5443 12.3801 13.5443C12.1833 13.5443 12.0238 13.7038 12.0238 13.9007C12.0238 14.0975 12.1833 14.257 12.3801 14.257C13.6509 14.257 14.6847 15.2908 14.6847 16.5616C14.6847 16.643 14.6804 16.7244 14.6719 16.8055C13.5662 17.2535 12.784 18.3381 12.784 19.6026C12.784 19.7995 12.9436 19.959 13.1404 19.959C13.3372 19.959 13.4968 19.7995 13.4968 19.6026C13.4968 18.3319 14.5306 17.2981 15.8013 17.2981C15.9981 17.2981 16.1577 17.1386 16.1577 16.9417C16.1577 16.7448 15.9981 16.5853 15.8013 16.5853Z" fill="var(--fill-0, #172F41)" stroke="var(--stroke-0, #172F41)" stroke-width="0.5"/>
</g>
</svg>
