<svg width="14" height="8" viewBox="0 0 14 8" fill="none" xmlns="http://www.w3.org/2000/svg">
<path d="M12.6989 2.46362C11.5171 1.39999 9.56705 0.21817 6.90796 0.21817C4.24887 0.21817 2.29887 1.39999 1.11705 2.46362C0.644323 2.81817 0.407959 3.40908 0.407959 3.99999C0.407959 4.5909 0.644323 5.18181 1.11705 5.53635C2.29887 6.5409 4.24887 7.78181 6.90796 7.78181C9.56705 7.78181 11.5171 6.59999 12.6989 5.53635C13.1716 5.18181 13.408 4.5909 13.408 3.99999C13.408 3.40908 13.1716 2.81817 12.6989 2.46362ZM11.9307 4.64999C10.9261 5.53635 9.2125 6.59999 6.90796 6.59999C4.60341 6.59999 2.88978 5.53635 1.88523 4.64999C1.70796 4.47272 1.58978 4.23635 1.58978 3.99999C1.58978 3.76362 1.70796 3.52726 1.88523 3.34999C2.88978 2.46363 4.60341 1.39999 6.90796 1.39999C9.2125 1.39999 10.9261 2.46363 11.9307 3.34999C12.108 3.46817 12.2261 3.70453 12.2261 3.99999C12.2261 4.23635 12.108 4.47272 11.9307 4.64999Z" fill="#0061DF"/>
<path d="M6.90828 5.35923C7.6589 5.35923 8.26738 4.75076 8.26738 4.00014C8.26738 3.24953 7.6589 2.64105 6.90828 2.64105C6.15767 2.64105 5.54919 3.24953 5.54919 4.00014C5.54919 4.75076 6.15767 5.35923 6.90828 5.35923Z" fill="#0061DF"/>
</svg>
