<svg width="19" height="18" viewBox="0 0 19 18" fill="none" xmlns="http://www.w3.org/2000/svg">
<path d="M1.63728 4.95823C3.11818 2.01683 6.16176 0 9.68 0C12.1059 0 14.1431 0.891855 15.7018 2.34409L13.1204 4.92547C12.1878 4.03367 11.0013 3.57954 9.68 3.57954C7.33588 3.57954 5.35176 5.16273 4.6441 7.29C4.46405 7.83 4.36177 8.40681 4.36177 9C4.36177 9.59319 4.46405 10.17 4.6441 10.71C5.35176 12.8372 7.33588 14.4204 9.68 14.4204C10.8909 14.4204 11.9218 14.1014 12.7278 13.5614C13.6809 12.9232 14.315 11.97 14.5236 10.845H9.68V7.36362H18.1563C18.2628 7.95267 18.32 8.56638 18.32 9.20457C18.32 11.9454 17.3382 14.2527 15.6363 15.8196C14.1472 17.1941 12.11 18 9.68 18C6.16176 18 3.11818 15.9832 1.63728 13.0418C1.02774 11.8268 0.68 10.4522 0.68 9C0.68 7.54776 1.02774 6.1732 1.63728 4.95823Z" fill="white"/>
</svg>
