<svg preserveAspectRatio="none" width="100%" height="100%" overflow="visible" style="display: block;" viewBox="0 0 17 24" fill="none" xmlns="http://www.w3.org/2000/svg">
<g id="icon">
<path id="Vector" d="M15.609 13.8166C15.8804 13.6975 16.1881 13.8203 16.3082 14.092C16.4282 14.3637 16.3117 14.6737 16.0406 14.7942C15.9701 14.8255 15.8964 14.841 15.8238 14.841C15.62 14.841 15.4295 14.7211 15.3404 14.5217L15.3414 14.5246L15.3384 14.5188C15.2191 14.2465 15.3374 13.9363 15.609 13.8166Z" fill="var(--fill-0, #888888)" stroke="var(--stroke-0, #888888)" stroke-width="0.2"/>
<g id="Vector_2">
<mask id="path-2-outside-1_514_1509" maskUnits="userSpaceOnUse" x="0" y="0" width="17" height="24" fill="black">
<rect fill="white" width="17" height="24"/>
<path d="M16.6157 15.7307C16.5788 15.4964 16.3588 15.3363 16.1242 15.3736C15.8899 15.4105 15.73 15.6305 15.7671 15.865C15.8635 16.4764 15.8899 17.0968 15.8456 17.7142C15.7429 19.1434 15.0205 20.4477 13.8635 21.293L13.573 21.5052C13.0038 21.9209 12.3306 22.1406 11.6258 22.1406C11.3704 22.1406 11.1159 22.111 10.8673 22.0523L9.72865 21.7835C7.52779 21.2638 5.52037 20.0425 4.07606 18.3448C3.43402 17.59 3.1445 17.0409 2.92209 16.4755C2.94057 16.4163 2.94596 16.3539 2.93791 16.2925C2.93554 16.274 2.72405 14.4182 5.34128 13.2268C7.13625 12.4097 7.97599 11.0124 8.26818 10.41C10.236 10.6815 10.9133 11.2355 10.9636 11.2789C11.0676 11.389 11.2109 11.4246 11.3593 11.3911C11.3947 11.3831 11.4301 11.3754 11.4657 11.3679C12.8425 11.0789 14.2627 11.8122 14.8431 13.1108C14.9399 13.3275 15.1941 13.4247 15.4107 13.3278C15.6274 13.231 15.7245 12.9769 15.6278 12.7602C15.2989 12.0248 14.7461 11.4057 14.0577 10.9943C14.058 10.9928 14.0587 10.9914 14.0593 10.9899C14.146 10.7122 14.1899 10.4229 14.1897 10.132C14.1897 10.0735 14.1873 10.0154 14.1839 9.95765H14.4821C14.7193 9.95765 14.9118 9.76528 14.9118 9.52796C14.9118 9.29065 14.7193 9.09828 14.4821 9.09828H13.9963C13.8867 8.81549 13.7331 8.55183 13.541 8.31711L13.7356 8.12259C13.9034 7.95471 13.9034 7.68263 13.7356 7.51479C13.5677 7.34713 13.2958 7.34713 13.128 7.51479L12.9031 7.73973C12.5475 7.50339 12.1434 7.34985 11.7206 7.29041C12.2899 6.83503 13.0378 6.61932 13.9493 6.65039C14.0069 6.6524 14.0644 6.64276 14.1182 6.62205C14.1721 6.60134 14.2212 6.56999 14.2626 6.52986C14.3041 6.48981 14.337 6.44183 14.3595 6.38877C14.382 6.33572 14.3936 6.27867 14.3935 6.22105V4.5842C14.3936 4.47637 14.353 4.37248 14.28 4.29315C14.2069 4.21383 14.1067 4.16488 13.9993 4.15601C13.9297 4.1503 13.125 4.08907 12.0788 4.21492C11.611 3.30974 10.9526 2.63732 10.1952 2.26405L10.4994 1.81005C10.6315 1.61282 10.5786 1.34594 10.3814 1.21398C10.1843 1.0819 9.91745 1.13462 9.78536 1.33185L9.34996 1.98192C9.16318 1.9472 8.97362 1.92961 8.78363 1.92937C8.67363 1.92948 8.5637 1.93542 8.45432 1.94716V1.42969C8.45432 1.19237 8.26199 1 8.02463 1C7.78727 1 7.59495 1.19237 7.59495 1.42969V2.16454C7.19181 2.32868 6.80991 2.57661 6.46117 2.90489C6.20014 3.15046 5.96531 3.43444 5.75941 3.74948C5.59827 3.4316 5.26827 3.21289 4.88809 3.21289H3.72174C3.18326 3.21289 2.74519 3.65096 2.74519 4.18944V8.58179C2.52902 8.7498 2.32053 8.94668 2.12116 9.17412C1.1792 10.2485 0.991723 11.6564 1.00027 12.6482C1.00999 13.7701 1.28125 14.9138 1.7099 15.6471C1.7747 15.8207 1.83297 15.9881 1.88951 16.1503C2.17839 16.9785 2.45111 17.7608 3.42143 18.9015C4.98361 20.7379 7.15336 22.0584 9.53125 22.6198L10.6697 22.8887C10.9831 22.9626 11.3039 23 11.6258 23C12.5141 23 13.3627 22.7231 14.0797 22.1992L14.3703 21.9871C15.7319 20.9924 16.582 19.4576 16.7028 17.7758C16.7518 17.093 16.7225 16.4069 16.6157 15.7307ZM11.3722 10.5104C11.1989 10.3898 10.9037 10.2182 10.4423 10.0459C10.4778 9.63234 10.5979 8.85305 11.0014 8.14639C11.1065 8.12976 11.2128 8.12134 11.3193 8.12121C12.4281 8.12121 13.3302 9.02343 13.3302 10.1322C13.3302 10.3029 13.3086 10.4714 13.2666 10.6348C12.6567 10.437 12.0035 10.3925 11.3722 10.5104ZM13.5342 4.99846V5.79338C12.4697 5.83953 11.5916 6.19501 10.9191 6.85264C9.97481 7.77664 9.68997 9.06016 9.60455 9.78947C9.19351 9.68691 8.70539 9.59439 8.12784 9.52543C8.00086 9.40766 7.87073 9.29332 7.7376 9.18254C7.73825 9.17214 7.73911 9.16191 7.73911 9.1513C7.73911 7.99716 8.11208 7.068 8.8474 6.3897C10.2459 5.09982 12.6036 4.98935 13.5342 4.99846ZM8.78363 2.78875C8.99899 2.78875 9.21117 2.82046 9.41759 2.8807L9.41828 2.88087C10.1031 3.08098 10.7235 3.60077 11.1791 4.3645C10.1803 4.57986 9.09954 4.98922 8.26736 5.75561C7.47493 6.48522 7.01908 7.43324 6.90727 8.57909C6.55566 8.36093 6.20774 8.19323 5.86464 8.07691V5.59229C5.87203 5.57501 5.8789 5.55739 5.88427 5.53892C6.35809 3.89403 7.52327 2.78875 8.78363 2.78875ZM3.60461 4.18944C3.60463 4.15838 3.61698 4.12859 3.63894 4.10663C3.6609 4.08466 3.69068 4.0723 3.72174 4.07227H4.88809C4.91916 4.07229 4.94895 4.08464 4.97092 4.10661C4.99289 4.12858 5.00524 4.15837 5.00526 4.18944V7.89197C4.86269 7.87933 4.71943 7.87613 4.57643 7.88239C4.24342 7.89687 3.91507 7.96612 3.60457 8.08735L3.60461 4.18944ZM2.76732 9.74079C3.32274 9.10717 3.94424 8.77081 4.61463 8.74091C5.4695 8.70266 6.45305 9.16724 7.46754 10.0864C7.20518 10.6012 6.47522 11.7664 4.98524 12.4446C3.34083 13.1931 2.63893 14.2085 2.33948 14.9284C2.33445 14.9407 2.32973 14.9526 2.3247 14.9647C1.78157 13.7614 1.48956 11.1982 2.76732 9.74079Z"/>
</mask>
<path d="M16.6157 15.7307C16.5788 15.4964 16.3588 15.3363 16.1242 15.3736C15.8899 15.4105 15.73 15.6305 15.7671 15.865C15.8635 16.4764 15.8899 17.0968 15.8456 17.7142C15.7429 19.1434 15.0205 20.4477 13.8635 21.293L13.573 21.5052C13.0038 21.9209 12.3306 22.1406 11.6258 22.1406C11.3704 22.1406 11.1159 22.111 10.8673 22.0523L9.72865 21.7835C7.52779 21.2638 5.52037 20.0425 4.07606 18.3448C3.43402 17.59 3.1445 17.0409 2.92209 16.4755C2.94057 16.4163 2.94596 16.3539 2.93791 16.2925C2.93554 16.274 2.72405 14.4182 5.34128 13.2268C7.13625 12.4097 7.97599 11.0124 8.26818 10.41C10.236 10.6815 10.9133 11.2355 10.9636 11.2789C11.0676 11.389 11.2109 11.4246 11.3593 11.3911C11.3947 11.3831 11.4301 11.3754 11.4657 11.3679C12.8425 11.0789 14.2627 11.8122 14.8431 13.1108C14.9399 13.3275 15.1941 13.4247 15.4107 13.3278C15.6274 13.231 15.7245 12.9769 15.6278 12.7602C15.2989 12.0248 14.7461 11.4057 14.0577 10.9943C14.058 10.9928 14.0587 10.9914 14.0593 10.9899C14.146 10.7122 14.1899 10.4229 14.1897 10.132C14.1897 10.0735 14.1873 10.0154 14.1839 9.95765H14.4821C14.7193 9.95765 14.9118 9.76528 14.9118 9.52796C14.9118 9.29065 14.7193 9.09828 14.4821 9.09828H13.9963C13.8867 8.81549 13.7331 8.55183 13.541 8.31711L13.7356 8.12259C13.9034 7.95471 13.9034 7.68263 13.7356 7.51479C13.5677 7.34713 13.2958 7.34713 13.128 7.51479L12.9031 7.73973C12.5475 7.50339 12.1434 7.34985 11.7206 7.29041C12.2899 6.83503 13.0378 6.61932 13.9493 6.65039C14.0069 6.6524 14.0644 6.64276 14.1182 6.62205C14.1721 6.60134 14.2212 6.56999 14.2626 6.52986C14.3041 6.48981 14.337 6.44183 14.3595 6.38877C14.382 6.33572 14.3936 6.27867 14.3935 6.22105V4.5842C14.3936 4.47637 14.353 4.37248 14.28 4.29315C14.2069 4.21383 14.1067 4.16488 13.9993 4.15601C13.9297 4.1503 13.125 4.08907 12.0788 4.21492C11.611 3.30974 10.9526 2.63732 10.1952 2.26405L10.4994 1.81005C10.6315 1.61282 10.5786 1.34594 10.3814 1.21398C10.1843 1.0819 9.91745 1.13462 9.78536 1.33185L9.34996 1.98192C9.16318 1.9472 8.97362 1.92961 8.78363 1.92937C8.67363 1.92948 8.5637 1.93542 8.45432 1.94716V1.42969C8.45432 1.19237 8.26199 1 8.02463 1C7.78727 1 7.59495 1.19237 7.59495 1.42969V2.16454C7.19181 2.32868 6.80991 2.57661 6.46117 2.90489C6.20014 3.15046 5.96531 3.43444 5.75941 3.74948C5.59827 3.4316 5.26827 3.21289 4.88809 3.21289H3.72174C3.18326 3.21289 2.74519 3.65096 2.74519 4.18944V8.58179C2.52902 8.7498 2.32053 8.94668 2.12116 9.17412C1.1792 10.2485 0.991723 11.6564 1.00027 12.6482C1.00999 13.7701 1.28125 14.9138 1.7099 15.6471C1.7747 15.8207 1.83297 15.9881 1.88951 16.1503C2.17839 16.9785 2.45111 17.7608 3.42143 18.9015C4.98361 20.7379 7.15336 22.0584 9.53125 22.6198L10.6697 22.8887C10.9831 22.9626 11.3039 23 11.6258 23C12.5141 23 13.3627 22.7231 14.0797 22.1992L14.3703 21.9871C15.7319 20.9924 16.582 19.4576 16.7028 17.7758C16.7518 17.093 16.7225 16.4069 16.6157 15.7307ZM11.3722 10.5104C11.1989 10.3898 10.9037 10.2182 10.4423 10.0459C10.4778 9.63234 10.5979 8.85305 11.0014 8.14639C11.1065 8.12976 11.2128 8.12134 11.3193 8.12121C12.4281 8.12121 13.3302 9.02343 13.3302 10.1322C13.3302 10.3029 13.3086 10.4714 13.2666 10.6348C12.6567 10.437 12.0035 10.3925 11.3722 10.5104ZM13.5342 4.99846V5.79338C12.4697 5.83953 11.5916 6.19501 10.9191 6.85264C9.97481 7.77664 9.68997 9.06016 9.60455 9.78947C9.19351 9.68691 8.70539 9.59439 8.12784 9.52543C8.00086 9.40766 7.87073 9.29332 7.7376 9.18254C7.73825 9.17214 7.73911 9.16191 7.73911 9.1513C7.73911 7.99716 8.11208 7.068 8.8474 6.3897C10.2459 5.09982 12.6036 4.98935 13.5342 4.99846ZM8.78363 2.78875C8.99899 2.78875 9.21117 2.82046 9.41759 2.8807L9.41828 2.88087C10.1031 3.08098 10.7235 3.60077 11.1791 4.3645C10.1803 4.57986 9.09954 4.98922 8.26736 5.75561C7.47493 6.48522 7.01908 7.43324 6.90727 8.57909C6.55566 8.36093 6.20774 8.19323 5.86464 8.07691V5.59229C5.87203 5.57501 5.8789 5.55739 5.88427 5.53892C6.35809 3.89403 7.52327 2.78875 8.78363 2.78875ZM3.60461 4.18944C3.60463 4.15838 3.61698 4.12859 3.63894 4.10663C3.6609 4.08466 3.69068 4.0723 3.72174 4.07227H4.88809C4.91916 4.07229 4.94895 4.08464 4.97092 4.10661C4.99289 4.12858 5.00524 4.15837 5.00526 4.18944V7.89197C4.86269 7.87933 4.71943 7.87613 4.57643 7.88239C4.24342 7.89687 3.91507 7.96612 3.60457 8.08735L3.60461 4.18944ZM2.76732 9.74079C3.32274 9.10717 3.94424 8.77081 4.61463 8.74091C5.4695 8.70266 6.45305 9.16724 7.46754 10.0864C7.20518 10.6012 6.47522 11.7664 4.98524 12.4446C3.34083 13.1931 2.63893 14.2085 2.33948 14.9284C2.33445 14.9407 2.32973 14.9526 2.3247 14.9647C1.78157 13.7614 1.48956 11.1982 2.76732 9.74079Z" fill="var(--fill-0, #888888)"/>
<path d="M16.6157 15.7307C16.5788 15.4964 16.3588 15.3363 16.1242 15.3736C15.8899 15.4105 15.73 15.6305 15.7671 15.865C15.8635 16.4764 15.8899 17.0968 15.8456 17.7142C15.7429 19.1434 15.0205 20.4477 13.8635 21.293L13.573 21.5052C13.0038 21.9209 12.3306 22.1406 11.6258 22.1406C11.3704 22.1406 11.1159 22.111 10.8673 22.0523L9.72865 21.7835C7.52779 21.2638 5.52037 20.0425 4.07606 18.3448C3.43402 17.59 3.1445 17.0409 2.92209 16.4755C2.94057 16.4163 2.94596 16.3539 2.93791 16.2925C2.93554 16.274 2.72405 14.4182 5.34128 13.2268C7.13625 12.4097 7.97599 11.0124 8.26818 10.41C10.236 10.6815 10.9133 11.2355 10.9636 11.2789C11.0676 11.389 11.2109 11.4246 11.3593 11.3911C11.3947 11.3831 11.4301 11.3754 11.4657 11.3679C12.8425 11.0789 14.2627 11.8122 14.8431 13.1108C14.9399 13.3275 15.1941 13.4247 15.4107 13.3278C15.6274 13.231 15.7245 12.9769 15.6278 12.7602C15.2989 12.0248 14.7461 11.4057 14.0577 10.9943C14.058 10.9928 14.0587 10.9914 14.0593 10.9899C14.146 10.7122 14.1899 10.4229 14.1897 10.132C14.1897 10.0735 14.1873 10.0154 14.1839 9.95765H14.4821C14.7193 9.95765 14.9118 9.76528 14.9118 9.52796C14.9118 9.29065 14.7193 9.09828 14.4821 9.09828H13.9963C13.8867 8.81549 13.7331 8.55183 13.541 8.31711L13.7356 8.12259C13.9034 7.95471 13.9034 7.68263 13.7356 7.51479C13.5677 7.34713 13.2958 7.34713 13.128 7.51479L12.9031 7.73973C12.5475 7.50339 12.1434 7.34985 11.7206 7.29041C12.2899 6.83503 13.0378 6.61932 13.9493 6.65039C14.0069 6.6524 14.0644 6.64276 14.1182 6.62205C14.1721 6.60134 14.2212 6.56999 14.2626 6.52986C14.3041 6.48981 14.337 6.44183 14.3595 6.38877C14.382 6.33572 14.3936 6.27867 14.3935 6.22105V4.5842C14.3936 4.47637 14.353 4.37248 14.28 4.29315C14.2069 4.21383 14.1067 4.16488 13.9993 4.15601C13.9297 4.1503 13.125 4.08907 12.0788 4.21492C11.611 3.30974 10.9526 2.63732 10.1952 2.26405L10.4994 1.81005C10.6315 1.61282 10.5786 1.34594 10.3814 1.21398C10.1843 1.0819 9.91745 1.13462 9.78536 1.33185L9.34996 1.98192C9.16318 1.9472 8.97362 1.92961 8.78363 1.92937C8.67363 1.92948 8.5637 1.93542 8.45432 1.94716V1.42969C8.45432 1.19237 8.26199 1 8.02463 1C7.78727 1 7.59495 1.19237 7.59495 1.42969V2.16454C7.19181 2.32868 6.80991 2.57661 6.46117 2.90489C6.20014 3.15046 5.96531 3.43444 5.75941 3.74948C5.59827 3.4316 5.26827 3.21289 4.88809 3.21289H3.72174C3.18326 3.21289 2.74519 3.65096 2.74519 4.18944V8.58179C2.52902 8.7498 2.32053 8.94668 2.12116 9.17412C1.1792 10.2485 0.991723 11.6564 1.00027 12.6482C1.00999 13.7701 1.28125 14.9138 1.7099 15.6471C1.7747 15.8207 1.83297 15.9881 1.88951 16.1503C2.17839 16.9785 2.45111 17.7608 3.42143 18.9015C4.98361 20.7379 7.15336 22.0584 9.53125 22.6198L10.6697 22.8887C10.9831 22.9626 11.3039 23 11.6258 23C12.5141 23 13.3627 22.7231 14.0797 22.1992L14.3703 21.9871C15.7319 20.9924 16.582 19.4576 16.7028 17.7758C16.7518 17.093 16.7225 16.4069 16.6157 15.7307ZM11.3722 10.5104C11.1989 10.3898 10.9037 10.2182 10.4423 10.0459C10.4778 9.63234 10.5979 8.85305 11.0014 8.14639C11.1065 8.12976 11.2128 8.12134 11.3193 8.12121C12.4281 8.12121 13.3302 9.02343 13.3302 10.1322C13.3302 10.3029 13.3086 10.4714 13.2666 10.6348C12.6567 10.437 12.0035 10.3925 11.3722 10.5104ZM13.5342 4.99846V5.79338C12.4697 5.83953 11.5916 6.19501 10.9191 6.85264C9.97481 7.77664 9.68997 9.06016 9.60455 9.78947C9.19351 9.68691 8.70539 9.59439 8.12784 9.52543C8.00086 9.40766 7.87073 9.29332 7.7376 9.18254C7.73825 9.17214 7.73911 9.16191 7.73911 9.1513C7.73911 7.99716 8.11208 7.068 8.8474 6.3897C10.2459 5.09982 12.6036 4.98935 13.5342 4.99846ZM8.78363 2.78875C8.99899 2.78875 9.21117 2.82046 9.41759 2.8807L9.41828 2.88087C10.1031 3.08098 10.7235 3.60077 11.1791 4.3645C10.1803 4.57986 9.09954 4.98922 8.26736 5.75561C7.47493 6.48522 7.01908 7.43324 6.90727 8.57909C6.55566 8.36093 6.20774 8.19323 5.86464 8.07691V5.59229C5.87203 5.57501 5.8789 5.55739 5.88427 5.53892C6.35809 3.89403 7.52327 2.78875 8.78363 2.78875ZM3.60461 4.18944C3.60463 4.15838 3.61698 4.12859 3.63894 4.10663C3.6609 4.08466 3.69068 4.0723 3.72174 4.07227H4.88809C4.91916 4.07229 4.94895 4.08464 4.97092 4.10661C4.99289 4.12858 5.00524 4.15837 5.00526 4.18944V7.89197C4.86269 7.87933 4.71943 7.87613 4.57643 7.88239C4.24342 7.89687 3.91507 7.96612 3.60457 8.08735L3.60461 4.18944ZM2.76732 9.74079C3.32274 9.10717 3.94424 8.77081 4.61463 8.74091C5.4695 8.70266 6.45305 9.16724 7.46754 10.0864C7.20518 10.6012 6.47522 11.7664 4.98524 12.4446C3.34083 13.1931 2.63893 14.2085 2.33948 14.9284C2.33445 14.9407 2.32973 14.9526 2.3247 14.9647C1.78157 13.7614 1.48956 11.1982 2.76732 9.74079Z" stroke="var(--stroke-0, #888888)" stroke-width="0.4" mask="url(#path-2-outside-1_514_1509)"/>
</g>
<path id="Vector_3" d="M5.84335 18.1981C6.0355 18.0436 6.31613 18.0403 6.51327 18.2039C7.56232 19.074 8.81925 19.7 10.1471 20.0135C10.4314 20.0809 10.6077 20.3657 10.5406 20.6502C10.4831 20.8941 10.265 21.0584 10.025 21.0584C9.98473 21.0584 9.94367 21.0534 9.90292 21.0438C8.4169 20.6928 7.01061 19.9926 5.83651 19.0184C5.61168 18.8317 5.5808 18.4983 5.76717 18.2733L5.84335 18.1981ZM4.70956 17.1082C4.90327 16.9403 5.18504 16.9384 5.38046 17.0887L5.45858 17.1629L5.46737 17.1737H5.46835C5.65561 17.3984 5.62468 17.7325 5.39999 17.9198C5.30494 17.9992 5.18501 18.042 5.06112 18.0418C4.98353 18.0419 4.90679 18.0259 4.83651 17.993C4.7661 17.9601 4.70361 17.9121 4.65389 17.8524V17.8514C4.46426 17.6302 4.48977 17.299 4.70956 17.1082Z" fill="var(--fill-0, #888888)" stroke="var(--stroke-0, #888888)" stroke-width="0.2"/>
</g>
</svg>
