<svg width="15" height="16" viewBox="0 0 15 16" fill="none" xmlns="http://www.w3.org/2000/svg">
<path d="M11.4627 5.17413H11.1443V4.0597C11.2239 1.83085 9.39303 0 7.16418 0C4.93532 0 3.10448 1.83085 3.10448 4.0597V5.25373H2.86567C1.27363 5.25373 0 6.52736 0 8.1194V13.1343C0 14.7264 1.27363 16 2.86567 16H11.5423C13.1343 16 14.408 14.7264 14.408 13.1343V8.1194C14.3284 6.44776 13.0547 5.17413 11.4627 5.17413ZM4.69652 4.0597C4.69652 2.70647 5.81094 1.59204 7.16418 1.59204C8.51741 1.59204 9.63184 2.70647 9.63184 4.0597V5.25373H4.69652V4.0597ZM12.8955 13.0547C12.8955 13.7711 12.1791 14.3284 11.4627 14.3284H2.86567C2.14925 14.3284 1.59204 13.7711 1.59204 13.0547V8.0398C1.59204 7.32338 2.14925 6.76617 2.86567 6.76617H3.9801H10.5075H11.6219C12.3383 6.76617 12.8955 7.32338 12.8955 8.0398V13.0547Z" fill="#0061DF"/>
<path d="M7.16418 10.4281C6.68657 10.4281 6.36816 10.7465 6.36816 11.2241V12.4978C6.36816 12.9754 6.68657 13.2938 7.16418 13.2938C7.6418 13.2938 7.9602 12.9754 7.9602 12.4978V11.2241C7.9602 10.7465 7.6418 10.4281 7.16418 10.4281Z" fill="#0061DF"/>
</svg>
