<svg preserveAspectRatio="none" width="100%" height="100%" overflow="visible" style="display: block;" viewBox="0 0 18 20" fill="none" xmlns="http://www.w3.org/2000/svg">
<g id="logo">
<path id="Vector" fill-rule="evenodd" clip-rule="evenodd" d="M2.40077 0.1886C2.14078 0.309456 1.73693 0.611989 1.50325 0.86079C1.26958 1.10975 0.936793 1.63351 0.763625 2.02506C0.590615 2.41647 0.378529 3.19643 0.292496 3.75832C0.206306 4.32005 0.0886014 5.70162 0.0309313 6.82823C-0.030363 8.02292 0.00162708 9.75901 0.107513 10.9939C0.207254 12.1583 0.423594 13.8955 0.588096 14.8543C0.752755 15.813 1.03575 17.0762 1.21711 17.6611C1.44543 18.3974 1.73126 18.9186 2.14629 19.355C2.64027 19.8743 2.85125 19.9852 3.34397 19.9852C3.67282 19.9852 4.25141 19.8307 4.62973 19.6417C5.00806 19.4528 5.79653 18.7968 6.38206 18.1842C6.96742 17.5714 7.62984 16.8249 7.85391 16.5252L8.26138 15.98L8.78908 16.604C9.07932 16.947 9.69478 17.5899 10.1569 18.0323C10.6189 18.4749 11.342 19.0247 11.7638 19.2543C12.1855 19.4837 12.8394 19.7112 13.2169 19.7597C13.7468 19.8278 14.065 19.7648 14.6123 19.4832C15.1993 19.1813 15.4087 18.9423 15.8283 18.0944C16.2021 17.3393 16.4189 16.5527 16.6532 15.1006C16.8279 14.0173 17.0428 12.351 17.1309 11.3977C17.2189 10.4444 17.2907 8.95541 17.2907 8.08878C17.2907 7.22216 17.2192 5.75755 17.1316 4.83388C17.0439 3.91037 16.8654 2.85167 16.7346 2.48122C16.6039 2.11078 16.3171 1.57174 16.097 1.28323C15.877 0.994879 15.4035 0.609151 15.0449 0.426213C14.5187 0.157874 14.2041 0.108555 13.4191 0.171583C12.7355 0.226417 12.1648 0.399428 11.5024 0.752382C10.9837 1.02892 10.0882 1.64611 9.51263 2.12386L8.46622 2.99238L7.35252 1.97606C6.74005 1.41701 5.84585 0.760733 5.36542 0.517762C4.8434 0.253519 4.16617 0.0541943 3.68259 0.0222078C3.21004 -0.00899079 2.67683 0.0601819 2.40077 0.1886ZM2.87773 2.54536C2.746 2.74626 2.56826 3.2604 2.48286 3.68773C2.39746 4.11506 2.28054 5.5992 2.22334 6.9858C2.15638 8.60829 2.18836 10.181 2.313 11.3977C2.41967 12.4377 2.63854 14.0231 2.79942 14.9208C2.97258 15.8862 3.20216 16.6749 3.36178 16.851C3.51005 17.0149 3.76531 17.149 3.92887 17.149C4.09242 17.149 4.58121 16.817 5.01515 16.4113C5.44894 16.0054 6.05478 15.3316 6.36141 14.9137L6.91905 14.1541L6.29603 13.1675C5.95331 12.625 5.45082 11.7409 5.17918 11.203C4.90769 10.665 4.68551 10.0456 4.68551 9.82661C4.68551 9.60743 4.82733 9.28631 5.00065 9.11298C5.17398 8.93966 5.46233 8.79784 5.64133 8.79784C5.82033 8.79784 6.09812 8.86812 6.25868 8.95415C6.41924 9.04003 6.91023 9.79321 7.34953 10.6278C7.78899 11.4623 8.55698 12.7183 9.05632 13.4186C9.55549 14.1189 10.442 15.1991 11.0261 15.8189C11.6102 16.4388 12.4125 17.1157 12.8091 17.3233L13.53 17.7005L13.8108 17.3581C13.9654 17.1698 14.2076 16.4253 14.3494 15.7036C14.491 14.9819 14.7231 13.4343 14.8651 12.2644C15.0597 10.6595 15.1021 9.38258 15.0376 7.06459C14.9907 5.37466 14.8733 3.72933 14.7768 3.40821C14.6804 3.08724 14.425 2.68575 14.2093 2.51605C13.8759 2.25385 13.7289 2.23179 13.2298 2.36935C12.907 2.45838 12.2882 2.7669 11.8549 3.05509C11.4216 3.34328 10.8063 3.84924 10.4875 4.1795L9.90813 4.77984L10.8184 6.22317C11.319 7.017 11.9261 8.13149 12.1677 8.69952C12.5588 9.61972 12.5849 9.78486 12.4078 10.2127C12.2915 10.4933 12.0536 10.7317 11.8349 10.7865C11.6293 10.8382 11.2892 10.8373 11.0792 10.7846C10.7823 10.7101 10.525 10.3297 9.92184 9.07359C9.49514 8.18537 8.69737 6.85581 8.14872 6.11917C7.60022 5.38254 6.76022 4.39742 6.28216 3.92991C5.80409 3.46256 5.09346 2.87751 4.70316 2.62997C4.31286 2.38243 3.79635 2.17995 3.55527 2.17995C3.27086 2.17995 3.03309 2.30822 2.87773 2.54536Z" fill="var(--fill-0, white)"/>
</g>
</svg>
