<svg width="23" height="18" viewBox="0 0 23 18" fill="none" xmlns="http://www.w3.org/2000/svg">
<path fill-rule="evenodd" clip-rule="evenodd" d="M16.9329 0C18.408 0 19.827 0.53 20.8709 1.481C21.9159 2.43 22.5 3.71 22.5 5.05V12.95C22.5 15.74 20.003 18 16.9329 18H6.066C2.9959 18 0.5 15.74 0.5 12.95V5.05C0.5 2.26 2.9849 0 6.066 0H16.9329ZM18.683 6.53999L18.771 6.45999C19.0339 6.16999 19.0339 5.74999 18.7589 5.45999C18.606 5.31099 18.3959 5.21999 18.177 5.19999C17.946 5.18899 17.726 5.25999 17.5599 5.39999L12.6 8.99999C11.962 9.48099 11.0479 9.48099 10.4 8.99999L5.44999 5.39999C5.10789 5.16999 4.63489 5.19999 4.34999 5.46999C4.05299 5.73999 4.01999 6.16999 4.27189 6.46999L4.41599 6.59999L9.42099 10.15C10.037 10.59 10.7839 10.83 11.566 10.83C12.3459 10.83 13.106 10.59 13.7209 10.15L18.683 6.53999Z" fill="#0061DF"/>
</svg>
