<svg preserveAspectRatio="none" width="100%" height="100%" overflow="visible" style="display: block;" viewBox="0 0 10 9" fill="none" xmlns="http://www.w3.org/2000/svg">
<g id="Star">
<path id="Star_2" d="M7.54002 5.59857C7.41734 5.71746 7.36098 5.8894 7.38892 6.05802L7.81 8.38839C7.84552 8.5859 7.76216 8.78578 7.59685 8.89993C7.43487 9.01835 7.21935 9.03256 7.04268 8.93782L4.94487 7.84369C4.87193 7.80485 4.79094 7.78401 4.70805 7.78164H4.57969C4.53516 7.78827 4.49159 7.80248 4.4518 7.82427L2.35352 8.92362C2.24979 8.97572 2.13233 8.99419 2.01723 8.97572C1.73683 8.92267 1.54973 8.65553 1.59568 8.3737L2.01723 6.04333C2.04517 5.87329 1.98881 5.70041 1.86613 5.57963L0.155773 3.92184C0.0127298 3.78306 -0.0370037 3.57466 0.0283603 3.38662C0.0918298 3.19905 0.253819 3.06216 0.449437 3.03138L2.80349 2.68987C2.98253 2.6714 3.13978 2.56246 3.22031 2.40142L4.2576 0.274719C4.28223 0.227353 4.31397 0.183777 4.35233 0.146832L4.39496 0.113677C4.41722 0.0890467 4.4428 0.0686796 4.47122 0.0521018L4.52285 0.0331557L4.60337 0H4.80278C4.98087 0.0184725 5.13765 0.125044 5.21959 0.284192L6.27063 2.40142C6.34641 2.5563 6.49372 2.66382 6.66376 2.68987L9.01781 3.03138C9.21675 3.0598 9.383 3.19716 9.44884 3.38662C9.51088 3.57655 9.45736 3.78496 9.31148 3.92184L7.54002 5.59857Z" fill="var(--fill-0, #FEB34A)"/>
</g>
</svg>
