<svg width="32" height="32" viewBox="0 0 32 32" fill="none" xmlns="http://www.w3.org/2000/svg">
<path d="M4.39398 8.24414C5.99067 4.51998 10.3045 2.79512 14.0287 4.3916L14.2641 4.48535C14.8194 4.68952 15.4075 4.79395 16.0004 4.79395C16.6778 4.79389 17.348 4.65704 17.9711 4.3916L18.3168 4.25391C19.1308 3.95281 19.9929 3.79875 20.8627 3.79883C24.9147 3.79916 28.1998 7.08372 28.1996 11.1357C28.2008 14.1172 27.3624 17.0394 25.7817 19.5674L25.6567 19.7666L23.5063 29.2344C23.3952 29.7225 23.1409 30.1662 22.7768 30.5098C22.4126 30.8534 21.9543 31.0807 21.4604 31.1631C20.0859 31.3922 18.7854 30.4644 18.5561 29.0898L17.0571 20.0938C17.0202 19.8741 16.9157 19.6712 16.7582 19.5137C16.6007 19.3561 16.397 19.2517 16.1772 19.2148C15.5941 19.1173 15.0426 19.5107 14.9448 20.0938L13.4448 29.0898C13.3627 29.584 13.1351 30.0427 12.7914 30.4072C12.4477 30.7718 12.0027 31.0258 11.5141 31.1367C10.1555 31.4451 8.80405 30.5939 8.49554 29.2354L6.3432 19.7676L6.21918 19.5684C4.63793 17.0402 3.80022 14.1177 3.80121 11.1357C3.80119 10.1417 4.00229 9.15778 4.39398 8.24414ZM26.3198 8.79785C25.0686 5.87786 21.7534 4.47602 18.8071 5.56543L18.5229 5.67871C17.7255 6.01894 16.8674 6.19428 16.0004 6.19434C15.2416 6.19434 14.4892 6.06041 13.7787 5.79883L13.477 5.67871C12.7382 5.36137 11.9422 5.19837 11.1381 5.19922C7.86071 5.20297 5.20461 7.85839 5.20062 11.1357C5.19987 13.8555 5.96378 16.5211 7.4057 18.8271L7.59418 19.127V19.1279C7.61457 19.1608 7.63308 19.1948 7.64789 19.2305L7.68304 19.3408L7.68402 19.3428L9.86078 28.9238C9.9101 29.1413 10.0228 29.3392 10.185 29.4922C10.3473 29.6453 10.5518 29.7467 10.7719 29.7832C11.3836 29.8846 11.9624 29.4711 12.0639 28.8594L13.5629 19.8623C13.6477 19.3547 13.8895 18.8863 14.2534 18.5225C14.6172 18.1586 15.0856 17.9178 15.5932 17.833C16.9389 17.6083 18.2122 18.5167 18.437 19.8623L19.937 28.8584C19.9736 29.0781 20.0742 29.2823 20.227 29.4443C20.3799 29.6064 20.5781 29.7191 20.7953 29.7686C21.4002 29.9061 22.0023 29.5276 22.1401 28.9229L24.3168 19.3418V19.3398C24.3347 19.2646 24.365 19.1927 24.4057 19.127V19.126L24.5942 18.8262C26.0359 16.5203 26.7999 13.8552 26.7993 11.1357C26.7992 10.332 26.6363 9.5366 26.3198 8.79785ZM3.50043 0.799805C3.66583 0.799805 3.82624 0.859056 3.95258 0.96582C4.07869 1.07247 4.16321 1.21998 4.19086 1.38281V1.38379C4.25028 1.74008 4.41986 2.06875 4.67523 2.32422C4.93063 2.57969 5.25936 2.74906 5.61566 2.80859C5.75895 2.83283 5.89181 2.90115 5.99457 3.00391C6.0972 3.10657 6.16561 3.23872 6.18988 3.38184C6.2052 3.47245 6.20258 3.56569 6.18207 3.65527C6.16155 3.74486 6.123 3.82938 6.06976 3.9043C6.01657 3.97915 5.94929 4.04297 5.87152 4.0918C5.79365 4.14064 5.7063 4.17413 5.61566 4.18945C5.25937 4.24899 4.93062 4.41836 4.67523 4.67383C4.45169 4.89748 4.29383 5.17712 4.2182 5.48242L4.19086 5.61426C4.16329 5.77729 4.07884 5.92547 3.95258 6.03223C3.82624 6.13899 3.66583 6.19824 3.50043 6.19824C3.33517 6.19814 3.17549 6.1389 3.04926 6.03223C2.95448 5.95212 2.88352 5.8489 2.84222 5.7334L2.81097 5.61426C2.75157 5.25801 2.58191 4.92929 2.3266 4.67383C2.07124 4.41839 1.74241 4.24901 1.38617 4.18945H1.38519C1.22245 4.16184 1.07485 4.07715 0.968201 3.95117C0.86145 3.82485 0.8022 3.66441 0.802185 3.49902C0.802185 3.33362 0.861436 3.17321 0.968201 3.04688C1.07485 2.92086 1.22243 2.83621 1.38519 2.80859H1.38617C1.74242 2.74905 2.07124 2.57966 2.3266 2.32422C2.58194 2.06876 2.75157 1.74006 2.81097 1.38379V1.38281C2.83863 1.21996 2.9231 1.07247 3.04926 0.96582C3.17549 0.859145 3.33517 0.799902 3.50043 0.799805ZM3.50043 3.11328C3.38313 3.25301 3.25349 3.38178 3.11371 3.49902C3.2533 3.61611 3.38325 3.74428 3.50043 3.88379C3.61756 3.74428 3.74761 3.61612 3.88715 3.49902C3.74742 3.38178 3.61768 3.253 3.50043 3.11328Z" fill="#AAAAAA" stroke="#AAAAAA" stroke-width="0.4"/>
<path d="M28.4997 21.7983C28.6648 21.7985 28.8247 21.8569 28.9509 21.9634C29.0771 22.0701 29.1615 22.2184 29.1891 22.3813V22.3823C29.2486 22.7386 29.4182 23.0673 29.6735 23.3228C29.9289 23.5782 30.2577 23.7476 30.614 23.8071C30.7572 23.8314 30.8901 23.8997 30.9929 24.0024C31.0955 24.1051 31.1639 24.2372 31.1882 24.3804C31.2035 24.471 31.2009 24.5642 31.1804 24.6538C31.1598 24.7434 31.1213 24.8279 31.0681 24.9028C31.0148 24.9777 30.9476 25.0415 30.8698 25.0903C30.7919 25.1392 30.7046 25.1727 30.614 25.188C30.2577 25.2475 29.9289 25.4169 29.6735 25.6724C29.4502 25.8958 29.2922 26.175 29.2165 26.48L29.1891 26.6128C29.1616 26.7759 29.0772 26.924 28.9509 27.0308C28.8247 27.1374 28.6649 27.1967 28.4997 27.1968C28.3343 27.1968 28.1739 27.1375 28.0475 27.0308C27.9528 26.9507 27.8818 26.8474 27.8405 26.7319L27.8093 26.6128C27.7499 26.2566 27.5802 25.9278 27.3249 25.6724C27.0695 25.4169 26.7407 25.2475 26.3845 25.188C26.2214 25.1604 26.0733 25.0751 25.9665 24.9487C25.8598 24.8225 25.8005 24.6629 25.8005 24.4976C25.8005 24.3322 25.8597 24.1717 25.9665 24.0454C26.0732 23.9192 26.2215 23.8347 26.3845 23.8071L26.5163 23.7798C26.8216 23.704 27.1013 23.5464 27.3249 23.3228C27.5802 23.0673 27.7498 22.7386 27.8093 22.3823V22.3813C27.8369 22.2184 27.9213 22.0701 28.0475 21.9634C28.1738 21.8568 28.3344 21.7983 28.4997 21.7983ZM28.4987 24.1118C28.3815 24.2514 28.2516 24.3795 28.112 24.4966C28.2518 24.6138 28.3814 24.7426 28.4987 24.8823C28.616 24.7426 28.7457 24.6138 28.8854 24.4966C28.7459 24.3794 28.6158 24.2514 28.4987 24.1118ZM9.59637 6.96826L9.69598 7.4585L9.79657 7.94775L9.83563 8.14111L9.64325 8.18311C9.61556 8.18913 9.12604 8.29916 8.64716 8.70264C8.17602 9.09975 7.70087 9.7928 7.70087 10.9985V11.1987H6.30048V10.9985C6.30048 8.18275 8.29244 7.02629 9.36102 6.81201L9.55634 6.77295L9.59637 6.96826ZM11.6999 6.79834V8.19873H10.3005V6.79834H11.6999Z" fill="#AAAAAA" stroke="#AAAAAA" stroke-width="0.4"/>
</svg>
